<svg id="Layer_1" data-name="Layer 1" xmlns="http://www.w3.org/2000/svg" xmlns:xlink="http://www.w3.org/1999/xlink" viewBox="0 0 1024 358"><defs><clipPath id="clip-path"><rect x="1" y="-1.49" width="1023" height="355.31" fill="none"/></clipPath><linearGradient id="linear-gradient" x1="717.3" y1="-178.57" x2="307.7" y2="530.88" gradientUnits="userSpaceOnUse"><stop offset="0.15" stop-color="#e55626"/><stop offset="0.99" stop-color="#f69437"/></linearGradient><clipPath id="clip-path-2"><rect x="1.12" y="-1.5" width="388.12" height="277.46" fill="none"/></clipPath></defs><title>form images</title><g clip-path="url(#clip-path)"><rect x="1" y="-1.49" width="1023" height="355.31" fill="url(#linear-gradient)"/><polygon points="807.62 103.53 744.4 124.09 745.47 187.51 809.34 206.16 847.75 154.25 807.62 103.53" fill="#fff" opacity="0.03"/><polygon points="292.31 196.4 250.85 209.89 251.54 251.49 293.44 263.71 318.63 229.67 292.31 196.4" fill="#fff" opacity="0.03"/><polygon points="787.15 212.71 734.6 229.81 735.48 282.54 788.58 298.04 820.52 254.88 787.15 212.71" fill="#fff" opacity="0.03"/><polygon points="1004.73 165.34 952.17 182.43 953.05 235.16 1006.16 250.66 1038.09 207.51 1004.73 165.34" fill="#fff" opacity="0.03"/><polygon points="443.83 64.91 391.27 82 392.15 134.73 445.25 150.23 477.19 107.08 443.83 64.91" fill="#f15a29" opacity="0.17"/><polygon points="100.5 247.77 47.94 264.86 48.82 317.6 101.93 333.09 133.86 289.94 100.5 247.77" fill="#f15a29" opacity="0.17"/><polygon points="723.28 248.72 660.94 268.99 661.99 331.54 724.98 349.93 762.86 298.74 723.28 248.72" fill="#f15a29" opacity="0.17"/><polygon points="187.3 44.59 183.7 73.79 211.84 86.06 232.82 64.44 217.66 38.82 187.3 44.59" fill="#fff" opacity="0.03"/><polygon points="549.59 107.13 545.99 136.32 574.13 148.59 595.11 126.98 579.95 101.35 549.59 107.13" fill="#fff" opacity="0.03"/><polygon points="818.27 29.88 812.69 75.11 856.29 94.13 888.81 60.64 865.31 20.93 818.27 29.88" fill="#fff" opacity="0.03"/><polygon points="629.52 296.98 626.48 321.64 650.24 332 667.97 313.75 655.16 292.11 629.52 296.98" fill="#fff" opacity="0.03"/><polygon points="464.84 310.25 461.8 334.91 485.56 345.27 503.29 327.02 490.48 305.37 464.84 310.25" fill="#fff" opacity="0.03"/><polygon points="611.05 41.64 608.01 66.3 631.78 76.66 649.5 58.41 636.69 36.76 611.05 41.64" fill="#f69437" opacity="0.21"/><polygon points="239.38 106.77 233.72 152.72 278.01 172.03 311.04 138.01 287.17 97.68 239.38 106.77" fill="#f69437" opacity="0.21"/><polygon points="979.33 110.8 976.29 135.46 1000.06 145.82 1017.78 127.57 1004.97 105.93 979.33 110.8" fill="#f69437" opacity="0.21"/><polygon points="835.99 185.43 830.57 229.48 873.02 248 904.69 215.39 881.8 176.72 835.99 185.43" fill="#fff" opacity="0.03"/><polygon points="617.42 93.53 612 137.58 654.45 156.09 686.12 123.48 663.23 84.81 617.42 93.53" fill="#fff" opacity="0.03"/><polygon points="642.37 175.01 636.95 219.06 679.4 237.57 711.07 204.96 688.18 166.3 642.37 175.01" fill="#fff" opacity="0.03"/><polygon points="951.77 22.46 946.34 66.52 988.8 85.03 1020.46 52.42 997.58 13.75 951.77 22.46" fill="#fff" opacity="0.03"/><polygon points="859.07 123.2 852.17 179.18 906.12 202.7 946.36 161.26 917.28 112.13 859.07 123.2" fill="#f69437" opacity="0.21"/><polygon points="176.41 258.69 169.51 314.67 223.46 338.19 263.69 296.75 234.61 247.62 176.41 258.69" fill="#f15a29" opacity="0.17"/><polygon points="354.06 194.26 347.16 250.24 401.11 273.76 441.34 232.33 412.26 183.19 354.06 194.26" fill="#f15a29" opacity="0.17"/><polygon points="898.99 285.22 892.1 341.2 946.04 364.72 986.28 323.28 957.2 274.15 898.99 285.22" fill="#f69437" opacity="0.21"/><polygon points="711.36 21.82 704.46 77.8 758.41 101.32 798.64 59.88 769.57 10.75 711.36 21.82" fill="#f69437" opacity="0.21"/><polygon points="953.05 235.55 946.37 289.74 998.6 312.51 1037.55 272.39 1009.4 224.83 953.05 235.55" fill="#f69437" opacity="0.21"/><polygon points="923.11 4.36 916.43 58.55 968.66 81.32 1007.61 41.21 979.46 -6.35 923.11 4.36" fill="#f69437" opacity="0.21"/><polygon points="770.24 293.75 765.49 332.34 802.68 348.56 830.42 319.99 810.38 286.12 770.24 293.75" fill="#f15a29" opacity="0.17"/><polygon points="749.28 189.53 744.53 228.12 781.72 244.34 809.47 215.77 789.42 181.89 749.28 189.53" fill="#f15a29" opacity="0.17"/><polygon points="574.13 207.06 569.37 245.65 606.57 261.87 634.31 233.3 614.26 199.42 574.13 207.06" fill="#fff" opacity="0.03"/><polygon points="153.95 187.16 149.19 225.75 186.39 241.97 214.13 213.4 194.08 179.53 153.95 187.16" fill="#fff" opacity="0.03"/><polygon points="450.96 201.23 443.49 261.87 501.93 287.35 545.51 242.46 514.01 189.24 450.96 201.23" fill="#fff" opacity="0.03"/><polygon points="41.76 107.43 34.29 168.06 92.72 193.55 136.31 148.66 104.81 95.44 41.76 107.43" fill="#fff" opacity="0.03"/></g><path d="M487.92,80a11.21,11.21,0,0,0-3.07-.46,6.63,6.63,0,0,0-3.69.91,2.8,2.8,0,0,0-1.39,2.47,3.24,3.24,0,0,0,.77,2.24,5.38,5.38,0,0,0,1.88,1.36,29.2,29.2,0,0,0,3.07,1.1,26.53,26.53,0,0,1,3.66,1.33,6.48,6.48,0,0,1,2.37,1.9,5.74,5.74,0,0,1,0,6.45,6.42,6.42,0,0,1-2.82,2.13,11,11,0,0,1-4.19.75,11.73,11.73,0,0,1-4.56-.93,11.91,11.91,0,0,1-3.81-2.46l1-1.82a10.94,10.94,0,0,0,3.48,2.3,9.92,9.92,0,0,0,3.9.83,7.06,7.06,0,0,0,4.06-1,3.25,3.25,0,0,0,1.5-2.8,3.35,3.35,0,0,0-.77-2.3,5.08,5.08,0,0,0-1.88-1.38c-.75-.32-1.79-.69-3.13-1.11a33.35,33.35,0,0,1-3.65-1.33,6.22,6.22,0,0,1-2.33-1.85,5.1,5.1,0,0,1-1-3.22,4.8,4.8,0,0,1,1-3,6,6,0,0,1,2.69-2,10.69,10.69,0,0,1,4-.69,13,13,0,0,1,3.66.54,12.48,12.48,0,0,1,3.24,1.44l-1,1.89A11.28,11.28,0,0,0,487.92,80Z" fill="#fff"/><path d="M510,85.65a9.49,9.49,0,0,1,1.89,6.66H498a6.41,6.41,0,0,0,2,4.33,6.1,6.1,0,0,0,4.34,1.65,7.46,7.46,0,0,0,3-.58,6.66,6.66,0,0,0,2.37-1.63l1.21,1.22a8.38,8.38,0,0,1-2.92,2,9.58,9.58,0,0,1-3.76.71A8.51,8.51,0,0,1,499.84,99a7.71,7.71,0,0,1-3-3,9.46,9.46,0,0,1,0-8.74,7.72,7.72,0,0,1,3-3,8.49,8.49,0,0,1,4.25-1.07A7.26,7.26,0,0,1,510,85.65Zm0,5a6.06,6.06,0,0,0-1.74-4.17,5.66,5.66,0,0,0-4.14-1.55,6,6,0,0,0-4.22,1.57A6.24,6.24,0,0,0,498,90.65Z" fill="#fff"/><path d="M542.41,84.9a6.66,6.66,0,0,1,1.66,4.79V100h-2.18V90.2a5.1,5.1,0,0,0-1.29-3.72A4.76,4.76,0,0,0,537,85.15,5.43,5.43,0,0,0,532.83,87a7.07,7.07,0,0,0-1.51,4.73V100h-2.18V90.2a5.1,5.1,0,0,0-1.29-3.72,4.76,4.76,0,0,0-3.56-1.33A5.45,5.45,0,0,0,520.07,87a7,7,0,0,0-1.54,4.73V100h-2.14V83.24h2.14v3.93a6.14,6.14,0,0,1,2.48-3,7.84,7.84,0,0,1,4-1,6.5,6.5,0,0,1,4,1.18,5.6,5.6,0,0,1,2.09,3.33,6.31,6.31,0,0,1,2.48-3.36,7.73,7.73,0,0,1,4.2-1.15A6.15,6.15,0,0,1,542.41,84.9Z" fill="#fff"/><path d="M551.93,77.34a1.47,1.47,0,0,1,.42,1.07,1.51,1.51,0,0,1-.44,1.09,1.39,1.39,0,0,1-1,.44,1.47,1.47,0,0,1-1.08-.44,1.54,1.54,0,0,1-.43-1.09,1.48,1.48,0,0,1,.43-1.07,1.46,1.46,0,0,1,1.08-.43A1.4,1.4,0,0,1,551.93,77.34Zm-2.14,5.9h2.14V100h-2.14Z" fill="#fff"/><path d="M571.63,84.91a6.54,6.54,0,0,1,1.71,4.78V100h-2.17V90.2a5.08,5.08,0,0,0-1.31-3.7,4.86,4.86,0,0,0-3.65-1.35,5.66,5.66,0,0,0-4.13,1.6A6.53,6.53,0,0,0,560.3,91v9h-2.14V83.24h2.14v3.89a6.28,6.28,0,0,1,2.54-2.94,8.11,8.11,0,0,1,4.08-1A6.3,6.3,0,0,1,571.63,84.91Z" fill="#fff"/><path d="M589.57,100l0-2.81A6.05,6.05,0,0,1,587,99.36a8.84,8.84,0,0,1-3.67.72,6.49,6.49,0,0,1-3-.66,4.75,4.75,0,0,1-2.7-4.39,4,4,0,0,1,1.68-3.42,7.61,7.61,0,0,1,4.62-1.25h5.62V89.08A3.93,3.93,0,0,0,588.33,86a4.91,4.91,0,0,0-3.45-1.09,9.06,9.06,0,0,0-5.4,2l-1-1.47a13.93,13.93,0,0,1,3.23-1.74,10.26,10.26,0,0,1,3.51-.56,6.74,6.74,0,0,1,4.7,1.52,5.48,5.48,0,0,1,1.69,4.2l0,11.09Zm-2.12-2.73a5.09,5.09,0,0,0,2.09-2.93V92h-5.4a6.23,6.23,0,0,0-3.35.74,2.43,2.43,0,0,0-1.15,2.2,3,3,0,0,0,1.1,2.42,4.47,4.47,0,0,0,2.92.91A6.67,6.67,0,0,0,587.45,97.25Z" fill="#fff"/><path d="M601.93,84.21a6.85,6.85,0,0,1,3.72-1v2a5.76,5.76,0,0,0-4.27,1.55,6.53,6.53,0,0,0-1.83,4.3v9H597.4V83.24h2.15v3.89A6.37,6.37,0,0,1,601.93,84.21Z" fill="#fff"/><path d="M629,84.24a7.77,7.77,0,0,1,3,3A8.72,8.72,0,0,1,633,91.58,8.85,8.85,0,0,1,632,96a7.66,7.66,0,0,1-3,3,9.38,9.38,0,0,1-8.7,0,7.66,7.66,0,0,1-3-3,8.74,8.74,0,0,1-1.09-4.39,8.62,8.62,0,0,1,1.09-4.35,7.77,7.77,0,0,1,3-3,9.38,9.38,0,0,1,8.7,0Zm-7.61,1.62a5.78,5.78,0,0,0-2.24,2.33,7.77,7.77,0,0,0,0,6.87,5.78,5.78,0,0,0,2.24,2.33,6.82,6.82,0,0,0,6.52,0,5.78,5.78,0,0,0,2.24-2.33,7.77,7.77,0,0,0,0-6.87,5.78,5.78,0,0,0-2.24-2.33,6.82,6.82,0,0,0-6.52,0Z" fill="#fff"/><path d="M651,84.91a6.54,6.54,0,0,1,1.71,4.78V100h-2.17V90.2a5.08,5.08,0,0,0-1.31-3.7,4.84,4.84,0,0,0-3.64-1.35,5.67,5.67,0,0,0-4.14,1.6A6.53,6.53,0,0,0,639.71,91v9h-2.14V83.24h2.14v3.89a6.3,6.3,0,0,1,2.55-2.94,8,8,0,0,1,4.07-1A6.3,6.3,0,0,1,651,84.91Z" fill="#fff"/><path d="M494,117.17a11.21,11.21,0,0,1,4.29,4.13,11,11,0,0,1,1.57,5.81,11.19,11.19,0,0,1-1.57,5.84,11.45,11.45,0,0,1-4.29,4.17,12.77,12.77,0,0,1-12.12,0,11.45,11.45,0,0,1-4.29-4.17,11.19,11.19,0,0,1-1.57-5.84,11,11,0,0,1,1.57-5.81,11.21,11.21,0,0,1,4.29-4.13,13,13,0,0,1,12.12,0Zm-9.8,3.34a7.51,7.51,0,0,0-3.8,6.6,7.39,7.39,0,0,0,1,3.87,7.72,7.72,0,0,0,2.78,2.78,7.34,7.34,0,0,0,3.78,1,7.2,7.2,0,0,0,3.74-1,7.82,7.82,0,0,0,2.74-10.5,7.53,7.53,0,0,0-2.74-2.75,7.28,7.28,0,0,0-3.74-1A7.52,7.52,0,0,0,484.18,120.51Z" fill="#fff"/><path d="M517.75,122.21a7.38,7.38,0,0,1,2.85,3.08,10,10,0,0,1,1,4.57,9.82,9.82,0,0,1-1,4.51,7.29,7.29,0,0,1-2.81,3,8,8,0,0,1-4.22,1.09,7.36,7.36,0,0,1-3.39-.75,6.27,6.27,0,0,1-2.42-2.19v9h-4.16v-23.3h4.16v2.82a6.1,6.1,0,0,1,2.38-2.19,7.25,7.25,0,0,1,3.37-.75A8,8,0,0,1,517.75,122.21ZM516,133.46a5.26,5.26,0,0,0,1.34-3.73A5.18,5.18,0,0,0,516,126a4.89,4.89,0,0,0-6.93,0,5.83,5.83,0,0,0,0,7.44,4.53,4.53,0,0,0,3.48,1.44A4.46,4.46,0,0,0,516,133.46Z" fill="#fff"/><path d="M538.49,123.44a9.53,9.53,0,0,1,2.06,6.55c0,.55,0,1,0,1.25H527.9a4.75,4.75,0,0,0,4.89,3.89,6.53,6.53,0,0,0,2.51-.49,6.2,6.2,0,0,0,2.09-1.42l2.24,2.33a8.64,8.64,0,0,1-3.12,2.17,10.47,10.47,0,0,1-4.07.77,9.45,9.45,0,0,1-4.62-1.09,7.63,7.63,0,0,1-3.09-3.05,10,10,0,0,1,0-9.06,7.8,7.8,0,0,1,3.08-3.08,9.1,9.1,0,0,1,4.51-1.1C535.07,121.11,537.12,121.88,538.49,123.44Zm-1.74,5a4.14,4.14,0,0,0-1.25-3,4.84,4.84,0,0,0-6.18,0,4.85,4.85,0,0,0-1.52,3Z" fill="#fff"/><path d="M559.06,122.85a6.66,6.66,0,0,1,1.69,4.81v10.67h-4.19v-9.46a3.87,3.87,0,0,0-1-2.83,3.73,3.73,0,0,0-2.78-1,4.21,4.21,0,0,0-3.27,1.41,5.16,5.16,0,0,0-1.2,3.51v8.41h-4.16v-17.1h4.16v3.2c1.17-2.2,3.21-3.31,6.13-3.36A6.09,6.09,0,0,1,559.06,122.85Z" fill="#fff"/><path d="M576.1,120.08a10.71,10.71,0,0,0-3.17-.57,4.46,4.46,0,0,0-2.43.57,1.81,1.81,0,0,0-.9,1.6,2.1,2.1,0,0,0,.63,1.55,4.59,4.59,0,0,0,1.56,1,24.63,24.63,0,0,0,2.57.88,29.41,29.41,0,0,1,3.73,1.34,6.66,6.66,0,0,1,2.47,2,5.44,5.44,0,0,1,1,3.46,5.87,5.87,0,0,1-1.11,3.56,6.93,6.93,0,0,1-3,2.32,11.59,11.59,0,0,1-4.43.8,13.89,13.89,0,0,1-5.11-1,14.75,14.75,0,0,1-4.35-2.6l1.79-3.65a12.92,12.92,0,0,0,3.8,2.46,10.1,10.1,0,0,0,3.94.9,5,5,0,0,0,2.81-.69,2.27,2.27,0,0,0,.4-3.45,4.77,4.77,0,0,0-1.58-1c-.64-.25-1.52-.54-2.63-.86a30.9,30.9,0,0,1-3.7-1.31,6.47,6.47,0,0,1-2.46-1.93,5.31,5.31,0,0,1-1-3.41,5.71,5.71,0,0,1,1-3.4,6.69,6.69,0,0,1,2.94-2.25,11.14,11.14,0,0,1,4.4-.8,14.74,14.74,0,0,1,4.3.64,14.53,14.53,0,0,1,3.78,1.72l-1.72,3.74A16.56,16.56,0,0,0,576.1,120.08Z" fill="#fff"/><path d="M597.64,122.19a7.89,7.89,0,0,1,3.17,3,9,9,0,0,1,1.13,4.53,9.14,9.14,0,0,1-1.13,4.57,7.79,7.79,0,0,1-3.17,3.06,9.68,9.68,0,0,1-4.68,1.09,9.89,9.89,0,0,1-4.73-1.09,7.81,7.81,0,0,1-3.18-3.06,9.14,9.14,0,0,1-1.13-4.57,9,9,0,0,1,1.13-4.53,7.92,7.92,0,0,1,3.18-3,10,10,0,0,1,4.73-1.08A9.8,9.8,0,0,1,597.64,122.19Zm-8.19,3.9a5.86,5.86,0,0,0,0,7.48A4.56,4.56,0,0,0,593,135a4.49,4.49,0,0,0,3.45-1.44,5.86,5.86,0,0,0,0-7.48,4.49,4.49,0,0,0-3.45-1.44A4.56,4.56,0,0,0,589.45,126.09Z" fill="#fff"/><path d="M621.34,121.23v17.1h-4.19v-3.16a6.14,6.14,0,0,1-5.94,3.32,6,6,0,0,1-4.54-1.76,6.68,6.68,0,0,1-1.66-4.79V121.23h4.19v9.49a3.93,3.93,0,0,0,1,2.82,3.56,3.56,0,0,0,2.7,1,3.93,3.93,0,0,0,3.13-1.41,5.2,5.2,0,0,0,1.15-3.48v-8.44Z" fill="#fff"/><path d="M633,122a7,7,0,0,1,3.47-.91v4a5.63,5.63,0,0,0-4.24,1.23,4.76,4.76,0,0,0-1.58,3.75v8.25h-4.15v-17.1h4.15v3.29A6.28,6.28,0,0,1,633,122Z" fill="#fff"/><path d="M646.68,124.75a4.39,4.39,0,0,0-3.37,1.4,5.88,5.88,0,0,0,0,7.35,4.36,4.36,0,0,0,3.37,1.41,5.41,5.41,0,0,0,4.6-2l2.59,2.14a7.56,7.56,0,0,1-3,2.56,10.22,10.22,0,0,1-4.38.89A9.07,9.07,0,0,1,642,137.4a7.59,7.59,0,0,1-3.05-3.05,9.14,9.14,0,0,1-1.09-4.52,9.28,9.28,0,0,1,1.1-4.57,7.81,7.81,0,0,1,3.07-3.07,9.24,9.24,0,0,1,4.52-1.08,10.21,10.21,0,0,1,4.17.81,7.52,7.52,0,0,1,3,2.32l-2.52,2.39A5.82,5.82,0,0,0,646.68,124.75Z" fill="#fff"/><path d="M670.09,123.44a9.58,9.58,0,0,1,2.06,6.55c0,.55,0,1,0,1.25H659.5a4.75,4.75,0,0,0,4.89,3.89,6.44,6.44,0,0,0,2.5-.49,6.15,6.15,0,0,0,2.1-1.42l2.23,2.33a8.6,8.6,0,0,1-3.11,2.17,10.52,10.52,0,0,1-4.08.77,9.43,9.43,0,0,1-4.61-1.09,7.57,7.57,0,0,1-3.09-3.05,9.24,9.24,0,0,1-1.08-4.52,9.14,9.14,0,0,1,1.1-4.54,7.74,7.74,0,0,1,3.08-3.08,9.08,9.08,0,0,1,4.51-1.1C666.67,121.11,668.72,121.88,670.09,123.44Zm-1.74,5a4.14,4.14,0,0,0-1.25-3,4.84,4.84,0,0,0-6.18,0,4.85,4.85,0,0,0-1.52,3Z" fill="#fff"/><path d="M699,117.38a10.46,10.46,0,0,1,4.15,4,11.22,11.22,0,0,1,1.5,5.78,11,11,0,0,1-1.51,5.77,10.69,10.69,0,0,1-4.21,4,12.69,12.69,0,0,1-6.1,1.44h-9.14V116H693A12.49,12.49,0,0,1,699,117.38Zm-2.22,16.24a6.81,6.81,0,0,0,2.57-2.62,8.25,8.25,0,0,0,0-7.67,6.82,6.82,0,0,0-2.64-2.66,7.62,7.62,0,0,0-3.75-.94h-5v14.83h5.12A7.29,7.29,0,0,0,696.81,133.62Z" fill="#fff"/><path d="M721.54,123.44A9.58,9.58,0,0,1,723.6,130c0,.55,0,1,0,1.25H711a4.75,4.75,0,0,0,4.89,3.89,6.53,6.53,0,0,0,2.51-.49,6.2,6.2,0,0,0,2.09-1.42l2.23,2.33a8.6,8.6,0,0,1-3.11,2.17,10.52,10.52,0,0,1-4.08.77,9.43,9.43,0,0,1-4.61-1.09,7.57,7.57,0,0,1-3.09-3.05,9.24,9.24,0,0,1-1.08-4.52,9.14,9.14,0,0,1,1.1-4.54,7.74,7.74,0,0,1,3.08-3.08,9.08,9.08,0,0,1,4.51-1.1C718.12,121.11,720.17,121.88,721.54,123.44Zm-1.74,5a4.14,4.14,0,0,0-1.25-3,4.84,4.84,0,0,0-6.18,0,4.85,4.85,0,0,0-1.52,3Z" fill="#fff"/><path d="M724,121.26l4.35,0,4.47,13,4.38-13h4.19l-6.52,17.1h-4.28Z" fill="#fff"/><path d="M756.41,123.44a9.58,9.58,0,0,1,2.06,6.55c0,.55,0,1,0,1.25H745.81a5,5,0,0,0,1.71,2.86,4.92,4.92,0,0,0,3.18,1,6.49,6.49,0,0,0,2.51-.49,6,6,0,0,0,2.09-1.42l2.24,2.33a8.55,8.55,0,0,1-3.12,2.17,10.47,10.47,0,0,1-4.07.77,9.45,9.45,0,0,1-4.62-1.09,7.54,7.54,0,0,1-3.08-3.05,9.14,9.14,0,0,1-1.09-4.52,9.25,9.25,0,0,1,1.1-4.54,7.82,7.82,0,0,1,3.09-3.08,9,9,0,0,1,4.5-1.1C753,121.11,755,121.88,756.41,123.44Zm-1.75,5a4.13,4.13,0,0,0-1.24-3,4.85,4.85,0,0,0-6.19,0,4.84,4.84,0,0,0-1.51,3Z" fill="#fff"/><path d="M762.21,114.62h4.15v23.71h-4.15Z" fill="#fff"/><path d="M783.86,122.19a7.93,7.93,0,0,1,3.16,3,8.86,8.86,0,0,1,1.13,4.53,9,9,0,0,1-1.13,4.57,7.82,7.82,0,0,1-3.16,3.06,10.7,10.7,0,0,1-9.41,0,7.69,7.69,0,0,1-3.18-3.06,9,9,0,0,1-1.14-4.57,8.86,8.86,0,0,1,1.14-4.53,7.79,7.79,0,0,1,3.18-3,10.79,10.79,0,0,1,9.41,0Zm-8.2,3.9a5.89,5.89,0,0,0,0,7.48,4.58,4.58,0,0,0,3.51,1.44,4.53,4.53,0,0,0,3.46-1.44,5.89,5.89,0,0,0,0-7.48,4.53,4.53,0,0,0-3.46-1.44A4.58,4.58,0,0,0,775.66,126.09Z" fill="#fff"/><path d="M806.07,122.21a7.42,7.42,0,0,1,2.84,3.08,10,10,0,0,1,1,4.57,9.82,9.82,0,0,1-1,4.51,7.24,7.24,0,0,1-2.82,3,8,8,0,0,1-4.21,1.09,7.36,7.36,0,0,1-3.39-.75,6.37,6.37,0,0,1-2.43-2.19v9h-4.15v-23.3h4.15v2.82a6.17,6.17,0,0,1,2.38-2.19,7.25,7.25,0,0,1,3.37-.75A8,8,0,0,1,806.07,122.21Zm-1.71,11.25a5.3,5.3,0,0,0,1.34-3.73,5.22,5.22,0,0,0-1.34-3.7,4.9,4.9,0,0,0-6.94,0,5.83,5.83,0,0,0,0,7.44,4.56,4.56,0,0,0,3.49,1.44A4.49,4.49,0,0,0,804.36,133.46Z" fill="#fff"/><path d="M840.5,122.85a6.73,6.73,0,0,1,1.66,4.81v10.67H838v-9.46a4,4,0,0,0-1-2.86,3.63,3.63,0,0,0-2.73-1,4.09,4.09,0,0,0-3.15,1.44,5.19,5.19,0,0,0-1.17,3.48v8.44h-4.18v-9.46a4,4,0,0,0-1-2.86,3.59,3.59,0,0,0-2.72-1,4.12,4.12,0,0,0-3.18,1.44,5.19,5.19,0,0,0-1.17,3.48v8.44h-4.15v-17.1h4.15v3.17c1.13-2.18,3.13-3.28,6-3.33a6.41,6.41,0,0,1,3.76,1.07,5.6,5.6,0,0,1,2.12,3q1.63-4,6.36-4.09A5.94,5.94,0,0,1,840.5,122.85Z" fill="#fff"/><path d="M860.07,123.44a9.53,9.53,0,0,1,2.06,6.55c0,.55,0,1,0,1.25H849.48a5,5,0,0,0,1.71,2.86,4.92,4.92,0,0,0,3.18,1,6.53,6.53,0,0,0,2.51-.49,6.11,6.11,0,0,0,2.09-1.42l2.24,2.33a8.55,8.55,0,0,1-3.12,2.17,10.47,10.47,0,0,1-4.07.77,9.45,9.45,0,0,1-4.62-1.09,7.54,7.54,0,0,1-3.08-3.05,9.14,9.14,0,0,1-1.09-4.52,9.25,9.25,0,0,1,1.1-4.54,7.76,7.76,0,0,1,3.09-3.08,9,9,0,0,1,4.5-1.1C856.65,121.11,858.7,121.88,860.07,123.44Zm-1.74,5a4.17,4.17,0,0,0-1.24-3,4.85,4.85,0,0,0-6.19,0,4.9,4.9,0,0,0-1.52,3Z" fill="#fff"/><path d="M880.64,122.85a6.66,6.66,0,0,1,1.69,4.81v10.67h-4.18v-9.46a3.83,3.83,0,0,0-1-2.83,3.73,3.73,0,0,0-2.78-1,4.23,4.23,0,0,0-3.27,1.41,5.16,5.16,0,0,0-1.2,3.51v8.41h-4.16v-17.1h4.16v3.2c1.17-2.2,3.22-3.31,6.13-3.36A6.09,6.09,0,0,1,880.64,122.85Z" fill="#fff"/><path d="M897,137.28a8.1,8.1,0,0,1-4.28,1.24,5.12,5.12,0,0,1-3.61-1.29,5,5,0,0,1-1.41-3.82V125h-2.4l0-3h2.43v-4.7h4.12v4.7h4.89v3h-4.89v7.7a2.49,2.49,0,0,0,.45,1.68,1.73,1.73,0,0,0,1.34.5,6,6,0,0,0,2.43-.71Z" fill="#fff"/><g clip-path="url(#clip-path-2)"><ellipse cx="119.99" cy="146.49" rx="235.32" ry="228.1" fill="#fff"/></g><path d="M224.79,192.44a5.32,5.32,0,0,1,2.83,1.57,3.56,3.56,0,0,1,1,2.46c0,1.84,0,3.68,0,5.53a4.31,4.31,0,0,1-3.85,4.35,11,11,0,0,1-2.06.19c-6.51,0-13,0-19.52,0-.44,0-.58-.11-.57-.56q0-12.56,0-25.1c0-.44.11-.57.56-.57,6.29,0,12.59,0,18.88,0a7.86,7.86,0,0,1,3.28.6,4,4,0,0,1,2.62,3.63,42.69,42.69,0,0,1-.06,5.06c-.13,1.65-.79,2.38-2.75,2.72Zm-10.34,10.95c2.41,0,4.82,0,7.23,0a7.07,7.07,0,0,0,1.94-.3,1.7,1.7,0,0,0,1.28-1.67c0-1.54.07-3.07,0-4.61a2,2,0,0,0-1.78-2.07,5.39,5.39,0,0,0-1.13-.15H206.63c-.4,0-.49.14-.49.51,0,2.59,0,5.18,0,7.78,0,.46.16.55.58.55,2.58,0,5.16,0,7.73,0Zm-.24-11.95v0c2.52,0,5,0,7.55,0a2.3,2.3,0,0,0,2.57-2.34q0-1.55,0-3.09a2.15,2.15,0,0,0-1.66-2.21,5.33,5.33,0,0,0-1.49-.23c-4.83,0-9.67,0-14.5,0-.43,0-.54.14-.54.55q0,3.39,0,6.77c0,.61,0,.62.61.62Z" fill="#f15a29"/><path d="M179.68,194.64v.56c0,1.61,0,3.22,0,4.84a3.08,3.08,0,0,0,3.31,3.3h17.37c.92,0,.81-.09.81.82,0,.62,0,1.25,0,1.88,0,.42-.13.51-.52.51-1.91,0-3.81,0-5.71,0-4.24,0-8.49-.07-12.72,0a6,6,0,0,1-6-5.09,7.69,7.69,0,0,1,0-.83V186.28a5.82,5.82,0,0,1,5.94-5.94c6.18,0,12.35,0,18.52,0,.44,0,.6.1.58.56,0,.77,0,1.54,0,2.3,0,.28-.09.41-.37.39H182.93a3,3,0,0,0-3.19,2.48,3.78,3.78,0,0,0-.06.82c0,1.32,0,2.64,0,4,0,.46.14.56.58.56H197c.6,0,.6,0,.6.6s0,1.41,0,2.12c0,.42-.1.54-.54.54q-7.87,0-15.75,0Z" fill="#f15a29"/><path d="M230.42,203.37h18.07a3.1,3.1,0,0,0,3.35-3.15,25.42,25.42,0,0,0,0-2.76,3,3,0,0,0-3-2.82H235.56a5.76,5.76,0,0,1-2.88-.67,5.42,5.42,0,0,1-3.09-4.46,21.15,21.15,0,0,1,.06-4.5,5.65,5.65,0,0,1,5.57-4.66c6,0,11.91,0,17.87,0,.35,0,.46.11.45.45,0,.73,0,1.47,0,2.21,0,.4-.12.52-.52.52q-8.36,0-16.72,0a3.18,3.18,0,0,0-2.79,1.43,5.94,5.94,0,0,0,.05,5,3.19,3.19,0,0,0,2.73,1.35h13a5.68,5.68,0,0,1,3,.73,5.74,5.74,0,0,1,3,5.1c0,1.21,0,2.42,0,3.64a5.8,5.8,0,0,1-5.73,5.78c-6.25,0-12.5,0-18.75,0-.32,0-.47-.06-.46-.43C230.44,205.24,230.42,204.35,230.42,203.37Z" fill="#f15a29"/><path d="M116.3,214c-1.08,0-2.11,0-3.13,0-.09,0-.21-.14-.25-.24a1.47,1.47,0,0,1,0-.42V187.91c0-.67,0-.67.67-.67h13.27a5.85,5.85,0,0,1,4.31,1.74,4.7,4.7,0,0,1,1.42,3.44q0,4.46,0,8.93a5.31,5.31,0,0,1-5.24,5.18c-2.75.06-5.5,0-8.24,0-.77,0-1.54,0-2.31,0-.38,0-.5.13-.5.51,0,2.12,0,4.23,0,6.35Zm0-17.16V203c0,.32,0,.53.43.53,3.26,0,6.51,0,9.76,0a2.76,2.76,0,0,0,2.67-2.67q0-4,0-8a2.57,2.57,0,0,0-.35-1.17,3.08,3.08,0,0,0-2.89-1.47c-3,0-6,0-9.07,0-.42,0-.55.14-.54.56,0,2,0,4,0,6Z" fill="#f15a29"/><path d="M145.34,198.66c-2.53,0-5.06,0-7.6,0-.45,0-.62.13-.6.6,0,.87,0,1.75,0,2.62a1.61,1.61,0,0,0,1.77,1.77c2,0,3.93,0,5.89,0,2.14,0,4.27,0,6.4,0,.39,0,.51.12.5.5,0,.67,0,1.35,0,2,0,.3-.11.39-.41.39-4.42,0-8.84,0-13.27,0a4.29,4.29,0,0,1-4.11-3,4.74,4.74,0,0,1-.13-1.18c0-3.26,0-6.51,0-9.77a5.29,5.29,0,0,1,4.82-5.28c.81-.07,1.63-.07,2.44-.07,2.51,0,5,0,7.55.08a5,5,0,0,1,4.86,5.12c0,1.87,0,3.74,0,5.62,0,.48-.16.59-.61.58Zm-1.74-3c2,0,4,0,5.94,0,.39,0,.55-.1.53-.51,0-.65,0-1.29,0-1.94a2.78,2.78,0,0,0-2.68-2.85q-3.75-.09-7.51,0a2.82,2.82,0,0,0-2.72,2.83c0,.66,0,1.32,0,2,0,.39.14.49.51.48Z" fill="#f15a29"/><path d="M174.63,199c0,2.35,0,4.7,0,7,0,.42-.1.57-.53.55-.79,0-1.57,0-2.35,0-.41,0-.52-.12-.52-.52q0-6.3,0-12.58c0-1.86-1-3.07-2.82-3.14-2.54-.11-5.1-.1-7.64,0a2.74,2.74,0,0,0-2.72,3c0,3.53,0,7.06,0,10.59,0,.73,0,1.45,0,2.17,0,.32-.07.47-.43.46-.86,0-1.72,0-2.58,0-.32,0-.39-.11-.39-.4,0-4.62,0-9.24,0-13.87a5.24,5.24,0,0,1,4.52-4.94,6.23,6.23,0,0,1,1.06-.09c2.94,0,5.89,0,8.84,0a5.61,5.61,0,0,1,4.77,2.51,3.93,3.93,0,0,1,.74,2.29c0,2.31,0,4.61,0,6.91Z" fill="#f15a29"/><path d="M110.93,193.33c0,2.41,0,4.82,0,7.23a5.8,5.8,0,0,1-4.59,5.63,5.55,5.55,0,0,1-1.22.12h-.85c-3.58.1-7.15,0-10.72,0-1,0-2.07,0-3.11,0a6.83,6.83,0,0,1-2.11-.21A5.78,5.78,0,0,1,84.2,202a5.6,5.6,0,0,1-.2-1.47v-1.72c0-3.8,0-7.6,0-11.4,0-.62,0-1.25,0-1.86a5.58,5.58,0,0,1,1.09-3,5.7,5.7,0,0,1,3.81-2.35,14.15,14.15,0,0,1,1.72-.08c2-.09,3.89,0,5.83,0h5.84c1,0,2,0,2.92,0a5.78,5.78,0,0,1,3.82,1.55,5.63,5.63,0,0,1,1.78,3.24,7.47,7.47,0,0,1,.11,1.16c0,2.41,0,4.83,0,7.24Zm-13.35,9.88h6.1a10.63,10.63,0,0,0,1.25-.08,3.07,3.07,0,0,0,2.07-1.19,2.68,2.68,0,0,0,.6-1.5c0-.3,0-.6,0-.89,0-.71,0-1.41,0-2.11l0-1.54,0-1.81,0-1.61,0-1.73c0-.55,0-1.1,0-1.65l0-2.31a7.3,7.3,0,0,0-.08-.93,3,3,0,0,0-.91-1.74,3.23,3.23,0,0,0-2.13-.85c-.11,0-.23,0-.34,0H91.11a9.61,9.61,0,0,0-1.07.07,3.1,3.1,0,0,0-1.92,1,2.75,2.75,0,0,0-.81,1.91c0,.6,0,1.21,0,1.82l0,1.68,0,1.79,0,1.66,0,1.75,0,1.61,0,1.76c0,.48,0,1,0,1.45a6,6,0,0,0,.14,1.12,3.07,3.07,0,0,0,3.1,2.37s.1-.06.16-.06l1,0Z" fill="#f15a29"/><path d="M158.86,68.07l-8.5,2a39.92,39.92,0,0,0-30,31.34l-1.4,7.34a39.91,39.91,0,0,0,18.68,41.74l13.39,8a39.9,39.9,0,0,0,42.26-.76l9.65-6.26a39.91,39.91,0,0,0,18.16-32.45h0A39.92,39.92,0,0,0,207,87.57L193.85,76.45A40,40,0,0,0,158.86,68.07Z" fill="#f15a29"/><path d="M138,84.86l-5.14,5.88a36.92,36.92,0,0,0-5.72,39.06l2.75,6.25a36.08,36.08,0,0,0,35,21.83l13.85-.84a34.9,34.9,0,0,0,30.32-22.32l3.79-9.68a37.37,37.37,0,0,0-3.45-33.79h0A36.08,36.08,0,0,0,183,74.78l-15.25-1.62A34.54,34.54,0,0,0,138,84.86Z" fill="#f69437"/><ellipse cx="169.67" cy="114.83" rx="39.06" ry="39.45" fill="#fff"/><path d="M158.88,85.68h.82s.07,0,.1,0a4,4,0,0,1,1,.26,4.55,4.55,0,0,1,1.94,1.64,12.58,12.58,0,0,1,1.77,3.67,32.19,32.19,0,0,1,.84,3.52c.23,1.21.42,2.43.56,3.65.11,1,.17,2,.25,3.07a9.68,9.68,0,0,0-.55,1.38,9,9,0,0,0-.39,1.63,11.14,11.14,0,0,1-.38-3.74,13.73,13.73,0,0,0-.59,1.53c0-.14,0-.27,0-.41,0-.83,0-1.66,0-2.49a36.47,36.47,0,0,0-.49-4.17,16.22,16.22,0,0,0-1.47-4.51A6,6,0,0,0,161,88.91a3,3,0,0,0-1.9-.88,3.86,3.86,0,0,0-2.71,1,3.91,3.91,0,0,0-1,1.68,6.9,6.9,0,0,0-.27,3.22A26.17,26.17,0,0,0,156,98a31.69,31.69,0,0,0,4.21,8.7,12.32,12.32,0,0,0,2,2.32c.4.35.6.32.87-.15a7.46,7.46,0,0,0,.69-1.79c.12-.42.2-.85.31-1.28a7.56,7.56,0,0,0,.3,1.06,2.54,2.54,0,0,0,.95,1.37.1.1,0,0,1,0,.13,3.13,3.13,0,0,0,0,1.49,9.91,9.91,0,0,0,.47,1.52,6.81,6.81,0,0,0,.41.92,3.41,3.41,0,0,1,.06-1.49,4.41,4.41,0,0,1,.58-1.38,11.78,11.78,0,0,0,.75,5.37.29.29,0,0,0,0-.09,21.94,21.94,0,0,1,.12-2.8,5.86,5.86,0,0,1,.39-1.64,1.24,1.24,0,0,1,.58-.69c.09,0,.14,0,.18.06a10,10,0,0,1,.68,2.07,3.24,3.24,0,0,1,.06,1.42s0,.07,0,.08.07,0,.1-.06a7.28,7.28,0,0,0,1.39-3,4.85,4.85,0,0,0,.05-.85c0-.28-.08-.55-.1-.83h0a7,7,0,0,1,.88.92,5.78,5.78,0,0,1,1.09,2.1,3.83,3.83,0,0,1,.11,1.22c0,.24-.09.48-.1.72l0,0h0v0a.57.57,0,0,0,.08-.13,12.39,12.39,0,0,0,.79-2.08,6.39,6.39,0,0,0,.28-1.95,2.26,2.26,0,0,0,0-.25,1,1,0,0,1,.29.28,3,3,0,0,1,.46,1.24c0,.29.09.59.15.88a2.23,2.23,0,0,0,.16-.4,6,6,0,0,0,.29-2.53,2.39,2.39,0,0,0-.39-1.08.15.15,0,0,1,0-.21,3,3,0,0,0,.28-.64s0,0,0,.06a8.66,8.66,0,0,0,.81,2.25c.27.5.49.53.92.15a9.82,9.82,0,0,0,1.35-1.46,30,30,0,0,0,3.15-5.24,28.45,28.45,0,0,0,2.35-7.06,10.67,10.67,0,0,0,.22-3.38,5.06,5.06,0,0,0-1-2.5,3.62,3.62,0,0,0-2.13-1.25,2.81,2.81,0,0,0-2.45.51,4.63,4.63,0,0,0-1.1,1.15,13,13,0,0,0-1.45,3.12,20.76,20.76,0,0,0-.76,3.41c-.13.86-.23,1.72-.28,2.59,0,.41-.06.81-.07,1.21,0,.66,0,1.33,0,2,0,.48.08,1,.07,1.44-.1-.25-.2-.5-.29-.75s-.13-.31-.2-.47c0,.43,0,.86,0,1.28a3.27,3.27,0,0,1-.22,1.2,1.18,1.18,0,0,1-.71.78c-.11,0-.17,0-.22-.1a2,2,0,0,1-.05-.94,3.68,3.68,0,0,1,.53-1.26s.06-.07,0-.11-.08,0-.12,0a2.47,2.47,0,0,0-.89.21c.09-1.21.18-2.42.29-3.63s.27-2.46.46-3.69a31.41,31.41,0,0,1,1.38-5.48,9.85,9.85,0,0,1,2-3.51,4,4,0,0,1,3.7-1.27,5.59,5.59,0,0,1,3.09,1.52A6.79,6.79,0,0,1,186,92.09v1.39c0,.45-.05.89-.11,1.33a21.55,21.55,0,0,1-.86,4,53.67,53.67,0,0,1-3.94,9.27c-.23.45-.49.89-.75,1.33s-.16.48.12.71l.09.08a6.65,6.65,0,0,1,1.13,1.12,7.4,7.4,0,0,1,1.36,3,9.32,9.32,0,0,1,.23,2.52c0,.64-.12,1.28-.2,1.92s-.16,1.43-.26,2.15c-.11.88-.25,1.77-.37,2.65-.15,1.14-.35,2.27-.53,3.4s-.36,2.16-.54,3.24c-.12.77-.21,1.54-.38,2.3a28.21,28.21,0,0,1-1.41,4.28c-.06,0-.06-.09-.07-.13-.09-.2-.16-.41-.25-.61a15.94,15.94,0,0,0-2.59-3.76,14.15,14.15,0,0,0-2.93-2.41,8.82,8.82,0,0,0-3.78-1.38,5.73,5.73,0,0,0-2.81.42,8.94,8.94,0,0,0-2.71,1.79,17.11,17.11,0,0,0-2.81,3.31,12.28,12.28,0,0,0-1.47,3.21c-.14.49-.21,1-.34,1.5a3.42,3.42,0,0,1-.11.35l0-.11c-.47-1.07-.92-2.15-1.34-3.24a18.27,18.27,0,0,1-.9-2.77,23.1,23.1,0,0,1-.37-3.32c0-.7-.09-1.39-.14-2.09s-.13-1.16-.19-1.75c-.09-.76-.12-1.54-.16-2.31s-.13-1.8-.21-2.69-.14-1.62-.2-2.44a9.3,9.3,0,0,1,.16-2.63,9.9,9.9,0,0,1,2.1-4.21,8.58,8.58,0,0,1,.88-.93.4.4,0,0,0,.1-.57.91.91,0,0,0-.07-.14c-1.09-1.92-2.12-3.89-3-5.92a35.54,35.54,0,0,1-2.57-7.72,16.49,16.49,0,0,1-.35-3s0-.08,0-.09v-.43s0,0,0-.07a7,7,0,0,1,.06-.92,8.31,8.31,0,0,1,.78-2.76,6,6,0,0,1,4-3.11A4.1,4.1,0,0,1,158.88,85.68Zm15.23,39.55h.41a1.92,1.92,0,0,0,.41,0,8,8,0,0,0,4.64-2.39,3,3,0,0,0,.78-3.11,6,6,0,0,0-2.71-3.47,2.89,2.89,0,0,0-2.45-.28A4.22,4.22,0,0,0,173.5,117a8.27,8.27,0,0,0-2.21,4.08,4.87,4.87,0,0,0,.45,3.31,1.49,1.49,0,0,0,1.22.86A11.05,11.05,0,0,0,174.11,125.23Zm-8.54,0h.25a1.64,1.64,0,0,0,1.49-.75,4.2,4.2,0,0,0,.63-1.94,6.35,6.35,0,0,0-.31-2.29,6.61,6.61,0,0,0-3.27-4.19,2.52,2.52,0,0,0-1.84-.31,4.68,4.68,0,0,0-2.22,1.34,6.46,6.46,0,0,0-1.46,2.37,2.85,2.85,0,0,0,.42,2.9,6.69,6.69,0,0,0,1.42,1.34,8.65,8.65,0,0,0,4.89,1.53Z" fill="#563a39"/><path d="M179.55,136.73c0,.23.11.46.16.69a4.92,4.92,0,0,1-1,4,8.54,8.54,0,0,1-4.34,3,10.09,10.09,0,0,1-2.72.43s-.1,0-.14,0h-2.09c0-.05-.07,0-.1,0a25.63,25.63,0,0,1-3.6-.33,11.25,11.25,0,0,1-3-.87,5,5,0,0,1-3-4.8c0-.08,0-.16,0-.23.13-.5.2-1,.34-1.5a12.13,12.13,0,0,1,1.47-3.21,17.47,17.47,0,0,1,2.81-3.32,8.91,8.91,0,0,1,2.71-1.78,5.73,5.73,0,0,1,2.81-.42,8.74,8.74,0,0,1,3.78,1.38,13.79,13.79,0,0,1,2.93,2.4,15.79,15.79,0,0,1,2.59,3.77c.09.19.16.4.25.6A.2.2,0,0,0,179.55,136.73Zm-3.12,3a.22.22,0,0,0-.13.08,14.35,14.35,0,0,1-2.85,1.75,8,8,0,0,1-4.85.55,15.19,15.19,0,0,1-3.92-1.41c-.54-.27-1.06-.59-1.59-.88h0c0,.08.06.13.1.18a9.54,9.54,0,0,0,4.47,3.13,7.19,7.19,0,0,0,8.3-2.64,3.26,3.26,0,0,0,.47-.75s0,0,0,0h0Zm.48-4.45a.78.78,0,0,0-.17-.57,3.36,3.36,0,0,0-.84-.8,1.74,1.74,0,0,0-2.23.18,1.87,1.87,0,0,0-.49,1.29,5.13,5.13,0,0,1-.78,2.41c-.25.41-.52.8-.8,1.19a.34.34,0,0,0,.12.56.55.55,0,0,0,.53,0,13.92,13.92,0,0,0,3.45-2,2.92,2.92,0,0,0,1.21-2.28Zm-13.74.31a1.54,1.54,0,0,0,.25.9,4.94,4.94,0,0,0,1.51,1.51,18.57,18.57,0,0,0,2.5,1.4,3.31,3.31,0,0,0,.53.18.49.49,0,0,0,.48-.13.24.24,0,0,0,.08-.32,1.27,1.27,0,0,0-.25-.37c-.05-.05-.12-.1-.11-.17a.3.3,0,0,0-.1-.24l-.17-.21a5,5,0,0,1-1-2.86,1.7,1.7,0,0,0-2-1.68,2.13,2.13,0,0,0-1.74,2Z" fill="#af8070"/><path d="M186,92.07h0v1.39h0C186,93,186,92.54,186,92.07Z" fill="#af8070"/><path d="M164,105.81c-.1.42-.19.85-.3,1.28a8.31,8.31,0,0,1-.7,1.79c-.26.46-.47.5-.87.15a12.32,12.32,0,0,1-2-2.32A32,32,0,0,1,155.94,98a25.81,25.81,0,0,1-.89-4.08,6.89,6.89,0,0,1,.27-3.22A3.7,3.7,0,0,1,159.06,88a2.91,2.91,0,0,1,1.9.88,5.87,5.87,0,0,1,1.31,1.82,16,16,0,0,1,1.47,4.51,36.77,36.77,0,0,1,.5,4.17c0,.83.06,1.66,0,2.49,0,.14,0,.27,0,.41a.83.83,0,0,0,0,.15,8.49,8.49,0,0,0-.3,2.36C163.94,105.15,164,105.48,164,105.81Z" fill="#348fc0"/><path d="M175.11,103.53c0-.48-.05-1-.07-1.44,0-.66,0-1.33,0-2,0-.4.05-.8.07-1.21.06-.87.16-1.73.29-2.59a18.78,18.78,0,0,1,.76-3.4,12,12,0,0,1,1.45-3.13,5,5,0,0,1,1.09-1.15,2.82,2.82,0,0,1,2.46-.51,3.65,3.65,0,0,1,2.13,1.25,5.06,5.06,0,0,1,1,2.5,10.4,10.4,0,0,1-.23,3.38,28,28,0,0,1-2.34,7.06,30.6,30.6,0,0,1-3.15,5.24A10.46,10.46,0,0,1,177.2,109c-.42.38-.64.35-.91-.15a8.66,8.66,0,0,1-.81-2.25.14.14,0,0,0,0-.06,3.94,3.94,0,0,0,0-1.64A13.15,13.15,0,0,0,175.11,103.53Z" fill="#348fc0"/><path d="M175.11,103.53a11.2,11.2,0,0,1,.36,1.38,3.94,3.94,0,0,1,0,1.64,2.53,2.53,0,0,1-.28.63.15.15,0,0,0,0,.21,2.39,2.39,0,0,1,.39,1.09,5.83,5.83,0,0,1-.29,2.52,2.05,2.05,0,0,1-.16.41c-.06-.3-.1-.6-.15-.89a2.79,2.79,0,0,0-.46-1.24,1.28,1.28,0,0,0-.29-.28c0,.1,0,.18,0,.26a6.82,6.82,0,0,1-.29,1.95,11.87,11.87,0,0,1-.79,2.08l-.08.13h0c0-.24.07-.48.1-.72a3.57,3.57,0,0,0-.11-1.22,5.78,5.78,0,0,0-1.09-2.1,6.36,6.36,0,0,0-.88-.92h0c0,.28.1.55.1.83a4.85,4.85,0,0,1-.05.85,7.34,7.34,0,0,1-1.39,3s0,.08-.1.06,0,0,0-.08a3.45,3.45,0,0,0,0-1.43,10.18,10.18,0,0,0-.69-2.06c0-.1-.09-.1-.18-.07a1.27,1.27,0,0,0-.58.69,5.92,5.92,0,0,0-.39,1.65,21.78,21.78,0,0,0-.12,2.8.24.24,0,0,1,0,.08,11.74,11.74,0,0,1-.75-5.36,4.31,4.31,0,0,0-.58,1.38,3.36,3.36,0,0,0-.06,1.48,7.44,7.44,0,0,1-.41-.91,10.22,10.22,0,0,1-.46-1.52,3,3,0,0,1-.05-1.5s0-.1,0-.13a2.44,2.44,0,0,1-.94-1.37,5.72,5.72,0,0,1-.31-1c0-.33-.08-.66-.09-1a8.62,8.62,0,0,1,.31-2.37.39.39,0,0,0,0-.14,12.1,12.1,0,0,1,.6-1.53,11.11,11.11,0,0,0,.37,3.74,8.26,8.26,0,0,1,.4-1.63,7.78,7.78,0,0,1,.55-1.38.57.57,0,0,0,0,.13l0,0a3.36,3.36,0,0,0,0,1,1.23,1.23,0,0,0,.14.53,4.87,4.87,0,0,0,.46,1.19,3.57,3.57,0,0,0,.3-2.24h0a4.68,4.68,0,0,1,.57.61,10.53,10.53,0,0,1,.65,1,7.67,7.67,0,0,1,.42,1,8.76,8.76,0,0,1,.83-2.4,7.65,7.65,0,0,0,.76,2.61,2.09,2.09,0,0,0,.29-.44,3,3,0,0,0,.4-2,2,2,0,0,1-.09-.42h0a10.36,10.36,0,0,1,1,2.22,2.81,2.81,0,0,1,.29-.42,2.43,2.43,0,0,1,.76-.55,2.52,2.52,0,0,1,.9-.21s.09,0,.12,0,0,.08,0,.11a3.7,3.7,0,0,0-.54,1.26,2.12,2.12,0,0,0,.06.94c0,.14.1.14.21.1a1.19,1.19,0,0,0,.72-.78,3.21,3.21,0,0,0,.21-1.19c0-.43,0-.85,0-1.28.06.15.13.31.19.47S175,103.28,175.11,103.53Z" fill="#060707"/><path d="M174.11,125.23c-.38,0-.77.06-1.15,0a1.5,1.5,0,0,1-1.22-.86,4.89,4.89,0,0,1-.45-3.31A8.22,8.22,0,0,1,173.5,117a4.15,4.15,0,0,1,1.69-1.06,2.82,2.82,0,0,1,2.45.28,6,6,0,0,1,2.71,3.47,3,3,0,0,1-.78,3.11,8.09,8.09,0,0,1-4.64,2.39,2.87,2.87,0,0,1-.41,0C174.39,125.25,174.25,125.23,174.11,125.23Zm.52-.23a2.72,2.72,0,0,0,.7-.06,2.61,2.61,0,0,0,1.88-1.68,1.94,1.94,0,0,0,.22-1,.53.53,0,0,0-.77-.47l-.27.14-.32.14a.87.87,0,0,1-1-.4.76.76,0,0,1,0-1c.08-.1.18-.19.27-.29a.56.56,0,0,0-.33-.95,2.65,2.65,0,0,0-1.45.13,2.55,2.55,0,0,0-1.73,1.84,3.62,3.62,0,0,0,.18,2.13,2.19,2.19,0,0,0,1.46,1.35,3.62,3.62,0,0,0,1.13.15Z" fill="#fff"/><path d="M165.57,125.28a8.65,8.65,0,0,1-4.89-1.53,6.69,6.69,0,0,1-1.42-1.34,2.87,2.87,0,0,1-.43-2.91,6.52,6.52,0,0,1,1.47-2.36,4.65,4.65,0,0,1,2.21-1.34,2.56,2.56,0,0,1,1.84.3,6.61,6.61,0,0,1,3.28,4.2,6.76,6.76,0,0,1,.31,2.28,4.36,4.36,0,0,1-.63,2,1.64,1.64,0,0,1-1.49.74Zm-3.85-3c0,.09,0,.22,0,.36a1.36,1.36,0,0,0,.06.29,2.66,2.66,0,0,0,1.86,2,4.7,4.7,0,0,0,.92.09,2.37,2.37,0,0,0,1.54-.38,2.48,2.48,0,0,0,1.21-2.4c0-.44-.4-.74-.86-.39a1.32,1.32,0,0,1-.25.16.8.8,0,0,1-.91-.08.85.85,0,0,1-.06-1.43s.1-.09.14-.14a.52.52,0,0,0,0-.68.68.68,0,0,0-.5-.3,3.09,3.09,0,0,0-.86,0,2.8,2.8,0,0,0-2.37,2.85Z" fill="#fff"/><path d="M173.09,113.41l0,0h0l0,0Z" fill="#060707"/><path d="M176.91,135.23a3,3,0,0,1-1.2,2.28,14.43,14.43,0,0,1-3.45,2,.58.58,0,0,1-.53,0,.35.35,0,0,1-.13-.57c.28-.38.55-.78.8-1.18a5.16,5.16,0,0,0,.78-2.41,1.91,1.91,0,0,1,.5-1.3,1.74,1.74,0,0,1,2.22-.18,3.41,3.41,0,0,1,.85.8A.81.81,0,0,1,176.91,135.23Z" fill="#060707"/><path d="M163.17,135.54a2.12,2.12,0,0,1,1.74-2,1.7,1.7,0,0,1,2,1.67,5,5,0,0,0,1,2.86,1.93,1.93,0,0,0,.17.21.3.3,0,0,1,.11.24c0,.07.05.13.1.18a1.08,1.08,0,0,1,.26.37.24.24,0,0,1-.08.31.51.51,0,0,1-.49.13,3.31,3.31,0,0,1-.53-.18,20.37,20.37,0,0,1-2.5-1.39,5.09,5.09,0,0,1-1.51-1.52A1.6,1.6,0,0,1,163.17,135.54Z" fill="#060707"/><path d="M163.08,139.77c.53.29,1.06.6,1.6.88a14.7,14.7,0,0,0,3.92,1.41,8,8,0,0,0,4.85-.55,14.64,14.64,0,0,0,2.85-1.75s.07-.07.12-.08h0a3.64,3.64,0,0,1-.47.75,7.29,7.29,0,0,1-4,2.81,7.22,7.22,0,0,1-4.29-.17,9.54,9.54,0,0,1-4.47-3.13c0-.06-.11-.11-.11-.18Z" fill="#fff"/><path d="M176.43,139.68v0h0s0,0,0,0Z" fill="#fff"/><path d="M163.08,139.77h0Z" fill="#fff"/><path d="M170.9,102.09a2.2,2.2,0,0,0,.09.43,3.1,3.1,0,0,1-.4,2,2.57,2.57,0,0,1-.29.44,7.28,7.28,0,0,1-.76-2.62,8.57,8.57,0,0,0-.84,2.4,8.2,8.2,0,0,0-.42-1,9.3,9.3,0,0,0-.64-1,2.51,2.51,0,0,1,1.76-1l.12,0a1.21,1.21,0,0,0,.38,0,3.38,3.38,0,0,1,.88.24A.27.27,0,0,1,170.9,102.09Z" fill="#348fc0"/><path d="M169.52,98.82A1.18,1.18,0,1,1,170,96.5a1.13,1.13,0,0,1,.52.24,1.18,1.18,0,0,1,.19,1.63,1.14,1.14,0,0,1-.79.46A1.53,1.53,0,0,1,169.52,98.82Z" fill="#348fc0"/><path d="M169.52,98.82a1.51,1.51,0,0,0,.37,0v2.93a1.21,1.21,0,0,1-.38,0Z" fill="#060707"/><path d="M172.23,103.9a2.81,2.81,0,0,0-.29.42,11.43,11.43,0,0,0-1-2.22,1.89,1.89,0,0,1,.76.61,2.36,2.36,0,0,1,.52,1.12Z" fill="#348fc0"/><path d="M166.3,103.28a1.23,1.23,0,0,1-.14-.53,3.36,3.36,0,0,1,0-1l0,0C166.23,102.19,166.27,102.74,166.3,103.28Z" fill="#4b3938"/><path d="M167.06,102.23l0,0v0Z" fill="#060707"/><path d="M171.11,108.45h0Z" fill="#4b3938"/><path d="M174.63,125a3.9,3.9,0,0,1-1.13-.15,2.18,2.18,0,0,1-1.46-1.36,3.62,3.62,0,0,1-.18-2.13,2.79,2.79,0,0,1,3.18-2,.56.56,0,0,1,.33.95,3.71,3.71,0,0,0-.27.29.76.76,0,0,0,0,1,.85.85,0,0,0,1,.4,1.83,1.83,0,0,0,.32-.14l.27-.13a.53.53,0,0,1,.77.47,2,2,0,0,1-.22,1,2.61,2.61,0,0,1-1.88,1.68A2.72,2.72,0,0,1,174.63,125Z" fill="#060707"/><path d="M161.72,122.25a2.81,2.81,0,0,1,2.36-2.85,3.12,3.12,0,0,1,.86,0,.66.66,0,0,1,.5.3.51.51,0,0,1-.05.68l-.14.14a.86.86,0,0,0,.06,1.43.8.8,0,0,0,.91.08,2.26,2.26,0,0,0,.26-.16c.45-.35.81,0,.86.39a2.49,2.49,0,0,1-1.22,2.4,2.36,2.36,0,0,1-1.54.38,4.86,4.86,0,0,1-.92-.09,2.65,2.65,0,0,1-1.85-2,1.36,1.36,0,0,1-.06-.29A2.87,2.87,0,0,1,161.72,122.25Z" fill="#060707"/><rect y="270.97" width="1024" height="87.83" fill="#2d2a29"/></svg>