<svg id="Layer_1" data-name="Layer 1" xmlns="http://www.w3.org/2000/svg" xmlns:xlink="http://www.w3.org/1999/xlink" viewBox="0 0 1024 275.67"><defs><clipPath id="clip-path"><rect x="-1" width="1025" height="275" fill="none"/></clipPath><clipPath id="clip-path-2"><rect width="1025" height="356" fill="none"/></clipPath><linearGradient id="linear-gradient" x1="717.7" y1="-177.42" x2="307.3" y2="533.42" gradientUnits="userSpaceOnUse"><stop offset="0.15" stop-color="#e55626"/><stop offset="0.99" stop-color="#f69437"/></linearGradient><clipPath id="clip-path-3"><rect x="0.12" y="-1" width="388.88" height="278" fill="none"/></clipPath></defs><title>form 1</title><g clip-path="url(#clip-path)"><g clip-path="url(#clip-path-2)"><rect width="1025" height="356" fill="url(#linear-gradient)"/><polygon points="808.19 105.23 744.86 125.83 745.92 189.38 809.92 208.05 848.4 156.05 808.19 105.23" fill="#fff" opacity="0.03"/><polygon points="291.88 198.28 250.34 211.79 251.03 253.48 293.01 265.73 318.25 231.62 291.88 198.28" fill="#fff" opacity="0.03"/><polygon points="787.69 214.63 735.03 231.75 735.92 284.59 789.12 300.12 821.12 256.88 787.69 214.63" fill="#fff" opacity="0.03"/><polygon points="1005.69 167.16 953.03 184.28 953.92 237.12 1007.12 252.65 1039.12 209.41 1005.69 167.16" fill="#fff" opacity="0.03"/><polygon points="443.69 66.53 391.03 83.66 391.92 136.49 445.12 152.02 477.12 108.78 443.69 66.53" fill="#f15a29" opacity="0.17"/><polygon points="99.69 249.75 47.03 266.88 47.92 319.71 101.12 335.24 133.12 292 99.69 249.75" fill="#f15a29" opacity="0.17"/><polygon points="723.69 250.7 661.23 271.01 662.28 333.69 725.39 352.11 763.35 300.82 723.69 250.7" fill="#f15a29" opacity="0.17"/><polygon points="186.66 46.18 183.06 75.43 211.25 87.72 232.28 66.07 217.08 40.39 186.66 46.18" fill="#fff" opacity="0.03"/><polygon points="549.66 108.83 546.06 138.08 574.25 150.38 595.27 128.72 580.08 103.05 549.66 108.83" fill="#fff" opacity="0.03"/><polygon points="818.86 31.43 813.28 76.76 856.96 95.81 889.54 62.25 866 22.47 818.86 31.43" fill="#fff" opacity="0.03"/><polygon points="611.25 43.22 608.2 67.92 632.01 78.31 649.77 60.02 636.94 38.33 611.25 43.22" fill="#f69437" opacity="0.21"/><polygon points="238.85 108.47 233.18 154.51 277.55 173.86 310.65 139.78 286.73 99.37 238.85 108.47" fill="#f69437" opacity="0.21"/><polygon points="980.25 112.52 977.2 137.22 1001.01 147.61 1018.77 129.32 1005.94 107.63 980.25 112.52" fill="#f69437" opacity="0.21"/><polygon points="836.63 187.29 831.19 231.43 873.73 249.98 905.45 217.3 882.52 178.56 836.63 187.29" fill="#fff" opacity="0.03"/><polygon points="617.63 95.21 612.19 139.34 654.73 157.89 686.45 125.22 663.53 86.48 617.63 95.21" fill="#fff" opacity="0.03"/><polygon points="642.63 176.85 637.19 220.99 679.73 239.53 711.45 206.86 688.53 168.12 642.63 176.85" fill="#fff" opacity="0.03"/><polygon points="952.63 24.01 947.19 68.14 989.73 86.69 1021.45 54.02 998.53 15.28 952.63 24.01" fill="#fff" opacity="0.03"/><polygon points="859.75 124.94 852.84 181.03 906.89 204.59 947.21 163.08 918.07 113.85 859.75 124.94" fill="#f69437" opacity="0.21"/><polygon points="175.75 260.69 168.84 316.78 222.89 340.35 263.2 298.83 234.07 249.6 175.75 260.69" fill="#f15a29" opacity="0.17"/><polygon points="353.75 196.14 346.84 252.22 400.89 275.8 441.2 234.28 412.07 185.05 353.75 196.14" fill="#f15a29" opacity="0.17"/><polygon points="711.75 23.36 704.84 79.45 758.89 103.02 799.21 61.5 770.07 12.27 711.75 23.36" fill="#f69437" opacity="0.21"/><polygon points="953.91 237.51 947.22 291.8 999.55 314.62 1038.58 274.43 1010.37 226.77 953.91 237.51" fill="#f69437" opacity="0.21"/><polygon points="923.91 5.87 917.22 60.16 969.55 82.98 1008.58 42.79 980.37 -4.87 923.91 5.87" fill="#f69437" opacity="0.21"/><polygon points="749.75 191.39 744.98 230.06 782.25 246.31 810.05 217.69 789.96 183.75 749.75 191.39" fill="#f15a29" opacity="0.17"/><polygon points="574.25 208.96 569.48 247.63 606.75 263.88 634.55 235.25 614.46 201.31 574.25 208.96" fill="#fff" opacity="0.03"/><polygon points="153.25 189.02 148.48 227.69 185.75 243.94 213.55 215.31 193.46 181.37 153.25 189.02" fill="#fff" opacity="0.03"/><polygon points="450.84 203.12 443.36 263.88 501.9 289.4 545.57 244.43 514.01 191.11 450.84 203.12" fill="#fff" opacity="0.03"/><polygon points="40.84 109.14 33.36 169.89 91.91 195.42 135.57 150.45 104.02 97.12 40.84 109.14" fill="#fff" opacity="0.03"/></g></g><path d="M467,79a12,12,0,0,0-3.33-.5,7.22,7.22,0,0,0-4,1,3,3,0,0,0-1.51,2.69,3.52,3.52,0,0,0,.83,2.42,5.9,5.9,0,0,0,2.05,1.48,32.1,32.1,0,0,0,3.33,1.2,27.59,27.59,0,0,1,4,1.44,7,7,0,0,1,2.56,2.06,6.25,6.25,0,0,1,0,7,6.94,6.94,0,0,1-3.07,2.31,12,12,0,0,1-4.55.82,12.69,12.69,0,0,1-4.94-1,13.34,13.34,0,0,1-4.15-2.67l1.11-2a12.09,12.09,0,0,0,3.78,2.5,11,11,0,0,0,4.24.9,7.6,7.6,0,0,0,4.4-1.13,3.5,3.5,0,0,0,1.63-3,3.66,3.66,0,0,0-.83-2.49,5.51,5.51,0,0,0-2-1.5c-.81-.34-1.94-.75-3.4-1.21a35,35,0,0,1-3.95-1.44,6.68,6.68,0,0,1-2.54-2,5.55,5.55,0,0,1-1-3.49,5.27,5.27,0,0,1,1-3.23A6.6,6.6,0,0,1,459.51,77a11.6,11.6,0,0,1,4.34-.75,14.63,14.63,0,0,1,7.49,2.15l-1,2A12.78,12.78,0,0,0,467,79Z" fill="#fff"/><path d="M491.05,85.21a10.33,10.33,0,0,1,2.05,7.23H477.94a6.92,6.92,0,0,0,2.15,4.7,6.6,6.6,0,0,0,4.72,1.79,8.36,8.36,0,0,0,3.22-.62,7.48,7.48,0,0,0,2.57-1.77l1.32,1.32a9.08,9.08,0,0,1-3.17,2.2,10.45,10.45,0,0,1-4.08.78A9.4,9.4,0,0,1,480,99.68a8.43,8.43,0,0,1-3.21-3.25,10.28,10.28,0,0,1,0-9.49A8.38,8.38,0,0,1,480,83.68a9.27,9.27,0,0,1,4.62-1.16A7.86,7.86,0,0,1,491.05,85.21Zm0,5.43a6.69,6.69,0,0,0-1.89-4.53,6.18,6.18,0,0,0-4.5-1.68,6.48,6.48,0,0,0-4.58,1.7,6.79,6.79,0,0,0-2.11,4.51Z" fill="#fff"/><path d="M526.21,84.39A7.22,7.22,0,0,1,528,89.6v11.17h-2.36V90.15a5.57,5.57,0,0,0-1.4-4,5.17,5.17,0,0,0-3.87-1.44,5.89,5.89,0,0,0-4.57,2,7.68,7.68,0,0,0-1.64,5.14v9h-2.36V90.15a5.54,5.54,0,0,0-1.41-4,5.17,5.17,0,0,0-3.87-1.44,5.94,5.94,0,0,0-4.58,2,7.64,7.64,0,0,0-1.67,5.14v9H498V82.59h2.32v4.27A6.61,6.61,0,0,1,503,83.63a8.49,8.49,0,0,1,4.36-1.11,7.07,7.07,0,0,1,4.32,1.28,6.13,6.13,0,0,1,2.27,3.61,6.82,6.82,0,0,1,2.69-3.64,8.34,8.34,0,0,1,4.56-1.25A6.67,6.67,0,0,1,526.21,84.39Z" fill="#fff"/><path d="M536.55,76.18a1.63,1.63,0,0,1,.45,1.17,1.66,1.66,0,0,1-.47,1.18,1.52,1.52,0,0,1-1.13.48,1.55,1.55,0,0,1-1.16-.48,1.66,1.66,0,0,1-.47-1.18,1.61,1.61,0,0,1,.47-1.17,1.58,1.58,0,0,1,1.16-.46A1.52,1.52,0,0,1,536.55,76.18Zm-2.33,6.41h2.33v18.18h-2.33Z" fill="#fff"/><path d="M557.94,84.41a7.08,7.08,0,0,1,1.86,5.19v11.17h-2.36V90.15a5.54,5.54,0,0,0-1.42-4,5.29,5.29,0,0,0-4-1.46,6.14,6.14,0,0,0-4.49,1.73A7.11,7.11,0,0,0,545.64,91v9.78h-2.32V82.59h2.32v4.23a6.72,6.72,0,0,1,2.76-3.19,8.72,8.72,0,0,1,4.42-1.11A6.85,6.85,0,0,1,557.94,84.41Z" fill="#fff"/><path d="M577.43,100.77l0-3a6.54,6.54,0,0,1-2.81,2.37,9.5,9.5,0,0,1-4,.79,7,7,0,0,1-3.24-.72,5.17,5.17,0,0,1-2.17-2,5.27,5.27,0,0,1-.77-2.81,4.36,4.36,0,0,1,1.83-3.71,8.24,8.24,0,0,1,5-1.35h6.11V88.94a4.27,4.27,0,0,0-1.29-3.33,5.31,5.31,0,0,0-3.74-1.18,9.88,9.88,0,0,0-5.87,2.18l-1-1.59a15,15,0,0,1,3.51-1.89,11,11,0,0,1,3.81-.61,7.28,7.28,0,0,1,5.1,1.65,5.92,5.92,0,0,1,1.84,4.56l0,12Zm-2.31-3a5.52,5.52,0,0,0,2.27-3.17v-2.5h-5.86a6.86,6.86,0,0,0-3.65.8,2.65,2.65,0,0,0-1.25,2.39,3.22,3.22,0,0,0,1.2,2.62,4.84,4.84,0,0,0,3.18,1A7.14,7.14,0,0,0,575.12,97.8Z" fill="#fff"/><path d="M590.84,83.65a7.43,7.43,0,0,1,4-1.13V84.7a6.21,6.21,0,0,0-4.63,1.69,7.11,7.11,0,0,0-2,4.66v9.72h-2.32V82.59h2.32v4.23A7,7,0,0,1,590.84,83.65Z" fill="#fff"/><path d="M620.18,83.68a8.39,8.39,0,0,1,3.26,3.24,9.4,9.4,0,0,1,1.18,4.72,9.54,9.54,0,0,1-1.18,4.78,8.31,8.31,0,0,1-3.26,3.26,10.18,10.18,0,0,1-9.44,0,8.37,8.37,0,0,1-3.26-3.26,9.54,9.54,0,0,1-1.18-4.78,9.4,9.4,0,0,1,1.18-4.72,8.46,8.46,0,0,1,3.26-3.24,10.18,10.18,0,0,1,9.44,0Zm-8.26,1.75A6.26,6.26,0,0,0,609.49,88a7.72,7.72,0,0,0-.86,3.71,7.86,7.86,0,0,0,.86,3.75A6.3,6.3,0,0,0,611.92,98,7.41,7.41,0,0,0,619,98a6.3,6.3,0,0,0,2.43-2.53,7.86,7.86,0,0,0,.87-3.75,7.73,7.73,0,0,0-.87-3.71A6.26,6.26,0,0,0,619,85.43a7.41,7.41,0,0,0-7.08,0Z" fill="#fff"/><path d="M644.18,84.41A7.07,7.07,0,0,1,646,89.6v11.17h-2.36V90.15a5.5,5.5,0,0,0-1.42-4,5.28,5.28,0,0,0-4-1.46,6.15,6.15,0,0,0-4.5,1.73A7.16,7.16,0,0,0,631.88,91v9.78h-2.33V82.59h2.33v4.23a6.75,6.75,0,0,1,2.75-3.19,8.76,8.76,0,0,1,4.43-1.11A6.86,6.86,0,0,1,644.18,84.41Z" fill="#fff"/><path d="M473.62,119.44a12.16,12.16,0,0,1,4.66,4.48,12.62,12.62,0,0,1,0,12.65,12.36,12.36,0,0,1-4.66,4.53,13.87,13.87,0,0,1-13.16,0,12.39,12.39,0,0,1-4.67-4.53,12.3,12.3,0,0,1,4.67-17.13,14.1,14.1,0,0,1,13.16,0ZM463,123.07a8.14,8.14,0,0,0-4.13,7.16,8,8,0,0,0,1.13,4.2,8.25,8.25,0,0,0,3,3,8,8,0,0,0,4.11,1.11,7.82,7.82,0,0,0,4.06-1.11,8.12,8.12,0,0,0,3-3,8.6,8.6,0,0,0,0-8.38,8.09,8.09,0,0,0-3-3,7.91,7.91,0,0,0-4.06-1.1A8.16,8.16,0,0,0,463,123.07Z" fill="#fff"/><path d="M499.43,124.91a8.08,8.08,0,0,1,3.09,3.35,10.75,10.75,0,0,1,1.1,5,10.61,10.61,0,0,1-1.08,4.89,8,8,0,0,1-3.05,3.3,8.76,8.76,0,0,1-4.59,1.18,7.87,7.87,0,0,1-3.67-.82,6.82,6.82,0,0,1-2.64-2.37v9.75h-4.51v-25.3h4.51v3.05a6.66,6.66,0,0,1,2.58-2.37,7.83,7.83,0,0,1,3.66-.82A8.74,8.74,0,0,1,499.43,124.91Zm-1.85,12.21a6.34,6.34,0,0,0,0-8.07,5.32,5.32,0,0,0-7.53,0,6.33,6.33,0,0,0,0,8.09,4.93,4.93,0,0,0,3.78,1.56A4.84,4.84,0,0,0,497.58,137.12Z" fill="#fff"/><path d="M522,126.24q2.24,2.54,2.23,7.12,0,.9,0,1.35H510.45a5.16,5.16,0,0,0,5.31,4.23,7.06,7.06,0,0,0,2.73-.53,6.8,6.8,0,0,0,2.27-1.55l2.43,2.54a9.62,9.62,0,0,1-3.39,2.36,11.45,11.45,0,0,1-4.42.83,10.25,10.25,0,0,1-5-1.18,8.18,8.18,0,0,1-3.35-3.32,10.79,10.79,0,0,1,0-9.83,8.5,8.5,0,0,1,3.35-3.35,9.91,9.91,0,0,1,4.9-1.2C518.24,123.71,520.46,124.55,522,126.24Zm-1.9,5.45a4.46,4.46,0,0,0-1.35-3.26,5.26,5.26,0,0,0-6.71,0,5.3,5.3,0,0,0-1.65,3.28Z" fill="#fff"/><path d="M544.29,125.6a7.29,7.29,0,0,1,1.84,5.22v11.6h-4.55V132.14a4.19,4.19,0,0,0-1.11-3.07,4.06,4.06,0,0,0-3-1.13,4.63,4.63,0,0,0-3.56,1.53,5.65,5.65,0,0,0-1.3,3.82v9.13h-4.51V123.85h4.51v3.47q1.9-3.57,6.66-3.65A6.67,6.67,0,0,1,544.29,125.6Z" fill="#fff"/><path d="M562.8,122.6a11.51,11.51,0,0,0-3.45-.63,4.82,4.82,0,0,0-2.64.63,2,2,0,0,0-1,1.73,2.25,2.25,0,0,0,.68,1.69,5.22,5.22,0,0,0,1.7,1.11,25.06,25.06,0,0,0,2.79,1,30.43,30.43,0,0,1,4,1.46,7.25,7.25,0,0,1,2.69,2.15,5.93,5.93,0,0,1,1.11,3.75,6.46,6.46,0,0,1-1.19,3.87,7.53,7.53,0,0,1-3.3,2.52,12.66,12.66,0,0,1-4.81.86,15,15,0,0,1-5.55-1.06,15.54,15.54,0,0,1-4.72-2.82l1.94-4a14.49,14.49,0,0,0,4.13,2.67,11,11,0,0,0,4.27,1,5.43,5.43,0,0,0,3.06-.74A2.46,2.46,0,0,0,563,134a4.88,4.88,0,0,0-1.72-1.09c-.69-.28-1.64-.59-2.84-.94a34.56,34.56,0,0,1-4-1.42,7.13,7.13,0,0,1-2.67-2.1,5.8,5.8,0,0,1-1.11-3.7,6.17,6.17,0,0,1,1.13-3.7,7.24,7.24,0,0,1,3.19-2.44,12.16,12.16,0,0,1,4.77-.87,16.25,16.25,0,0,1,4.67.69,15.81,15.81,0,0,1,4.11,1.88l-1.87,4.06A17.91,17.91,0,0,0,562.8,122.6Z" fill="#fff"/><path d="M586.19,124.89a8.63,8.63,0,0,1,3.44,3.31,9.68,9.68,0,0,1,1.23,4.91,9.85,9.85,0,0,1-1.23,5,8.61,8.61,0,0,1-3.44,3.33,10.55,10.55,0,0,1-5.08,1.18,10.74,10.74,0,0,1-5.14-1.18,8.51,8.51,0,0,1-3.45-3.33,9.85,9.85,0,0,1-1.23-5,9.68,9.68,0,0,1,1.23-4.91,8.53,8.53,0,0,1,3.45-3.31,10.74,10.74,0,0,1,5.14-1.18A10.55,10.55,0,0,1,586.19,124.89Zm-8.9,4.23a6.38,6.38,0,0,0,0,8.12,5,5,0,0,0,3.82,1.57,4.86,4.86,0,0,0,3.74-1.57,6.38,6.38,0,0,0,0-8.12,4.89,4.89,0,0,0-3.74-1.56A5,5,0,0,0,577.29,129.12Z" fill="#fff"/><path d="M611.92,123.85v18.57h-4.54V139q-1.87,3.61-6.46,3.61a6.48,6.48,0,0,1-4.93-1.91,7.28,7.28,0,0,1-1.8-5.21V123.85h4.55v10.31a4.26,4.26,0,0,0,1,3.05,3.88,3.88,0,0,0,2.94,1.11,4.29,4.29,0,0,0,3.4-1.53,5.69,5.69,0,0,0,1.25-3.78v-9.16Z" fill="#fff"/><path d="M624.61,124.66a7.62,7.62,0,0,1,3.76-1v4.38a6.14,6.14,0,0,0-4.6,1.33,5.18,5.18,0,0,0-1.72,4.08v9h-4.51V123.85h4.51v3.57A6.78,6.78,0,0,1,624.61,124.66Z" fill="#fff"/><path d="M639.44,127.67a4.74,4.74,0,0,0-3.66,1.52,6.35,6.35,0,0,0,0,8,4.75,4.75,0,0,0,3.66,1.53,5.91,5.91,0,0,0,5-2.18l2.81,2.32a8.22,8.22,0,0,1-3.3,2.78,11.07,11.07,0,0,1-4.75,1,9.9,9.9,0,0,1-4.88-1.18,8.26,8.26,0,0,1-3.31-3.32,9.91,9.91,0,0,1-1.18-4.91,10,10,0,0,1,1.2-5,8.34,8.34,0,0,1,3.33-3.33,9.94,9.94,0,0,1,4.91-1.18,11.06,11.06,0,0,1,4.53.88,8.13,8.13,0,0,1,3.24,2.52l-2.74,2.6A6.3,6.3,0,0,0,639.44,127.67Z" fill="#fff"/><path d="M664.86,126.24q2.24,2.54,2.24,7.12c0,.6,0,1,0,1.35h-13.7a5.14,5.14,0,0,0,5.31,4.23,7,7,0,0,0,2.72-.53,6.6,6.6,0,0,0,2.27-1.55l2.43,2.54a9.49,9.49,0,0,1-3.38,2.36,11.49,11.49,0,0,1-4.42.83,10.32,10.32,0,0,1-5-1.18,8.24,8.24,0,0,1-3.35-3.32,10.75,10.75,0,0,1,0-9.83,8.44,8.44,0,0,1,3.35-3.35,9.84,9.84,0,0,1,4.89-1.2Q662.62,123.71,664.86,126.24ZM663,131.69a4.54,4.54,0,0,0-1.35-3.26,5.27,5.27,0,0,0-6.72,0,5.3,5.3,0,0,0-1.65,3.28Z" fill="#fff"/><path d="M696.28,119.67A11.39,11.39,0,0,1,700.8,124a12.22,12.22,0,0,1,1.63,6.28,12,12,0,0,1-1.65,6.26,11.53,11.53,0,0,1-4.57,4.32,13.8,13.8,0,0,1-6.62,1.57h-9.93v-24.3h10.1A13.57,13.57,0,0,1,696.28,119.67Zm-2.41,17.63a7.37,7.37,0,0,0,2.8-2.85,8.44,8.44,0,0,0,1-4.15,8.34,8.34,0,0,0-1-4.18,7.33,7.33,0,0,0-2.86-2.88,8.24,8.24,0,0,0-4.08-1h-5.38v16.1h5.55A8,8,0,0,0,693.87,137.3Z" fill="#fff"/><path d="M720.73,126.24q2.24,2.54,2.24,7.12,0,.9,0,1.35H709.23a5.14,5.14,0,0,0,5.31,4.23,7,7,0,0,0,2.72-.53,6.74,6.74,0,0,0,2.28-1.55L722,139.4a9.49,9.49,0,0,1-3.38,2.36,11.45,11.45,0,0,1-4.42.83,10.32,10.32,0,0,1-5-1.18,8.3,8.3,0,0,1-3.35-3.32,10,10,0,0,1-1.18-4.91,9.91,9.91,0,0,1,1.2-4.92,8.44,8.44,0,0,1,3.35-3.35,9.84,9.84,0,0,1,4.89-1.2Q718.49,123.71,720.73,126.24Zm-1.89,5.45a4.54,4.54,0,0,0-1.35-3.26,5.27,5.27,0,0,0-6.72,0,5.3,5.3,0,0,0-1.65,3.28Z" fill="#fff"/><path d="M723.35,123.88l4.72,0L732.93,138l4.75-14.12h4.55l-7.08,18.57H730.5Z" fill="#fff"/><path d="M758.59,126.24q2.24,2.54,2.24,7.12,0,.9,0,1.35H747.09a5.16,5.16,0,0,0,5.31,4.23,7,7,0,0,0,2.72-.53,6.74,6.74,0,0,0,2.28-1.55l2.42,2.54a9.49,9.49,0,0,1-3.38,2.36,11.45,11.45,0,0,1-4.42.83,10.32,10.32,0,0,1-5-1.18,8.3,8.3,0,0,1-3.35-3.32,10,10,0,0,1-1.18-4.91,9.91,9.91,0,0,1,1.2-4.92,8.44,8.44,0,0,1,3.35-3.35,9.84,9.84,0,0,1,4.89-1.2Q756.35,123.71,758.59,126.24Zm-1.89,5.45a4.54,4.54,0,0,0-1.35-3.26,5.27,5.27,0,0,0-6.72,0,5.3,5.3,0,0,0-1.65,3.28Z" fill="#fff"/><path d="M764.89,116.67h4.51v25.75h-4.51Z" fill="#fff"/><path d="M788.4,124.89a8.57,8.57,0,0,1,3.44,3.31,9.68,9.68,0,0,1,1.23,4.91,9.85,9.85,0,0,1-1.23,5,8.55,8.55,0,0,1-3.44,3.33,10.55,10.55,0,0,1-5.08,1.18,10.74,10.74,0,0,1-5.14-1.18,8.51,8.51,0,0,1-3.45-3.33,9.85,9.85,0,0,1-1.23-5,9.68,9.68,0,0,1,1.23-4.91,8.53,8.53,0,0,1,3.45-3.31,10.74,10.74,0,0,1,5.14-1.18A10.55,10.55,0,0,1,788.4,124.89Zm-8.9,4.23a6.38,6.38,0,0,0,0,8.12,5.35,5.35,0,0,0,7.57,0,6.41,6.41,0,0,0,0-8.12,5.37,5.37,0,0,0-7.57,0Z" fill="#fff"/><path d="M812.52,124.91a8.08,8.08,0,0,1,3.09,3.35,11.77,11.77,0,0,1,0,9.85,8,8,0,0,1-3.06,3.3,8.73,8.73,0,0,1-4.58,1.18,7.92,7.92,0,0,1-3.68-.82,7,7,0,0,1-2.64-2.37v9.75h-4.51v-25.3h4.51v3.05a6.76,6.76,0,0,1,2.59-2.37,7.78,7.78,0,0,1,3.66-.82A8.74,8.74,0,0,1,812.52,124.91Zm-1.86,12.21a6.31,6.31,0,0,0,0-8.07,5.32,5.32,0,0,0-7.53,0,6.33,6.33,0,0,0,0,8.09,4.94,4.94,0,0,0,3.79,1.56A4.84,4.84,0,0,0,810.66,137.12Z" fill="#fff"/><path d="M849.91,125.6a7.32,7.32,0,0,1,1.81,5.22v11.6h-4.55V132.14a4.25,4.25,0,0,0-1.09-3.1,4,4,0,0,0-3-1.13,4.5,4.5,0,0,0-3.42,1.56,5.68,5.68,0,0,0-1.26,3.78v9.17h-4.55V132.14a4.29,4.29,0,0,0-1.08-3.1,3.88,3.88,0,0,0-2.95-1.13,4.53,4.53,0,0,0-3.45,1.56,5.68,5.68,0,0,0-1.27,3.78v9.17h-4.51V123.85h4.51v3.43q1.85-3.54,6.53-3.61a6.87,6.87,0,0,1,4.08,1.17,6.11,6.11,0,0,1,2.3,3.28c1.18-2.92,3.49-4.4,6.91-4.45A6.48,6.48,0,0,1,849.91,125.6Z" fill="#fff"/><path d="M871.17,126.24q2.24,2.54,2.24,7.12c0,.6,0,1,0,1.35H859.66a5.16,5.16,0,0,0,5.31,4.23,7.06,7.06,0,0,0,2.73-.53,6.7,6.7,0,0,0,2.27-1.55l2.43,2.54a9.58,9.58,0,0,1-3.38,2.36,11.5,11.5,0,0,1-4.43.83,10.25,10.25,0,0,1-5-1.18,8.18,8.18,0,0,1-3.35-3.32,10.75,10.75,0,0,1,0-9.83,8.41,8.41,0,0,1,3.34-3.35,9.91,9.91,0,0,1,4.9-1.2Q868.93,123.71,871.17,126.24Zm-1.89,5.45a4.51,4.51,0,0,0-1.36-3.26,5.26,5.26,0,0,0-6.71,0,5.3,5.3,0,0,0-1.65,3.28Z" fill="#fff"/><path d="M893.5,125.6a7.29,7.29,0,0,1,1.84,5.22v11.6h-4.55V132.14a4.19,4.19,0,0,0-1.11-3.07,4.06,4.06,0,0,0-3-1.13,4.6,4.6,0,0,0-3.55,1.53,5.61,5.61,0,0,0-1.31,3.82v9.13h-4.51V123.85h4.51v3.47q1.92-3.57,6.67-3.65A6.66,6.66,0,0,1,893.5,125.6Z" fill="#fff"/><path d="M911.27,141.27a8.82,8.82,0,0,1-4.65,1.35,5.57,5.57,0,0,1-3.92-1.4,5.36,5.36,0,0,1-1.53-4.15v-9.16h-2.6l0-3.3h2.64v-5.1h4.47v5.1H911v3.3h-5.31v8.36a2.7,2.7,0,0,0,.49,1.82,1.86,1.86,0,0,0,1.46.54,6.48,6.48,0,0,0,2.64-.76Z" fill="#fff"/><path d="M458.61,175c.11,1.59.57,2.24,1.57,2.25s1.48-.59,1.66-2.28h9.41c.43,1.87.82,2.36,1.82,2.28s1.36-.68,1.46-2.2a1.78,1.78,0,0,1,2.44,1.78c0,2,0,3.95,0,6h-1.66v-3h-17.4v10.91h9.46v1.62c-.27,0-.54.06-.81.06h-8.23c-1.49,0-2.13-.59-2.14-2.07q0-6.71,0-13.4C456.2,175.42,457,174.8,458.61,175Z" fill="#fff"/><path d="M475.39,184.45a6.36,6.36,0,1,1-6.46,6.33A6.3,6.3,0,0,1,475.39,184.45Zm-.1,11a4.69,4.69,0,0,0,4.76-4.69,4.72,4.72,0,0,0-9.44-.06A4.65,4.65,0,0,0,475.29,195.48Z" fill="#fff"/><path d="M459.46,181.29h3.12v3.14h-3.12Z" fill="#fff"/><path d="M467.37,184.48h-3.14V181.3h3.14Z" fill="#fff"/><path d="M472.17,181.3v3.13H469V181.3Z" fill="#fff"/><path d="M459.46,186h3.12v3.18h-3.12Z" fill="#fff"/><path d="M464.19,189.22v-3.13h3.15v3.13Z" fill="#fff"/><path d="M473.75,174.22a5.92,5.92,0,0,1,0,1.52c-.08.31-.47.74-.74.76a1.08,1.08,0,0,1-.82-.66,21.56,21.56,0,0,1,0-3.41,1,1,0,0,1,.76-.63,1.17,1.17,0,0,1,.78.72A7.4,7.4,0,0,1,473.75,174.22Z" fill="#fff"/><path d="M459.38,174.13a4.72,4.72,0,0,1,0-1.41c.12-.38.52-.66.8-1,.28.29.78.56.81.87a16.37,16.37,0,0,1,0,3.13c0,.3-.56.54-.86.81-.26-.3-.66-.56-.75-.91A5.83,5.83,0,0,1,459.38,174.13Z" fill="#fff"/><path d="M475.35,190.76h2.23c.55,0,1,.27.9.83a1.33,1.33,0,0,1-1,.76,25.53,25.53,0,0,1-2.77,0c-.7,0-1.07-.27-1.06-1,0-1-.06-1.92,0-2.87,0-.33.47-.62.72-.92.3.3.78.56.85.91A11.76,11.76,0,0,1,475.35,190.76Z" fill="#fff"/><path d="M500.36,177.26h5.05v14.83h-1.47V178.57h-3.58Z" fill="#fff"/><path d="M517.67,184.74a3.34,3.34,0,0,1,1.38,2.82,4.26,4.26,0,0,1-.68,2.4,4.44,4.44,0,0,1-2,1.63,7.22,7.22,0,0,1-3,.59,9.61,9.61,0,0,1-5-1.44l.66-1.15a7.43,7.43,0,0,0,2,1,7.54,7.54,0,0,0,2.28.36,5.09,5.09,0,0,0,3.18-.9,2.86,2.86,0,0,0,1.16-2.39,2.55,2.55,0,0,0-1.15-2.26,5.82,5.82,0,0,0-3.23-.77h-1.91v-1l5-5.09H509v-1.31h9.26v1l-5.3,5.34.94.05A6.51,6.51,0,0,1,517.67,184.74Z" fill="#fff"/><path d="M524.67,184.59a2.53,2.53,0,0,1-1.43.48,1.56,1.56,0,0,1-1.18-.45,2,2,0,0,1-.43-1.38v-3.85h-.92l0-.64h.94v-1.67h.83v1.67l2.1,0v.66h-2.1v3.72c0,.8.3,1.2.89,1.2a2.11,2.11,0,0,0,1.07-.35Z" fill="#fff"/><path d="M531.45,179.21a2.52,2.52,0,0,1,.66,1.85v4h-.84v-3.79a2,2,0,0,0-.51-1.43,1.86,1.86,0,0,0-1.41-.52,2.18,2.18,0,0,0-1.68.71,2.7,2.7,0,0,0-.61,1.85V185h-.83v-9.17h.83v4.22a2.54,2.54,0,0,1,2.57-1.55A2.43,2.43,0,0,1,531.45,179.21Z" fill="#fff"/><path d="M546,191a4,4,0,0,1-3,1.16,4.77,4.77,0,0,1-2.23-.54,5.32,5.32,0,0,1-1.8-1.56l.74-1.1a4.74,4.74,0,0,0,1.53,1.32,3.65,3.65,0,0,0,1.74.46,2.51,2.51,0,0,0,2-.79,3.33,3.33,0,0,0,.69-2.27v-9.09h-5.35v-1.33h6.83v10.47A4.57,4.57,0,0,1,546,191Z" fill="#fff"/><path d="M558.14,192.09l0-1.86a4,4,0,0,1-1.72,1.45,5.82,5.82,0,0,1-2.43.48,4.38,4.38,0,0,1-2-.44,3.19,3.19,0,0,1-1.79-2.91,2.66,2.66,0,0,1,1.12-2.27,5,5,0,0,1,3.06-.83h3.73v-.84a2.61,2.61,0,0,0-.79-2,3.25,3.25,0,0,0-2.28-.72,6,6,0,0,0-3.59,1.34l-.63-1a9.22,9.22,0,0,1,2.14-1.15,6.7,6.7,0,0,1,2.33-.38,4.49,4.49,0,0,1,3.12,1,3.68,3.68,0,0,1,1.12,2.79l0,7.35Zm-1.41-1.81a3.37,3.37,0,0,0,1.39-1.94v-1.52h-3.58a4.22,4.22,0,0,0-2.23.48,1.63,1.63,0,0,0-.76,1.47,2,2,0,0,0,.73,1.6,3,3,0,0,0,1.94.6A4.38,4.38,0,0,0,556.73,190.28Z" fill="#fff"/><path d="M572.27,182.1a4.36,4.36,0,0,1,1.13,3.17v6.82H572v-6.48a3.36,3.36,0,0,0-.87-2.46,3.23,3.23,0,0,0-2.42-.89,3.74,3.74,0,0,0-2.74,1.06,4.32,4.32,0,0,0-1.18,2.8v6h-1.42V181h1.42v2.58a4.16,4.16,0,0,1,1.69-1.95,5.4,5.4,0,0,1,2.7-.68A4.2,4.2,0,0,1,572.27,182.1Z" fill="#fff"/><path d="M586.73,181v11.1h-1.44v-2.65a4.19,4.19,0,0,1-1.64,2,5,5,0,0,1-2.64.69,4.07,4.07,0,0,1-3.08-1.15,4.35,4.35,0,0,1-1.12-3.17V181h1.44v6.48a3.37,3.37,0,0,0,.86,2.45,3.14,3.14,0,0,0,2.37.88,3.51,3.51,0,0,0,2.79-1.22,4.7,4.7,0,0,0,1-3.15V181Z" fill="#fff"/><path d="M597.84,192.09l0-1.86a4,4,0,0,1-1.72,1.45,5.87,5.87,0,0,1-2.44.48,4.31,4.31,0,0,1-2-.44,3.2,3.2,0,0,1-1.32-1.2,3.12,3.12,0,0,1-.47-1.71,2.68,2.68,0,0,1,1.11-2.27,5,5,0,0,1,3.06-.83h3.73v-.84a2.64,2.64,0,0,0-.78-2,3.28,3.28,0,0,0-2.29-.72,6,6,0,0,0-3.58,1.34l-.64-1a9.43,9.43,0,0,1,2.14-1.15,6.75,6.75,0,0,1,2.34-.38,4.44,4.44,0,0,1,3.11,1,3.61,3.61,0,0,1,1.12,2.79l0,7.35Zm-1.41-1.81a3.42,3.42,0,0,0,1.39-1.94v-1.52h-3.59a4.21,4.21,0,0,0-2.22.48,1.63,1.63,0,0,0-.76,1.47,2,2,0,0,0,.73,1.6,2.94,2.94,0,0,0,1.94.6A4.41,4.41,0,0,0,596.43,190.28Z" fill="#fff"/><path d="M606,181.63a4.65,4.65,0,0,1,2.47-.69v1.34a3.81,3.81,0,0,0-2.83,1,4.36,4.36,0,0,0-1.22,2.85v5.93H603V181h1.42v2.58A4.26,4.26,0,0,1,606,181.63Z" fill="#fff"/><path d="M613.34,195.61a3,3,0,0,1-1.92.66,3.68,3.68,0,0,1-2.29-.77l.64-1.1a2.73,2.73,0,0,0,1.59.51,2,2,0,0,0,1.23-.44,3.25,3.25,0,0,0,.91-1.3L614,192l-4.6-11h1.5l3.82,9.53,3.66-9.53h1.47l-5.13,12.69A4.51,4.51,0,0,1,613.34,195.61Z" fill="#fff"/><path d="M636.94,190.78v1.31H626.43v-1.21l5.85-6.1a11.32,11.32,0,0,0,1.61-2.07,3.62,3.62,0,0,0,.59-1.74,2.17,2.17,0,0,0-.87-1.83,4,4,0,0,0-2.41-.65A5.54,5.54,0,0,0,629,179a6.92,6.92,0,0,0-2,1.33l-.66-1.08a8.23,8.23,0,0,1,2.41-1.49,7.1,7.1,0,0,1,2.64-.53,5.39,5.39,0,0,1,3.38,1,3.13,3.13,0,0,1,1.26,2.6,4.58,4.58,0,0,1-.73,2.24,14.42,14.42,0,0,1-2,2.58l-5,5.19Z" fill="#fff"/><path d="M650.06,179.13a10.59,10.59,0,0,1,0,11.1,6.19,6.19,0,0,1-9,0,10.54,10.54,0,0,1,0-11.1,6.21,6.21,0,0,1,9,0Zm-7.93.83a10.16,10.16,0,0,0,0,9.43,4.46,4.46,0,0,0,6.84,0,10.09,10.09,0,0,0,0-9.43,4.46,4.46,0,0,0-6.84,0Z" fill="#fff"/><path d="M653,177.26h5v14.83h-1.46V178.57H653Z" fill="#fff"/><path d="M670.77,178.17a3.25,3.25,0,0,1,1.25,2.71,3.12,3.12,0,0,1-.64,2,3.93,3.93,0,0,1-1.82,1.27,4.9,4.9,0,0,1,2.34,1.42,3.53,3.53,0,0,1,.84,2.38,3.73,3.73,0,0,1-1.45,3.1,6.26,6.26,0,0,1-4,1.14,6.33,6.33,0,0,1-4-1.13,3.65,3.65,0,0,1-1.45-3.07,3.47,3.47,0,0,1,.86-2.4,4.86,4.86,0,0,1,2.38-1.44,4.06,4.06,0,0,1-1.88-1.29,3.42,3.42,0,0,1,.61-4.68,6.55,6.55,0,0,1,6.89,0Zm-6.41,7.45a2.56,2.56,0,0,0-1.07,2.19,2.78,2.78,0,0,0,1.07,2.34,5.65,5.65,0,0,0,5.93,0,2.78,2.78,0,0,0,1.07-2.32,2.6,2.6,0,0,0-1.08-2.2,5.84,5.84,0,0,0-5.92,0Zm.43-6.62a2.58,2.58,0,0,0,0,3.94,4,4,0,0,0,2.53.72,3.91,3.91,0,0,0,2.51-.72,2.59,2.59,0,0,0,0-3.94,4,4,0,0,0-2.51-.71A4.08,4.08,0,0,0,664.79,179Z" fill="#fff"/><g clip-path="url(#clip-path-3)"><ellipse cx="119.22" cy="147.28" rx="235.78" ry="228.54" fill="#fff"/></g><path d="M232.21,198.84a6.2,6.2,0,0,1,3.24,1.81,4.16,4.16,0,0,1,1.13,2.82q0,3.17,0,6.34c0,2.62-1.62,4.42-4.42,5a12.49,12.49,0,0,1-2.36.22c-7.46,0-14.92,0-22.39,0-.5,0-.65-.13-.65-.64q0-14.4,0-28.79c0-.5.13-.65.64-.64h21.66a9.19,9.19,0,0,1,3.76.69,4.54,4.54,0,0,1,3,4.17,48.81,48.81,0,0,1-.07,5.8c-.14,1.89-.9,2.73-3.16,3.12ZM220.36,211.4c2.76,0,5.52,0,8.28,0a8.5,8.5,0,0,0,2.23-.35,2,2,0,0,0,1.46-1.92c0-1.76.08-3.52,0-5.28a2.26,2.26,0,0,0-2-2.37,5.81,5.81,0,0,0-1.3-.18H211.38c-.45,0-.56.16-.56.58,0,3,0,5.95,0,8.92,0,.53.19.64.67.64,2.95,0,5.91,0,8.87,0Zm-.28-13.7v0c2.88,0,5.77,0,8.66,0,1.86,0,2.92-1,2.94-2.68,0-1.18,0-2.36,0-3.54a2.47,2.47,0,0,0-1.9-2.54,6.16,6.16,0,0,0-1.71-.26c-5.54,0-11.09,0-16.63,0-.5,0-.62.16-.62.63,0,2.59,0,5.18,0,7.76,0,.7,0,.71.7.71Z" fill="#f15a29"/><path d="M180.48,201.37V202c0,1.85,0,3.7,0,5.55a3.54,3.54,0,0,0,3.8,3.79q10,0,19.92,0c1.05,0,.92-.11.93.93,0,.72,0,1.44,0,2.16,0,.49-.16.59-.6.59-2.19,0-4.37,0-6.56,0-4.86,0-9.72-.08-14.58,0a6.85,6.85,0,0,1-6.92-5.84,7.4,7.4,0,0,1,0-.94V191.78a6.67,6.67,0,0,1,6.82-6.81c7.08,0,14.15,0,21.23,0,.5,0,.69.12.66.64,0,.88,0,1.76,0,2.64,0,.32-.11.47-.43.44h-20.5a3.49,3.49,0,0,0-3.67,2.85,5,5,0,0,0-.06.94c0,1.52,0,3,0,4.55,0,.51.16.64.66.64q9.58,0,19.18,0c.68,0,.69,0,.69.68s0,1.62,0,2.43c0,.48-.12.62-.62.62q-9,0-18.07,0Z" fill="#f15a29"/><path d="M238.67,211.38h20.72a3.55,3.55,0,0,0,3.83-3.61,27.76,27.76,0,0,0,0-3.16,3.44,3.44,0,0,0-3.47-3.23H244.56a6.68,6.68,0,0,1-3.31-.78,6.22,6.22,0,0,1-3.54-5.11,24.72,24.72,0,0,1,.07-5.16,6.46,6.46,0,0,1,6.39-5.34c6.83,0,13.66,0,20.5,0,.39,0,.52.13.51.52,0,.84,0,1.69,0,2.53,0,.47-.13.6-.6.6q-9.58,0-19.18,0a3.64,3.64,0,0,0-3.19,1.64,6.76,6.76,0,0,0,.06,5.73,3.64,3.64,0,0,0,3.13,1.55h15a6.72,6.72,0,0,1,6.9,6.68c0,1.39,0,2.78,0,4.18a6.65,6.65,0,0,1-6.56,6.63c-7.17,0-14.34,0-21.51,0-.37,0-.54-.07-.52-.49C238.68,213.52,238.67,212.5,238.67,211.38Z" fill="#f15a29"/><path d="M107.8,223.57c-1.24,0-2.42,0-3.59,0-.1,0-.24-.16-.28-.28a1.46,1.46,0,0,1,0-.47V193.66c0-.77,0-.77.77-.77h15.21a6.74,6.74,0,0,1,5,2,5.39,5.39,0,0,1,1.63,3.94c0,3.42,0,6.83,0,10.25a6.09,6.09,0,0,1-6,5.93c-3.14.08-6.3,0-9.45,0-.88,0-1.76,0-2.64,0-.44,0-.57.15-.57.58q0,3.64,0,7.29Zm0-19.67V211c0,.36,0,.6.5.6,3.73,0,7.46,0,11.19,0a3.14,3.14,0,0,0,3.05-3q0-4.56,0-9.14a2.83,2.83,0,0,0-.4-1.33,3.5,3.5,0,0,0-3.31-1.69c-3.46,0-6.93,0-10.4,0-.48,0-.63.16-.63.64,0,2.31,0,4.61,0,6.92Z" fill="#f15a29"/><path d="M141.1,206c-2.9,0-5.81,0-8.71,0-.53,0-.72.14-.69.69,0,1,0,2,0,3a1.83,1.83,0,0,0,2,2c2.26,0,4.51,0,6.76,0h7.35c.44,0,.58.13.56.56,0,.78,0,1.55,0,2.33,0,.34-.13.45-.47.45-5.07,0-10.14,0-15.21,0a4.89,4.89,0,0,1-4.71-3.4,5.68,5.68,0,0,1-.16-1.36q0-5.6,0-11.19a6.07,6.07,0,0,1,5.53-6.06c.93-.08,1.87-.08,2.8-.08,2.88,0,5.78,0,8.66.09a5.75,5.75,0,0,1,5.57,5.87c0,2.15,0,4.29,0,6.44,0,.56-.19.68-.7.67Zm-2-3.47c2.27,0,4.54,0,6.81,0,.45,0,.63-.11.61-.59,0-.74,0-1.48,0-2.22a3.19,3.19,0,0,0-3.07-3.27q-4.31-.09-8.61,0a3.24,3.24,0,0,0-3.12,3.24c0,.76,0,1.52,0,2.27,0,.45.16.57.58.56Z" fill="#f15a29"/><path d="M174.69,206.33c0,2.69,0,5.39,0,8.08,0,.48-.12.65-.61.63q-1.35-.06-2.7,0c-.47,0-.59-.14-.59-.6q0-7.22,0-14.42c0-2.13-1.12-3.52-3.23-3.61-2.92-.12-5.85-.1-8.77,0a3.14,3.14,0,0,0-3.11,3.44c0,4,0,8.1,0,12.15,0,.83,0,1.65,0,2.48,0,.37-.08.55-.5.53-1,0-2,0-3,0-.36,0-.44-.12-.44-.46,0-5.3,0-10.6,0-15.9A6,6,0,0,1,157,193a9.71,9.71,0,0,1,1.21-.11c3.38,0,6.76,0,10.14,0a6.45,6.45,0,0,1,5.47,2.88,4.61,4.61,0,0,1,.85,2.64c0,2.64,0,5.28,0,7.92Z" fill="#f15a29"/><path d="M101.64,199.87c0,2.76,0,5.53,0,8.29a6.63,6.63,0,0,1-5.27,6.45,6.5,6.5,0,0,1-1.39.15H94c-4.1.11-8.2,0-12.3,0-1.18,0-2.37,0-3.56,0a8.1,8.1,0,0,1-2.41-.25A6.62,6.62,0,0,1,71,209.84a5.93,5.93,0,0,1-.23-1.68c0-.66,0-1.31,0-2q0-6.54,0-13.08c0-.71,0-1.42,0-2.13A6.48,6.48,0,0,1,72,187.57a6.57,6.57,0,0,1,4.36-2.69,18.74,18.74,0,0,1,2-.09c2.23-.11,4.46,0,6.69,0s4.47,0,6.7,0c1.11,0,2.23,0,3.34,0a6.6,6.6,0,0,1,4.38,1.77,6.43,6.43,0,0,1,2,3.71,10,10,0,0,1,.12,1.33c0,2.77,0,5.54,0,8.31ZM86.33,211.19h7a8.71,8.71,0,0,0,1.44-.09,3.47,3.47,0,0,0,2.38-1.36,3,3,0,0,0,.68-1.72c0-.34,0-.68,0-1l0-2.42,0-1.77,0-2.07,0-1.85,0-2c0-.63,0-1.26,0-1.89,0-.88,0-1.77,0-2.65a6.35,6.35,0,0,0-.09-1.07,3.42,3.42,0,0,0-1-2,3.67,3.67,0,0,0-2.44-1c-.13,0-.26,0-.39,0H78.91a9.87,9.87,0,0,0-1.22.08,3.49,3.49,0,0,0-2.21,1.11,3.21,3.21,0,0,0-.93,2.18c0,.7,0,1.39,0,2.09l0,1.93,0,2.06,0,1.9,0,2,0,1.86,0,2c0,.55,0,1.11,0,1.66a7,7,0,0,0,.15,1.29,3.53,3.53,0,0,0,3.55,2.71c.06,0,.12-.06.18-.06h7.68Z" fill="#f15a29"/><path d="M156.6,56.23l-9.74,2.31a45.78,45.78,0,0,0-34.42,35.94l-1.61,8.42a45.79,45.79,0,0,0,21.43,47.86l15.35,9.2a45.76,45.76,0,0,0,48.47-.87l11.06-7.18A45.77,45.77,0,0,0,228,114.7h0a45.78,45.78,0,0,0-16.19-36.11L196.72,65.84A45.76,45.76,0,0,0,156.6,56.23Z" fill="#f15a29"/><path d="M132.69,75.48l-5.9,6.75A42.33,42.33,0,0,0,120.23,127l3.15,7.17c7.06,16.07,23.09,26.06,40.13,25l15.88-1a40,40,0,0,0,34.76-25.59l4.36-11.1a42.91,42.91,0,0,0-4-38.76h0a41.41,41.41,0,0,0-30.3-18.88l-17.48-1.85A39.57,39.57,0,0,0,132.69,75.48Z" fill="#f69437"/><ellipse cx="169" cy="109.85" rx="44.8" ry="45.24" fill="#fff"/><path d="M156.63,76.42h.94s.08,0,.11,0a3.94,3.94,0,0,1,1.18.3,5,5,0,0,1,2.23,1.88,14.32,14.32,0,0,1,2,4.2,37.63,37.63,0,0,1,1,4c.27,1.38.48,2.78.64,4.19.13,1.17.19,2.35.29,3.52a9.82,9.82,0,0,0-.63,1.58,10,10,0,0,0-.45,1.87,12.57,12.57,0,0,1-.43-4.29,14.65,14.65,0,0,0-.68,1.75,3.69,3.69,0,0,1,0-.47c0-1,0-1.9,0-2.85a40.64,40.64,0,0,0-.57-4.79,18.86,18.86,0,0,0-1.68-5.17,7.09,7.09,0,0,0-1.5-2.09,3.39,3.39,0,0,0-2.18-1,4.44,4.44,0,0,0-3.11,1.14,4.31,4.31,0,0,0-1.18,1.92,7.84,7.84,0,0,0-.31,3.69,28.83,28.83,0,0,0,1,4.69,36.42,36.42,0,0,0,4.83,10,13.82,13.82,0,0,0,2.29,2.66c.46.4.69.36,1-.17a8.46,8.46,0,0,0,.8-2.06c.13-.48.23-1,.35-1.46a7.28,7.28,0,0,0,.35,1.21,2.9,2.9,0,0,0,1.08,1.57.12.12,0,0,1,.06.15,3.53,3.53,0,0,0,0,1.71,10.73,10.73,0,0,0,.54,1.75,8.08,8.08,0,0,0,.47,1,3.76,3.76,0,0,1,.06-1.7,4.92,4.92,0,0,1,.68-1.58,13.26,13.26,0,0,0,.86,6.15s0-.06,0-.09a23.07,23.07,0,0,1,.14-3.22,6.77,6.77,0,0,1,.44-1.88,1.37,1.37,0,0,1,.67-.79c.09,0,.15,0,.2.07a11.78,11.78,0,0,1,.79,2.37,4.07,4.07,0,0,1,.06,1.63s0,.08,0,.1.08,0,.1-.07a8.31,8.31,0,0,0,1.6-3.46,5.32,5.32,0,0,0,.06-1c0-.32-.1-.63-.11-.94h0a7.63,7.63,0,0,1,1,1,6.49,6.49,0,0,1,1.25,2.4,4.18,4.18,0,0,1,.13,1.41c0,.28-.11.54-.12.82,0,0,0,0,0,0h0v0a1.19,1.19,0,0,0,.09-.15,13.83,13.83,0,0,0,.91-2.39,8,8,0,0,0,.33-2.24c0-.09,0-.17,0-.29a1.26,1.26,0,0,1,.33.32,3.45,3.45,0,0,1,.53,1.42c.06.34.11.69.17,1a2.07,2.07,0,0,0,.18-.47,6.73,6.73,0,0,0,.34-2.89,2.78,2.78,0,0,0-.45-1.24.18.18,0,0,1,0-.24,3,3,0,0,0,.32-.73s0,0,0,.06a9.46,9.46,0,0,0,.92,2.58c.32.58.56.61,1.06.18a11.13,11.13,0,0,0,1.54-1.68,34,34,0,0,0,3.62-6,32.54,32.54,0,0,0,2.69-8.1,12.28,12.28,0,0,0,.26-3.87,5.83,5.83,0,0,0-1.14-2.86,4.13,4.13,0,0,0-2.44-1.44,3.2,3.2,0,0,0-2.81.58,5.1,5.1,0,0,0-1.26,1.32,14.85,14.85,0,0,0-1.67,3.59,23.41,23.41,0,0,0-.87,3.9c-.14,1-.26,2-.32,3,0,.47-.07.93-.08,1.39q0,1.14,0,2.28c0,.55.09,1.1.08,1.65l-.33-.86c-.07-.18-.15-.35-.23-.54,0,.5,0,1,0,1.47a3.83,3.83,0,0,1-.25,1.38,1.35,1.35,0,0,1-.82.89c-.13.05-.19,0-.24-.11a2.32,2.32,0,0,1-.07-1.08,4.31,4.31,0,0,1,.61-1.45s.07-.08.05-.12-.09,0-.14,0a2.78,2.78,0,0,0-1,.25c.1-1.39.21-2.78.34-4.17s.3-2.82.52-4.22a36.77,36.77,0,0,1,1.58-6.3,11.4,11.4,0,0,1,2.28-4,4.56,4.56,0,0,1,4.24-1.46,6.47,6.47,0,0,1,3.54,1.75,7.74,7.74,0,0,1,2.38,5.49v1.6c0,.51-.05,1-.12,1.53a25.4,25.4,0,0,1-1,4.56,62.13,62.13,0,0,1-4.51,10.63c-.27.51-.57,1-.87,1.52a.53.53,0,0,0,.14.82.87.87,0,0,1,.1.08,7.56,7.56,0,0,1,1.3,1.29,8.56,8.56,0,0,1,1.56,3.43,10.42,10.42,0,0,1,.26,2.89c0,.74-.13,1.47-.22,2.2s-.19,1.64-.3,2.46c-.13,1-.29,2-.43,3-.17,1.3-.4,2.6-.61,3.9s-.41,2.47-.61,3.71c-.14.88-.25,1.77-.44,2.64a31.25,31.25,0,0,1-1.62,4.9c-.06,0-.06-.09-.08-.15-.1-.23-.18-.47-.29-.69a17.76,17.76,0,0,0-3-4.32,16.48,16.48,0,0,0-3.35-2.76,10.26,10.26,0,0,0-4.34-1.58,6.57,6.57,0,0,0-3.22.48,10.13,10.13,0,0,0-3.11,2,20.19,20.19,0,0,0-3.22,3.8,14,14,0,0,0-1.69,3.68c-.16.57-.24,1.15-.39,1.72a3.57,3.57,0,0,1-.12.4,1.39,1.39,0,0,1-.06-.13c-.54-1.22-1.06-2.46-1.54-3.71a21.06,21.06,0,0,1-1-3.18,26.94,26.94,0,0,1-.42-3.8c-.06-.81-.11-1.6-.16-2.4s-.15-1.33-.22-2c-.11-.88-.14-1.77-.19-2.66s-.14-2.06-.24-3.08-.16-1.86-.23-2.8a10.85,10.85,0,0,1,.19-3,11.45,11.45,0,0,1,2.4-4.83,9.36,9.36,0,0,1,1-1.07.45.45,0,0,0,.11-.65,1.19,1.19,0,0,0-.08-.16c-1.25-2.21-2.43-4.46-3.46-6.79a40.1,40.1,0,0,1-2.95-8.86,18.46,18.46,0,0,1-.4-3.39s0-.09,0-.11V84.5s0-.06,0-.09a7.65,7.65,0,0,1,.07-1.06,9.33,9.33,0,0,1,.89-3.15,6.92,6.92,0,0,1,4.54-3.58A5.45,5.45,0,0,1,156.63,76.42Zm17.46,45.36h.47a3.78,3.78,0,0,0,.47-.06,9.18,9.18,0,0,0,5.32-2.74,3.42,3.42,0,0,0,.9-3.57,7,7,0,0,0-3.11-4,3.27,3.27,0,0,0-2.81-.31,4.59,4.59,0,0,0-1.94,1.21,9.41,9.41,0,0,0-2.53,4.67,5.51,5.51,0,0,0,.52,3.8,1.64,1.64,0,0,0,1.39,1A11.63,11.63,0,0,0,174.09,121.78Zm-9.79,0h.29a1.89,1.89,0,0,0,1.71-.86,5,5,0,0,0,.72-2.23,7.54,7.54,0,0,0-.35-2.62,7.68,7.68,0,0,0-3.76-4.81,2.88,2.88,0,0,0-2.11-.34,5.25,5.25,0,0,0-2.54,1.53,7.49,7.49,0,0,0-1.68,2.71,3.27,3.27,0,0,0,.48,3.33,7.68,7.68,0,0,0,1.63,1.54,10,10,0,0,0,5.61,1.75Z" fill="#563a39"/><path d="M180.33,135c.06.27.13.53.18.8a5.63,5.63,0,0,1-1.09,4.6,9.8,9.8,0,0,1-5,3.49,11.28,11.28,0,0,1-3.11.49c-.05,0-.12,0-.16,0h-2.41s-.06,0-.1,0a28.71,28.71,0,0,1-4.14-.39,12.82,12.82,0,0,1-3.37-1,5.68,5.68,0,0,1-3.44-5.5c0-.09,0-.18,0-.26.15-.57.23-1.16.39-1.73a13.74,13.74,0,0,1,1.69-3.67A20.26,20.26,0,0,1,163,128a10.22,10.22,0,0,1,3.11-2,6.53,6.53,0,0,1,3.21-.48,10,10,0,0,1,4.35,1.58,16.11,16.11,0,0,1,3.35,2.75,17.76,17.76,0,0,1,3,4.32c.11.22.19.46.29.7C180.27,134.86,180.27,134.92,180.33,135Zm-3.58,3.38c-.06,0-.1.06-.15.09a17.06,17.06,0,0,1-3.26,2,9.24,9.24,0,0,1-5.56.63,17.08,17.08,0,0,1-4.5-1.63c-.62-.31-1.22-.66-1.83-1h0c0,.09.07.14.12.2a10.8,10.8,0,0,0,5.13,3.59,8.23,8.23,0,0,0,9.51-3,3.72,3.72,0,0,0,.54-.87l0,0h0Zm.55-5.1a.84.84,0,0,0-.19-.65,3.86,3.86,0,0,0-1-.92,2,2,0,0,0-2.55.21,2.19,2.19,0,0,0-.57,1.48,5.85,5.85,0,0,1-.89,2.76c-.29.47-.6.92-.92,1.36a.4.4,0,0,0,.15.65.64.64,0,0,0,.6,0,16.08,16.08,0,0,0,4-2.27,3.35,3.35,0,0,0,1.38-2.62Zm-15.76.36a1.89,1.89,0,0,0,.29,1,5.86,5.86,0,0,0,1.73,1.74,22.29,22.29,0,0,0,2.87,1.59,3.29,3.29,0,0,0,.6.21.57.57,0,0,0,.56-.15.28.28,0,0,0,.1-.36,1.25,1.25,0,0,0-.3-.42c-.06-.06-.13-.12-.12-.21a.34.34,0,0,0-.12-.27l-.2-.24a5.73,5.73,0,0,1-1.14-3.28,1.94,1.94,0,0,0-2.26-1.92,2.44,2.44,0,0,0-2,2.28Z" fill="#af8070"/><path d="M187.69,83.75h0v1.61h0Q187.71,84.55,187.69,83.75Z" fill="#af8070"/><path d="M162.52,99.5c-.12.49-.22,1-.35,1.47a8.39,8.39,0,0,1-.8,2c-.3.54-.53.58-1,.18a14.23,14.23,0,0,1-2.3-2.66,36.77,36.77,0,0,1-4.83-10,28.92,28.92,0,0,1-1-4.68,7.87,7.87,0,0,1,.3-3.7,4.28,4.28,0,0,1,4.29-3.06,3.39,3.39,0,0,1,2.18,1,7,7,0,0,1,1.51,2.1,18.75,18.75,0,0,1,1.68,5.17,42.69,42.69,0,0,1,.57,4.78c.06,1,.07,1.9,0,2.85a3.7,3.7,0,0,0,0,.47l0,.17a9.52,9.52,0,0,0-.36,2.71C162.43,98.75,162.49,99.13,162.52,99.5Z" fill="#348fc0"/><path d="M175.24,96.89c0-.55-.06-1.1-.08-1.65q0-1.14,0-2.28c0-.46.05-.92.08-1.39.06-1,.18-2,.33-3a22.66,22.66,0,0,1,.87-3.9,14.29,14.29,0,0,1,1.66-3.59,5.64,5.64,0,0,1,1.26-1.32,3.21,3.21,0,0,1,2.82-.58,4.16,4.16,0,0,1,2.44,1.44,5.78,5.78,0,0,1,1.13,2.86,11.71,11.71,0,0,1-.26,3.87,32.11,32.11,0,0,1-2.68,8.1,34.63,34.63,0,0,1-3.62,6,11.74,11.74,0,0,1-1.55,1.68c-.49.43-.74.4-1-.18a9.83,9.83,0,0,1-.93-2.58.25.25,0,0,0,0-.07,4.58,4.58,0,0,0,0-1.88A14.5,14.5,0,0,0,175.24,96.89Z" fill="#348fc0"/><path d="M175.24,96.89a12.65,12.65,0,0,1,.41,1.58,4.41,4.41,0,0,1,0,1.88,2.8,2.8,0,0,1-.32.73.18.18,0,0,0,0,.24,2.82,2.82,0,0,1,.45,1.25,6.77,6.77,0,0,1-.34,2.89,2.07,2.07,0,0,1-.18.47c-.06-.34-.12-.69-.17-1a3.27,3.27,0,0,0-.53-1.42,1.12,1.12,0,0,0-.33-.32c0,.11,0,.2,0,.29a8.1,8.1,0,0,1-.33,2.24,13.43,13.43,0,0,1-.91,2.38,1.19,1.19,0,0,1-.09.15h0c0-.28.09-.54.12-.82a4.18,4.18,0,0,0-.13-1.41,6.49,6.49,0,0,0-1.25-2.4,8.28,8.28,0,0,0-1-1h0c0,.31.1.62.11.94a4.57,4.57,0,0,1-.07,1,8.08,8.08,0,0,1-1.59,3.45s-.05.09-.1.07,0-.06,0-.09a3.94,3.94,0,0,0-.06-1.64,12.44,12.44,0,0,0-.79-2.37c0-.11-.11-.11-.2-.07a1.41,1.41,0,0,0-.67.79,6.43,6.43,0,0,0-.44,1.89,23,23,0,0,0-.14,3.21s0,.06,0,.1a13.15,13.15,0,0,1-.86-6.16,5.2,5.2,0,0,0-.68,1.59,3.75,3.75,0,0,0-.06,1.7,8.21,8.21,0,0,1-.47-1,10.93,10.93,0,0,1-.54-1.74,3.57,3.57,0,0,1,0-1.72.12.12,0,0,0-.06-.15,2.9,2.9,0,0,1-1.08-1.57,7.28,7.28,0,0,1-.35-1.21c0-.37-.09-.75-.1-1.12a9.64,9.64,0,0,1,.36-2.72l0-.16a16.57,16.57,0,0,1,.68-1.75,12.55,12.55,0,0,0,.44,4.29,10,10,0,0,1,.45-1.87,9.82,9.82,0,0,1,.63-1.58.66.66,0,0,0,0,.14l0,.06A3.51,3.51,0,0,0,165,96a1.9,1.9,0,0,0,.16.61,5.66,5.66,0,0,0,.54,1.36A4,4,0,0,0,166,95.4h0a6.27,6.27,0,0,1,.66.7c.25.37.52.74.73,1.13a7.75,7.75,0,0,1,.48,1.11,9.9,9.9,0,0,1,1-2.75,8.26,8.26,0,0,0,.87,3,3.72,3.72,0,0,0,.33-.51,3.54,3.54,0,0,0,.46-2.34,2,2,0,0,1-.11-.48h0a12.48,12.48,0,0,1,1.16,2.55,2.68,2.68,0,0,1,.33-.48,2.77,2.77,0,0,1,.88-.64,3,3,0,0,1,1-.24s.11,0,.13,0,0,.09,0,.12a3.94,3.94,0,0,0-.61,1.45,2.2,2.2,0,0,0,.06,1.08c.05.15.12.16.25.11a1.33,1.33,0,0,0,.81-.89A3.58,3.58,0,0,0,174.7,97c0-.49,0-1,0-1.47.07.18.14.36.22.54S175.13,96.6,175.24,96.89Z" fill="#060707"/><path d="M174.09,121.78c-.44,0-.88.07-1.32,0a1.68,1.68,0,0,1-1.39-1,5.57,5.57,0,0,1-.52-3.8,9.41,9.41,0,0,1,2.53-4.67,4.59,4.59,0,0,1,1.94-1.21,3.27,3.27,0,0,1,2.81.31,7,7,0,0,1,3.11,4,3.4,3.4,0,0,1-.9,3.57,9.18,9.18,0,0,1-5.32,2.74,3.78,3.78,0,0,1-.47.06C174.41,121.8,174.25,121.78,174.09,121.78Zm.6-.27a3.6,3.6,0,0,0,.8-.06,3,3,0,0,0,2.16-1.93,2.43,2.43,0,0,0,.25-1.16.61.61,0,0,0-.89-.54l-.31.16a3.92,3.92,0,0,1-.36.16,1,1,0,0,1-1.15-.46.9.9,0,0,1,0-1.17c.1-.12.21-.21.31-.33a.64.64,0,0,0-.38-1.09,3,3,0,0,0-1.66.14,3,3,0,0,0-2,2.11,4.12,4.12,0,0,0,.21,2.45,2.51,2.51,0,0,0,1.67,1.55,4.38,4.38,0,0,0,1.3.17Z" fill="#fff"/><path d="M164.3,121.83a10,10,0,0,1-5.61-1.75,7.68,7.68,0,0,1-1.63-1.54,3.27,3.27,0,0,1-.49-3.33,7.44,7.44,0,0,1,1.68-2.72,5.41,5.41,0,0,1,2.54-1.53,2.88,2.88,0,0,1,2.11.35,7.59,7.59,0,0,1,3.76,4.81,7.51,7.51,0,0,1,.35,2.62,4.93,4.93,0,0,1-.72,2.23,1.87,1.87,0,0,1-1.71.85Zm-4.42-3.48c0,.11,0,.26,0,.42a1.37,1.37,0,0,0,.07.34,3,3,0,0,0,2.13,2.31,5.26,5.26,0,0,0,1,.1,2.68,2.68,0,0,0,1.77-.44,2.82,2.82,0,0,0,1.39-2.74c-.05-.51-.47-.85-1-.45a2.38,2.38,0,0,1-.3.18.92.92,0,0,1-1-.09,1,1,0,0,1-.07-1.64l.16-.17a.58.58,0,0,0,.06-.77.75.75,0,0,0-.58-.34,3.31,3.31,0,0,0-3.7,3.29Z" fill="#fff"/><path d="M172.92,108.22l0,0h0l0,0Z" fill="#060707"/><path d="M177.3,133.24a3.39,3.39,0,0,1-1.38,2.62,16.68,16.68,0,0,1-3.95,2.27.66.66,0,0,1-.61,0,.39.39,0,0,1-.14-.65c.32-.45.63-.9.91-1.36a6,6,0,0,0,.9-2.77,2.15,2.15,0,0,1,.56-1.48,2,2,0,0,1,2.56-.21,4,4,0,0,1,1,.92A.88.88,0,0,1,177.3,133.24Z" fill="#060707"/><path d="M161.54,133.6a2.43,2.43,0,0,1,2-2.27,1.94,1.94,0,0,1,2.26,1.91,5.68,5.68,0,0,0,1.15,3.29l.2.24a.3.3,0,0,1,.11.27c0,.08.07.14.13.2a1.42,1.42,0,0,1,.29.43.27.27,0,0,1-.09.36.6.6,0,0,1-.56.15,4.39,4.39,0,0,1-.61-.21,22.23,22.23,0,0,1-2.86-1.6,5.78,5.78,0,0,1-1.74-1.74A2,2,0,0,1,161.54,133.6Z" fill="#060707"/><path d="M161.45,138.45c.6.34,1.2.69,1.82,1a17.2,17.2,0,0,0,4.5,1.63,9.24,9.24,0,0,0,5.56-.63,17.45,17.45,0,0,0,3.27-2c.05,0,.08-.08.14-.09h0a3.72,3.72,0,0,1-.54.87,8.42,8.42,0,0,1-4.6,3.22,8.31,8.31,0,0,1-4.91-.2,10.75,10.75,0,0,1-5.13-3.59c0-.06-.12-.12-.12-.2Z" fill="#fff"/><path d="M176.75,138.34v0h0v0Z" fill="#fff"/><path d="M161.45,138.44h0Z" fill="#fff"/><path d="M170.41,95.24c0,.17.08.32.1.49a3.49,3.49,0,0,1-.46,2.34,2.78,2.78,0,0,1-.33.51,8.31,8.31,0,0,1-.87-3,10.33,10.33,0,0,0-1,2.75,9.65,9.65,0,0,0-.48-1.1,11,11,0,0,0-.74-1.13,2.88,2.88,0,0,1,2-1.2l.13,0a1.62,1.62,0,0,0,.44,0,4.07,4.07,0,0,1,1,.28A.26.26,0,0,1,170.41,95.24Z" fill="#348fc0"/><path d="M168.82,91.49a1.36,1.36,0,0,1-1.07-1.59,1.34,1.34,0,0,1,1.59-1.07,1.31,1.31,0,0,1,.6.27,1.37,1.37,0,0,1,.22,1.88,1.33,1.33,0,0,1-.91.52A2.08,2.08,0,0,1,168.82,91.49Z" fill="#348fc0"/><path d="M168.82,91.49a2.08,2.08,0,0,0,.43,0c0,1,0,2,0,3v.41a1.62,1.62,0,0,1-.44,0Z" fill="#060707"/><path d="M171.93,97.32a3.32,3.32,0,0,0-.33.48,12.48,12.48,0,0,0-1.16-2.55,2.17,2.17,0,0,1,.86.7,2.82,2.82,0,0,1,.61,1.28A.29.29,0,0,0,171.93,97.32Z" fill="#348fc0"/><path d="M165.13,96.61A1.67,1.67,0,0,1,165,96a3.51,3.51,0,0,1,0-1.21.09.09,0,0,1,0-.06C165.06,95.35,165.11,96,165.13,96.61Z" fill="#4b3938"/><path d="M166,95.4l0,0,0,0v0Z" fill="#060707"/><path d="M170.65,102.53h0Z" fill="#4b3938"/><path d="M174.69,121.51a4.38,4.38,0,0,1-1.3-.17,2.5,2.5,0,0,1-1.67-1.56,4.09,4.09,0,0,1-.21-2.44,3,3,0,0,1,2-2.11,3.14,3.14,0,0,1,1.66-.15.65.65,0,0,1,.38,1.09c-.09.12-.21.22-.31.34a.88.88,0,0,0,0,1.16,1,1,0,0,0,1.15.46,2,2,0,0,0,.36-.16l.31-.15a.61.61,0,0,1,.89.53,2.4,2.4,0,0,1-.25,1.16,3,3,0,0,1-2.16,1.93A3.1,3.1,0,0,1,174.69,121.51Z" fill="#060707"/><path d="M159.88,118.35a3.24,3.24,0,0,1,2.71-3.27,3.65,3.65,0,0,1,1,0,.71.71,0,0,1,.57.34.58.58,0,0,1-.05.77l-.16.17A1,1,0,0,0,164,118a.92.92,0,0,0,1.05.09,1.75,1.75,0,0,0,.29-.18c.52-.4.94,0,1,.45a2.81,2.81,0,0,1-1.39,2.74,2.65,2.65,0,0,1-1.76.44,5.36,5.36,0,0,1-1.06-.1,3.05,3.05,0,0,1-2.13-2.31c0-.11,0-.23-.07-.34S159.89,118.45,159.88,118.35Z" fill="#060707"/></svg>