<?xml version="1.0" encoding="utf-8"?>
<!-- Generator: Adobe Illustrator 22.0.1, SVG Export Plug-In . SVG Version: 6.00 Build 0)  -->
<svg version="1.1" id="Layer_1" xmlns="http://www.w3.org/2000/svg" xmlns:xlink="http://www.w3.org/1999/xlink" x="0px" y="0px"
	 viewBox="0 0 80 80" style="enable-background:new 0 0 80 80;" xml:space="preserve">
<style type="text/css">
	.st0{fill:#FE9902;}
	.st1{fill:#25313F;}
	.st2{fill:#137EFE;}
	.st3{fill:#5490F4;}
	.st4{fill:#FECC42;}
	.st5{fill:#D74538;}
	.st6{fill:#ECECED;}
	.st7{fill:#FEFEFD;}
	.st8{fill:#346EE5;}
	.st9{fill:#326DE5;}
	.st10{fill:#C8E8EB;}
	.st11{fill:#21BECE;}
	.st12{fill:#0381FE;}
	.st13{fill:#1259CB;}
	.st14{fill:#606060;}
	.st15{fill:#606060;stroke:#F4F4F4;stroke-miterlimit:10;}
	.st16{fill:#606060;stroke:#F4F4F4;stroke-width:0.75;stroke-miterlimit:10;}
</style>
<g>
	<path class="st2" d="M27.1,33c0.2-0.5,0.3-0.8,0.5-0.9c3.5-1.6,5.8-4.5,7.9-7.6c0.6-0.9,2.2-1.3,1.4-2.7c-0.8-1.4-2.3-2.3-3.9-2.2
		c-3.3,0-6.1,0.8-7.1,4.6c-0.3,1.2-1.6,1.3-2.6,1.3c-2.9,0.1-4.3,1.2-4.6,3.8c-0.2,2.3,1.3,4.5,3.5,5.1c0.3,0.1,0.7,0.2,1,0.2
		c5.1,0,10.1,0,15.2,0c0.9,0,1.3-0.6,1.9-1c1.1-1,2.7-0.9,3.7,0.2c0,0,0.1,0.1,0.1,0.1c1,0.9,1.1,2.5,0.1,3.5c0,0-0.1,0.1-0.1,0.1
		c-0.8,1.1-2.3,1.3-3.4,0.5c-0.1-0.1-0.2-0.2-0.3-0.3c-0.8-0.7-1.8-0.9-2.7-0.8c-4.5,0-9,0.1-13.4,0c-4.8-0.1-7.9-3.3-7.7-7.6
		c0.1-3.3,2.6-6,5.9-6.4c1.1-0.2,2.1-0.8,2.7-1.8c3.8-5.3,10.8-5.2,14.3,0.3c0.6,1,1.2,0.7,1.8,0.7c3.6-0.3,7,1.3,9,4.3
		c0.5,0.7,1.3,1.2,2.2,1.3c4.7,0.8,7.8,5.2,7,9.9c-0.7,4.2-4.5,7.3-8.8,7.1c-5.7,0-11.5,0-17.2,0c-3.1,0.2-5.9-1.6-7.2-4.5
		c-0.6-1.2-0.6-2,1.2-2c3.3,0.1,6.6,0,10,0c0.7,0,1.5,0.3,2.1,0.7c2.3,1.4,4.5,1,5.9-0.9c1.3-1.7,1.1-4-0.4-5.5
		c-1.7-1.5-4.2-1.7-6.1-0.3c-0.6,0.5-1.3,0.7-2,0.6C33.8,33,30.6,33,27.1,33z"/>
</g>
<g>
	<path class="st14" d="M30.1,70l-0.9-2h-4.3L24,70h-0.8l3.5-7.7h0.8l3.5,7.7H30.1z M25.2,67.2h3.7L27,63.1L25.2,67.2z"/>
	<path class="st14" d="M31.4,63.7h5v0.6l-4.1,5h4.2V70h-5.1v-0.5l4.1-5h-4L31.4,63.7z"/>
	<path class="st14" d="M39,68.8c0.3,0.3,0.8,0.5,1.4,0.5s1-0.2,1.4-0.5s0.5-0.8,0.5-1.4v-3.7h0.7v3.7c0,0.8-0.2,1.5-0.7,1.9
		S41.3,70,40.4,70s-1.5-0.2-1.9-0.7s-0.7-1.1-0.7-1.9v-3.7h0.7v3.7C38.5,68,38.7,68.5,39,68.8z"/>
	<path class="st14" d="M49.3,70L48,68c-0.2,0-0.3,0-0.4,0h-1.7v2h-0.7v-6.2h2.4c0.8,0,1.4,0.2,1.8,0.5s0.7,0.9,0.7,1.5
		c0,0.5-0.1,0.9-0.4,1.3c-0.2,0.3-0.6,0.6-1.1,0.7l1.5,2.1H49.3z M47.6,67.3c0.6,0,1-0.1,1.3-0.4c0.3-0.3,0.5-0.6,0.5-1.1
		c0-0.5-0.2-0.8-0.5-1.1s-0.7-0.4-1.3-0.4h-1.7v3H47.6z"/>
	<path class="st14" d="M51.9,63.7h4.3v0.6h-3.6v2.1h3.2v0.6h-3.2v2.2h3.7V70h-4.4V63.7z"/>
</g>
</svg>
