<?xml version="1.0" encoding="utf-8"?>
<!-- Generator: Adobe Illustrator 22.0.1, SVG Export Plug-In . SVG Version: 6.00 Build 0)  -->
<svg version="1.1" id="Layer_1" xmlns="http://www.w3.org/2000/svg" xmlns:xlink="http://www.w3.org/1999/xlink" x="0px" y="0px"
	 viewBox="0 0 80 80" style="enable-background:new 0 0 80 80;" xml:space="preserve">
<style type="text/css">
	.st0{fill:#FE9902;}
	.st1{fill:#25313F;}
	.st2{fill:#137EFE;}
	.st3{fill:#5490F4;}
	.st4{fill:#FECC42;}
	.st5{fill:#D74538;}
	.st6{fill:#ECECED;}
	.st7{fill:#FEFEFD;}
	.st8{fill:#346EE5;}
	.st9{fill:#326DE5;}
	.st10{fill:#C8E8EB;}
	.st11{fill:#21BECE;}
	.st12{fill:#0381FE;}
	.st13{fill:#1259CB;}
	.st14{fill:#606060;}
	.st15{fill:#606060;stroke:#F4F4F4;stroke-miterlimit:10;}
	.st16{fill:#606060;stroke:#F4F4F4;stroke-width:0.75;stroke-miterlimit:10;}
</style>
<g>
	<path class="st3" d="M25.6,24.7c1.5-2.9,3.1-5.8,4.8-8.6C31,15.3,32,14.9,33,15c4.7,0,9.4,0,14.1,0c1-0.1,1.9,0.4,2.5,1.2
		c1,1.7,1.9,3.4,2.8,5l-6.9,0.1c-3.4,0-6.8-0.1-10.2-0.1c-0.8,0-1.1,0.5-1.4,1c-1.6,2.7-3.1,5.5-4.7,8.2L25.6,24.7z"/>
	<path class="st4" d="M25.6,24.7l3.6,5.9c1.6,2.9,3.3,5.8,4.9,8.7c0.4,0.7,1,0.7,1.6,0.7l9.3,0.1c-0.8,2.1-2,4.1-3.5,5.8
		c-0.3,0.3-0.7,0.4-1.1,0.4c-2.6,0-5.3,0-8,0c-1,0.1-1.9-0.5-2.4-1.4c-2.4-4.2-4.8-8.3-7.2-12.5c-0.6-1-0.6-2.2,0-3.2
		C23.9,27.6,24.8,26.1,25.6,24.7z"/>
	<path class="st5" d="M41.6,45.7c1.5-1.7,2.7-3.7,3.5-5.8c2-2.5,3.3-5.5,5-8.2c0.6-0.7,0.6-1.7,0-2.5c-1.6-2.6-3.1-5.3-4.6-7.9
		l6.9-0.1c1.6,2.7,3.2,5.4,4.7,8c0.5,0.9,0.5,1.9-0.1,2.8c-2.4,4.2-4.9,8.4-7.3,12.7c-0.3,0.5-0.7,1.1-1.2,1.1
		C46.3,46.2,43.9,46.5,41.6,45.7z"/>
	<path class="st6" d="M45.5,21.4c1.5,2.6,3,5.3,4.6,7.9c0.6,0.7,0.6,1.7,0,2.5c-1.8,2.6-3,5.7-5,8.2l-9.3-0.1c-0.6,0-1.2,0-1.6-0.7
		c-1.6-2.9-3.3-5.8-4.9-8.7c1.6-2.7,3.1-5.5,4.7-8.2c0.3-0.5,0.6-1,1.4-1C38.7,21.4,42.1,21.4,45.5,21.4z M44.4,30.9
		c0.2-2.4-1.6-4.5-4-4.7c-0.1,0-0.1,0-0.2,0c-3.1-0.2-4.7,1.9-4.9,4.6c-0.2,2.3,2.2,4.6,4.6,4.6C42.2,35.3,44.2,33.4,44.4,30.9z"/>
	<path class="st7" d="M44.4,30.9c-0.2,2.5-2.2,4.4-4.6,4.5c-2.4,0-4.7-2.3-4.6-4.6c0.2-2.6,1.8-4.7,5-4.6c2.4,0.1,4.3,2.1,4.2,4.5
		C44.4,30.8,44.4,30.9,44.4,30.9z"/>
</g>
<g>
	<path class="st14" d="M7,66.1h0.7V69c-0.4,0.3-0.8,0.6-1.3,0.7S5.3,70,4.8,70c-0.7,0-1.4-0.2-2-0.5c-0.6-0.4-1.1-0.8-1.5-1.4
		c-0.4-0.6-0.5-1.3-0.5-2c0-0.7,0.2-1.4,0.5-2c0.4-0.6,0.8-1.1,1.5-1.4c0.6-0.3,1.3-0.5,2-0.5c0.5,0,1,0.1,1.5,0.3
		c0.5,0.2,0.9,0.4,1.3,0.8l-0.4,0.5c-0.3-0.3-0.7-0.5-1.1-0.7c-0.4-0.2-0.8-0.2-1.3-0.2c-0.6,0-1.1,0.1-1.6,0.4
		c-0.5,0.3-0.9,0.7-1.2,1.2c-0.3,0.5-0.4,1-0.4,1.6c0,0.6,0.1,1.1,0.4,1.6c0.3,0.5,0.7,0.9,1.2,1.2c0.5,0.3,1.1,0.4,1.6,0.4
		c0.4,0,0.7-0.1,1.1-0.2c0.4-0.1,0.7-0.3,1-0.5V66.1z"/>
	<path class="st14" d="M14.2,64c0.5,0.3,0.9,0.7,1.2,1.1s0.4,1,0.4,1.6c0,0.6-0.1,1.1-0.4,1.6s-0.7,0.9-1.2,1.2
		c-0.5,0.3-1.1,0.4-1.7,0.4c-0.6,0-1.2-0.1-1.7-0.4c-0.5-0.3-0.9-0.7-1.2-1.2c-0.3-0.5-0.4-1-0.4-1.6c0-0.6,0.1-1.1,0.4-1.6
		c0.3-0.5,0.7-0.9,1.2-1.1c0.5-0.3,1.1-0.4,1.7-0.4C13.1,63.6,13.7,63.8,14.2,64z M11.3,64.6c-0.4,0.2-0.7,0.5-0.9,0.9
		c-0.2,0.4-0.3,0.8-0.3,1.3c0,0.5,0.1,0.9,0.3,1.3c0.2,0.4,0.5,0.7,0.9,0.9c0.4,0.2,0.8,0.3,1.3,0.3c0.5,0,0.9-0.1,1.3-0.3
		c0.4-0.2,0.7-0.5,0.9-0.9s0.3-0.8,0.3-1.3c0-0.5-0.1-0.9-0.3-1.3c-0.2-0.4-0.5-0.7-0.9-0.9c-0.4-0.2-0.8-0.3-1.3-0.3
		C12.1,64.3,11.7,64.4,11.3,64.6z"/>
	<path class="st14" d="M21.8,64c0.5,0.3,0.9,0.7,1.2,1.1s0.4,1,0.4,1.6c0,0.6-0.1,1.1-0.4,1.6s-0.7,0.9-1.2,1.2
		c-0.5,0.3-1.1,0.4-1.7,0.4c-0.6,0-1.2-0.1-1.7-0.4c-0.5-0.3-0.9-0.7-1.2-1.2c-0.3-0.5-0.4-1-0.4-1.6c0-0.6,0.1-1.1,0.4-1.6
		c0.3-0.5,0.7-0.9,1.2-1.1c0.5-0.3,1.1-0.4,1.7-0.4C20.7,63.6,21.3,63.8,21.8,64z M18.9,64.6c-0.4,0.2-0.7,0.5-0.9,0.9
		c-0.2,0.4-0.3,0.8-0.3,1.3c0,0.5,0.1,0.9,0.3,1.3c0.2,0.4,0.5,0.7,0.9,0.9c0.4,0.2,0.8,0.3,1.3,0.3c0.5,0,0.9-0.1,1.3-0.3
		c0.4-0.2,0.7-0.5,0.9-0.9s0.3-0.8,0.3-1.3c0-0.5-0.1-0.9-0.3-1.3c-0.2-0.4-0.5-0.7-0.9-0.9c-0.4-0.2-0.8-0.3-1.3-0.3
		C19.7,64.3,19.3,64.4,18.9,64.6z"/>
	<path class="st14" d="M29.4,66.8h0.6v2.3c-0.3,0.2-0.7,0.4-1.1,0.6c-0.4,0.2-0.8,0.2-1.2,0.2c-0.6,0-1.2-0.1-1.7-0.4
		c-0.5-0.3-0.9-0.7-1.2-1.2c-0.3-0.5-0.4-1-0.4-1.6c0-0.6,0.1-1.1,0.4-1.6c0.3-0.5,0.7-0.9,1.2-1.1c0.5-0.3,1.1-0.4,1.7-0.4
		c0.4,0,0.9,0.1,1.3,0.2c0.4,0.2,0.8,0.4,1.1,0.6L29.7,65c-0.3-0.2-0.5-0.4-0.9-0.5c-0.3-0.1-0.7-0.2-1-0.2c-0.5,0-0.9,0.1-1.3,0.3
		c-0.4,0.2-0.7,0.5-0.9,0.9c-0.2,0.4-0.3,0.8-0.3,1.3c0,0.5,0.1,0.9,0.3,1.3c0.2,0.4,0.5,0.7,0.9,0.9c0.4,0.2,0.8,0.3,1.3,0.3
		c0.3,0,0.6,0,0.8-0.1c0.3-0.1,0.5-0.2,0.8-0.4V66.8z"/>
	<path class="st14" d="M32.1,63.7h0.7v5.6h2.8v0.7h-3.5V63.7z"/>
	<path class="st14" d="M36.8,63.7h4.3v0.6h-3.6v2.1h3.2v0.6h-3.2v2.2h3.7v0.6h-4.4V63.7z"/>
	<path class="st14" d="M50.5,63.1c-0.4-0.2-0.8-0.3-1.3-0.3c-0.6,0-1.1,0.1-1.6,0.4c-0.5,0.3-0.9,0.7-1.2,1.2
		c-0.3,0.5-0.4,1-0.4,1.6c0,0.6,0.1,1.1,0.4,1.6c0.3,0.5,0.7,0.9,1.2,1.2c0.5,0.3,1,0.4,1.6,0.4c0.4,0,0.8-0.1,1.2-0.2
		c0.4-0.2,0.8-0.4,1.1-0.7l0.5,0.5c-0.4,0.4-0.8,0.6-1.3,0.8c-0.5,0.2-1,0.3-1.5,0.3c-0.7,0-1.4-0.2-2-0.5c-0.6-0.4-1.1-0.8-1.4-1.4
		c-0.4-0.6-0.5-1.3-0.5-2c0-0.7,0.2-1.4,0.5-2c0.4-0.6,0.8-1.1,1.5-1.4s1.3-0.5,2-0.5c0.5,0,1,0.1,1.5,0.3c0.5,0.2,0.9,0.5,1.3,0.8
		l-0.5,0.5C51.2,63.5,50.9,63.2,50.5,63.1z"/>
	<path class="st14" d="M53.6,63.7h0.7v5.6h2.8v0.7h-3.5V63.7z"/>
	<path class="st14" d="M62.7,64c0.5,0.3,0.9,0.7,1.2,1.1c0.3,0.5,0.4,1,0.4,1.6c0,0.6-0.1,1.1-0.4,1.6c-0.3,0.5-0.7,0.9-1.2,1.2
		C62.2,69.8,61.6,70,61,70s-1.2-0.1-1.7-0.4c-0.5-0.3-0.9-0.7-1.2-1.2c-0.3-0.5-0.4-1-0.4-1.6c0-0.6,0.1-1.1,0.4-1.6
		c0.3-0.5,0.7-0.9,1.2-1.1c0.5-0.3,1.1-0.4,1.7-0.4S62.2,63.8,62.7,64z M59.8,64.6c-0.4,0.2-0.7,0.5-0.9,0.9
		c-0.2,0.4-0.3,0.8-0.3,1.3c0,0.5,0.1,0.9,0.3,1.3c0.2,0.4,0.5,0.7,0.9,0.9c0.4,0.2,0.8,0.3,1.3,0.3c0.5,0,0.9-0.1,1.3-0.3
		c0.4-0.2,0.7-0.5,0.9-0.9c0.2-0.4,0.3-0.8,0.3-1.3c0-0.5-0.1-0.9-0.3-1.3c-0.2-0.4-0.5-0.7-0.9-0.9c-0.4-0.2-0.8-0.3-1.3-0.3
		C60.6,64.3,60.1,64.4,59.8,64.6z"/>
	<path class="st14" d="M67.1,68.8c0.3,0.3,0.8,0.5,1.4,0.5c0.6,0,1-0.2,1.4-0.5s0.5-0.8,0.5-1.4v-3.7h0.7v3.7c0,0.8-0.2,1.5-0.7,1.9
		S69.3,70,68.5,70s-1.5-0.2-1.9-0.7s-0.7-1.1-0.7-1.9v-3.7h0.7v3.7C66.6,68,66.8,68.5,67.1,68.8z"/>
	<path class="st14" d="M77.5,64.1c0.5,0.3,0.9,0.6,1.2,1.1s0.4,1,0.4,1.6c0,0.6-0.1,1.1-0.4,1.6c-0.3,0.5-0.7,0.9-1.2,1.1
		c-0.5,0.3-1.1,0.4-1.7,0.4h-2.5v-6.2h2.6C76.4,63.7,77,63.8,77.5,64.1z M77.1,68.9c0.4-0.2,0.7-0.5,0.9-0.9s0.3-0.8,0.3-1.2
		c0-0.5-0.1-0.9-0.3-1.3c-0.2-0.4-0.5-0.7-0.9-0.9c-0.4-0.2-0.8-0.3-1.3-0.3H74v4.9h1.8C76.3,69.3,76.7,69.2,77.1,68.9z"/>
</g>
</svg>
