<svg id="Layer_1" data-name="Layer 1" xmlns="http://www.w3.org/2000/svg" viewBox="0 0 80 80"><title>&amp;apos;ibm cloud</title><path d="M34.39,45.46h3.43a2.92,2.92,0,0,1,.94.42c.26.17.46.42.71.56s.21.19.09.34H36.63c-.1-.1-.14-.23-.35-.22s-.43-.37-.7-.5c-.06,0-.11-.1-.2-.11-.36,0-.61-.32-1-.4C34.4,45.54,34.39,45.5,34.39,45.46Z" fill="#0773fa"/><path d="M29.5,45.46H32c.14.15.17.4.4.48a.85.85,0,0,0,.24.08.45.45,0,0,1,.33.76h-3.7a.27.27,0,0,1-.1-.16.34.34,0,0,1,0-.1c.12-.19.31-.35.24-.62a1.19,1.19,0,0,0-.05-.26C29.29,45.5,29.43,45.5,29.5,45.46Z" fill="#0668fe"/><path d="M33,46.78c.1-.43,0-.68-.26-.66s-.27-.12-.39-.15c-.3-.08-.28-.3-.32-.51h2.37a2.33,2.33,0,0,1,.75.34.31.31,0,0,0,.33.07c.11,0,.14,0,.15.09s0,.17.13.13.24.07.23.21,0,.24.16.07c.14.16.54,0,.49.41Z" fill="#036bfc"/><path d="M39.56,46.78c0-.09.12-.27-.15-.24-.06,0-.21-.17-.21-.25,0-.29-.39-.1-.38-.36l0,.17c-.18-.43-.63-.44-1-.64H40.4a2.06,2.06,0,0,1,.93.36,2.85,2.85,0,0,0,.9.41c.33.08.4.24.34.55Z" fill="#0b7af8"/><path d="M29.5,45.46c-.2.14,0,.3,0,.44a3,3,0,0,1-.11.64l-.06-.18c-.09,0,0,.18-.12.21s0-.19,0-.29l0-.05a.5.5,0,0,0,0-.13s0,.09,0,.13a.37.37,0,0,0,0,.34l.07.21h-.21c-.49-.16-1-.17-1.49-.35l-.74-.28a.52.52,0,0,1,.14-.47c.1-.09,0-.16,0-.24a.12.12,0,0,1,0-.09c.3,0,.17-.26.27-.39A8.65,8.65,0,0,0,29.5,45.46Z" fill="#146ffe"/><path d="M42.57,46.78a.79.79,0,0,0-.77-.6s0,.1-.07,0-.14-.25-.32-.17c0-.1-.14-.05-.16-.08-.18-.35-.55-.35-.85-.48H43a2.87,2.87,0,0,1,1.42.91s0,.07,0,.06c.28-.11.46,0,.44.35Z" fill="#0e80f6"/><path d="M44.87,46.78c0-.3-.36-.19-.39-.5l0,.29c-.33-.57-.94-.78-1.45-1.11h2.1a1.2,1.2,0,0,1,.46.21,3.73,3.73,0,0,0,1.33.6c.25,0,.55.13.51.51Z" fill="#1185f5"/><path d="M22.24,40.28c-.15-.16,0-.4-.15-.56V38.26a2,2,0,0,1,1-.06c.08,0,.19,0,.21.1s.12,0,.17,0a8.12,8.12,0,0,0,.11,2,.26.26,0,0,1-.36.19.36.36,0,0,1-.29-.42v0c0,.2-.34.35-.48.2S22.29,40.35,22.24,40.28Z" fill="#569bfd"/><path d="M50.81,46.42a6.26,6.26,0,0,1-1.61.29c-.07,0-.16,0-.2.07h-.07a4.52,4.52,0,0,0-1.1-.69,7.24,7.24,0,0,1-.93-.63h2.16c.12,0,.24-.07.34,0,.42.34.94.5,1.36.84A.11.11,0,0,1,50.81,46.42Z" fill="#168ef2"/><path d="M46.9,45.46c.49.22.93.54,1.39.8.25.14.53.21.64.52H47.39a.61.61,0,0,0-.68-.43.45.45,0,0,1-.46-.22,0,0,0,0,0,0,0c-.48,0-.74-.47-1.14-.65Z" fill="#1389f4"/><path d="M23.43,38.32c-.07,0,0,.21-.21.06a.7.7,0,0,0-.78-.07c-.09,0-.22-.1-.35-.05v-.07a2.32,2.32,0,0,0,.15-.63c.09-.1.12-.36.33-.1a2.22,2.22,0,0,0,.41.08.84.84,0,0,1,.52.3C23.47,38,23.54,38.17,23.43,38.32Z" fill="#6ca9fc"/><path d="M27.33,45v0c.06.41.06.41-.28.38,0,0,0-.06,0-.08s0,.06,0,.08c.24.34-.18.5-.2.77a6.79,6.79,0,0,1-2.39-1.6.7.7,0,0,1,.55-.79.17.17,0,0,1,0,.12c0-.06,0-.1-.06-.14.13-.26.14-.26.44,0A8.49,8.49,0,0,0,27.33,45Z" fill="#257afe"/><path d="M23.08,25.12a.64.64,0,0,1,.94-.27c1.05.6,2.1,1.2,3.14,1.81a.64.64,0,0,1,.17,1,.15.15,0,0,1-.1,0,7.53,7.53,0,0,0-1.48-.93c-.4-.28-.87-.48-1.27-.78a11.79,11.79,0,0,0-1.11-.59A.85.85,0,0,1,23.08,25.12Z" fill="#22a6eb"/><path d="M23.08,25.12a11.81,11.81,0,0,1,1.08.49c.3.17.61.41.93.59a6.81,6.81,0,0,0,1.48.86c.29.09.51.41.76.63a.59.59,0,0,1-.81.12c-1.06-.6-2.12-1.21-3.17-1.83A.61.61,0,0,1,23.08,25.12Z" fill="#20a3ec"/><path d="M22.24,40.28c.08-.05.05-.14.07-.21s0,.41.21,0l.08,0c.21.12.24.1.26-.14h0c.1.06.05.17.1.25s.36.22.58,0a8.28,8.28,0,0,0,.54,1.59c-.12,0-.1.31-.3.17,0,0,0,0,0,0,.05.45-.34.55-.59.76h0A6.09,6.09,0,0,1,22.24,40.28Z" fill="#438dfe"/><path d="M57.51,37.69A8.17,8.17,0,0,1,57.17,40c-.15,0-.27-.16-.44,0s-.19-.09-.28-.16,0-.18-.15-.12l-.37-.07a9.11,9.11,0,0,0,.28-2s0,0,0,0c.22,0,.09-.3.28-.28s.2.2.38.23S57.34,37.5,57.51,37.69Z" fill="#3dc1e6"/><path d="M23.13,42.82c0-.23.23-.2.33-.3a.88.88,0,0,0,.24-.69c.11.17.11.17.19.06s.12,0,.19,0a7.58,7.58,0,0,0,1.36,1.83c-.14,0-.33-.27-.41.07h0c-.18,0-.26.15-.34.33s-.23.25-.23.44A5.93,5.93,0,0,1,23.13,42.82Z" fill="#3483fe"/><path d="M47.75,19.67c.27-.48.53-1,.81-1.42a.65.65,0,0,1,1.15.61c-.23.45-.51.88-.77,1.32-.19-.06-.15.12-.21.2s0,.12-.11.12-.1-.08-.12-.15,0-.18-.07-.27a.48.48,0,0,0-.56-.28C47.76,19.82,47.77,19.73,47.75,19.67Z" fill="#4df8d3"/><path d="M57.51,37.69c-.25,0-.51,0-.76-.06s0-.3-.23-.25.15.24-.07.33-.16-.05-.24-.08a11.48,11.48,0,0,0-.24-2,.08.08,0,0,1,.08,0c.15.14.3.26.49.07s.35-.12.43-.33.16-.11.21,0,0,.13.08.18A7.88,7.88,0,0,1,57.51,37.69Z" fill="#47cbe4"/><path d="M47.75,19.67c.11,0,.13,0,.23-.16.13.07.07.24.19.32s0-.18.07-.19,0,.15.09.17c.25.14.19.41.29.69,0-.17.09-.24.1-.36s0-.11.22,0c-.31.62-.67,1.21-1,1.8-.25-.17-.69-.08-.76-.53,0,0,0,0,0,0s-.27-.11-.2-.3A17.28,17.28,0,0,1,47.75,19.67Z" fill="#47eed6"/><path d="M32.83,25a7.07,7.07,0,0,1,1.62-1c.22,0,.46-.07.51.26.14,0,.21.09.32.12a1,1,0,0,1,.51.41c-.64.31-1.27.63-1.88,1a.86.86,0,0,0-.73-.45C32.91,25.33,32.8,25.23,32.83,25Z" fill="#2fbfe4"/><path d="M56.49,41.75a6.91,6.91,0,0,1-1.21,1.81c-.1,0-.23,0-.28-.06-.15-.35-.48-.5-.76-.7a13.54,13.54,0,0,0,1.11-1.61l0,0c.25-.16.13.4.46.23.12-.06.39.11.56.24A.31.31,0,0,1,56.49,41.75Z" fill="#2aacea"/><path d="M54.24,42.8a.88.88,0,0,1,.75.58c.06.17.25,0,.29.18A6.19,6.19,0,0,1,54,44.76a4.48,4.48,0,0,0-.76-.23c-.2,0-.5-.09-.51-.42A13.2,13.2,0,0,0,54.24,42.8Z" fill="#20a3ec"/><path d="M32.83,25c.1.14.12.47.42.2,0,0,.11.05.16.11s.16.16.22.14c.43-.14.29.16.28.36l-1.19.9a1.38,1.38,0,0,1-.94,0c-.09,0-.1-.1-.1-.18a1.86,1.86,0,0,0-.43-.2A8.13,8.13,0,0,1,32.83,25Z" fill="#2bb7e6"/><path d="M50.81,46.42,50,45.9c-.07,0-.12-.12-.21,0s-.14.07-.17-.1-.32-.27-.54-.3A17.21,17.21,0,0,0,51,45c.31-.14.55.1.79.2a2.86,2.86,0,0,0,.48.2c.3.06.26.2.14.39A6.22,6.22,0,0,1,50.81,46.42Z" fill="#1894f0"/><path d="M31.74,26.44c0,.08,0,.16.07.21s.41.27.35.57l-1.11,1.32a.07.07,0,0,1-.07,0c-.29-.32-.72-.35-1.08-.52a.05.05,0,0,1,0-.05,8.05,8.05,0,0,1,1.24-1.54c.18,0,.33,0,.39.19C31.63,26.62,31.57,26.4,31.74,26.44Z" fill="#25acea"/><path d="M56.49,41.75a3.61,3.61,0,0,1-.49-.21c-.12-.08-.16-.13-.24,0s-.13.08-.16-.06-.06-.3-.25-.33c.2-.51.43-1,.58-1.54.22-.08.42-.13.58.12,0,.07.19.43.31,0,0-.07.1,0,.14,0l.21.18A6,6,0,0,1,56.49,41.75Z" fill="#35b7e7"/><path d="M52.36,45.82c.06-.2,0-.31-.22-.33s-.38,0-.42-.23c-.31.09-.46-.32-.77-.23a14,14,0,0,0,1.81-.92c.2.15.32.47.67.29l.06,0c.08.27.49.08.54.39A6.48,6.48,0,0,1,52.36,45.82Z" fill="#1c9bee"/><path d="M40.46,18.9c0,.28,0,.57,0,.86a.66.66,0,1,1-1.32,0c0-.54,0-1.08,0-1.63.29.18.67.1,1,.36A1.16,1.16,0,0,1,40.46,18.9Z" fill="#41e2da"/><path d="M43.2,31.62a10.09,10.09,0,0,0-1,1c-.11.17-.29.11-.43,0a4.15,4.15,0,0,0-.52-.39c-.19-.1-.25-.25-.06-.44.37-.39.64-.89,1.14-1.15C42.6,31,43.11,31.12,43.2,31.62Z" fill="#fafdfe"/><path d="M32.09,20.08a9.71,9.71,0,0,1,.83,1.47c-.14.06-.24,0-.34-.11a1.63,1.63,0,0,0-.81-.37.18.18,0,0,1-.14-.1,2,2,0,0,0-.8-.53A14.22,14.22,0,0,1,30,19c0-.1-.08-.2.05-.32.25.42.78.43,1.1.76.06,0,.2.22.34,0s.09,0,.11.06C31.67,19.78,31.94,19.88,32.09,20.08Z" fill="#35cbe0"/><path d="M54.23,25.67a10.29,10.29,0,0,1,1.43-.84.63.63,0,0,1,.87.26.61.61,0,0,1-.21.85c-.31.21-.64.38-1,.56-.05-.25-.33-.27-.47-.43s-.15-.07-.19-.14-.06-.23-.23-.11S54.26,25.78,54.23,25.67Z" fill="#47eed6"/><path d="M54.33,27.08c-.43.26-.85.53-1.29.76a.65.65,0,0,1-.66-1.11c.28-.19.58-.34.87-.5.26.24.63.31.89.55C54.24,26.87,54.35,26.93,54.33,27.08Z" fill="#41e2da"/><path d="M35.79,24.77a6.28,6.28,0,0,1-.69-.45c-.11-.09-.07,0-.08,0s-.05.12-.07,0c-.06-.27-.27-.34-.5-.38a5.78,5.78,0,0,1,1.48-.61.15.15,0,0,1,.13,0c.18,0,.23.25.47.24A.57.57,0,0,1,37,24c0,.11.08,0,.12,0s.36.09.42.29C36.93,24.38,36.37,24.6,35.79,24.77Z" fill="#33c6e2"/><path d="M53.4,31.55a8.1,8.1,0,0,0-1.25-.85.26.26,0,0,1,0-.21,8.9,8.9,0,0,1,.58-.79.16.16,0,0,1,.19-.05,5.08,5.08,0,0,1,1.4,1A11.29,11.29,0,0,1,53.4,31.55Z" fill="#92e7ec"/><path d="M52.92,29.65a3.32,3.32,0,0,0-.77,1.05,8.29,8.29,0,0,0-1.4-.62c.15-.35.11-.79.46-1,.08-.06.13-.14.24-.07A5,5,0,0,1,52.92,29.65Z" fill="#a4ebef"/><path d="M39.16,16.8c0-.24,0-.48,0-.73a.67.67,0,0,1,.66-.67.69.69,0,0,1,.66.68c0,.47,0,.94,0,1.42-.08,0-.13,0-.18-.07s0-.14-.07-.19-.07.15-.08.09-.05.06-.07,0-.08,0-.11,0-.09-.24-.24-.08-.16,0-.22-.07A1.83,1.83,0,0,1,39.16,16.8Z" fill="#47eed6"/><path d="M30.83,20.44c.22-.08.35.07.51.18s.39.37.69.42.58.38.89.51a.63.63,0,0,1-.3.82.65.65,0,0,1-.85-.27C31.44,21.56,31.14,21,30.83,20.44Z" fill="#33c6e2"/><path d="M32.09,20.08c-.25-.12-.54-.21-.59-.55-.1,0,.06.23-.14.09s-.51-.15-.62-.44c-.27.12-.38-.17-.57-.24s-.1-.12-.17-.18L30,19a.66.66,0,0,1,.16-1,.65.65,0,0,1,.93.26C31.42,18.87,31.75,19.48,32.09,20.08Z" fill="#37cfdf"/><path d="M37.05,23a8,8,0,0,1,2.44-.28c.06,0,.12.07.09.13a2,2,0,0,0-.07,1,.29.29,0,0,1-.09.15,2.72,2.72,0,0,1-.7.06,13.51,13.51,0,0,0-1.44-.8C37.19,23.21,37.05,23.18,37.05,23Z" fill="#37cfdf"/><path d="M45.5,24.14a8,8,0,0,1,1.33.84A1.16,1.16,0,0,1,46,26a10.18,10.18,0,0,1-1-.63.4.4,0,0,1,.1-.56C45.39,24.62,45.4,24.36,45.5,24.14Z" fill="#e1f5fa"/><path d="M45.5,24.14c0,.13,0,.27,0,.4s-.06.11-.15.16a.73.73,0,0,0-.31.63l-1.19-.56a3.3,3.3,0,0,1,.35-1.26A12.45,12.45,0,0,1,45.5,24.14Z" fill="#cdf3f6"/><path d="M56.06,35.6H56c-.12-.34-.23-.69-.34-1s.18-.39.26-.4c.3,0,.57-.18.87-.18a5.56,5.56,0,0,1,.5,1.54c-.17,0-.07-.21-.21-.26l-.19.43a1.62,1.62,0,0,0-.06-.17c-.11,0,0,.37-.25.14S56.22,35.62,56.06,35.6Z" fill="#54d3e4"/><path d="M39.16,16.8c.17,0,.23.17.35.26s.18.24.26,0c.1.06.24.08.23.25.1-.06,0-.16.08-.22s0,.15.06.21,0-.13.1-.15a.44.44,0,0,0,.22.36v1.4c-.19-.29-.55-.37-.78-.62,0,0-.08.22-.19,0-.22.14-.23-.12-.33-.19Z" fill="#44e8d8"/><path d="M54.33,27.08c-.23-.19-.38-.48-.75-.49-.1,0-.28-.19-.33-.36a5.28,5.28,0,0,1,1-.56c.16.1.31.16.39-.11a.81.81,0,0,0,.69.61c.14,0-.06.23,0,.33A7.88,7.88,0,0,1,54.33,27.08Z" fill="#44e8d8"/><path d="M37.05,23a8.78,8.78,0,0,0,1.21.64.94.94,0,0,1,.46.39l-1.19.2c-.32-.19-.65-.36-1-.54s-.38-.34-.64-.35A4.39,4.39,0,0,1,37.05,23Z" fill="#35cbe0"/><path d="M48.79,28.41a4.74,4.74,0,0,1,1.4.2c.05.06,0,.12,0,.19s-.18-.06-.08.08.1.28-.07.37,0,.05,0,.08c.16.18.06.36,0,.55-.42,0-.82-.18-1.25-.15-.06-.13,0-.26,0-.38s0-.17,0-.23-.2-.25,0-.39S48.73,28.52,48.79,28.41Z" fill="#baeff3"/><path d="M48.79,28.41c.11.2.11.2-.07.42,0,0-.07.13,0,.15.41.21.12.49.09.75H47.67l-.05,0a1.8,1.8,0,0,1,.05-1.29Z" fill="#c5f2f5"/><path d="M29.08,34.34V35c.06.1,0,.2,0,.3.08.33-.1.49-.38.45s-.62.14-.91,0V34.41c.07-.27.26-.12.4-.11a1.9,1.9,0,0,0,.75,0S29.05,34.31,29.08,34.34Z" fill="#d0e6fc"/><path d="M47.67,28.4a.67.67,0,0,1-.05.44c0,.13-.22.31.09.39.06,0,0,.1,0,.14s-.11.23,0,.36l-1.12.14c-.06-.42-.39-.8-.21-1.26C46.78,28.51,47.23,28.46,47.67,28.4Z" fill="#d2f4f7"/><path d="M43.2,31.62c-.19-.21-.3-.48-.6-.57s-.07-.33-.24-.41a7.22,7.22,0,0,1,1-.77c.28.14.3.48.51.68a2,2,0,0,1,.26.37A6.87,6.87,0,0,0,43.2,31.62Z" fill="#f6fbfd"/><path d="M55.28,33.86l-.56-.9c0-.21,0-.37.21-.45s.15-.17.25-.23.32-.29.54-.11a3.39,3.39,0,0,1,.55.84.36.36,0,0,1-.3.4A1.66,1.66,0,0,0,55.28,33.86Z" fill="#6bdde6"/><path d="M29.42,32.17a9.75,9.75,0,0,0-.21,1,2.38,2.38,0,0,1-.84,0c-.06,0-.13,0-.2,0-.25,0-.29-.12-.21-.33a3.44,3.44,0,0,1,.21-1c.39.05.72.32,1.13.3C29.36,32.05,29.38,32.13,29.42,32.17Z" fill="#8bc8f8"/><path d="M24.75,35l-.56.84a5.34,5.34,0,0,1-1.05-.7,4.1,4.1,0,0,1,.7-1c.09,0,.16,0,.21.08a5.63,5.63,0,0,0,.58.5A.26.26,0,0,1,24.75,35Z" fill="#cfe6fc"/><path d="M29.43,37.49a1.64,1.64,0,0,1,.22.72.3.3,0,0,1-.24.39c-.23,0-.43.17-.65.24s-.22,0-.27-.13a3.17,3.17,0,0,1-.32-.94A2.64,2.64,0,0,1,29.43,37.49Z" fill="#fafdfe"/><path d="M25.38,32.66a5.24,5.24,0,0,1,.79-.49c.14-.1.25-.06.34.09s.16.58.38.81c.06.06,0,.17-.07.23l-.67.41C25.86,33.39,25.46,33.14,25.38,32.66Z" fill="#fafdfe"/><path d="M22.44,36.79a2.9,2.9,0,0,1,.42-1,6.62,6.62,0,0,1,1.08.44s0,.07,0,.12l-.35,1a1.82,1.82,0,0,0-.65-.2A.67.67,0,0,1,22.44,36.79Z" fill="#a0cefa"/><path d="M50,29.88c-.06-.12,0-.23,0-.34s0-.18,0-.17-.13,0-.14-.06.06-.09.13-.11.13-.08.12-.1a.39.39,0,0,1,.06-.49,4,4,0,0,1,1.26.35c-.2.19-.51.32-.46.65s-.18.31-.24.47A2.88,2.88,0,0,1,50,29.88Z" fill="#b1eef1"/><path d="M46.34,28.61a6.77,6.77,0,0,1,.21,1.26l-.91.28c-.16-.07-.12-.24-.15-.36-.07-.28-.3-.52-.27-.83A5.8,5.8,0,0,1,46.34,28.61Z" fill="#ddf6f9"/><path d="M44.17,23.51c.11.17,0,.28-.1.4s0,.62-.25.86l-1-.34a2.16,2.16,0,0,1,.43-1.2A5.85,5.85,0,0,1,44.17,23.51Z" fill="#b6eff2"/><path d="M29.78,30.92a4.12,4.12,0,0,1-.27.84c-.08.1-.17.08-.28.06-.3-.08-.56-.25-.85-.33a.12.12,0,0,1-.08-.17,3.57,3.57,0,0,1,.36-1c.34.1.59.4,1,.42C29.8,30.7,29.73,30.84,29.78,30.92Z" fill="#59b5f3"/><path d="M44.11,30.92c-.31-.15-.41-.47-.59-.73a2.43,2.43,0,0,1-.18-.32l1-.56a2.1,2.1,0,0,1,.49,1.19Z" fill="#eef8fc"/><path d="M55.72,32.17c-.1-.07-.21,0-.28,0-.29.19-.62.35-.72.74l-.63-.77a.57.57,0,0,1,.36-.45.68.68,0,0,0,.29-.35c0-.09,0-.22.14-.2A3.58,3.58,0,0,1,55.72,32.17Z" fill="#77e0e7"/><path d="M44.81,30.5l-.49-1.19a3.65,3.65,0,0,1,.9-.35,3.68,3.68,0,0,1,.42,1.19A5,5,0,0,1,44.81,30.5Z" fill="#e5f4fc"/><path d="M54.88,31.19c-.08.16-.09.37-.26.49s-.09.25-.24.09l-.29.42-.69-.64c0-.24.22-.28.34-.41s.27-.47.58-.5A2.65,2.65,0,0,1,54.88,31.19Z" fill="#83e3e9"/><path d="M48.23,26.17c.28.16.41.45.63.67.06.05,0,.07,0,.14-.19.25-.48.38-.66.61s-.23.1-.33,0a2.47,2.47,0,0,1-.53-.54C47.61,26.76,47.92,26.46,48.23,26.17Z" fill="#fafdfe"/><path d="M29.87,28a1,1,0,0,1,.51.19c.21.18.05-.15.18-.15a1.49,1.49,0,0,0,.49.51l-.45.7s-.06.06-.09,0a1.28,1.28,0,0,0-.67-.1.13.13,0,0,1-.14-.13c.07-.11.06-.2-.08-.26s-.18-.07-.13-.2A1.65,1.65,0,0,1,29.87,28Z" fill="#21a2ec"/><path d="M55.28,33.86a.68.68,0,0,1,.6-.5c.23-.06.29-.21.39-.35a3.75,3.75,0,0,1,.49,1,1.59,1.59,0,0,1-.77.24.35.35,0,0,0-.36.34A3.61,3.61,0,0,1,55.28,33.86Z" fill="#60d9e5"/><path d="M46,26a.93.93,0,0,0,.51-.44,1,1,0,0,0,.33-.54,8,8,0,0,1,.84.7s0,.05,0,.06c-.41.16-.59.54-.85.84Z" fill="#eef8fc"/><path d="M46.83,26.58a2.2,2.2,0,0,1,.5-.74c.11-.16.32.06.34-.16l.56.49a2.32,2.32,0,0,1-.91.9A1.9,1.9,0,0,1,46.83,26.58Z" fill="#f6fbfd"/><path d="M41.87,24.2a4.1,4.1,0,0,1-.7-.12,1.85,1.85,0,0,1,.07-1.27,2.18,2.18,0,0,1,.84.14c.19.23,0,.47,0,.71A1,1,0,0,1,41.87,24.2Z" fill="#88e5ea"/><path d="M28.87,29.79a2.76,2.76,0,0,1,.42-.84l.08,0a.36.36,0,0,1,.34.27c.12.27.49.21.62.47l-.28.56A1.24,1.24,0,0,1,28.87,29.79Z" fill="#30a8ed"/><path d="M41.24,22.81l-.07,1.27c-.26,0-.52.05-.77-.07a2.45,2.45,0,0,1,.07-1.26A1.82,1.82,0,0,1,41.24,22.81Z" fill="#71dfe7"/><path d="M25.38,32.66c.15.43.62.62.77,1.05l-.56.42c-.31-.29-.72-.49-.77-1C25,32.93,25.21,32.85,25.38,32.66Z" fill="#f6fbfd"/><path d="M43.27,23.23c-.15.4-.29.8-.43,1.2l-.62-.16A2.19,2.19,0,0,1,42.5,23,2.59,2.59,0,0,1,43.27,23.23Z" fill="#a4ebef"/><path d="M46.89,21.18c0,.21.31.19.38.4s.25.47.4-.09c0,.28,0,.43.23.49-.24.45-.62.58-1,.34S46.53,21.66,46.89,21.18Z" fill="#44e8d8"/><path d="M29.43,37.49a7.66,7.66,0,0,1-1.26.28L28,37.14c.21-.31.55-.27.85-.34a1.4,1.4,0,0,1,.41,0Z" fill="#f6fbfd"/><path d="M29.29,36.79c-.23.14-.52,0-.76.16s-.35.08-.5.19l-.14-.77a1,1,0,0,1,.65-.2c.22,0,.46,0,.61-.22A4,4,0,0,1,29.29,36.79Z" fill="#eef8fc"/><path d="M29.15,36c.07.22-.18.31-.24.29-.26-.07-.5.17-.75,0s-.07.32-.27.11l-.06-.7c.07.08.13,0,.2,0,.23,0,.45,0,.7,0,.53,0,.31-.39.35-.66A2.93,2.93,0,0,1,29.15,36Z" fill="#e5f4fc"/><path d="M22.44,36.79a3.64,3.64,0,0,0,1,.32.16.16,0,0,1,.14.17,2.17,2.17,0,0,1-.13.56,7.21,7.21,0,0,0-.77-.3c-.08,0-.15.13-.21,0s-.19,0-.28,0A4,4,0,0,1,22.44,36.79Z" fill="#82b7fc"/><path d="M29.08,34.34a2.24,2.24,0,0,1-1.12,0s-.09.06-.13.09a3.36,3.36,0,0,1,.06-1,.52.52,0,0,0,.49.28,2,2,0,0,1,.76.14C29.19,34,29.09,34.15,29.08,34.34Z" fill="#b8dbfb"/><path d="M24.82,33.15c.16.41.58.6.77,1a1.68,1.68,0,0,1-.42.42.43.43,0,0,1-.3-.22c-.15-.29-.49-.38-.68-.62A1.7,1.7,0,0,1,24.82,33.15Z" fill="#eef8fc"/><path d="M40.47,22.75A8.87,8.87,0,0,1,40.4,24l-.63,0a1.82,1.82,0,0,1,0-1.24Z" fill="#5ad6e5"/><path d="M24.19,33.71a1.26,1.26,0,0,1,.74.6c.05.09.19.13.24.24-.15.16-.22.38-.42.49a6.52,6.52,0,0,0-.91-.91Z" fill="#e5f4fc"/><path d="M29.14,33.78c-.35.09-.69-.13-1.06-.06-.08,0-.23-.18-.19-.36s-.05-.39.07-.56c0,.16,0,.25.23.26a7.2,7.2,0,0,1,1,.16C29.19,33.41,29.17,33.59,29.14,33.78Z" fill="#a7d1fa"/><path d="M24,36.3a.73.73,0,0,0-.45-.23,3.22,3.22,0,0,1-.67-.33,1.41,1.41,0,0,1,.28-.56,3.12,3.12,0,0,1,1.05.7A.84.84,0,0,1,24,36.3Z" fill="#b9dbfb"/><path d="M28.87,29.79a2.23,2.23,0,0,0,1.18.5l-.27.63c-.09,0,0-.15-.14-.14a.84.84,0,0,1-.67-.3s-.07,0-.11,0c-.25.14-.17-.08-.2-.19A1.13,1.13,0,0,1,28.87,29.79Z" fill="#3facf0"/><path d="M28.3,31.32c.05.21.25.12.37.18s.52.32.84.26l-.09.41c-.09,0-.1-.09-.2-.07-.38.08-.66-.25-1-.26,0,0,0-.06,0-.09A.66.66,0,0,1,28.3,31.32Z" fill="#73c0f4"/><path d="M42.5,23l-.28,1.26-.35-.08c.07-.36.14-.73.23-1.09a.29.29,0,0,0,0-.16A.77.77,0,0,1,42.5,23Z" fill="#97e8ed"/><path d="M39.77,22.75c0,.41.07.83,0,1.24h-.35c0-.21.07-.43-.07-.62s0-.15,0-.22a.41.41,0,0,0,.09-.41Z" fill="#46cce4"/><path d="M30.33,29.73c-.24-.12-.53-.16-.69-.42a.23.23,0,0,1,0-.29h.05s.08.09.1.08a1.09,1.09,0,0,1,.79.13Z" fill="#29a9eb"/><path d="M32.16,27.22c0-.24-.31-.33-.35-.57,0-.06.07-.13.15-.08s.23.31.34,0a.77.77,0,0,0,.42.1Z" fill="#29b3e8"/><path d="M31.74,26.44c-.1.06,0,.18-.1.25s-.09.12-.15.13-.09-.07-.08-.15c0-.26-.24-.09-.3-.22l.14-.15c.07.12.29-.34.3.08,0,.05.07,0,.1,0S31.77,26.36,31.74,26.44Z" fill="#2ab3e8"/><path d="M29.29,29V29a.72.72,0,0,1,.2-.36c0,.17.2.1.29.19s.16.22-.07.25h0C29.57,28.89,29.43,29.05,29.29,29Z" fill="#25acea"/><path d="M29.22,46.22c-.06-.1,0-.19,0-.31,0,.13.14.23,0,.31Z" fill="#0869fe"/><path d="M29.22,46.22v.35h0a.24.24,0,0,1,0-.35Z" fill="#0668fe"/><path d="M22.86,40c-.06,0-.13.08-.17,0a.11.11,0,0,1,0-.06c.09-.05.12,0,.15.08Z" fill="#4790fe"/><path d="M25,43.78c.08.09.15.19,0,.32-.15-.1,0-.22,0-.32Z" fill="#3281fe"/><path d="M27.05,45.38A.28.28,0,0,1,27,45c.17.12,0,.24.06.34Z" fill="#1670fe"/><path d="M56.06,35.6c0-.16.22-.13.33-.17s.19.1.16.24,0,.29-.12.22S56,35.88,56.06,35.6Z" fill="#4dcfe4"/><path d="M55.85,41.72s.08.08.09.13a.05.05,0,0,1-.08.06.22.22,0,0,1-.11-.12S55.78,41.72,55.85,41.72Z" fill="#32b4e8"/><path d="M29.29,29c.14-.08.28-.33.42,0-.1.07-.06.18-.07.28C29.64,29.07,29.37,29.17,29.29,29Z" fill="#23a3ec"/><path d="M11.63,62.39h.75V70h-.75Z" fill="#606060"/><path d="M19.75,62.89a1.68,1.68,0,0,1,.65,1.4A1.71,1.71,0,0,1,20,65.42,1.79,1.79,0,0,1,19,66a2.05,2.05,0,0,1,1.31.62,1.85,1.85,0,0,1,.47,1.3A1.78,1.78,0,0,1,20,69.46,3.34,3.34,0,0,1,18,70H14.77V62.38H18A2.82,2.82,0,0,1,19.75,62.89Zm-.57,2.5a1.19,1.19,0,0,0,.45-1,1.17,1.17,0,0,0-.45-1,1.88,1.88,0,0,0-1.25-.34H15.52v2.68h2.41A1.94,1.94,0,0,0,19.18,65.39Zm.27,3.55A1.25,1.25,0,0,0,20,67.86a1.23,1.23,0,0,0-.55-1.07,2.61,2.61,0,0,0-1.51-.38H15.52v2.92h2.41A2.57,2.57,0,0,0,19.45,68.94Z" fill="#606060"/><path d="M22.6,62.38h.94l3,5.72,2.95-5.72h.94V70h-.7V63.43l-3,5.76H26.3l-3-5.76V70H22.6Z" fill="#606060"/><path d="M40.27,63.24A3.31,3.31,0,0,0,39,63a3.19,3.19,0,0,0-2.78,1.59,3.19,3.19,0,0,0,0,3.2A3.19,3.19,0,0,0,39,69.37a3.28,3.28,0,0,0,1.23-.24,3.61,3.61,0,0,0,1.07-.68l.45.49a4.33,4.33,0,0,1-1.29.83,3.92,3.92,0,0,1-1.49.3,3.85,3.85,0,0,1-2-.52,3.92,3.92,0,0,1-1.44-1.42,3.75,3.75,0,0,1-.52-1.95,3.59,3.59,0,0,1,.53-1.93A4,4,0,0,1,39,62.33a3.84,3.84,0,0,1,1.49.29,3.92,3.92,0,0,1,1.26.8l-.44.52A3.43,3.43,0,0,0,40.27,63.24Z" fill="#606060"/><path d="M43.37,63.83h.74v5.52h2.73V70H43.37Z" fill="#606060"/><path d="M52.36,64.2a3.13,3.13,0,0,1,1.18,1.13A3,3,0,0,1,54,66.9a3.08,3.08,0,0,1-.44,1.6,3.24,3.24,0,0,1-2.82,1.57A3.24,3.24,0,0,1,47.9,68.5a3.07,3.07,0,0,1-.43-1.6,3,3,0,0,1,.43-1.58,3.2,3.2,0,0,1,1.18-1.13,3.41,3.41,0,0,1,1.64-.41A3.28,3.28,0,0,1,52.36,64.2Zm-2.88.56a2.56,2.56,0,0,0-.92.9,2.34,2.34,0,0,0-.34,1.24,2.38,2.38,0,0,0,.34,1.26,2.67,2.67,0,0,0,.92.91,2.5,2.5,0,0,0,1.25.34A2.47,2.47,0,0,0,52,69.07a2.56,2.56,0,0,0,.91-.91,2.48,2.48,0,0,0,.34-1.26A2.48,2.48,0,0,0,52,64.76a2.46,2.46,0,0,0-1.25-.33A2.49,2.49,0,0,0,49.48,64.76Z" fill="#606060"/><path d="M56.77,68.9a1.83,1.83,0,0,0,1.37.51,1.8,1.8,0,0,0,1.36-.51A1.94,1.94,0,0,0,60,67.49V63.83h.74v3.66a2.39,2.39,0,0,1-2.59,2.58,2.59,2.59,0,0,1-1.91-.69,2.52,2.52,0,0,1-.69-1.89V63.83h.72v3.66A1.91,1.91,0,0,0,56.77,68.9Z" fill="#606060"/><path d="M67,64.23a3,3,0,0,1,1.15,1.11,3.06,3.06,0,0,1,.42,1.58,3,3,0,0,1-.42,1.57A3.12,3.12,0,0,1,67,69.6a3.35,3.35,0,0,1-1.64.4H62.85V63.83h2.53A3.46,3.46,0,0,1,67,64.23ZM66.63,69a2.43,2.43,0,0,0,1.21-2.12,2.42,2.42,0,0,0-.33-1.24,2.38,2.38,0,0,0-.89-.89,2.55,2.55,0,0,0-1.25-.32H63.59v4.89H65.4A2.35,2.35,0,0,0,66.63,69Z" fill="#606060"/></svg>