<svg id="Layer_1" data-name="Layer 1" xmlns="http://www.w3.org/2000/svg" viewBox="0 0 80 80"><title>&amp;apos;ibm cloud</title><path d="M35.59,44.87h3.29a2.64,2.64,0,0,1,.91.4c.25.17.44.4.68.53s.2.18.09.33H37.74c-.09-.09-.13-.22-.33-.21s-.42-.36-.67-.47c-.07,0-.11-.1-.2-.11-.34,0-.58-.31-.91-.39C35.6,45,35.59,44.9,35.59,44.87Z" fill="#606060"/><path d="M30.89,44.87h2.42c.14.14.16.38.39.46a1.55,1.55,0,0,0,.23.07.43.43,0,0,1,.32.73H30.69a.31.31,0,0,1-.1-.15.34.34,0,0,1,0-.1c.11-.18.29-.33.23-.59,0-.08,0-.17,0-.25S30.83,44.9,30.89,44.87Z" fill="#606060"/><path d="M34.25,46.13c.09-.41,0-.65-.25-.63s-.26-.11-.38-.14c-.28-.08-.27-.29-.31-.49h2.28a2.14,2.14,0,0,1,.72.32.29.29,0,0,0,.32.07c.1,0,.13,0,.14.08s0,.17.12.13.24.06.23.2,0,.23.15.07c.14.15.52,0,.47.39Z" fill="#606060"/><path d="M40.56,46.13c0-.09.11-.25-.14-.23-.07,0-.21-.16-.21-.24,0-.28-.37-.1-.36-.34l-.05.16c-.17-.41-.6-.42-.92-.61h2.49a2,2,0,0,1,.88.34,2.55,2.55,0,0,0,.87.39c.32.08.39.24.33.53Z" fill="#606060"/><path d="M30.89,44.87c-.19.13,0,.28,0,.42a2.68,2.68,0,0,1-.1.61l-.06-.17c-.09,0,0,.17-.11.2s0-.18,0-.27a.14.14,0,0,1,0-.06.28.28,0,0,0,0-.12s0,.09,0,.12a.38.38,0,0,0,0,.33l.06.2h-.2c-.46-.15-1-.16-1.43-.33l-.71-.28a.51.51,0,0,1,.13-.45c.1-.08,0-.15,0-.23a.11.11,0,0,1,0-.08c.29,0,.17-.25.27-.37A8.65,8.65,0,0,0,30.89,44.87Z" fill="#606060"/><path d="M43.45,46.13a.76.76,0,0,0-.74-.57s0,.09-.07,0-.14-.24-.31-.16c0-.1-.13,0-.15-.08-.17-.33-.53-.33-.81-.45h2.48a2.81,2.81,0,0,1,1.37.87s0,.07,0,.06c.27-.1.45,0,.43.33Z" fill="#606060"/><path d="M45.66,46.13c0-.28-.35-.18-.37-.48l0,.28a3.52,3.52,0,0,0-1.39-1.06h2a1.27,1.27,0,0,1,.45.19,3.49,3.49,0,0,0,1.27.58c.25,0,.53.13.5.49Z" fill="#606060"/><path d="M23.92,39.89c-.14-.15,0-.38-.14-.53V38a1.91,1.91,0,0,1,.92-.06c.08,0,.18,0,.2.1s.12,0,.16,0a8,8,0,0,0,.11,1.89.25.25,0,0,1-.35.18.34.34,0,0,1-.27-.41v0c0,.2-.33.35-.46.2S24,40,23.92,39.89Z" fill="#606060"/><path d="M51.36,45.78a5.75,5.75,0,0,1-1.54.29c-.07,0-.16,0-.2.06h-.07a4.23,4.23,0,0,0-1-.66,7.7,7.7,0,0,1-.89-.6l2.07,0c.11,0,.24-.06.33,0,.4.32.9.48,1.3.8A.11.11,0,0,1,51.36,45.78Z" fill="#606060"/><path d="M47.61,44.87c.47.21.88.52,1.33.77.24.13.51.2.61.49H48.08a.59.59,0,0,0-.66-.41.44.44,0,0,1-.44-.21l0,0c-.46-.05-.71-.45-1.1-.62Z" fill="#606060"/><path d="M25.06,38c-.06,0,0,.2-.2.05a.69.69,0,0,0-.75-.06c-.08,0-.21-.09-.33,0v-.07a2.11,2.11,0,0,0,.15-.6c.08-.09.1-.35.31-.1a1.23,1.23,0,0,0,.39.07.85.85,0,0,1,.5.29C25.11,37.7,25.17,37.87,25.06,38Z" fill="#606060"/><path d="M28.82,44.39s0,0,0,0c.05.39.05.39-.27.37,0,0,0-.06-.05-.08s0,.06.05.08c.23.33-.18.48-.2.73A6.42,6.42,0,0,1,26.06,44a.68.68,0,0,1,.53-.77.21.21,0,0,1,0,.12c0-.06,0-.09-.06-.13.13-.25.14-.25.42,0A8.3,8.3,0,0,0,28.82,44.39Z" fill="#606060"/><path d="M24.73,25.33a.61.61,0,0,1,.91-.25l3,1.73a.61.61,0,0,1,.17,1,.14.14,0,0,1-.09,0,6.77,6.77,0,0,0-1.42-.89c-.39-.27-.84-.47-1.22-.75s-.72-.36-1.07-.57A.77.77,0,0,1,24.73,25.33Z" fill="#606060"/><path d="M24.73,25.33a8.81,8.81,0,0,1,1,.48c.3.15.59.39.9.56a7.14,7.14,0,0,0,1.42.83c.28.08.49.39.73.6a.57.57,0,0,1-.78.12c-1-.58-2-1.17-3-1.76A.59.59,0,0,1,24.73,25.33Z" fill="#606060"/><path d="M23.92,39.89c.08,0,0-.14.07-.2s0,.39.2.05c0,0,.06,0,.08,0,.2.11.23.09.25-.14h0c.09.06.05.17.09.24s.35.21.56,0a7.67,7.67,0,0,0,.52,1.53c-.11,0-.09.3-.29.16,0,0,0,0,0,0,.05.43-.32.53-.56.73h0A5.76,5.76,0,0,1,23.92,39.89Z" fill="#606060"/><path d="M57.8,37.41a8.27,8.27,0,0,1-.33,2.21c-.14,0-.26-.15-.42,0s-.19-.08-.27-.15,0-.17-.15-.12l-.35-.06a8.55,8.55,0,0,0,.26-1.95s0,0,0,0c.21,0,.09-.29.28-.27s.19.19.35.22S57.63,37.22,57.8,37.41Z" fill="#606060"/><path d="M24.78,42.33c0-.22.21-.19.32-.29a.89.89,0,0,0,.23-.66c.1.16.1.16.17.06s.13,0,.19,0A7.65,7.65,0,0,0,27,43.18c-.13,0-.31-.26-.39.07h0a.49.49,0,0,0-.33.31c-.06.15-.21.25-.21.44A5.6,5.6,0,0,1,24.78,42.33Z" fill="#606060"/><path d="M48.42,20.1c.26-.46.51-.92.78-1.37a.63.63,0,0,1,1.11.59c-.23.43-.5.84-.74,1.26-.19,0-.15.12-.2.2s0,.11-.11.11-.1-.08-.12-.14l-.06-.26a.47.47,0,0,0-.55-.27C48.44,20.24,48.45,20.15,48.42,20.1Z" fill="#606060"/><path d="M57.8,37.41c-.24,0-.49,0-.73-.07s0-.29-.23-.23.14.23-.06.31-.16-.05-.24-.08a9.79,9.79,0,0,0-.23-1.94.1.1,0,0,1,.09,0c.14.13.28.25.46.07s.34-.12.41-.33.16-.1.21,0,0,.13.07.17A7.39,7.39,0,0,1,57.8,37.41Z" fill="#606060"/><path d="M48.42,20.1c.11,0,.13,0,.23-.15.12.06.06.23.17.3s0-.17.08-.18,0,.14.08.16c.24.14.18.39.28.66,0-.16.08-.23.09-.34s0-.11.22,0c-.3.6-.65,1.17-1,1.74-.25-.17-.67-.08-.73-.51,0,0,0,0-.06,0s-.25-.11-.18-.29A14.64,14.64,0,0,1,48.42,20.1Z" fill="#606060"/><path d="M34.09,25.18a6.54,6.54,0,0,1,1.56-.94c.21,0,.44-.07.49.24.13,0,.2.09.31.13a1,1,0,0,1,.49.39,19.44,19.44,0,0,0-1.81.95.81.81,0,0,0-.7-.43C34.17,25.53,34.06,25.43,34.09,25.18Z" fill="#606060"/><path d="M56.81,41.3A6.34,6.34,0,0,1,55.66,43c-.1,0-.22.05-.27-.06a1.84,1.84,0,0,0-.74-.67,12.56,12.56,0,0,0,1.07-1.55l0,0c.24-.15.12.39.44.23.12-.07.38.11.54.23A.25.25,0,0,1,56.81,41.3Z" fill="#606060"/><path d="M54.65,42.31a.85.85,0,0,1,.73.56c0,.16.23,0,.28.17a6,6,0,0,1-1.2,1.15,4.71,4.71,0,0,0-.73-.22c-.2,0-.49-.08-.49-.41A12.86,12.86,0,0,0,54.65,42.31Z" fill="#606060"/><path d="M34.09,25.18c.1.14.11.45.41.19,0,0,.1.05.15.1s.16.16.21.14c.41-.13.28.15.27.34L34,26.82a1.39,1.39,0,0,1-.9,0c-.09,0-.1-.1-.1-.18a1.57,1.57,0,0,0-.42-.18A7.81,7.81,0,0,1,34.09,25.18Z" fill="#606060"/><path d="M51.36,45.78l-.8-.49c-.06,0-.11-.12-.2,0s-.13.07-.16-.09-.3-.26-.52-.3a15.78,15.78,0,0,0,1.81-.4c.31-.14.53.1.77.2a3,3,0,0,0,.45.19c.29,0,.26.19.14.37A5.74,5.74,0,0,1,51.36,45.78Z" fill="#606060"/><path d="M33,26.6c0,.08,0,.16.07.2s.4.26.34.54l-1.07,1.28s-.05,0-.06,0c-.28-.3-.69-.33-1-.49a.06.06,0,0,1,0-.06,8.06,8.06,0,0,1,1.19-1.47c.18,0,.32,0,.37.18C32.94,26.78,32.88,26.56,33,26.6Z" fill="#606060"/><path d="M56.81,41.3a2.67,2.67,0,0,1-.46-.2c-.12-.08-.16-.12-.24,0s-.12.08-.15-.06-.06-.29-.24-.32a13.07,13.07,0,0,0,.56-1.47c.21-.08.4-.13.55.11,0,.07.18.41.3,0,0-.07.09,0,.13,0l.21.17A5.83,5.83,0,0,1,56.81,41.3Z" fill="#606060"/><path d="M52.85,45.21c.06-.19,0-.29-.21-.31s-.37,0-.41-.22c-.29.08-.44-.31-.74-.23a13.08,13.08,0,0,0,1.75-.89c.18.15.3.46.64.28l.06,0c.07.26.47.08.52.37A6.35,6.35,0,0,1,52.85,45.21Z" fill="#606060"/><path d="M41.42,19.35c0,.28,0,.56,0,.84a.64.64,0,1,1-1.27,0c0-.53,0-1.05,0-1.57.28.17.64.09.92.34A1.23,1.23,0,0,1,41.42,19.35Z" fill="#606060"/><path d="M44.05,31.57a10.43,10.43,0,0,0-.93,1c-.1.17-.28.11-.41,0a3.08,3.08,0,0,0-.5-.37c-.18-.1-.24-.24-.06-.43.36-.37.61-.85,1.09-1.1C43.47,31,44,31.1,44.05,31.57Z" fill="#606060"/><path d="M33.38,20.49a9,9,0,0,1,.8,1.42c-.14.05-.23-.05-.33-.11a1.52,1.52,0,0,0-.78-.36.2.2,0,0,1-.13-.09,1.8,1.8,0,0,0-.77-.51,13.17,13.17,0,0,1-.81-1.41c0-.09-.08-.18,0-.3.25.4.75.41,1.06.72.06.06.19.22.33,0s.09,0,.1.06C33,20.21,33.24,20.3,33.38,20.49Z" fill="#606060"/><path d="M54.64,25.86A12.76,12.76,0,0,1,56,25.05a.62.62,0,0,1,.84.25.6.6,0,0,1-.21.82c-.3.2-.62.36-.93.54,0-.25-.32-.26-.45-.42s-.14-.07-.19-.13,0-.22-.22-.11S54.68,26,54.64,25.86Z" fill="#606060"/><path d="M54.74,27.22c-.41.24-.82.5-1.24.72a.62.62,0,0,1-.63-1.06c.26-.18.56-.32.84-.48.24.23.6.29.85.53C54.65,27,54.76,27.07,54.74,27.22Z" fill="#606060"/><path d="M36.94,25a6.46,6.46,0,0,1-.67-.44c-.11-.08-.06,0-.07,0s-.05.12-.07,0c-.06-.26-.26-.32-.48-.36a5.69,5.69,0,0,1,1.42-.59.13.13,0,0,1,.12,0c.18,0,.23.24.46.23a.55.55,0,0,1,.44.36c0,.1.08,0,.12,0a.47.47,0,0,1,.4.28C38,24.62,37.49,24.83,36.94,25Z" fill="#606060"/><path d="M53.85,31.5a8.71,8.71,0,0,0-1.2-.81.23.23,0,0,1,0-.2,6.75,6.75,0,0,1,.56-.76.15.15,0,0,1,.18-.05,5.26,5.26,0,0,1,1.34.95A10.31,10.31,0,0,1,53.85,31.5Z" fill="#606060"/><path d="M53.39,29.68a3.22,3.22,0,0,0-.74,1,8.55,8.55,0,0,0-1.35-.6c.15-.33.11-.75.45-1,.07,0,.12-.13.22-.06A5,5,0,0,1,53.39,29.68Z" fill="#606060"/><path d="M40.17,17.34c0-.23,0-.46,0-.7a.64.64,0,1,1,1.27,0c0,.45,0,.91,0,1.36-.07,0-.12,0-.17-.07s0-.13-.07-.18-.06.15-.08.09-.05.06-.07,0-.07,0-.1,0-.08-.23-.23-.08-.15,0-.21-.06A1.72,1.72,0,0,1,40.17,17.34Z" fill="#606060"/><path d="M32.17,20.84c.21-.08.34.07.5.17a1.85,1.85,0,0,0,.66.41c.33.06.55.35.85.49a.6.6,0,0,1-.29.78.61.61,0,0,1-.81-.26C32.76,21.91,32.47,21.37,32.17,20.84Z" fill="#606060"/><path d="M33.38,20.49c-.24-.12-.52-.2-.56-.53-.1,0,0,.22-.14.09s-.49-.15-.59-.42c-.27.11-.36-.16-.55-.23s-.1-.12-.17-.18v.21a.62.62,0,1,1,1-.68C32.74,19.33,33.06,19.91,33.38,20.49Z" fill="#606060"/><path d="M38.15,23.32a8,8,0,0,1,2.34-.26c.06,0,.12.07.09.12a2,2,0,0,0-.08.93.19.19,0,0,1-.07.14,2,2,0,0,1-.68.06,14.29,14.29,0,0,0-1.38-.77C38.28,23.49,38.15,23.47,38.15,23.32Z" fill="#606060"/><path d="M46.26,24.39a7.64,7.64,0,0,1,1.28.8,1.09,1.09,0,0,1-.81.94,7.84,7.84,0,0,1-.94-.6.37.37,0,0,1,.1-.53C46.15,24.85,46.16,24.6,46.26,24.39Z" fill="#606060"/><path d="M46.26,24.39c0,.13,0,.26,0,.38s-.06.11-.14.16a.67.67,0,0,0-.3.6L44.65,25A3.17,3.17,0,0,1,45,23.79,11.34,11.34,0,0,1,46.26,24.39Z" fill="#606060"/><path d="M56.4,35.4h-.09c-.1-.33-.21-.66-.32-1s.17-.38.25-.38c.29,0,.55-.18.83-.18a4.88,4.88,0,0,1,.48,1.47c-.15,0-.06-.19-.2-.24l-.18.42c0-.07,0-.12-.05-.17s0,.35-.25.13S56.56,35.41,56.4,35.4Z" fill="#606060"/><path d="M40.17,17.34c.16,0,.23.16.34.25s.17.23.25,0c.1.05.23.07.22.23.09-.06,0-.15.08-.21s0,.14.06.2,0-.12.09-.14a.41.41,0,0,0,.21.34v1.34c-.18-.27-.53-.35-.74-.58,0,0-.09.2-.19,0-.21.13-.22-.11-.32-.18Z" fill="#606060"/><path d="M54.74,27.22c-.22-.19-.36-.47-.72-.48-.09,0-.26-.17-.31-.34a4.8,4.8,0,0,1,.93-.54c.16.1.3.15.38-.11a.77.77,0,0,0,.66.59c.13,0,0,.22,0,.32A8.57,8.57,0,0,1,54.74,27.22Z" fill="#606060"/><path d="M38.15,23.32a7.61,7.61,0,0,0,1.16.62,1,1,0,0,1,.44.37l-1.14.19L37.68,24c-.19-.11-.36-.32-.61-.33A4.5,4.5,0,0,1,38.15,23.32Z" fill="#606060"/><path d="M49.42,28.49a4.34,4.34,0,0,1,1.34.19c.05.06,0,.11,0,.18s-.18-.06-.09.08.1.27-.06.36,0,0,0,.07.06.35,0,.53c-.41,0-.8-.17-1.21-.15-.06-.12,0-.24,0-.36s0-.16,0-.22-.19-.24,0-.37S49.36,28.59,49.42,28.49Z" fill="#606060"/><path d="M49.42,28.49c.11.19.11.19-.07.4,0,0-.06.13,0,.15.39.2.11.47.08.71H48.35l-.06,0a1.74,1.74,0,0,1,.06-1.23Z" fill="#606060"/><path d="M30.49,34.19v.6c.06.09,0,.2,0,.29.08.32-.09.47-.37.43s-.59.13-.87,0V34.25c.07-.25.25-.11.39-.11a1.7,1.7,0,0,0,.71,0C30.44,34.1,30.47,34.15,30.49,34.19Z" fill="#606060"/><path d="M48.35,28.49a.65.65,0,0,1-.05.41c0,.13-.21.31.08.38.06,0,0,.09,0,.13s-.11.23,0,.35l-1.08.13c-.06-.4-.38-.76-.2-1.2A7.93,7.93,0,0,1,48.35,28.49Z" fill="#606060"/><path d="M44.05,31.57c-.18-.19-.28-.46-.57-.55s-.07-.31-.24-.39a8.26,8.26,0,0,1,.94-.74c.27.14.3.46.5.66a1.8,1.8,0,0,1,.24.35A9.56,9.56,0,0,0,44.05,31.57Z" fill="#606060"/><path d="M55.66,33.72l-.54-.86a.32.32,0,0,1,.2-.43c.11,0,.14-.16.24-.22s.3-.28.52-.11a3.65,3.65,0,0,1,.53.81.38.38,0,0,1-.29.39A1.53,1.53,0,0,0,55.66,33.72Z" fill="#606060"/><path d="M30.82,32.1a8.59,8.59,0,0,0-.2,1,2.2,2.2,0,0,1-.81,0c-.06,0-.12,0-.19,0-.24,0-.28-.11-.2-.31a3.42,3.42,0,0,1,.2-1c.37.05.69.3,1.09.29C30.76,32,30.78,32.06,30.82,32.1Z" fill="#606060"/><path d="M26.33,34.86l-.53.81a5.84,5.84,0,0,1-1-.68,4,4,0,0,1,.68-1c.09,0,.15,0,.21.07a4.2,4.2,0,0,0,.55.48A.25.25,0,0,1,26.33,34.86Z" fill="#606060"/><path d="M30.83,37.21a1.51,1.51,0,0,1,.21.69.29.29,0,0,1-.23.38,5.33,5.33,0,0,0-.63.23c-.21.07-.21,0-.26-.12a3.24,3.24,0,0,1-.3-.91A2.55,2.55,0,0,1,30.83,37.21Z" fill="#606060"/><path d="M26.94,32.58a4.24,4.24,0,0,1,.76-.48c.13-.1.23-.06.32.09s.16.55.37.77c.06.07,0,.17-.07.23l-.65.39C27.4,33.27,27,33,26.94,32.58Z" fill="#606060"/><path d="M24.12,36.54a3,3,0,0,1,.39-1,6.65,6.65,0,0,1,1,.42s0,.07.05.12l-.34.94a1.78,1.78,0,0,0-.62-.19A.64.64,0,0,1,24.12,36.54Z" fill="#606060"/><path d="M50.63,29.9c-.07-.11,0-.22,0-.32s0-.17,0-.16-.12,0-.13-.07.05-.09.12-.1a.25.25,0,0,0,.12-.09c-.07-.18-.1-.34,0-.48A3.9,3.9,0,0,1,52,29c-.18.18-.49.3-.44.63s-.17.29-.23.44A2.88,2.88,0,0,1,50.63,29.9Z" fill="#606060"/><path d="M47.07,28.69a7,7,0,0,1,.2,1.2l-.87.27c-.16-.06-.12-.23-.15-.34-.07-.27-.28-.5-.25-.8A5.09,5.09,0,0,1,47.07,28.69Z" fill="#606060"/><path d="M45,23.79c.1.16,0,.27-.1.38s0,.6-.24.83l-.94-.34a2.05,2.05,0,0,1,.41-1.14A5.46,5.46,0,0,1,45,23.79Z" fill="#606060"/><path d="M31.16,30.9a3.33,3.33,0,0,1-.26.81c-.07.1-.16.08-.26.05-.29-.07-.54-.23-.82-.31a.12.12,0,0,1-.08-.16,3.22,3.22,0,0,1,.35-1c.33.09.57.38.93.4C31.18,30.69,31.12,30.83,31.16,30.9Z" fill="#606060"/><path d="M44.92,30.9c-.29-.14-.39-.45-.56-.7-.06-.09-.12-.2-.18-.31l.94-.53a1.91,1.91,0,0,1,.47,1.14Z" fill="#606060"/><path d="M56.08,32.1c-.1-.07-.2,0-.27,0-.28.19-.6.34-.69.71l-.61-.74a.59.59,0,0,1,.34-.44.59.59,0,0,0,.29-.33c0-.08,0-.21.13-.19A3.64,3.64,0,0,1,56.08,32.1Z" fill="#606060"/><path d="M45.59,30.5l-.47-1.14A3.49,3.49,0,0,1,46,29a3.77,3.77,0,0,1,.4,1.14A4.47,4.47,0,0,1,45.59,30.5Z" fill="#606060"/><path d="M55.27,31.16c-.08.15-.09.35-.25.47s-.09.24-.23.09l-.28.4-.66-.62c0-.23.21-.27.33-.38s.25-.46.55-.49A2.71,2.71,0,0,1,55.27,31.16Z" fill="#606060"/><path d="M48.88,26.33c.27.16.4.45.61.65,0,.06,0,.07,0,.14-.17.24-.45.36-.63.59s-.21.09-.31,0a2.79,2.79,0,0,1-.51-.52C48.29,26.91,48.58,26.62,48.88,26.33Z" fill="#606060"/><path d="M31.25,28.08a1,1,0,0,1,.49.19c.2.18.05-.14.17-.15a1.5,1.5,0,0,0,.47.5l-.43.67s-.06.05-.08,0a1.21,1.21,0,0,0-.65-.1.12.12,0,0,1-.13-.12c.06-.11.06-.2-.08-.26s-.17-.07-.12-.18A1.57,1.57,0,0,1,31.25,28.08Z" fill="#606060"/><path d="M55.66,33.72c.05-.31.34-.42.57-.48s.27-.2.38-.33a3.57,3.57,0,0,1,.46.94,1.4,1.4,0,0,1-.73.23.34.34,0,0,0-.35.33A3.64,3.64,0,0,1,55.66,33.72Z" fill="#606060"/><path d="M46.73,26.13c.24-.05.36-.25.49-.41a1,1,0,0,0,.32-.53,8.58,8.58,0,0,1,.81.68.06.06,0,0,1,0,.06c-.39.15-.56.52-.81.81Z" fill="#606060"/><path d="M47.54,26.74A2.07,2.07,0,0,1,48,26c.11-.15.31.06.33-.15l.53.46a2.23,2.23,0,0,1-.87.88A2.1,2.1,0,0,1,47.54,26.74Z" fill="#606060"/><path d="M42.77,24.45a3.93,3.93,0,0,1-.67-.12,1.77,1.77,0,0,1,.07-1.22,2.25,2.25,0,0,1,.81.13c.18.23,0,.46,0,.69A1,1,0,0,1,42.77,24.45Z" fill="#606060"/><path d="M30.29,29.82a3.06,3.06,0,0,1,.4-.81l.08,0a.36.36,0,0,1,.33.27c.11.26.47.2.59.45l-.27.53A1.17,1.17,0,0,1,30.29,29.82Z" fill="#606060"/><path d="M42.17,23.11l-.07,1.22a2.07,2.07,0,0,1-.74-.07,2.44,2.44,0,0,1,.07-1.2A1.68,1.68,0,0,1,42.17,23.11Z" fill="#606060"/><path d="M26.94,32.58c.14.41.59.59.73,1l-.53.41c-.29-.28-.69-.48-.74-.94C26.53,32.83,26.78,32.76,26.94,32.58Z" fill="#606060"/><path d="M44.12,23.52l-.41,1.14-.6-.14a2.09,2.09,0,0,1,.27-1.2A2.14,2.14,0,0,1,44.12,23.52Z" fill="#606060"/><path d="M47.6,21.55c0,.2.3.18.36.39s.24.44.38-.09c0,.26.06.4.23.47-.24.43-.6.55-1,.32S47.25,22,47.6,21.55Z" fill="#606060"/><path d="M30.83,37.21a7.06,7.06,0,0,1-1.21.27l-.13-.61c.19-.3.53-.26.81-.33a1.7,1.7,0,0,1,.39,0Z" fill="#606060"/><path d="M30.69,36.54c-.22.14-.49,0-.72.16s-.34.07-.48.17l-.14-.74a.94.94,0,0,1,.63-.19c.21,0,.44,0,.58-.21A3.7,3.7,0,0,1,30.69,36.54Z" fill="#606060"/><path d="M30.56,35.73a.22.22,0,0,1-.24.28c-.24-.07-.47.17-.71,0s-.07.31-.26.1l-.06-.67c.06.08.13,0,.19,0,.23,0,.44,0,.67,0,.51,0,.3-.38.34-.64A2.72,2.72,0,0,1,30.56,35.73Z" fill="#606060"/><path d="M24.12,36.54a3.27,3.27,0,0,0,1,.3.16.16,0,0,1,.13.17,1.87,1.87,0,0,1-.13.53c-.26-.06-.47-.25-.74-.29-.08,0-.14.13-.2,0s-.18,0-.26,0A3.1,3.1,0,0,1,24.12,36.54Z" fill="#606060"/><path d="M30.49,34.19a2.32,2.32,0,0,1-1.08,0s-.08,0-.12.08a3.13,3.13,0,0,1,.06-1,.51.51,0,0,0,.47.28,1.85,1.85,0,0,1,.73.13A2,2,0,0,1,30.49,34.19Z" fill="#606060"/><path d="M26.4,33.05c.15.38.56.57.74.94a1.56,1.56,0,0,1-.41.4.4.4,0,0,1-.28-.21c-.15-.29-.47-.36-.66-.6A1.56,1.56,0,0,1,26.4,33.05Z" fill="#606060"/><path d="M41.43,23.06a8.05,8.05,0,0,1-.07,1.2h-.6a1.77,1.77,0,0,1,0-1.2Z" fill="#606060"/><path d="M25.79,33.58a1.21,1.21,0,0,1,.72.57c0,.09.18.13.22.24-.14.15-.21.36-.4.47a5.12,5.12,0,0,0-.87-.87Z" fill="#606060"/><path d="M30.55,33.65c-.34.09-.66-.13-1-.06-.07,0-.22-.17-.18-.35s-.05-.37.07-.53c0,.16,0,.23.22.24a8.33,8.33,0,0,1,1,.16Z" fill="#606060"/><path d="M25.6,36.07a.71.71,0,0,0-.44-.22,3.57,3.57,0,0,1-.65-.32,1.71,1.71,0,0,1,.27-.54,3,3,0,0,1,1,.68A1.08,1.08,0,0,1,25.6,36.07Z" fill="#606060"/><path d="M30.29,29.82a2,2,0,0,0,1.13.47l-.26.61c-.08,0,0-.15-.13-.14a.77.77,0,0,1-.64-.28.08.08,0,0,0-.11,0c-.24.14-.16-.08-.19-.18A1,1,0,0,1,30.29,29.82Z" fill="#606060"/><path d="M29.74,31.29c.05.2.24.11.36.16s.49.32.8.26l-.08.39c-.09,0-.1-.08-.2-.06-.36.07-.63-.24-1-.25,0,0,0-.06,0-.09A.6.6,0,0,1,29.74,31.29Z" fill="#606060"/><path d="M43.38,23.32l-.27,1.2-.34-.07c.07-.35.14-.7.22-1.05a.29.29,0,0,0,0-.16A.7.7,0,0,1,43.38,23.32Z" fill="#606060"/><path d="M40.76,23.05c0,.4.06.8,0,1.2h-.33c0-.2.06-.4-.08-.59s0-.15,0-.21.16-.24.09-.39Z" fill="#606060"/><path d="M31.69,29.76c-.23-.12-.51-.16-.66-.4s-.07-.19,0-.28h.05s.07.08.09.07a1.06,1.06,0,0,1,.76.13Z" fill="#606060"/><path d="M33.45,27.34c0-.23-.3-.31-.34-.54,0-.05.07-.13.15-.08s.21.3.32,0a.83.83,0,0,0,.41.1Z" fill="#606060"/><path d="M33,26.6c-.09.06,0,.17-.09.24s-.09.12-.14.12-.09-.07-.08-.14c0-.25-.23-.09-.29-.21l.13-.14c.08.11.28-.33.3.07,0,.05.06,0,.09,0S33.08,26.52,33,26.6Z" fill="#606060"/><path d="M30.7,29.09V29a.66.66,0,0,1,.2-.34c0,.15.19.09.27.17s.16.22-.06.25h0C31,29,30.83,29.11,30.7,29.09Z" fill="#606060"/><path d="M30.63,45.6c-.06-.1,0-.19,0-.3.05.12.14.22,0,.3Z" fill="#606060"/><path d="M30.63,45.6v.33h0a.22.22,0,0,1,0-.33Z" fill="#606060"/><path d="M24.52,39.62c-.06,0-.12.08-.16,0s0-.05,0-.05.11,0,.14.07Z" fill="#606060"/><path d="M26.6,43.25c.08.09.14.19,0,.31-.14-.1,0-.22,0-.31Z" fill="#606060"/><path d="M28.55,44.79a.27.27,0,0,1-.06-.33c.16.12,0,.23.06.33Z" fill="#606060"/><path d="M56.4,35.4c.05-.16.21-.13.32-.16s.18.09.15.22,0,.28-.11.22S56.37,35.67,56.4,35.4Z" fill="#606060"/><path d="M56.2,41.28s.08.07.09.11,0,.09-.08.07a.26.26,0,0,1-.11-.12S56.13,41.27,56.2,41.28Z" fill="#606060"/><path d="M30.7,29.09c.13-.08.26-.32.4,0-.1.07-.06.17-.07.27C31,29.13,30.77,29.22,30.7,29.09Z" fill="#606060"/><path d="M12.61,62.21h.75v7.61h-.75Z" fill="#606060"/><path d="M20.74,62.7a1.7,1.7,0,0,1,.65,1.4A1.69,1.69,0,0,1,20,65.83a2.05,2.05,0,0,1,1.31.62,1.87,1.87,0,0,1,.47,1.3A1.8,1.8,0,0,1,21,69.27a3.29,3.29,0,0,1-2,.55H15.76V62.2H19A2.82,2.82,0,0,1,20.74,62.7Zm-.57,2.51a1.22,1.22,0,0,0,.44-1,1.16,1.16,0,0,0-.44-1,2,2,0,0,0-1.25-.34H16.51v2.68h2.41A2,2,0,0,0,20.17,65.21Zm.26,3.55A1.26,1.26,0,0,0,21,67.67a1.21,1.21,0,0,0-.54-1.06,2.56,2.56,0,0,0-1.51-.39H16.51v2.92h2.41A2.59,2.59,0,0,0,20.43,68.76Z" fill="#606060"/><path d="M23.59,62.2h.93l3,5.71,2.95-5.71h.93v7.62H30.7V63.24L27.7,69h-.41l-3-5.76v6.58h-.7Z" fill="#606060"/><path d="M41.26,63.06A3.16,3.16,0,0,0,40,62.81a3.21,3.21,0,0,0-1.62.42,3.22,3.22,0,0,0-1.17,4.37,3.33,3.33,0,0,0,1.17,1.16,3.22,3.22,0,0,0,1.62.43,3.3,3.3,0,0,0,1.23-.25,3.38,3.38,0,0,0,1.06-.68l.46.49a4.6,4.6,0,0,1-1.29.83,3.94,3.94,0,0,1-1.5.3,3.85,3.85,0,0,1-2-.52,3.9,3.9,0,0,1-1.43-1.42A3.75,3.75,0,0,1,36,66a3.64,3.64,0,0,1,.54-1.94A3.8,3.8,0,0,1,38,62.66a3.89,3.89,0,0,1,2-.52,4,4,0,0,1,1.49.29,3.92,3.92,0,0,1,1.26.8l-.45.52A3.09,3.09,0,0,0,41.26,63.06Z" fill="#606060"/><path d="M44.36,63.64h.74v5.52h2.72v.66H44.36Z" fill="#606060"/><path d="M53.35,64a3.2,3.2,0,0,1,1.18,1.13A3,3,0,0,1,55,66.71a3.06,3.06,0,0,1-.44,1.6,3.3,3.3,0,0,1-5.64,0,3.06,3.06,0,0,1-.44-1.6,3,3,0,0,1,.44-1.57A3.15,3.15,0,0,1,50.07,64a3.38,3.38,0,0,1,1.64-.41A3.28,3.28,0,0,1,53.35,64Zm-2.88.56a2.64,2.64,0,0,0-.92.9,2.34,2.34,0,0,0-.34,1.24A2.38,2.38,0,0,0,49.55,68a2.51,2.51,0,0,0,.92.91,2.47,2.47,0,0,0,2.5,0,2.56,2.56,0,0,0,.91-.91,2.47,2.47,0,0,0,.33-1.26,2.42,2.42,0,0,0-.33-1.24,2.7,2.7,0,0,0-.91-.9,2.53,2.53,0,0,0-2.5,0Z" fill="#606060"/><path d="M57.75,68.71a1.84,1.84,0,0,0,1.37.51,1.81,1.81,0,0,0,1.37-.51A2,2,0,0,0,61,67.3V63.64h.75V67.3A2.56,2.56,0,0,1,61,69.2a3,3,0,0,1-3.82,0,2.56,2.56,0,0,1-.69-1.9V63.64h.73V67.3A1.94,1.94,0,0,0,57.75,68.71Z" fill="#606060"/><path d="M68,64.05a3.07,3.07,0,0,1,1.15,4.25A2.88,2.88,0,0,1,68,69.41a3.39,3.39,0,0,1-1.65.41h-2.5V63.64h2.52A3.33,3.33,0,0,1,68,64.05Zm-.38,4.8A2.32,2.32,0,0,0,68.5,68a2.36,2.36,0,0,0,.33-1.23,2.46,2.46,0,0,0-.33-1.25,2.42,2.42,0,0,0-.89-.88,2.46,2.46,0,0,0-1.26-.32H64.58v4.88h1.81A2.35,2.35,0,0,0,67.62,68.85Z" fill="#606060"/></svg>