<?xml version="1.0" encoding="utf-8"?>
<!-- Generator: Adobe Illustrator 22.0.1, SVG Export Plug-In . SVG Version: 6.00 Build 0)  -->
<svg version="1.1" id="Layer_1" xmlns="http://www.w3.org/2000/svg" xmlns:xlink="http://www.w3.org/1999/xlink" x="0px" y="0px"
	 viewBox="0 0 80 80" style="enable-background:new 0 0 80 80;" xml:space="preserve">
<style type="text/css">
	.st0{fill:#FE9902;}
	.st1{fill:#25313F;}
	.st2{fill:#137EFE;}
	.st3{fill:#5490F4;}
	.st4{fill:#FECC42;}
	.st5{fill:#D74538;}
	.st6{fill:#ECECED;}
	.st7{fill:#FEFEFD;}
	.st8{fill:#346EE5;}
	.st9{fill:#326DE5;}
	.st10{fill:#C8E8EB;}
	.st11{fill:#21BECE;}
	.st12{fill:#0381FE;}
	.st13{fill:#1259CB;}
	.st14{fill:#606060;}
	.st15{fill:#606060;stroke:#F4F4F4;stroke-miterlimit:10;}
	.st16{fill:#606060;stroke:#F4F4F4;stroke-width:0.75;stroke-miterlimit:10;}
</style>
<g>
	<path class="st8" d="M47.1,47.8H32.9c-1.1-0.4-2-1.1-2.7-2.1c-2.1-2.7-4.3-5.4-6.4-8c-0.8-0.9-1.5-1.9-1.8-3V34
		c0-0.1,0.1-0.1,0.1-0.2c0.9-4.2,1.9-8.3,2.8-12.5c0.2-1.2,1.1-2.3,2.3-2.8c4.1-1.9,8.1-3.9,12.2-5.8h1.2c0.3,0.1,0.6,0.2,0.8,0.4
		l11.7,5.6c1,0.4,1.6,1.3,1.8,2.3c0.7,2.8,1.3,5.7,2,8.5c0.2,1.4,0.6,2.8,1.1,4.2V34c-0.2,0.2-0.2,0.5,0,0.6v0.2
		c-0.3,0.9-0.8,1.8-1.5,2.5c-2.3,2.8-4.5,5.6-6.8,8.4C49.2,46.7,48.2,47.5,47.1,47.8z M33,46.7c0.3,0.2,0.7,0.2,1,0.2h12
		c0.3,0,0.7,0,1-0.2c0.5-0.2,1-0.4,1.3-0.8l8.2-10.1c0.4-0.5,0.6-1.2,0.4-1.8c-1-4.1-1.9-8.3-2.9-12.4c-0.2-0.8-0.7-1.5-1.5-1.8
		c-3.8-1.8-7.6-3.6-11.4-5.5c-0.7-0.4-1.6-0.4-2.3,0l-11.5,5.5c-0.7,0.3-1.2,1-1.4,1.7c-0.9,4-1.8,8-2.8,12c-0.3,1-0.1,2,0.6,2.8
		c2.5,3.1,5,6.2,7.5,9.3C31.8,46,32.4,46.5,33,46.7z"/>
	<path class="st9" d="M33,46.7H47c-0.3,0.2-0.7,0.2-1,0.2H34C33.7,46.9,33.3,46.9,33,46.7z"/>
	<path class="st9" d="M52.5,36.5l-2,2.6c-0.2-0.8-0.5-1.6-0.9-2.3c-0.2-0.4-0.4-0.4-0.8-0.1c-1.2,1.1-2.3,2.1-3.5,3.2
		c-0.7,0.7-0.6,1.5,0.4,1.8c0.7,0.2,1.5,0.4,2.2,0.6c-0.4,0.5-0.7,1-1.1,1.4c-0.4,0.5-1.1,0.8-1.7,0.8c-3.4,0-6.7,0-10.1,0
		c-0.7,0-1.3-0.3-1.7-0.8l-1.2-1.5c0.7-0.2,1.4-0.3,2.1-0.6c1-0.3,1.2-1.1,0.4-1.8c-1.2-1.1-2.4-2.1-3.5-3.1
		c-0.4-0.4-0.6-0.3-0.8,0.2c-0.3,0.7-0.6,1.4-0.9,2c-0.6-0.8-1.3-1.6-1.9-2.4c0.3-0.6,0.5-1.1,0.8-1.7c0.2-0.3,0.2-0.7,0.1-1
		c-0.3-0.9-1.2-1.1-1.8-1.6c-0.2-0.1-0.4-0.3-0.7-0.4c-0.6-0.4-1.1-0.8-0.8-1.6c0.2-0.8,0.9-0.7,1.5-0.6c0.7,0.7,1.4,1.5,2.2,2.2
		c0.5,0.5,1.1,0.7,1.7,0.2c1.5-1.3,3.1-2.3,4.9-3.1c1-0.3,2-0.5,3.1-0.6c0.2,0,0.4-0.2,0.5-0.4c0.4-0.8,0.4-1.7,0.2-2.5
		c-0.1-0.5-0.2-1-0.2-1.6c0.1-0.4,0.4-0.8,0.8-0.9c0.4-0.1,0.8,0,1,0.3c0.3,0.4,0.4,0.9,0.3,1.3c-0.2,0.8-0.3,1.6-0.3,2.4
		c0,0.5,0.1,1.2,0.8,1.3c0.9,0.2,1.8,0.4,2.8,0.6c1.8,0.6,3.4,1.6,4.8,2.8c0.5,0.6,1.4,0.8,2,0.3c0.1-0.1,0.2-0.2,0.3-0.3
		c0.6-0.6,1.2-1.2,1.8-1.8c0.6-0.2,1.3-0.4,1.7,0.4c0.3,0.6-0.1,1.2-0.8,1.7l-0.9,0.6c-0.2,0.1-0.4,0.2-0.6,0.3
		c-1.2,0.7-1.3,1.3-0.7,2.5C52.2,35.8,52.3,36.2,52.5,36.5z M38.6,32.4C38.4,32,39,31.1,38,31.3c-1.9,0.3-3.7,1.2-5.1,2.4
		c-0.4,0.3-0.5,0.6,0,0.9c1.3,0.9,2.5,1.8,3.8,2.7c0.9,0.6,1.5,0.3,1.6-0.8C38.5,35.2,38.3,33.8,38.6,32.4z M41.4,32.8
		c0.1,1.2,0.1,2.4,0.2,3.5s0.8,1.5,1.8,0.9c1.3-0.9,2.5-1.8,3.7-2.6c0.4-0.3,0.5-0.5,0.1-0.8c-1.2-1-2.6-1.8-4.1-2.2
		C41,31,41.4,31.2,41.4,32.8z"/>
	<path class="st10" d="M44.4,29c-0.9-0.2-1.8-0.4-2.8-0.6c-0.7-0.2-0.8-0.8-0.8-1.3c0-0.8,0.1-1.6,0.3-2.4c0.1-0.5,0-1-0.3-1.3
		c-0.2-0.3-0.7-0.4-1-0.3c-0.4,0.1-0.7,0.5-0.8,0.9c0,0.5,0,1.1,0.2,1.6c0.2,0.8,0.1,1.7-0.2,2.5c-0.1,0.2-0.3,0.4-0.5,0.4
		c-1,0.1-2.1,0.3-3.1,0.6c-0.3-0.2-0.7-0.4-1-0.6c-2.5-1.5-5.1-2.9-7.6-4.4c0.1-0.3,0.4-0.5,0.7-0.6c3.9-2.2,7.8-4.5,11.6-6.7
		c0.5-0.3,1.2-0.3,1.7,0c3.9,2.3,7.8,4.5,11.7,6.7c0.2,0.1,0.5,0.2,0.6,0.6c-0.2,0.2-0.5,0.4-0.8,0.5L44.4,29z"/>
	<path class="st11" d="M44.4,29l7.8-4.6c0.3-0.2,0.5-0.4,0.8-0.5c0.5,0.1,0.3,0.5,0.3,0.7c0,1.8,0,3.6,0,5.4
		c-0.6,0.6-1.2,1.3-1.8,1.8c-0.5,0.6-1.4,0.8-2,0.3c-0.1-0.1-0.2-0.2-0.3-0.3C47.7,30.6,46.1,29.6,44.4,29z"/>
	<path class="st11" d="M26.7,23.9c2.5,1.6,5.1,3,7.6,4.4c0.3,0.2,0.7,0.4,1,0.6c-1.8,0.7-3.5,1.8-4.9,3.1c-0.6,0.5-1.2,0.3-1.7-0.2
		c-0.8-0.7-1.5-1.4-2.2-2.2v-5.4C26.5,24.2,26.5,24,26.7,23.9z"/>
	<path class="st11" d="M48,42.3c-0.7-0.2-1.5-0.4-2.2-0.6c-0.9-0.3-1.2-1.1-0.4-1.8c1.2-1.1,2.3-2.1,3.5-3.2
		c0.3-0.3,0.6-0.3,0.8,0.1c0.4,0.7,0.7,1.5,0.9,2.3C49.6,40.2,48.8,41.3,48,42.3z"/>
	<path class="st11" d="M29.4,39c0.3-0.7,0.6-1.4,0.9-2c0.2-0.4,0.4-0.5,0.8-0.2c1.2,1.1,2.4,2.1,3.5,3.1c0.8,0.7,0.6,1.5-0.4,1.8
		c-0.7,0.2-1.4,0.4-2.1,0.6C31.1,41.2,30.2,40.1,29.4,39z"/>
	<path class="st11" d="M26.5,32.3c0.7,0.4,1.5,0.7,1.8,1.6c0.2,0.3,0.1,0.7-0.1,1c-0.3,0.5-0.6,1.1-0.8,1.7c-0.8-0.7-1.2-1.8-1-2.9
		C26.5,33.2,26.5,32.8,26.5,32.3z"/>
	<path class="st11" d="M52.5,36.6c-0.2-0.4-0.4-0.8-0.6-1.1c-0.6-1.2-0.5-1.8,0.7-2.5c0.2-0.1,0.4-0.2,0.6-0.3c0,0.8,0,1.6,0,2.4
		C53.2,35.7,53,36.3,52.5,36.6z"/>
	<path class="st11" d="M38.6,32.4c-0.3,1.4-0.1,2.8-0.3,4.2c-0.2,1.1-0.8,1.4-1.6,0.8c-1.3-0.9-2.5-1.8-3.8-2.7
		c-0.5-0.3-0.4-0.6,0-0.9c1.4-1.3,3.2-2.1,5.1-2.5C39,31.1,38.4,32,38.6,32.4z"/>
	<path class="st11" d="M41.4,32.8c0-1.6-0.4-1.8,1.7-1.3c1.5,0.4,2.9,1.2,4.1,2.2c0.4,0.3,0.4,0.6-0.1,0.8c-1.3,0.9-2.5,1.8-3.7,2.6
		c-1,0.7-1.7,0.3-1.8-0.9C41.5,35.2,41.5,34,41.4,32.8z"/>
</g>
<g>
	<path class="st14" d="M15.9,62.3h0.9l3,5.8l3-5.8h0.9V70h-0.7l0-6.6l-3,5.8h-0.4l-3-5.8V70h-0.7V62.3z"/>
	<path class="st14" d="M26.2,63.7h0.7V70h-0.7V63.7z"/>
	<path class="st14" d="M29.2,63.7H30l3.8,5.1v-5.1h0.7V70h-0.7L30,64.9V70h-0.7V63.7z"/>
	<path class="st14" d="M36.8,63.7h0.7V70h-0.7V63.7z"/>
	<path class="st14" d="M45,70h-0.9l-2.3-3l-1.2,1.3V70h-0.7v-6.2h0.7v3.7l3.3-3.7h0.9l-2.5,2.7L45,70z"/>
	<path class="st14" d="M47.3,68.9c0.3,0.3,0.8,0.5,1.4,0.5s1-0.2,1.4-0.5s0.5-0.8,0.5-1.4v-3.7h0.7v3.7c0,0.8-0.2,1.5-0.7,1.9
		S49.5,70,48.7,70s-1.5-0.2-1.9-0.7s-0.7-1.1-0.7-1.9v-3.7h0.7v3.7C46.8,68,47,68.5,47.3,68.9z"/>
	<path class="st14" d="M57.7,64.1c0.4,0.3,0.5,0.7,0.5,1.1c0,0.4-0.1,0.7-0.3,0.9s-0.5,0.4-0.9,0.5c0.4,0.1,0.8,0.2,1.1,0.5
		c0.3,0.3,0.4,0.6,0.4,1.1c0,0.5-0.2,0.9-0.6,1.2c-0.4,0.3-1,0.5-1.7,0.5h-2.7v-6.2h2.7C56.8,63.7,57.3,63.9,57.7,64.1z M57.1,66.2
		c0.2-0.2,0.3-0.4,0.3-0.8c0-0.3-0.1-0.6-0.3-0.8c-0.2-0.2-0.6-0.3-1-0.3h-1.9v2.1h1.9C56.5,66.5,56.9,66.4,57.1,66.2z M57.3,69
		c0.3-0.2,0.4-0.5,0.4-0.8c0-0.4-0.1-0.6-0.4-0.8c-0.3-0.2-0.7-0.3-1.2-0.3h-1.9v2.3h1.9C56.6,69.3,57,69.2,57.3,69z"/>
	<path class="st14" d="M60.4,63.7h4.3v0.6h-3.6v2.1h3.2v0.6h-3.2v2.2h3.7V70h-4.4V63.7z"/>
</g>
</svg>
