<?xml version="1.0" encoding="utf-8"?>
<!-- Generator: Adobe Illustrator 22.0.1, SVG Export Plug-In . SVG Version: 6.00 Build 0)  -->
<svg version="1.1" id="Layer_1" xmlns="http://www.w3.org/2000/svg" xmlns:xlink="http://www.w3.org/1999/xlink" x="0px" y="0px"
	 viewBox="0 0 80 80" style="enable-background:new 0 0 80 80;" xml:space="preserve">
<style type="text/css">
	.st0{fill:#FE9902;}
	.st1{fill:#25313F;}
	.st2{fill:#137EFE;}
	.st3{fill:#5490F4;}
	.st4{fill:#FECC42;}
	.st5{fill:#D74538;}
	.st6{fill:#ECECED;}
	.st7{fill:#FEFEFD;}
	.st8{fill:#346EE5;}
	.st9{fill:#326DE5;}
	.st10{fill:#C8E8EB;}
	.st11{fill:#21BECE;}
	.st12{fill:#0381FE;}
	.st13{fill:#1259CB;}
	.st14{fill:#606060;}
	.st15{fill:#606060;stroke:#F4F4F4;stroke-miterlimit:10;}
	.st16{fill:#606060;stroke:#F4F4F4;stroke-width:0.75;stroke-miterlimit:10;}
</style>
<g>
	<path class="st14" d="M47.1,47.5c-4.7,0-9.4,0-14.1,0c-1.1-0.3-1.9-1.1-2.6-2.1c-2.1-2.7-4.2-5.3-6.4-7.9c-0.7-0.9-1.5-1.8-1.8-3
		c0-0.2,0-0.4,0-0.6c0-0.1,0.1-0.1,0.1-0.2c0.9-4.1,1.9-8.2,2.8-12.3c0.3-1.3,1-2.2,2.3-2.8c4-1.9,8-3.8,12.1-5.7c0.4,0,0.8,0,1.3,0
		c0.3,0.1,0.6,0.2,0.8,0.3c3.9,1.9,7.7,3.7,11.6,5.6c1,0.5,1.6,1.3,1.8,2.3c0.7,2.8,1.3,5.6,1.9,8.4c0.3,1.4,0.5,2.8,1.1,4.2
		c0,0.1,0,0.1,0,0.2c-0.2,0.2-0.1,0.4,0,0.6c0,0.1,0,0.1,0,0.2c-0.3,1-0.9,1.7-1.5,2.5c-2.3,2.8-4.5,5.5-6.7,8.3
		C49,46.4,48.2,47.2,47.1,47.5z M33.1,46.4c0.3,0.2,0.6,0.2,1,0.2c3.9,0,7.9,0,11.8,0c0.3,0,0.7,0,1-0.2c0.5-0.2,1-0.4,1.3-0.8
		c2.7-3.4,5.4-6.7,8.1-10.1c0.4-0.5,0.6-1.2,0.4-1.8c-0.9-4.1-1.9-8.2-2.8-12.3c-0.2-0.8-0.7-1.4-1.5-1.8c-3.8-1.8-7.5-3.6-11.3-5.4
		c-0.8-0.4-1.5-0.4-2.3,0c-3.8,1.8-7.6,3.6-11.4,5.4c-0.7,0.3-1.2,0.9-1.3,1.7c-0.9,4-1.8,7.9-2.8,11.9c-0.2,1-0.1,1.9,0.6,2.7
		c2.5,3.1,5,6.2,7.5,9.3C32,45.7,32.4,46.1,33.1,46.4z"/>
	<g>
		<path class="st16" d="M52.4,36.3c-0.7,0.9-1.3,1.7-2,2.6c-0.2-0.8-0.5-1.5-0.9-2.2c-0.2-0.4-0.4-0.4-0.8-0.1
			c-1.1,1.1-2.3,2.1-3.5,3.1c-0.7,0.7-0.6,1.5,0.4,1.8c0.7,0.2,1.4,0.4,2.2,0.6c-0.4,0.5-0.7,1-1.1,1.4c-0.4,0.5-1,0.8-1.7,0.8
			c-3.3,0-6.7,0-10,0c-0.7,0-1.3-0.3-1.8-0.8c-0.4-0.5-0.8-1-1.1-1.5c0.7-0.2,1.4-0.3,2.1-0.6c1-0.3,1.2-1.1,0.4-1.8
			c-1.2-1.1-2.3-2.1-3.5-3.1c-0.4-0.4-0.6-0.3-0.8,0.2c-0.3,0.7-0.6,1.3-0.9,2c-0.6-0.8-1.3-1.6-1.9-2.4c0.3-0.6,0.5-1.1,0.8-1.7
			c0.2-0.3,0.2-0.6,0.1-1c-0.3-0.9-1.1-1.1-1.8-1.6c-0.2-0.1-0.4-0.3-0.7-0.4c-0.6-0.4-1.1-0.8-0.8-1.6c0.2-0.7,0.9-0.7,1.5-0.6
			c0.7,0.7,1.4,1.5,2.2,2.1c0.5,0.5,1.1,0.7,1.7,0.2c1.4-1.3,3.1-2.3,4.9-3c1-0.2,2-0.6,3-0.6c0.2,0,0.4-0.2,0.5-0.4
			c0.5-0.8,0.3-1.7,0.2-2.5c-0.1-0.5-0.3-1-0.2-1.5c0.1-0.5,0.3-0.8,0.8-0.9c0.4-0.1,0.7,0,1,0.3c0.4,0.4,0.4,0.8,0.3,1.3
			c-0.2,0.8-0.3,1.6-0.3,2.4c0,0.5,0.1,1.1,0.8,1.3c0.9,0.2,1.8,0.4,2.7,0.6c1.7,0.7,3.3,1.5,4.7,2.8c0.8,0.8,1.4,0.8,2.3,0
			c0.6-0.6,1.2-1.2,1.8-1.8c0.6-0.2,1.3-0.4,1.7,0.4c0.3,0.6-0.1,1.2-0.8,1.7c-0.3,0.2-0.6,0.4-0.9,0.6c-0.2,0.1-0.4,0.2-0.6,0.3
			c-1.1,0.7-1.3,1.3-0.6,2.5C52.1,35.6,52.2,35.9,52.4,36.3z M38.6,32.2C38.4,31.8,39,31,38,31.1c-1.9,0.3-3.6,1.1-5.1,2.4
			c-0.4,0.3-0.4,0.6,0,0.9c1.3,0.9,2.5,1.8,3.8,2.7c0.9,0.6,1.5,0.3,1.6-0.8C38.5,35,38.4,33.6,38.6,32.2z M41.4,32.6
			c0.1,1.2,0.1,2.3,0.2,3.5c0.1,1.1,0.8,1.5,1.8,0.8c1.2-0.9,2.5-1.8,3.7-2.6c0.4-0.3,0.5-0.5,0.1-0.8c-1.2-1-2.5-1.8-4-2.2
			C41,30.8,41.4,31,41.4,32.6z"/>
		<path class="st16" d="M44.4,28.8c-0.9-0.2-1.8-0.4-2.7-0.6c-0.7-0.2-0.8-0.8-0.8-1.3c-0.1-0.8,0.1-1.6,0.3-2.4
			c0.1-0.5,0-0.9-0.3-1.3c-0.3-0.3-0.6-0.4-1-0.3C39.3,23,39,23.4,39,23.8c-0.1,0.5,0.1,1,0.2,1.5c0.1,0.8,0.3,1.7-0.2,2.5
			c-0.1,0.2-0.3,0.4-0.5,0.4c-1.1-0.1-2,0.4-3,0.6c-0.3-0.2-0.6-0.4-1-0.6c-2.5-1.5-5.1-2.8-7.5-4.4c0.1-0.3,0.4-0.5,0.7-0.6
			c3.8-2.2,7.7-4.4,11.5-6.6c0.6-0.3,1.1-0.3,1.7,0c3.9,2.2,7.7,4.4,11.6,6.7c0.2,0.1,0.5,0.2,0.6,0.6c-0.3,0.2-0.5,0.4-0.8,0.5
			C49.5,25.8,46.9,27.3,44.4,28.8z"/>
		<path class="st16" d="M44.4,28.8c2.6-1.5,5.2-3,7.7-4.5c0.3-0.2,0.5-0.3,0.8-0.5c0.5,0.1,0.3,0.4,0.3,0.7c0,1.8,0,3.5,0,5.3
			c-0.6,0.6-1.2,1.3-1.8,1.8c-0.8,0.8-1.4,0.8-2.3,0C47.7,30.4,46.1,29.5,44.4,28.8z"/>
		<path class="st16" d="M26.8,23.8c2.5,1.6,5,2.9,7.5,4.4c0.3,0.2,0.7,0.4,1,0.6c-1.8,0.8-3.4,1.7-4.9,3c-0.6,0.5-1.2,0.3-1.7-0.2
			c-0.7-0.7-1.4-1.4-2.2-2.1c0-1.8,0-3.5,0-5.3C26.6,24.1,26.6,23.9,26.8,23.8z"/>
		<path class="st16" d="M47.9,42c-0.7-0.2-1.5-0.4-2.2-0.6c-1-0.3-1.1-1.1-0.4-1.8c1.1-1.1,2.3-2.1,3.5-3.1c0.3-0.3,0.6-0.3,0.8,0.1
			c0.4,0.7,0.7,1.5,0.9,2.2C49.6,39.9,48.7,41,47.9,42z"/>
		<path class="st16" d="M29.5,38.7c0.3-0.7,0.6-1.3,0.9-2c0.2-0.4,0.4-0.5,0.8-0.2c1.2,1,2.4,2.1,3.5,3.1c0.7,0.7,0.6,1.5-0.4,1.8
			c-0.7,0.2-1.4,0.4-2.1,0.6C31.2,40.9,30.3,39.8,29.5,38.7z"/>
		<path class="st16" d="M26.6,32.1c0.7,0.4,1.5,0.7,1.8,1.6c0.1,0.4,0.1,0.7-0.1,1c-0.3,0.5-0.6,1.1-0.8,1.7c-0.9-0.8-1-1.8-1-2.9
			C26.6,33,26.6,32.6,26.6,32.1z"/>
		<path class="st16" d="M52.4,36.3c-0.2-0.4-0.4-0.7-0.6-1.1c-0.6-1.2-0.5-1.7,0.6-2.5c0.2-0.1,0.4-0.2,0.6-0.3c0,0.8,0,1.6,0,2.4
			C53.2,35.5,52.9,35.9,52.4,36.3z"/>
		<path class="st16" d="M38.6,32.2c-0.3,1.4-0.1,2.8-0.3,4.1c-0.2,1.1-0.8,1.4-1.6,0.8c-1.3-0.9-2.5-1.8-3.8-2.7
			c-0.5-0.3-0.4-0.6,0-0.9c1.5-1.3,3.2-2.1,5.1-2.4C39,31,38.4,31.8,38.6,32.2z"/>
		<path class="st16" d="M41.4,32.6c0-1.6-0.4-1.8,1.7-1.3c1.5,0.4,2.8,1.2,4,2.2c0.4,0.3,0.4,0.5-0.1,0.8c-1.2,0.9-2.5,1.8-3.7,2.6
			c-1,0.7-1.7,0.3-1.8-0.8C41.5,35,41.5,33.8,41.4,32.6z"/>
	</g>
</g>
<g>
	<path class="st14" d="M15.9,62.3h0.9l3,5.8l3-5.8h0.9V70h-0.7l0-6.6l-3,5.8h-0.4l-3-5.8V70h-0.7V62.3z"/>
	<path class="st14" d="M26.2,63.7h0.7V70h-0.7V63.7z"/>
	<path class="st14" d="M29.2,63.7H30l3.8,5.1v-5.1h0.7V70h-0.7L30,64.9V70h-0.7V63.7z"/>
	<path class="st14" d="M36.8,63.7h0.7V70h-0.7V63.7z"/>
	<path class="st14" d="M45,70h-0.9l-2.3-3l-1.2,1.3V70h-0.7v-6.2h0.7v3.7l3.3-3.7h0.9l-2.5,2.7L45,70z"/>
	<path class="st14" d="M47.3,68.9c0.3,0.3,0.8,0.5,1.4,0.5s1-0.2,1.4-0.5s0.5-0.8,0.5-1.4v-3.7h0.7v3.7c0,0.8-0.2,1.5-0.7,1.9
		S49.5,70,48.7,70s-1.5-0.2-1.9-0.7s-0.7-1.1-0.7-1.9v-3.7h0.7v3.7C46.8,68,47,68.5,47.3,68.9z"/>
	<path class="st14" d="M57.7,64.1c0.4,0.3,0.5,0.7,0.5,1.1c0,0.4-0.1,0.7-0.3,0.9s-0.5,0.4-0.9,0.5c0.4,0.1,0.8,0.2,1.1,0.5
		c0.3,0.3,0.4,0.6,0.4,1.1c0,0.5-0.2,0.9-0.6,1.2c-0.4,0.3-1,0.5-1.7,0.5h-2.7v-6.2h2.7C56.8,63.7,57.3,63.9,57.7,64.1z M57.1,66.2
		c0.2-0.2,0.3-0.4,0.3-0.8c0-0.3-0.1-0.6-0.3-0.8c-0.2-0.2-0.6-0.3-1-0.3h-1.9v2.1h1.9C56.5,66.5,56.9,66.4,57.1,66.2z M57.3,69
		c0.3-0.2,0.4-0.5,0.4-0.8c0-0.4-0.1-0.6-0.4-0.8c-0.3-0.2-0.7-0.3-1.2-0.3h-1.9v2.3h1.9C56.6,69.3,57,69.2,57.3,69z"/>
	<path class="st14" d="M60.4,63.7h4.3v0.6h-3.6v2.1h3.2v0.6h-3.2v2.2h3.7V70h-4.4V63.7z"/>
</g>
</svg>
