<?xml version="1.0" encoding="utf-8"?>
<!-- Generator: Adobe Illustrator 22.0.0, SVG Export Plug-In . SVG Version: 6.00 Build 0)  -->
<svg version="1.1" id="Layer_1" xmlns="http://www.w3.org/2000/svg" xmlns:xlink="http://www.w3.org/1999/xlink" x="0px" y="0px"
	 viewBox="0 0 80 80" style="enable-background:new 0 0 80 80;" xml:space="preserve">
<style type="text/css">
	.st0{fill:#606060;}
	.st1{fill:#606060;stroke:#F4F4F4;stroke-width:0.75;stroke-miterlimit:10;}
	.st2{fill:#DA2331;}
	.st3{fill:#E9252A;}
	.st4{fill:#BC2539;}
	.st5{fill:#FE9902;}
	.st6{fill:#25313F;}
	.st7{fill:#137EFE;}
	.st8{fill:#5490F4;}
	.st9{fill:#FECC42;}
	.st10{fill:#D74538;}
	.st11{fill:#ECECED;}
	.st12{fill:#FEFEFD;}
	.st13{fill:#0381FE;}
	.st14{fill:#1259CB;}
	.st15{fill:#606060;stroke:#F4F4F4;stroke-miterlimit:10;}
	.st16{fill:#346EE5;}
	.st17{fill:#326DE5;}
	.st18{fill:#C8E8EB;}
	.st19{fill:#21BECE;}
	.st20{fill:#24EDCE;}
</style>
<g>
	<path class="st0" d="M18.3,62.7c0.6,0.3,1.1,0.8,1.4,1.4s0.5,1.2,0.5,1.9s-0.2,1.4-0.5,1.9c-0.4,0.6-0.8,1.1-1.4,1.4
		c-0.6,0.3-1.3,0.5-2,0.5c-0.7,0-1.4-0.2-2-0.5c-0.6-0.3-1.1-0.8-1.4-1.4c-0.4-0.6-0.5-1.2-0.5-1.9s0.2-1.4,0.5-1.9
		c0.4-0.6,0.8-1.1,1.4-1.4c0.6-0.3,1.3-0.5,2-0.5C17.1,62.1,17.7,62.3,18.3,62.7z M14.7,63.2c-0.5,0.3-0.9,0.7-1.2,1.2
		c-0.3,0.5-0.4,1-0.4,1.6c0,0.6,0.1,1.1,0.4,1.6c0.3,0.5,0.7,0.9,1.2,1.2c0.5,0.3,1,0.4,1.6,0.4c0.6,0,1.1-0.1,1.6-0.4
		c0.5-0.3,0.9-0.7,1.2-1.2c0.3-0.5,0.4-1,0.4-1.6c0-0.6-0.1-1.1-0.4-1.6c-0.3-0.5-0.7-0.9-1.2-1.2s-1-0.4-1.6-0.4
		C15.8,62.8,15.2,63,14.7,63.2z"/>
	<path class="st0" d="M26,64.2c0.4,0.4,0.6,0.9,0.6,1.5c0,0.7-0.2,1.2-0.6,1.6s-1,0.6-1.8,0.6h-1.6v2h-0.7v-6.2h2.4
		C25,63.6,25.6,63.8,26,64.2z M25.5,66.8c0.3-0.3,0.5-0.6,0.5-1.1c0-0.5-0.2-0.8-0.5-1.1c-0.3-0.3-0.7-0.4-1.3-0.4h-1.6v3h1.6
		C24.8,67.2,25.2,67.1,25.5,66.8z"/>
	<path class="st0" d="M28.3,63.6h4.3v0.6H29v2.1h3.1V67H29v2.2h3.6v0.6h-4.4V63.6z"/>
	<path class="st0" d="M34.3,63.6H35l3.7,5.1v-5.1h0.7v6.2h-0.7l-3.7-5v5h-0.7V63.6z"/>
	<path class="st0" d="M45,63c-0.4-0.1-0.7-0.2-1-0.2c-0.5,0-0.9,0.1-1.3,0.3c-0.3,0.2-0.5,0.5-0.5,0.8c0,0.3,0.1,0.6,0.3,0.8
		c0.2,0.2,0.4,0.3,0.6,0.5c0.3,0.1,0.6,0.2,1,0.4c0.5,0.2,0.9,0.3,1.2,0.5c0.3,0.1,0.6,0.4,0.8,0.6c0.2,0.3,0.3,0.7,0.3,1.1
		c0,0.4-0.1,0.8-0.3,1.1c-0.2,0.3-0.5,0.6-1,0.7c-0.4,0.2-0.9,0.3-1.4,0.3c-0.5,0-1-0.1-1.6-0.3c-0.5-0.2-0.9-0.5-1.3-0.8l0.3-0.6
		c0.3,0.3,0.7,0.6,1.2,0.8c0.5,0.2,0.9,0.3,1.3,0.3c0.6,0,1-0.1,1.4-0.4c0.3-0.2,0.5-0.6,0.5-1c0-0.3-0.1-0.6-0.3-0.8
		c-0.2-0.2-0.4-0.4-0.6-0.5s-0.6-0.2-1.1-0.4c-0.5-0.2-0.9-0.3-1.2-0.5c-0.3-0.1-0.6-0.4-0.8-0.6c-0.2-0.3-0.3-0.6-0.3-1.1
		c0-0.4,0.1-0.7,0.3-1s0.5-0.5,0.9-0.7c0.4-0.2,0.8-0.2,1.4-0.2c0.4,0,0.8,0.1,1.2,0.2c0.4,0.1,0.8,0.3,1.1,0.5L46,63.4
		C45.7,63.3,45.4,63.1,45,63z"/>
	<path class="st0" d="M48.4,63.6h0.7v2.8h3.7v-2.8h0.7v6.2h-0.7l0-2.7h-3.7v2.7h-0.7V63.6z"/>
	<path class="st0" d="M55.9,63.6h0.7v6.2h-0.7V63.6z"/>
	<path class="st0" d="M58.9,63.6h4l0,0.6h-3.2v2.3h2.9v0.6h-2.9v2.6h-0.7V63.6z"/>
	<path class="st0" d="M63.3,63.6H68v0.6h-2v5.5h-0.7v-5.5h-2V63.6z"/>
</g>
<g>
	<path class="st1" d="M26.4,30.7c-2.5,0.9-2.5,0.9-2.3-1.8c0.4-8,7.4-15,15.4-15.4c6.1-0.3,11.1,1.9,14.8,6.8
		c-0.9,0.9-2.3,0.7-3.3,1.4c-1.6,0.9-2.8,0.5-4.3-0.6c-3.4-2.4-7.1-2.5-10.8-0.6c-3.5,1.8-5.5,4.7-5.8,8.6
		C28.8,29.7,27.6,30.2,26.4,30.7z"/>
	<path class="st1" d="M57.4,31.4c-0.3,5.8-3.1,10.1-7.9,13.1c-6.3,3.9-14.4,3.1-19.8-1.8c-0.3-0.3-0.5-0.6-0.8-0.9
		c0.3-0.4,0.9-0.4,1.4-0.7c1.5-0.7,3.2-0.9,4.6-1.9c2.6,1.5,5.3,2.2,8.3,1.5c4.1-0.9,6.7-3.6,8.2-7.5c0.5,0,1-0.2,1.5-0.4
		C54.2,32.3,55.7,31.7,57.4,31.4z"/>
	<path class="st1" d="M27.1,40c0,0-0.1,0-0.1,0c-2.9,1-2.9,1-4.2-1.8c-1.3-2.9-1.3-2.9,1.6-3.9c0.9-0.3,1.7-0.7,2.5-1
		c0.2,0,0.3,0,0.5,0c0.4,2,1.4,3.7,2.6,5.3C29.3,39.5,28,39.3,27.1,40z"/>
	<path class="st1" d="M53.1,24c0.9,1.8,1.3,3.8,1.6,5.8c-1.1,0.5-2.2,0.9-3.3,1.4c-0.6,0.2-1.3,0.4-1.9,0.7
		c-0.6,0.2-0.8,0.1-0.7-0.6c0.1-1.6-0.3-3.2-1-4.7c-0.3-0.6-0.2-0.8,0.4-1c1.4-0.5,2.9-1.1,4.3-1.6C52.7,24,52.9,24,53.1,24z"/>
	<path class="st1" d="M53.1,24c-0.2,0-0.4,0-0.6,0c-0.3-0.9-1-1.5-1.6-2.2c1-0.7,2.4-0.6,3.3-1.4c0.3-0.1,0.7-0.1,1-0.3
		c1.5-0.5,2.5,0.1,2.8,1.6c0.1,0.6-0.3,0.5-0.6,0.6C56,22.9,54.5,23.5,53.1,24z"/>
	<path class="st1" d="M27.4,33.3c-0.2,0-0.3,0-0.5,0c-0.2-0.9-0.3-1.7-0.5-2.6c1.2-0.5,2.4-1,3.6-1.5c0.7-0.2,1.5-0.5,2.3-0.7
		c0,0.7,0,1.4,0.1,2c0.2,0.7-0.1,1-0.7,1.2C30.3,32.2,28.8,32.8,27.4,33.3z"/>
	<path class="st1" d="M27.1,40c0.8-0.7,2.1-0.5,2.9-1.4c0.3,0.2,0.6,0.1,0.9-0.1c1.5-0.9,2.8-0.6,3.8,0.8c-1.4,1-3.1,1.2-4.6,1.9
		c-0.5,0.2-1,0.2-1.4,0.7C28.1,41.4,27.7,40.6,27.1,40z"/>
	<path class="st1" d="M51.4,31.2c1.1-0.5,2.2-0.9,3.3-1.4c0.7-0.2,1.4-0.5,2.1-0.7c0.4-0.2,0.8-0.2,0.7,0.5
		c-0.1,0.6-0.1,1.2-0.2,1.9c-1.6,0.3-3.2,0.9-4.7,1.5c-0.5,0.2-0.9,0.4-1.5,0.4C51.2,32.6,51.3,31.9,51.4,31.2z"/>
</g>
</svg>
