<?xml version="1.0" encoding="utf-8"?>
<!-- Generator: Adobe Illustrator 22.0.0, SVG Export Plug-In . SVG Version: 6.00 Build 0)  -->
<svg version="1.1" id="Layer_1" xmlns="http://www.w3.org/2000/svg" xmlns:xlink="http://www.w3.org/1999/xlink" x="0px" y="0px"
	 viewBox="0 0 80 80" style="enable-background:new 0 0 80 80;" xml:space="preserve">
<style type="text/css">
	.st0{fill:#606060;}
	.st1{fill:#606060;stroke:#F4F4F4;stroke-width:0.75;stroke-miterlimit:10;}
	.st2{fill:#DA2331;}
	.st3{fill:#E9252A;}
	.st4{fill:#BC2539;}
	.st5{fill:#FE9902;}
	.st6{fill:#25313F;}
	.st7{fill:#137EFE;}
	.st8{fill:#5490F4;}
	.st9{fill:#FECC42;}
	.st10{fill:#D74538;}
	.st11{fill:#ECECED;}
	.st12{fill:#FEFEFD;}
	.st13{fill:#0381FE;}
	.st14{fill:#1259CB;}
	.st15{fill:#606060;stroke:#F4F4F4;stroke-miterlimit:10;}
	.st16{fill:#346EE5;}
	.st17{fill:#326DE5;}
	.st18{fill:#C8E8EB;}
	.st19{fill:#21BECE;}
	.st20{fill:#24EDCE;}
</style>
<g>
	<path class="st0" d="M14.1,63c-0.4-0.1-0.7-0.2-1-0.2c-0.5,0-0.9,0.1-1.3,0.3c-0.3,0.2-0.5,0.5-0.5,0.8c0,0.3,0.1,0.6,0.3,0.8
		c0.2,0.2,0.4,0.3,0.6,0.5c0.3,0.1,0.6,0.2,1,0.4c0.5,0.2,0.9,0.3,1.2,0.5c0.3,0.1,0.6,0.4,0.8,0.6c0.2,0.3,0.3,0.7,0.3,1.1
		c0,0.4-0.1,0.8-0.3,1.1c-0.2,0.3-0.5,0.6-1,0.7c-0.4,0.2-0.9,0.3-1.4,0.3c-0.5,0-1-0.1-1.6-0.3c-0.5-0.2-0.9-0.5-1.3-0.8l0.3-0.6
		c0.3,0.3,0.7,0.6,1.2,0.8c0.5,0.2,0.9,0.3,1.3,0.3c0.6,0,1-0.1,1.4-0.4c0.3-0.2,0.5-0.6,0.5-1c0-0.3-0.1-0.6-0.3-0.8
		c-0.2-0.2-0.4-0.4-0.6-0.5s-0.6-0.2-1.1-0.4c-0.5-0.2-0.9-0.3-1.2-0.5c-0.3-0.1-0.6-0.4-0.8-0.6c-0.2-0.3-0.3-0.6-0.3-1.1
		c0-0.4,0.1-0.7,0.3-1s0.5-0.5,0.9-0.7c0.4-0.2,0.8-0.2,1.4-0.2c0.4,0,0.8,0.1,1.2,0.2c0.4,0.1,0.8,0.3,1.1,0.5l-0.3,0.6
		C14.8,63.3,14.5,63.1,14.1,63z"/>
	<path class="st0" d="M16.4,63.6h4.8v0.6h-2v5.5h-0.7v-5.5h-2V63.6z"/>
	<path class="st0" d="M26.3,69.8l-0.7-1.6h-3.4l-0.7,1.6h-0.8l2.8-6.2h0.8l2.8,6.2H26.3z M22.5,67.6h2.8l-1.4-3.2L22.5,67.6z"/>
	<path class="st0" d="M32,64.4c-0.3-0.1-0.6-0.2-1-0.2c-0.5,0-0.9,0.1-1.3,0.3c-0.4,0.2-0.7,0.5-0.9,0.9c-0.2,0.4-0.3,0.8-0.3,1.2
		c0,0.5,0.1,0.9,0.3,1.2c0.2,0.4,0.5,0.7,0.9,0.9s0.8,0.3,1.3,0.3c0.3,0,0.7-0.1,1-0.2s0.6-0.3,0.9-0.6l0.4,0.5
		c-0.3,0.3-0.7,0.5-1.1,0.7c-0.4,0.2-0.8,0.3-1.2,0.3c-0.6,0-1.1-0.1-1.6-0.4c-0.5-0.3-0.9-0.7-1.2-1.1c-0.3-0.5-0.4-1-0.4-1.6
		s0.1-1.1,0.4-1.6c0.3-0.5,0.7-0.9,1.2-1.1c0.5-0.3,1-0.4,1.6-0.4c0.4,0,0.8,0.1,1.2,0.2c0.4,0.2,0.7,0.4,1.1,0.7L32.8,65
		C32.6,64.8,32.3,64.6,32,64.4z"/>
	<path class="st0" d="M39.9,69.8H39l-2.3-2.9l-1.2,1.3v1.6h-0.7v-6.2h0.7v3.6l3.3-3.6h0.9l-2.5,2.7L39.9,69.8z"/>
	<path class="st0" d="M46.2,62.9c0.5,0.4,0.8,1.1,0.8,1.9c0,0.8-0.3,1.5-0.8,1.9s-1.2,0.7-2.2,0.7h-2.1v2.5h-0.8v-7.6H44
		C44.9,62.2,45.6,62.4,46.2,62.9z M45.6,66.2c0.4-0.3,0.6-0.8,0.6-1.4c0-0.6-0.2-1.1-0.6-1.4c-0.4-0.3-1-0.5-1.7-0.5h-2v3.8h2
		C44.7,66.7,45.2,66.5,45.6,66.2z"/>
	<path class="st0" d="M52.7,64c0.5,0.3,0.9,0.7,1.2,1.1c0.3,0.5,0.4,1,0.4,1.6c0,0.6-0.1,1.1-0.4,1.6s-0.7,0.9-1.2,1.1
		s-1,0.4-1.6,0.4c-0.6,0-1.1-0.1-1.6-0.4c-0.5-0.3-0.9-0.7-1.2-1.1s-0.4-1-0.4-1.6c0-0.6,0.1-1.1,0.4-1.6c0.3-0.5,0.7-0.9,1.2-1.1
		c0.5-0.3,1-0.4,1.6-0.4C51.7,63.6,52.2,63.7,52.7,64z M49.8,64.6c-0.4,0.2-0.7,0.5-0.9,0.9c-0.2,0.4-0.3,0.8-0.3,1.2
		c0,0.5,0.1,0.9,0.3,1.3c0.2,0.4,0.5,0.7,0.9,0.9c0.4,0.2,0.8,0.3,1.3,0.3c0.4,0,0.9-0.1,1.2-0.3c0.4-0.2,0.7-0.5,0.9-0.9
		s0.3-0.8,0.3-1.3c0-0.4-0.1-0.9-0.3-1.2c-0.2-0.4-0.5-0.7-0.9-0.9c-0.4-0.2-0.8-0.3-1.2-0.3C50.6,64.2,50.2,64.4,49.8,64.6z"/>
	<path class="st0" d="M56,63.6h0.7v6.2H56V63.6z"/>
	<path class="st0" d="M59.1,63.6h0.7l3.7,5.1v-5.1h0.7v6.2h-0.7l-3.7-5v5h-0.7V63.6z"/>
	<path class="st0" d="M65.5,63.6h4.8v0.6h-2v5.5h-0.7v-5.5h-2V63.6z"/>
</g>
<g>
	<path class="st0" d="M41.3,22.9c-5.4,0-10.9,0-16.3,0c-1.5,0-2.7-0.7-3.3-2.1c-0.6-1.4-0.4-2.6,0.6-3.8c0.7-0.8,1.7-1.2,2.7-1.2
		c10.9,0,21.8,0,32.7,0c0.6,0,0.9,0.2,0.9,0.8c0,1.8-0.1,3.6,0,5.3c0,0.8-0.2,1-1,1C52.1,22.9,46.7,22.9,41.3,22.9z"/>
	<path class="st0" d="M48.3,34c-2.9,0-5.8,0-8.7,0c-2.2,0-3.8-1.5-3.8-3.5c0-2.1,1.5-3.6,3.8-3.6c5.9,0,11.9,0,17.8,0
		c0.7,0,1,0.2,1,0.9c-0.1,1.7-0.1,3.5,0,5.2c0,0.8-0.3,1-1,1C54.3,33.9,51.3,34,48.3,34z"/>
	<path class="st0" d="M54.4,45.2c-1.1,0-2.3,0-3.4,0c-2.1,0-3.6-1.6-3.6-3.5c0-2,1.5-3.5,3.6-3.6c2.3,0,4.7,0,7,0
		c0.5,0,0.7,0.2,0.7,0.7c0,1.9,0,3.8,0,5.7c0,0.6-0.3,0.7-0.8,0.7C56.7,45.2,55.6,45.2,54.4,45.2z"/>
</g>
</svg>
