<?xml version="1.0" encoding="utf-8"?>
<!-- Generator: Adobe Illustrator 22.0.0, SVG Export Plug-In . SVG Version: 6.00 Build 0)  -->
<svg version="1.1" id="Layer_1" xmlns="http://www.w3.org/2000/svg" xmlns:xlink="http://www.w3.org/1999/xlink" x="0px" y="0px"
	 viewBox="0 0 72 72.2" style="enable-background:new 0 0 72 72.2;" xml:space="preserve">
<style type="text/css">
	.st0{fill:none;stroke:#F59337;stroke-width:2;stroke-miterlimit:10;}
	.st1{fill:#FFFFFF;}
	.st2{fill:#FFFFFF;stroke:#313333;stroke-width:2;stroke-miterlimit:10;}
	.st3{fill:#323232;}
	.st4{fill:#F59337;}
	.st5{fill:none;stroke:#313333;stroke-width:2;stroke-miterlimit:10;}
	.st6{fill:none;stroke:#FFFFFF;stroke-width:2;stroke-miterlimit:10;}
	.st7{fill:#313333;}
	.st8{fill:none;stroke:#F69437;stroke-width:2;stroke-miterlimit:10;}
	.st9{fill:#626364;}
	.st10{fill:#F69437;}
	.st11{fill:#F5963B;}
	.st12{fill:#F9C89A;}
	.st13{fill:none;stroke:#313333;stroke-width:3;stroke-miterlimit:10;}
	.st14{fill:#313333;stroke:#FFFFFF;stroke-width:0.5;stroke-miterlimit:10;}
</style>
<g>
	<path class="st10" d="M37.7,46.7c0-1.3-1-2.3-2.3-2.3c-1.3,0-2.3,1.1-2.3,2.3c0,1.3,1.1,2.3,2.3,2.3C36.7,49,37.7,48,37.7,46.7z"/>
	<path class="st11" d="M65.2,36.4c-0.4-2.5-1.5-4.6-3.7-6.1c-1.6-1.1-3.4-1.7-5.3-1.9c-0.7-0.1-1.2-0.4-1.6-1
		c-1.4-2.1-3.3-3.7-5.6-4.7c-1.9-0.9-3.9-1.3-6-1.4c-0.5,0-0.8-0.3-1.1-0.7c-3.4-5.4-9-8-15.3-6.6c-5.5,1.2-9.3,4.3-10.6,10
		c-0.1,0.5-0.4,0.8-0.8,1c-0.3,0.1-0.6,0.2-0.9,0.3c-3.7,1.6-6.2,4.1-6.8,8.2c-0.1,0.3,0.1,0.7-0.2,1v1.4c0.3,0.6,0.2,1.2,0.4,1.8
		c1.1,4.1,3.8,6.5,7.7,7.8c1.1,0.4,2.2,0.4,3.3,0.7h0.3c0.1-0.2,0.4-0.1,0.5-0.1c2.5,0,4.9,0,7.4,0c-0.4-0.4-0.6-1-0.6-1.7
		c0,0,0-0.1,0-0.1c0,0,0,0,0,0c-3.1-0.1-6.1,0.3-9.2-0.3c-3.5-0.7-6.2-2.5-7.4-6c-1.3-4.1,0-8.7,5.2-10.8c0.5-0.2,0.9-0.4,1.4-0.6
		c0.8-0.4,1.3-1,1.5-1.9c1.1-5.2,4.5-8,9.5-8.9c5.3-1,10.1,1.3,12.9,5.9c0.6,1,1.4,1.5,2.6,1.6c4.4,0.3,8,1.9,10.5,5.7
		c0.5,0.8,1.4,1.1,2.2,1.3c1.4,0.2,2.9,0.5,4.2,1.2c2.4,1.3,3.6,3.5,3.6,6.1c0,2.7-1.7,4.4-3.8,5.7c-1.3,0.8-2.8,1-4.3,1.1
		c-1.6,0-3.2,0-4.9,0c-1.8,0-3.5,0-5.3,0c-0.4,0-0.5-0.1-0.6-0.3c0,0,0,0,0,0c0,0.1,0,0.2,0,0.4c0.4,0.5,0.5,1.2,0.4,1.8
		c3.7,0,7.3,0,11,0c3.9-0.2,6.8-2,8.7-5.4c0.4-0.8,0.5-1.7,0.8-2.5v-1.4C65.1,36.7,65.2,36.5,65.2,36.4z"/>
	<path class="st12" d="M55.8,46.1c0,0,0,0.1,0,0.1c-4.4,0-8.8,0-13.2,0c0,0,0-0.1,0-0.1C47,46.1,51.4,46.1,55.8,46.1z"/>
	<path class="st12" d="M18.9,46.2c0.1-0.2,0.4-0.1,0.5-0.1c2.8,0,5.7,0,8.5,0c0.2,0,0.4,0,0.5,0.1C25.3,46.2,22.1,46.2,18.9,46.2z"
		/>
	<circle class="st13" cx="36" cy="36.1" r="34"/>
	<path class="st14" d="M35.6,54.3c-2.2,0-4.4,0-6.6,0c-0.4,0-0.8-0.1-1.2-0.2c-0.7-0.2-1.1-0.9-1.1-1.6c0-4.1,0-8.2,0-12.3
		c0-1.1,0.7-1.8,1.9-1.9c0.3,0,0.6,0,0.9,0c0.4,0,0.6-0.2,0.6-0.6c0-0.5,0-1,0-1.6c0-1.8,0.8-3.1,2.2-4c2.3-1.6,5.5-1.2,7.4,0.7
		c0.8,0.9,1.3,1.9,1.3,3.2c0,0.6,0,1.1,0,1.7c0,0.4,0.2,0.6,0.6,0.6c0.4,0,0.8,0,1.2,0.1c1.1,0.2,1.6,0.8,1.6,1.9c0,4,0,8,0,12.1
		c0,1-0.6,1.7-1.6,1.9c-0.3,0-0.5,0.1-0.8,0.1C40,54.3,37.8,54.3,35.6,54.3z M35.6,39.7c-2.2,0-4.3,0-6.5,0c-0.5,0-0.7,0.2-0.7,0.7
		c0,3.9,0,7.8,0,11.7c0,0.5,0.1,0.6,0.6,0.7c0.1,0,0.2,0,0.3,0c4.2,0,8.3,0,12.5,0c0.1,0,0.2,0,0.3,0c0.5,0,0.7-0.2,0.7-0.7
		c0-0.5,0-0.9,0-1.4c0-3.4,0-6.8,0-10.2c0-0.6-0.2-0.8-0.8-0.8C39.9,39.7,37.8,39.7,35.6,39.7z M35.6,38.3c1,0,2.1,0,3.1,0
		c0.6,0,0.7-0.2,0.7-0.8c0-0.5,0-1,0-1.5c0-0.8-0.2-1.6-0.8-2.2c-1.1-1.2-2.9-1.7-4.5-1.1c-1.6,0.6-2.4,1.8-2.4,3.5
		c0,0.4,0,0.9,0,1.3c0,0.5,0.2,0.7,0.7,0.7C33.5,38.3,34.6,38.3,35.6,38.3z"/>
	<line class="st13" x1="61.4" y1="12.6" x2="13.3" y2="60.7"/>
</g>
</svg>
