<?xml version="1.0" encoding="utf-8"?>
<!-- Generator: Adobe Illustrator 22.0.0, SVG Export Plug-In . SVG Version: 6.00 Build 0)  -->
<svg version="1.1" id="Layer_1" xmlns="http://www.w3.org/2000/svg" xmlns:xlink="http://www.w3.org/1999/xlink" x="0px" y="0px"
	 viewBox="0 0 123.8 68.7" style="enable-background:new 0 0 123.8 68.7;" xml:space="preserve">
<style type="text/css">
	.st0{fill:none;stroke:#F59337;stroke-width:2;stroke-miterlimit:10;}
	.st1{fill:#FFFFFF;}
	.st2{fill:#FFFFFF;stroke:#313333;stroke-width:2;stroke-miterlimit:10;}
	.st3{fill:#323232;}
	.st4{fill:#F59337;}
	.st5{fill:none;stroke:#313333;stroke-width:2;stroke-miterlimit:10;}
	.st6{fill:none;stroke:#FFFFFF;stroke-width:2;stroke-miterlimit:10;}
	.st7{fill:#313333;}
	.st8{fill:none;stroke:#F69437;stroke-width:2;stroke-miterlimit:10;}
	.st9{fill:#626364;}
	.st10{fill:#F69437;}
	.st11{fill:#F5963B;}
	.st12{fill:#F9C89A;}
	.st13{fill:none;stroke:#313333;stroke-width:3;stroke-miterlimit:10;}
	.st14{fill:#313333;stroke:#FFFFFF;stroke-width:0.5;stroke-miterlimit:10;}
</style>
<g>
	<g>
		<g>
			<path class="st7" d="M1.7,32.6c1.9,0,1.9-3,0-3C-0.3,29.6-0.3,32.6,1.7,32.6L1.7,32.6z"/>
		</g>
	</g>
	<g>
		<g>
			<path class="st7" d="M1.7,39.7c1.9,0,1.9-3,0-3C-0.3,36.7-0.3,39.7,1.7,39.7L1.7,39.7z"/>
		</g>
	</g>
	<g>
		<g>
			<path class="st7" d="M1.7,46.8c1.9,0,1.9-3,0-3C-0.2,43.8-0.2,46.8,1.7,46.8L1.7,46.8z"/>
		</g>
	</g>
	<g>
		<polyline class="st8" points="23.3,34.6 13.2,34.6 13.2,31 4.5,31 		"/>
		<polyline class="st8" points="22.8,41.6 13.2,41.6 13.2,45.2 4.5,45.2 		"/>
		<line class="st8" x1="22.8" y1="38" x2="4.5" y2="38.1"/>
	</g>
	<path class="st9" d="M97.1,54.6c-0.2-0.4-0.2-0.8-0.2-1.2c-0.1,0.1-0.2,0.1-0.2,0.1c-0.5,0.1-1,0.1-1.5,0c-0.2,0-0.4-0.1-0.5-0.3
		c-0.2-0.3-0.4-0.5-0.7-0.7c-0.1,0.1-0.2,0.1-0.2,0.2c0.2,0.6,0.2,1.2,0,1.8c0.2,0.3,0.4,0.7,0.6,1.1c0.3,0,0.6,0,0.9,0
		c0.7,0,1.5,0,2.2,0C97.2,55.5,97.2,55,97.1,54.6z"/>
	<path class="st7" d="M117.2,33.6c0,0.3,0,0.4-0.2,0.5c0.2,0.3,0.3,0.6,0.3,0.9c0,0.1,0,0.2,0,0.3c0.4,0.1,0.8,0.3,1.1,0.6
		c0.5,0.2,0.8,0.5,1.1,1c0-2.2-0.2-4.3-0.7-6.3c-2.6-9.5-11.2-15.2-20.9-13.7c-1.9,0.3-2.2,0.1-2.8-1.7c-0.8-2.6-1.9-5-3.4-7.3
		c-2.6-3.7-6-6.2-10.6-6.9c-2.8-0.5-5.6-0.3-8.4,0.2c-2.6,0.5-4.8,1.7-6.3,3.9c-1,1.4-1.8,2.9-2.5,4.5c-0.5,1.2-1.3,1.8-2.6,1.8
		c-0.8,0-1.7,0-2.5,0.1C52.8,12.2,48,15,44.4,20c-1,1.5-2.3,2-4,1.7c-1.8-0.2-3.5-0.2-5.2,0.3c-6.8,1.6-10.8,6.1-12.3,12.8
		c-0.2,0.9-0.3,1.8-0.5,2.6V40c0.1,0.8,0.3,1.7,0.4,2.5c1.3,7.9,7.8,13.3,15.7,13.3c6,0,12.1,0,18.1,0c4.7,0,9.4,0,14.1,0
		c0.1-0.2,0.1-0.4,0.2-0.6c0.2-0.4,0.5-0.6,0.8-0.8c0.1-0.2,0.1-0.4,0.1-0.6c-0.2,0-0.3,0-0.4,0c-0.1,0-0.3-0.1-0.4-0.1l0,0
		c-2.2,0-4.4,0-6.5,0v0.1c-5.8,0-11.7,0-17.5,0c-3,0-6,0-9-0.1c-6.2-0.1-11-4.1-12.6-9.9c-1.4-5-0.9-9.8,2.1-14.2
		c2.4-3.5,5.8-5.3,10-5.7c1.1-0.1,2.3,0,3.4,0c2.3,0.2,3.9-0.8,5.3-2.5c1-1.3,2.1-2.6,3.4-3.7c2.7-2.4,5.9-3.6,9.4-4
		c1.1-0.1,2.3-0.1,3.4-0.3c1.6-0.2,2.7-1,3.4-2.5c0.6-1.4,1.3-2.7,2.1-4c1.4-2.3,3.5-3.4,6.1-3.8c2.6-0.3,5.3-0.5,7.9,0.2
		c4,1,6.9,3.6,8.9,7.1c1,1.9,1.7,3.9,2.5,5.9c0.6,1.7,1.7,2.8,3.5,2.8c0.8,0,1.5-0.1,2.3-0.2c6.6-0.9,13,2.4,16.2,8.3
		C116.2,29.3,116.9,31.4,117.2,33.6z"/>
	<g>
		<path class="st8" d="M119.9,37.6c0.4,1-0.4,1.7-0.9,2.3c-0.4,0.5-0.5,0.8-0.1,1.3c0.1,0.2,0.2,0.4,0.3,0.6
			c0.2,1.2,0.9,1.6,2.1,1.6c1,0,1.5,0.6,1.4,1.6c0,0.8,0,1.6,0,2.3c0,1.2-0.3,1.7-1.5,1.7c-1,0-1.7,0.4-1.8,1.4
			c0,0.2-0.1,0.4-0.2,0.5c-0.6,0.8-0.4,1.5,0.2,2.3c0.9,1.1,0.8,1.5-0.2,2.4c-0.5,0.5-1,1-1.5,1.5c-0.7,0.7-1.3,0.9-2.1,0.2
			c-0.4-0.3-0.9-0.9-1.3-0.8c-0.9,0.2-1.8,0.6-2.6,1.1c-0.2,0.1-0.2,0.5-0.2,0.8c-0.3,2-0.4,2.1-2.4,2.1c-0.6,0-1.1,0-1.7,0
			c-1,0-1.6-0.4-1.7-1.5c0-0.5-0.1-1.2-0.4-1.4c-0.7-0.5-1.6-0.8-2.4-1c-0.3-0.1-0.7,0.4-1,0.6c-1,0.8-1.5,0.8-2.4-0.1
			c-0.6-0.5-1.1-1.1-1.7-1.7c-0.8-0.8-0.9-1.4,0-2.2c0.8-0.7,0.9-1.4,0.3-2.3c-0.2-0.2-0.3-0.5-0.3-0.8c-0.1-0.7-0.5-0.9-1.2-0.9
			c-2-0.2-2.1-0.3-2.1-2.3c0-0.2,0-0.4,0-0.6c0-1.9-0.4-2.8,2.5-2.9c0.3,0,0.5-0.3,0.7-0.6c0.2-0.2,0.2-0.5,0.3-0.8
			c0.6-1,0.7-1.9-0.3-2.8c-0.7-0.6-0.7-1.4,0.1-2.1c0.6-0.6,1.3-1.2,1.9-1.9c0.7-0.7,1.3-0.6,2.1,0c1.2,1,2.5,1,3.7,0
			c0.2-0.2,0.3-0.7,0.4-1c0.2-1.9,0.5-2.2,2.4-2.2c0.1,0,0.3,0,0.4,0c2.6,0,2.6,0,3.1,2.6c0.1,0.3,0.4,0.5,0.6,0.7
			c0.2,0.1,0.5,0.1,0.7,0.3c0.9,0.6,1.6,0.5,2.4-0.3c0.5-0.5,1.2-0.8,1.9-0.6C118.1,35.8,119,36.7,119.9,37.6z M105,42.9
			c-2,2-2,5.2,0,7.1c2,2,5.4,2,7.3,0c1.9-2,1.9-5.2,0-7.2C110.2,40.8,107,40.8,105,42.9z"/>
		<path class="st8" d="M73.6,63.5c0.1-0.6,0.2-1.2,0.4-1.6c0.6-1.1-0.3-2.9-1.6-2.9c-1,0-1.6-0.4-1.7-1.5c0-0.5-0.1-0.9-0.1-1.4
			c-0.1-1.2,0.2-1.6,1.4-1.8c1.4-0.3,2-2.3,1-3.4c-0.6-0.7-0.7-1.3-0.1-2.1c0.3-0.3,0.5-0.6,0.7-0.9c1.1-1.3,1.3-1.3,2.7-0.4
			c1,0.6,2.7-0.4,2.7-1.5c0-1.4,0.3-1.7,1.8-1.9c0.4,0,0.7-0.1,1.1-0.1c1.2-0.1,1.6,0.2,1.8,1.4c0.3,1.4,1.9,2,3.1,1
			c1-0.8,1.5-0.8,2.5,0.1c0.3,0.2,0.5,0.5,0.8,0.7c0.8,0.6,1,1.3,0.4,2.3c-0.8,1.2,0.2,2.9,1.7,3c1,0,1.5,0.5,1.6,1.5
			c0,0.1,0,0.2,0,0.3c0.3,2.4,0.3,2.5-2.1,3.1c-0.1,0.3-0.1,0.6-0.2,0.9c-0.4,1-0.6,1.9,0.4,2.6c0.1,0.1,0.2,0.2,0.2,0.3
			c0.3,1.4-1,2-1.6,2.9c-0.5,0.6-1.1,0.6-1.7,0.1c-0.7-0.6-1.3-0.4-2.1,0c-0.7,0.4-1.4,0.7-1.2,1.7c0,0.1,0,0.3-0.1,0.4
			c-0.7,1.5-2.1,0.9-3.2,1.1c-0.8,0.2-1.3-0.4-1.4-1.2c-0.1-1-0.7-1.2-1.5-1.4c-0.8-0.3-1.3-0.3-1.9,0.4c-0.6,0.6-1.3,0.6-2,0
			c-0.2-0.2-0.5-0.3-0.8-0.5C74.3,64.2,74,63.9,73.6,63.5z M85.2,52.8c-1.6-1.6-4.3-1.6-5.9,0c-1.6,1.6-1.5,4.3,0,5.9
			c1.6,1.6,4.3,1.7,5.9,0.1C86.8,57.1,86.8,54.5,85.2,52.8z"/>
		<path class="st8" d="M93.7,34c-0.2,0.5-0.5,1-0.6,1.5c-0.1,0.3,0,0.7,0.1,0.9c0.6,1,0.5,1.3-0.6,2.4c-0.7,0.7-1.3,1-2.2,0.3
			c-0.7-0.5-2.3,0.2-2.5,1c-0.2,1.2-1,1.3-2,1.3c-1,0-1.7-0.2-1.9-1.4c-0.1-0.8-1.6-1.5-2.3-1.1c-1.2,0.7-1.4,0.6-2.6-0.6
			c-0.8-0.8-0.7-1.5-0.1-2.3c0.4-0.6-0.2-2.1-1-2.3c-1.2-0.3-1.4-0.5-1.4-1.9c0-1.5,0.2-1.7,1.4-1.9c1-0.2,1.6-1.7,1-2.5
			c-0.6-0.9-0.5-1.4,0.4-2.3c1-1,1.5-1.1,2.4-0.4c0.9,0.6,2.3,0.1,2.5-0.9c0.2-1.2,0.5-1.3,2.1-1.4c1,0,1.7,0.3,1.8,1.5
			c0.1,1,1.5,1.5,2.3,1c1-0.7,1.4-0.6,2.4,0.5c0.9,0.9,0.9,1.4,0.3,2.3c-0.4,0.6,0.1,2.2,0.7,2.3c1.6,0.5,1.7,0.6,1.6,2.5
			C95.6,33.8,94.7,33.9,93.7,34z M88.6,29.6c-1.3-1.3-3.4-1.3-4.7,0c-1.3,1.3-1.4,3.6,0,4.9c1.3,1.3,3.6,1.3,4.9-0.1
			C90,33.1,89.9,30.9,88.6,29.6z"/>
	</g>
</g>
</svg>
