<svg id="Layer_1" data-name="Layer 1" xmlns="http://www.w3.org/2000/svg" xmlns:xlink="http://www.w3.org/1999/xlink" viewBox="0 0 1137.53 255.42"><defs><clipPath id="clip-path"><rect x="0.55" y="-0.85" width="1139" height="257.36" fill="none"/></clipPath><linearGradient id="linear-gradient" x1="787.86" y1="-254.5" x2="346.39" y2="510.15" gradientUnits="userSpaceOnUse"><stop offset="0.15" stop-color="#e55626"/><stop offset="0.99" stop-color="#f69437"/></linearGradient></defs><title>orange bgrd</title><g clip-path="url(#clip-path)"><rect x="-92.94" y="-0.85" width="1320.14" height="257.36" fill="url(#linear-gradient)"/><polygon points="953.58 141.37 880.27 169.98 881.5 258.25 955.57 284.2 1000.11 211.96 953.58 141.37" fill="#fff" opacity="0.03"/><polygon points="493.72 18.76 445.64 37.53 446.45 95.42 495.03 112.44 524.24 65.06 493.72 18.76" fill="#fff" opacity="0.03"/><polygon points="1097.67 132.44 1036.72 156.24 1037.75 229.63 1099.33 251.2 1136.36 191.14 1097.67 132.44" fill="#fff" opacity="0.03"/><polygon points="68.74 44.09 7.79 67.88 8.81 141.28 70.39 162.85 107.43 102.78 68.74 44.09" fill="#f15a29" opacity="0.17"/><polygon points="243.5 131.13 171.21 159.34 172.43 246.4 245.47 271.99 289.4 200.74 243.5 131.13" fill="#f15a29" opacity="0.17"/><polygon points="333.75 83.08 329.57 123.71 362.2 140.78 386.54 110.7 368.95 75.04 333.75 83.08" fill="#fff" opacity="0.03"/><polygon points="130.04 55.38 125.87 96.02 158.5 113.09 182.84 83.01 165.25 47.35 130.04 55.38" fill="#fff" opacity="0.03"/><polygon points="855.97 49.41 849.51 112.37 900.07 138.83 937.78 92.22 910.52 36.96 855.97 49.41" fill="#fff" opacity="0.03"/><polygon points="134.77 198.3 131.25 232.62 158.81 247.04 179.36 221.64 164.5 191.52 134.77 198.3" fill="#fff" opacity="0.03"/><polygon points="615.67 65.78 612.15 100.09 639.71 114.52 660.26 89.11 645.41 58.99 615.67 65.78" fill="#f69437" opacity="0.21"/><polygon points="681.19 141.92 674.62 205.87 725.98 232.75 764.29 185.41 736.6 129.27 681.19 141.92" fill="#f69437" opacity="0.21"/><polygon points="1001.09 187.09 997.57 221.41 1025.12 235.84 1045.68 210.43 1030.82 180.31 1001.09 187.09" fill="#f69437" opacity="0.21"/><polygon points="1070.98 44.37 1064.68 105.68 1113.91 131.44 1150.64 86.06 1124.1 32.24 1070.98 44.37" fill="#fff" opacity="0.03"/><polygon points="705.24 48.32 698.94 109.63 748.17 135.4 784.9 90.01 758.36 36.2 705.24 48.32" fill="#fff" opacity="0.03"/><polygon points="778.15 182.83 771.86 244.14 821.09 269.9 857.81 224.52 831.27 170.7 778.15 182.83" fill="#fff" opacity="0.03"/><polygon points="1010.79 39.09 1004.5 100.4 1053.73 126.17 1090.45 80.78 1063.91 26.97 1010.79 39.09" fill="#fff" opacity="0.03"/><polygon points="922.97 73.8 914.97 151.71 977.53 184.45 1024.19 126.78 990.47 58.39 922.97 73.8" fill="#f69437" opacity="0.21"/><polygon points="382.46 77.76 374.46 155.66 437.02 188.4 483.68 130.73 449.96 62.35 382.46 77.76" fill="#f15a29" opacity="0.17"/><polygon points="-21.48 158.2 -29.47 236.1 33.09 268.84 79.75 211.17 46.02 142.79 -21.48 158.2" fill="#f15a29" opacity="0.17"/><polygon points="1091.95 191.16 1083.95 269.07 1146.51 301.81 1193.17 244.14 1159.45 175.76 1091.95 191.16" fill="#f69437" opacity="0.21"/><polygon points="779.45 55.34 771.45 133.25 834.01 165.99 880.67 108.31 846.95 39.93 779.45 55.34" fill="#f69437" opacity="0.21"/><polygon points="977.56 13.9 969.81 89.31 1030.38 121.01 1075.55 65.18 1042.9 -1.02 977.56 13.9" fill="#f69437" opacity="0.21"/><polygon points="297.97 193.8 292.45 247.51 335.59 270.09 367.76 230.33 344.51 183.18 297.97 193.8" fill="#f15a29" opacity="0.17"/><polygon points="273.66 48.75 268.15 102.46 311.28 125.03 343.45 85.27 320.2 38.12 273.66 48.75" fill="#f15a29" opacity="0.17"/><polygon points="199.01 74.46 193.5 128.17 236.63 150.75 268.8 110.98 245.55 63.84 199.01 74.46" fill="#fff" opacity="0.03"/><polygon points="380.72 187.87 375.21 241.58 418.34 264.15 450.51 224.39 427.26 177.24 380.72 187.87" fill="#fff" opacity="0.03"/><polygon points="60.81 111.19 52.14 195.58 119.91 231.04 170.45 168.57 133.92 94.5 60.81 111.19" fill="#fff" opacity="0.03"/><polygon points="-81.56 42.62 -90.22 127.01 -22.45 162.47 28.09 100 -8.44 25.93 -81.56 42.62" fill="#fff" opacity="0.03"/></g></svg>