<?xml version="1.0" encoding="utf-8"?>
<!-- Generator: Adobe Illustrator 22.0.0, SVG Export Plug-In . SVG Version: 6.00 Build 0)  -->
<svg version="1.1" id="Layer_1" xmlns="http://www.w3.org/2000/svg" xmlns:xlink="http://www.w3.org/1999/xlink" x="0px" y="0px"
	 viewBox="0 0 181 50" style="enable-background:new 0 0 181 50;" xml:space="preserve">
<style type="text/css">
	.st0{fill:#FFFFFF;stroke:#FFFFFF;stroke-miterlimit:10;}
	.st1{fill:#F0A64F;}
	.st2{fill:#FFFFFF;}
	.st3{fill:#F15A29;}
	.st4{fill:#563A39;}
	.st5{fill:#AF8070;}
	.st6{fill:#348FC0;}
	.st7{fill:#060707;}
	.st8{fill:#4B3938;}
</style>
<g>
	<path class="st1" d="M38.9,14.6l8.8,20.6h-2.2l-6.5-15.6l-6.6,15.6h-2.2L38.9,14.6z"/>
	<path class="st1" d="M53.4,25.5l-1.3-2l4-6.1l2.4,0L53.4,25.5z M52.9,26.2v9h-2.1v-9l-7.2-11.6h2.5L52.9,26.2z"/>
	<path class="st1" d="M64.9,14.6l8.8,20.6h-2.2l-6.5-15.6l-6.6,15.6H56L64.9,14.6z"/>
	<polygon class="st1" points="57.7,14.6 56.4,16.7 59,16.7 60.2,14.6 	"/>
	<path class="st1" d="M29.5,24.5c-0.1-0.8-0.3-1.6-0.6-2.4c-0.7-2-1.7-3.7-3.3-5.1c-0.9-0.9-2-1.6-3.2-2.2c-0.1-0.1-0.2-0.1-0.4,0
		c-0.4,0.2-0.9,0.4-1.3,0.6c-0.9,0.4-1.7,0.9-2.5,1.4c-0.9,0.6-1.8,1.3-2.6,1.9c-0.2,0.2-0.5,0.4-0.7,0.5c-0.2,0.1-0.3,0.1-0.4,0
		c-0.3-0.3-0.6-0.5-0.9-0.7c-1.6-1.2-3.3-2.3-5.1-3.2c-0.4-0.2-0.8-0.4-1.1-0.5c-0.1-0.1-0.3-0.1-0.4,0C7,15,6.9,15,6.9,15
		c-0.4,0.3-0.9,0.5-1.3,0.8c-0.8,0.5-1.5,1.1-2.1,1.8c-0.8,0.9-1.5,1.8-2.1,2.9C0.4,22.2,0,24.1,0,26.1c0,0.6,0,1.2,0.1,1.8
		c0.1,0.6,0.1,1.1,0.2,1.7c0.2,1.1,0.6,2.1,1.2,3.1c0.5,0.9,1,1.7,1.6,2.6h3.7c-0.1-0.2-0.2-0.4-0.2-0.7c-0.4-1.3-0.9-2.5-1.2-3.8
		C5.1,30,5,29.2,4.9,28.5c-0.1-0.5-0.1-0.9-0.1-1.4c0-0.3,0-0.5,0-0.8c0-0.5,0.1-0.9,0.1-1.4c0-0.5,0.1-0.9,0.3-1.4
		c0.2-0.7,0.6-1.4,1.2-1.9c0.7-0.6,1.5-0.9,2.3-1c0.7-0.1,1.3,0.1,1.9,0.5c0.4,0.3,0.7,0.7,0.9,1.2c0.3,0.6,0.5,1.3,0.7,2
		c0.2,0.9,0.3,1.9,0.3,2.8c0,0.7,0,1.4,0,2c0,0.7,0,1.4-0.1,2.1c0,0.7,0,3.1-0.1,3.8c0,0.2,0,0.2,0.1,0.2c1.7,0,3.3,0,5,0
		c0,0,0.1,0,0.1,0c0,0,0.1,0,0.1-0.1c0,0,0,0,0-0.1c-0.1-0.4-0.1-2.6-0.1-3c0-0.7-0.1-1.5-0.1-2.2c0-0.9,0-1.8,0-2.8
		c0-0.9,0.1-1.8,0.3-2.6c0.1-0.6,0.3-1.2,0.5-1.8c0.2-0.6,0.5-1.1,1-1.5c0.5-0.5,1.1-0.7,1.8-0.7c0.4,0,0.7,0.1,1,0.2
		c0.8,0.3,1.5,0.7,2.1,1.4c0.5,0.7,0.8,1.4,0.9,2.3c0.1,0.6,0.1,1.3,0.2,1.9c0,0.3,0,0.5,0,0.8c0,0.6-0.1,1.2-0.2,1.8
		c-0.2,1.1-0.5,2.2-0.8,3.3c-0.3,1.1-0.7,2.1-1.1,3.2h3.8c0.5-0.7,0.9-1.5,1.4-2.2c0.6-1,1.1-2.2,1.3-3.4c0.2-0.9,0.3-1.8,0.3-2.7
		C29.7,26.1,29.6,25.3,29.5,24.5z"/>
	<path class="st2" d="M85.3,16c-0.9,0.1-1.8,0.3-2.6,0.7c-1,0.5-1.9,1.1-2.7,1.9c-0.7,0.8-1.3,1.7-1.7,2.8c-0.4,1.1-0.6,2.2-0.6,3.3
		c0,1.2,0.2,2.3,0.6,3.3s1,2,1.7,2.7c0.7,0.8,1.6,1.4,2.6,1.9c0.8,0.4,1.7,0.6,2.6,0.7v1.8C84.1,35,83,34.7,82,34.3
		c-1.3-0.5-2.4-1.3-3.4-2.2c-1-0.9-1.7-2-2.3-3.3c-0.6-1.3-0.8-2.6-0.8-4.1c0-1.5,0.3-2.8,0.8-4.1c0.6-1.3,1.3-2.4,2.3-3.3
		c1-1,2.1-1.7,3.4-2.3c1-0.4,2.1-0.7,3.3-0.8V16z M86.4,33.3c1.1,0,2.2-0.3,3.1-0.7c1-0.4,1.9-1.1,2.6-1.8c0.7-0.8,1.3-1.7,1.7-2.7
		c0.4-1,0.6-2.2,0.6-3.4c0-1.2-0.2-2.4-0.6-3.4c-0.4-1.1-1-2-1.7-2.8c-0.7-0.8-1.6-1.4-2.6-1.8c-1-0.4-2-0.6-3.2-0.7v-1.8
		c1.4,0,2.7,0.3,3.9,0.8c1.3,0.5,2.4,1.3,3.3,2.2c0.9,0.9,1.7,2.1,2.2,3.3c0.5,1.3,0.8,2.7,0.8,4.1c0,1.5-0.3,2.9-0.8,4.2
		c-0.5,1.3-1.3,2.4-2.2,3.3c-0.9,0.9-2.1,1.7-3.3,2.2c-1.2,0.5-2.5,0.7-3.9,0.8V33.3z"/>
	<path class="st2" d="M98.8,14.1l15,16.4V14.7h2.1v21.1l-15-16.4v15.7h-2.1V14.1z"/>
	<path class="st2" d="M119.1,14.8h2.1v18.6h9.2v1.8h-11.3V14.8z"/>
	<path class="st2" d="M133.5,14.8h2.1v20.4h-2.1V14.8z"/>
	<path class="st2" d="M138.7,14.1l15,16.4V14.8h2.1v21.1l-15-16.4v15.7h-2.1V14.1z"/>
	<path class="st2" d="M158.9,33.4h12.6v1.8h-12.6L158.9,33.4z M158.9,14.8h12.6v1.8h-12.6V14.8z M158.9,23.8H171v1.8h-12.1V23.8z"/>
</g>
</svg>
