<?xml version="1.0" encoding="utf-8"?>
<!-- Generator: Adobe Illustrator 22.0.0, SVG Export Plug-In . SVG Version: 6.00 Build 0)  -->
<svg version="1.1" id="Layer_1" xmlns="http://www.w3.org/2000/svg" xmlns:xlink="http://www.w3.org/1999/xlink" x="0px" y="0px"
	 viewBox="0 0 181 50" style="enable-background:new 0 0 181 50;" xml:space="preserve">
<style type="text/css">
	.st0{fill:#FFFFFF;stroke:#FFFFFF;stroke-miterlimit:10;}
	.st1{fill:#F0A64F;}
	.st2{fill:#FFFFFF;}
	.st3{fill:#F15A29;}
	.st4{fill:#563A39;}
	.st5{fill:#AF8070;}
	.st6{fill:#348FC0;}
	.st7{fill:#060707;}
	.st8{fill:#4B3938;}
</style>
<g>
	<path class="st1" d="M39.3,15l8.8,20.8h-2.3L39.3,20l-6.7,15.8h-2.3L39.3,15z"/>
	<path class="st1" d="M53.9,26l-1.3-2l4-6.2l2.4,0L53.9,26z M53.4,26.7v9h-2.2v-9L44,15h2.5L53.4,26.7z"/>
	<path class="st1" d="M65.5,15l8.8,20.8H72L65.5,20l-6.7,15.8h-2.3L65.5,15z"/>
	<polygon class="st1" points="58.2,15 56.9,17.1 59.5,17.1 60.7,15 	"/>
	<path class="st1" d="M29.8,25c-0.1-0.8-0.3-1.6-0.6-2.4c-0.7-2-1.8-3.7-3.3-5.1c-1-0.9-2-1.6-3.2-2.2c-0.1-0.1-0.2-0.1-0.4,0
		c-0.4,0.2-0.9,0.4-1.3,0.6c-0.9,0.4-1.7,0.9-2.5,1.4c-0.9,0.6-1.8,1.3-2.7,1.9c-0.2,0.2-0.5,0.4-0.7,0.5c-0.2,0.1-0.3,0.1-0.4,0
		c-0.3-0.3-0.6-0.5-0.9-0.7c-1.6-1.3-3.3-2.4-5.1-3.3c-0.4-0.2-0.8-0.4-1.1-0.5c-0.1-0.1-0.3-0.1-0.4,0c-0.1,0-0.1,0.1-0.2,0.1
		c-0.5,0.3-0.9,0.5-1.3,0.8c-0.8,0.5-1.5,1.1-2.2,1.8c-0.8,0.9-1.5,1.8-2.1,2.9C0.4,22.7,0,24.6,0,26.6c0,0.6,0,1.2,0.1,1.8
		c0.1,0.6,0.1,1.1,0.2,1.7c0.2,1.1,0.6,2.2,1.2,3.1c0.5,0.9,1,1.7,1.6,2.6h3.8c-0.1-0.2-0.2-0.4-0.2-0.7c-0.4-1.3-0.9-2.6-1.2-3.9
		C5.2,30.5,5,29.8,4.9,29c-0.1-0.5-0.1-0.9-0.1-1.4c0-0.3,0-0.5,0-0.8c0-0.5,0.1-0.9,0.1-1.4c0-0.5,0.1-1,0.3-1.4
		c0.2-0.8,0.6-1.4,1.2-1.9c0.7-0.6,1.5-1,2.4-1.1c0.7-0.1,1.3,0.1,1.9,0.5c0.4,0.3,0.7,0.7,0.9,1.2c0.3,0.6,0.5,1.3,0.7,2
		c0.2,0.9,0.3,1.9,0.3,2.8c0,0.7,0,1.4,0,2c0,0.7,0,1.4-0.1,2.1c0,0.7,0,3.2-0.1,3.9c0,0.2,0,0.2,0.1,0.2c1.7,0,3.4,0,5,0
		c0,0,0.1,0,0.1,0c0.1,0,0.1,0,0.1-0.1c0,0,0,0,0-0.1c-0.1-0.4-0.1-2.6-0.1-3c0-0.7-0.1-1.5-0.1-2.2c0-0.9,0-1.9,0-2.8
		c0-0.9,0.1-1.8,0.3-2.7c0.1-0.6,0.3-1.3,0.5-1.8c0.2-0.6,0.5-1.1,1-1.5c0.5-0.5,1.1-0.7,1.8-0.7c0.4,0,0.7,0.1,1,0.2
		c0.8,0.3,1.5,0.7,2.1,1.4c0.5,0.7,0.8,1.5,0.9,2.3c0.1,0.6,0.1,1.3,0.2,1.9c0,0.3,0,0.5,0,0.8c0,0.6-0.1,1.2-0.2,1.8
		c-0.2,1.1-0.5,2.2-0.8,3.3c-0.3,1.1-0.7,2.1-1.1,3.2h3.8c0.5-0.8,0.9-1.5,1.4-2.3c0.6-1.1,1.1-2.2,1.3-3.4c0.2-0.9,0.3-1.8,0.3-2.8
		C29.9,26.6,29.9,25.8,29.8,25z"/>
	<path class="st2" d="M77.5,15.2h5.7c0.4,0,0.8,0,1.4,0.1c0.5,0,1,0.1,1.5,0.2c1.1,0.2,2.2,0.6,3.1,1.1c1,0.5,1.8,1.2,2.5,2.1
		c0.7,0.9,1.3,1.8,1.7,3c0.4,1.1,0.6,2.4,0.6,3.7c0,1.3-0.2,2.4-0.6,3.5c-0.4,1.1-0.9,2-1.6,2.9c-0.7,0.9-1.5,1.6-2.4,2.2
		c-0.9,0.6-1.9,1-3,1.3c-0.5,0.1-1,0.2-1.5,0.3c-0.5,0-1.1,0.1-1.8,0.1h-5.8V15.2z M83.2,33.7c0.6,0,1.1,0,1.6-0.1
		c0.5,0,1-0.1,1.4-0.2c0.9-0.2,1.6-0.6,2.4-1.1c0.7-0.5,1.3-1.1,1.8-1.8c0.5-0.7,0.9-1.5,1.2-2.3c0.3-0.9,0.4-1.8,0.4-2.8
		c0-1.1-0.1-2.1-0.4-3c-0.3-0.9-0.7-1.7-1.2-2.4c-0.5-0.7-1.2-1.3-1.9-1.7c-0.8-0.5-1.6-0.8-2.5-1C85.5,17.1,85,17,84.5,17
		c-0.5,0-1,0-1.4,0h-3.6v16.7H83.2z"/>
	<path class="st2" d="M102.9,14.2l9.1,21.3h-2.3l-6.7-16.1L96,35.5h-2.3L102.9,14.2z"/>
	<path class="st2" d="M114.7,17h-5.4v-1.8h12.9V17h-5.4v18.5h-2.1V17z"/>
	<path class="st2" d="M129.1,14.2l9.1,21.3h-2.3l-6.7-16.1l-6.8,16.1h-2.3L129.1,14.2z"/>
</g>
</svg>
