<?xml version="1.0" encoding="utf-8"?>
<!-- Generator: Adobe Illustrator 22.0.0, SVG Export Plug-In . SVG Version: 6.00 Build 0)  -->
<svg version="1.1" id="Layer_1" xmlns="http://www.w3.org/2000/svg" xmlns:xlink="http://www.w3.org/1999/xlink" x="0px" y="0px"
	 viewBox="0 0 73.7 73.8" style="enable-background:new 0 0 73.7 73.8;" xml:space="preserve">
<style type="text/css">
	.st0{fill:none;stroke:#F59337;stroke-width:2;stroke-miterlimit:10;}
	.st1{fill:#FFFFFF;}
	.st2{fill:#FFFFFF;stroke:#313333;stroke-width:2;stroke-miterlimit:10;}
	.st3{fill:#323232;}
	.st4{fill:#F59337;}
	.st5{fill:none;stroke:#313333;stroke-width:2;stroke-miterlimit:10;}
	.st6{fill:none;stroke:#FFFFFF;stroke-width:2;stroke-miterlimit:10;}
	.st7{fill:#313333;}
	.st8{fill:none;stroke:#F69437;stroke-width:2;stroke-miterlimit:10;}
	.st9{fill:#626364;}
	.st10{fill:#F69437;}
	.st11{fill:#F5963B;}
	.st12{fill:#F9C89A;}
	.st13{fill:none;stroke:#313333;stroke-width:3;stroke-miterlimit:10;}
	.st14{fill:#313333;stroke:#FFFFFF;stroke-width:0.5;stroke-miterlimit:10;}
</style>
<g>
	<path class="st8" d="M16.5,29.4C16.7,14,29,1.7,44.6,1.7c15.9,0,27.9,12.8,27.9,27.7c0,15.2-12.6,27.6-28,27.6
		C29.1,56.9,16.5,44.5,16.5,29.4z M44.4,52.4c12.6,0.1,23.1-10.2,23.3-22.5C68,17.1,57.6,6.5,44.8,6.3c-12.7-0.2-23.5,9.8-23.6,22.8
		C21.1,41.9,31.5,52.3,44.4,52.4z"/>
	<path class="st5" d="M25.9,54.3c-0.3,0.5-0.5,1.1-0.8,1.5C19.8,61,14.6,66.2,9.3,71.4c-0.9,0.9-2,0.9-3,0C4.9,70,3.4,68.6,2,67.1
		c-1-1-1-2.1,0-3.1c5.2-5.2,10.5-10.4,15.7-15.5c0.9-0.9,2-0.9,3,0c1.5,1.4,3,2.9,4.4,4.4C25.5,53.3,25.6,53.8,25.9,54.3z"/>
	<path class="st5" d="M55.6,37.7l0-12.3l0,0c0-0.7,0-1.3,0-2c0-0.2,0-0.3,0-0.5c-4.3,2.9-15.9,3.4-21.2,0c0,0.1,0,0.3,0,0.4l0,0v3.1
		c0,0.2,0,0.5,0,0.7c0,0.1,0,0.2,0,0.3v2c0,0,0,0,0,0c0,0.2,0,0.3,0,0.5v3c0,0.3,0,0.5,0,0.8c0,0.1,0,0.2,0,0.3v2c0,0,0,0,0,0
		c0,0.1,0,0.2,0,0.3v2.9l0,0c0,0.3,0,0.6,0,0.9c0,0.8,0.3,1.4,0.9,1.7c0.7,0.4,1.4,0.7,2.2,1c4.4,1.3,8.9,1.3,13.4,0.4
		c1.3-0.3,2.5-0.8,3.8-1.3c0.4-0.2,1-0.8,1-1.2c0-0.5,0.1-0.9,0.1-1.4h0v0C55.6,38.7,55.6,38.2,55.6,37.7z"/>
	<path class="st5" d="M44.8,15.9c2.9,0.1,5.7,0.2,8.3,1.3c0.7,0.2,1.3,0.6,1.8,1c0.7,0.6,0.8,1.4,0,1.9c-0.9,0.6-2,1.1-3,1.4
		c-3.2,0.9-6.5,1-9.8,0.7c-2-0.1-3.9-0.4-5.7-1.2c-0.6-0.3-1.3-0.7-1.8-1.1c-0.5-0.5-0.5-1.1,0-1.5c0.5-0.4,1.1-0.8,1.7-1.1
		c1.9-0.8,3.9-1.1,6-1.2C43.2,15.9,44.1,15.9,44.8,15.9z"/>
	<path class="st10" d="M43.7,32.7c0,1.1,0,2.2,0,3.3c0,0.1,0,0.2,0.1,0.3c0.7,0.5,0.7,1.4,0,1.9c-0.1,0.1-0.2,0.2-0.2,0.3
		c0,0.4,0,0.8,0,1.3c0,0.3-0.2,0.5-0.4,0.5c-0.3,0-0.5-0.2-0.5-0.5c0-0.4,0-0.9,0-1.3c0-0.2,0-0.2-0.2-0.3c-0.7-0.5-0.7-1.4,0-1.9
		c0.1-0.1,0.2-0.2,0.2-0.4c0-2.2,0-4.4,0-6.5c0-0.1,0-0.2,0-0.2c0.1-0.3,0.2-0.4,0.5-0.4c0.2,0,0.4,0.2,0.4,0.5
		C43.7,30.5,43.7,31.6,43.7,32.7z"/>
	<path class="st10" d="M49.3,36.9c0-0.7,0-1.4,0-2.1c0-0.1-0.1-0.2-0.2-0.3c-0.7-0.5-0.7-1.5,0-2c0.1-0.1,0.1-0.2,0.1-0.3
		c0-1.2,0-2.4,0-3.6c0-0.4,0.2-0.6,0.5-0.6c0.3,0,0.5,0.2,0.5,0.6c0,1.2,0,2.4,0,3.6c0,0.2,0,0.2,0.2,0.3c0.7,0.5,0.7,1.5,0,1.9
		c-0.1,0.1-0.2,0.2-0.2,0.3c0,1.4,0,2.9,0,4.3c0,0.3-0.1,0.4-0.3,0.5c-0.2,0.1-0.4,0-0.5-0.2c-0.1-0.1-0.1-0.2-0.1-0.4
		C49.3,38.3,49.3,37.6,49.3,36.9z"/>
	<path class="st10" d="M39.5,36.7c0-0.8,0-1.6,0-2.3c0-0.2,0-0.2-0.2-0.3c-0.7-0.4-0.7-1.5,0-1.9c0.1-0.1,0.2-0.2,0.2-0.3
		c0-1.1,0-2.1,0-3.2c0-0.3,0.2-0.5,0.4-0.5c0.3,0,0.5,0.2,0.5,0.5c0,0.1,0,0.1,0,0.2c0,1,0,2,0,3.1c0,0.1,0,0.2,0.2,0.3
		c0.7,0.5,0.7,1.4,0,1.9c-0.1,0.1-0.2,0.2-0.2,0.3c0,1.5,0,3.1,0,4.6c0,0.1,0,0.1,0,0.2c0,0.3-0.2,0.5-0.5,0.4
		c-0.3,0-0.4-0.2-0.5-0.5C39.5,38.3,39.5,37.5,39.5,36.7C39.5,36.7,39.5,36.7,39.5,36.7z"/>
	<path class="st10" d="M47,29.7c0,0.1,0,0.2,0,0.3c0,0.1,0.1,0.2,0.1,0.2c0.7,0.5,0.7,1.4,0,2c-0.1,0.1-0.1,0.2-0.1,0.3
		c0,2.4,0,4.8,0,7.2c0,0.5-0.2,0.7-0.5,0.7c-0.2,0-0.4-0.2-0.4-0.4c0-0.1,0-0.2,0-0.3c0-2.4,0-4.7,0-7.1c0-0.2-0.1-0.3-0.2-0.4
		c-0.7-0.4-0.7-1.4,0-1.9c0.2-0.1,0.2-0.2,0.2-0.4c0-0.2,0-0.4,0-0.7c0-0.3,0.2-0.4,0.4-0.4c0.3,0,0.4,0.1,0.5,0.4
		C47,29.4,47,29.6,47,29.7C47,29.7,47,29.7,47,29.7z"/>
</g>
</svg>
