<svg id="Layer_1" data-name="Layer 1" xmlns="http://www.w3.org/2000/svg" xmlns:xlink="http://www.w3.org/1999/xlink" viewBox="0 0 1022.76 269"><defs><clipPath id="clip-path"><rect x="-0.31" width="1023" height="269" fill="none"/></clipPath><clipPath id="clip-path-2"><rect x="-0.31" y="-6" width="1023" height="275" fill="none"/></clipPath><clipPath id="clip-path-3"><rect x="-31.3" y="-2" width="1131.96" height="194" fill="none"/></clipPath><linearGradient id="linear-gradient" x1="718.18" y1="-222.83" x2="351.19" y2="412.83" gradientUnits="userSpaceOnUse"><stop offset="0.15" stop-color="#e55626"/><stop offset="0.99" stop-color="#f69437"/></linearGradient></defs><title>hangout</title><g clip-path="url(#clip-path)"><g clip-path="url(#clip-path-2)"><g clip-path="url(#clip-path-3)"><rect x="-31.3" y="-2" width="1131.96" height="194" fill="url(#linear-gradient)"/><polygon points="865.87 105.38 803.03 126.9 804.09 193.32 867.58 212.84 905.76 158.49 865.87 105.38" fill="#fff" opacity="0.03"/><polygon points="471.68 13.13 430.47 27.25 431.16 70.81 472.8 83.61 497.84 47.96 471.68 13.13" fill="#fff" opacity="0.03"/><polygon points="989.39 98.66 937.14 116.56 938.02 171.78 990.81 188.01 1022.55 142.82 989.39 98.66" fill="#fff" opacity="0.03"/><polygon points="107.39 32.19 55.14 50.09 56.02 105.31 108.81 121.54 140.55 76.35 107.39 32.19" fill="#f15a29" opacity="0.17"/><polygon points="-0.76 122.47 -53 140.37 -52.12 195.59 0.67 211.82 32.41 166.63 -0.76 122.47" fill="#f15a29" opacity="0.17"/><polygon points="257.2 97.67 195.23 118.9 196.27 184.4 258.88 203.65 296.54 150.05 257.2 97.67" fill="#f15a29" opacity="0.17"/><polygon points="334.55 61.52 330.98 92.09 358.95 104.94 379.81 82.31 364.73 55.47 334.55 61.52" fill="#fff" opacity="0.03"/><polygon points="159.94 40.69 156.36 71.26 184.33 84.1 205.19 61.47 190.12 34.64 159.94 40.69" fill="#fff" opacity="0.03"/><polygon points="782.2 36.19 776.66 83.56 820 103.47 852.33 68.4 828.97 26.82 782.2 36.19" fill="#fff" opacity="0.03"/><polygon points="163.99 148.21 160.97 174.03 184.59 184.88 202.21 165.77 189.48 143.11 163.99 148.21" fill="#fff" opacity="0.03"/><polygon points="0.29 162.1 -2.73 187.92 20.89 198.77 38.51 179.66 25.78 157 0.29 162.1" fill="#fff" opacity="0.03"/><polygon points="576.22 48.51 573.2 74.33 596.82 85.18 614.44 66.06 601.71 43.4 576.22 48.51" fill="#f69437" opacity="0.21"/><polygon points="632.38 105.79 626.75 153.91 670.77 174.13 703.61 138.51 679.88 96.27 632.38 105.79" fill="#f69437" opacity="0.21"/><polygon points="906.6 139.78 903.58 165.6 927.2 176.45 944.82 157.34 932.09 134.67 906.6 139.78" fill="#f69437" opacity="0.21"/><polygon points="966.5 32.4 961.11 78.53 1003.31 97.91 1034.79 63.76 1012.04 23.27 966.5 32.4" fill="#fff" opacity="0.03"/><polygon points="652.99 35.37 647.6 81.5 689.8 100.89 721.28 66.74 698.53 26.25 652.99 35.37" fill="#fff" opacity="0.03"/><polygon points="715.5 136.57 710.1 182.7 752.3 202.08 783.78 167.94 761.03 127.45 715.5 136.57" fill="#fff" opacity="0.03"/><polygon points="914.91 28.43 909.52 74.56 951.72 93.94 983.2 59.79 960.45 19.31 914.91 28.43" fill="#fff" opacity="0.03"/><polygon points="839.63 54.54 832.78 113.16 886.4 137.79 926.4 94.4 897.49 42.95 839.63 54.54" fill="#f69437" opacity="0.21"/><polygon points="376.31 57.52 369.45 116.13 423.08 140.76 463.08 97.38 434.17 45.93 376.31 57.52" fill="#f15a29" opacity="0.17"/><polygon points="30.06 118.04 23.2 176.65 76.83 201.28 116.83 157.9 87.92 106.45 30.06 118.04" fill="#f15a29" opacity="0.17"/><polygon points="984.48 142.84 977.63 201.46 1031.25 226.09 1071.25 182.7 1042.34 131.25 984.48 142.84" fill="#f69437" opacity="0.21"/><polygon points="716.61 40.65 709.75 99.27 763.38 123.9 803.38 80.51 774.47 29.06 716.61 40.65" fill="#f69437" opacity="0.21"/><polygon points="886.42 9.47 879.79 66.22 931.7 90.06 970.42 48.06 942.44 -1.75 886.42 9.47" fill="#f69437" opacity="0.21"/><polygon points="303.88 144.83 299.16 185.24 336.13 202.22 363.71 172.31 343.78 136.83 303.88 144.83" fill="#f15a29" opacity="0.17"/><polygon points="283.05 35.69 278.32 76.11 315.3 93.09 342.87 63.17 322.94 27.7 283.05 35.69" fill="#f15a29" opacity="0.17"/><polygon points="219.06 55.04 214.33 95.45 251.3 112.43 278.88 82.52 258.95 47.05 219.06 55.04" fill="#fff" opacity="0.03"/><polygon points="374.82 140.36 370.09 180.77 407.07 197.76 434.64 167.84 414.71 132.37 374.82 140.36" fill="#fff" opacity="0.03"/><polygon points="100.59 82.68 93.16 146.16 151.25 172.85 194.58 125.85 163.27 70.12 100.59 82.68" fill="#fff" opacity="0.03"/><polygon points="-21.44 31.09 -28.87 94.58 29.22 121.26 72.55 74.26 41.23 18.53 -21.44 31.09" fill="#fff" opacity="0.03"/></g></g><ellipse cx="510.69" cy="184.09" rx="97.94" ry="98.91" fill="#fff" opacity="0.37"/><path d="M444.71,234.55C408,185.49,433.24,116.32,492.92,102.72c45.29-10.32,91.45,20.33,99.5,66A83.8,83.8,0,0,1,589,211.93c-2.67-1.58-4.44-4.13-6.67-6.18-4-3.61-7.3-7.86-11.6-11.12h.07l-.6-.62c-1.25-1.41-2.38-2.94-3.75-4.21-10.55-9.77-28-5.05-31.94,8.74-2.56,8.83.39,16,7.26,21.81l1,.69h0l.6.51,0,0c1.07,2.75,3.89,4,5.41,6.38-.81,0-1.61.07-2.42.07-8.6.06-12.87,3-16,10.87-.86-.78-1.75-1.53-2.57-2.35q-19.85-19.84-39.69-39.68c-.87-.87-1.56-2-2.94-2.22v0a1.24,1.24,0,0,0-.76-1.07c-.5-.62-1-1.28-1.52-1.88-5.31-5.91-11.94-8.21-19.63-6.44a18.3,18.3,0,0,0-14.47,14.33c-2.15,8.91,1.21,15.94,8.32,21.38l.61.6,0,0a1.15,1.15,0,0,0,1.08.58h0c.78,2.6,3.38,3.7,4.78,5.8-1.16,0-2.32.15-3.47.09-4.43-.22-8.54.6-12,3.53C446.87,232.45,445.81,233.53,444.71,234.55Zm46.83-102.39c-7.18,0-14.36,0-21.53-.14-2.12-.05-2.69.54-2.68,2.67.1,14.8.05,29.61.07,44.42,0,.57-.27,1.24.49,1.94,3.95-3.32,7.94-6.61,11.84-10a5.42,5.42,0,0,1,3.87-1.43c10.32.06,20.64,0,31,0,7.3,0,7.3,0,7.07-7.34l.13-6c3-.51,6.1.11,9.11-.28a15.76,15.76,0,0,1,14,4.89c2.29,2.29,5.07,4.09,8.06,6.45,0-16.18,0-31.67,0-47.17,0-1.62-.84-1.66-2-1.66-16.77,0-33.54,0-50.31,0-1.8,0-2,.72-2,2.23.05,3.77,0,7.53-.06,11.3Z" fill="#ddd"/><path d="M485.13,194.58c1.38.22,2.07,1.35,2.94,2.22q19.86,19.83,39.69,39.68c.82.82,1.71,1.57,2.57,2.35a38.48,38.48,0,0,0-.46,6.95c0,6.44,0,12.89-.06,19.33a87.13,87.13,0,0,1-36,.51c-.06-1.16-.18-2.32-.18-3.49,0-6,.07-12,0-18-.18-10.37-6-16.08-16.37-16.12-4.58,0-9.15-.07-13.73-.11-1.4-2.1-4-3.2-4.78-5.8.94.26,1.89.5,2.82.8a19.67,19.67,0,0,0,24.84-12.57C488.16,204.86,487.21,199.68,485.13,194.58Z" fill="#b7b6b6"/><path d="M463.51,227.86c4.58,0,9.15.09,13.73.11,10.33,0,16.19,5.75,16.37,16.12.1,6,0,12,0,18,0,1.17.12,2.33.18,3.49a83.22,83.22,0,0,1-47.61-28.86c-.56-.68-1-1.47-1.5-2.21,1.1-1,2.16-2.1,3.31-3.07,3.48-2.93,7.59-3.75,12-3.53C461.19,228,462.35,227.89,463.51,227.86Z" fill="#353535"/><path d="M529.81,265.11c0-6.44.07-12.89.06-19.33a38.48,38.48,0,0,1,.46-6.95c3.12-7.91,7.39-10.81,16-10.87.81,0,1.61,0,2.42-.07,3.32,0,6.66.3,10,0,7.3-.59,13,1.81,16.92,8.14-11,13.86-25.06,23-41.92,28.06C532.42,264.51,531.11,264.79,529.81,265.11Z" fill="#353535"/><path d="M575.62,236.07c-3.9-6.33-9.62-8.73-16.92-8.14-3.3.26-6.64,0-10,0-1.52-2.37-4.34-3.63-5.41-6.38.59.2,1.19.36,1.76.59,12.46,5.18,25.18-1.89,27.54-15.19.78-4.37-.76-8.27-1.91-12.28,4.3,3.26,7.65,7.51,11.6,11.12,2.23,2.05,4,4.6,6.67,6.18A77.57,77.57,0,0,1,575.62,236.07Z" fill="#b7b6b6"/><path d="M498.55,132c0-3.77.11-7.53.06-11.3,0-1.51.21-2.23,2-2.23,16.77.07,33.54,0,50.31,0,1.19,0,2,0,2,1.66,0,15.5,0,31,0,47.17-3-2.36-5.77-4.16-8.06-6.45a15.76,15.76,0,0,0-14-4.89c-3,.39-6.09-.23-9.11.28l-9.56-.05c-4.5-.66-9,.09-13.55-.4,0-1.11,0-2.22-.08-3.34v-4.23l0-3.75-.05-4.2Zm10.55,1c-2.05.09-3.25,1.2-3.27,3.17a3.13,3.13,0,1,0,6.26,0C512.09,134.31,511,133.32,509.1,133.08ZM527.78,136a3,3,0,0,0-3.07-2.87,3.12,3.12,0,1,0-.21,6.24C526.48,139.41,527.63,138.26,527.78,136Zm15.63,0a3,3,0,0,0-3-2.88,2.89,2.89,0,0,0-3.32,3.06,2.92,2.92,0,0,0,3.22,3.19C542.15,139.34,543.27,138.22,543.41,136Z" fill="#ed592a"/><path d="M485.13,194.58c2.08,5.1,3,10.28,1.26,15.71a19.67,19.67,0,0,1-24.84,12.57c-.93-.3-1.88-.54-2.82-.8h0a1,1,0,0,0-1.08-.58l0,0-.61-.6c-7.11-5.44-10.47-12.47-8.32-21.38a18.3,18.3,0,0,1,14.47-14.33c7.69-1.77,14.32.53,19.63,6.44.54.6,1,1.26,1.52,1.88l.76,1.07Z" fill="#353535"/><path d="M570.72,194.63c1.15,4,2.69,7.91,1.91,12.28-2.36,13.3-15.08,20.37-27.54,15.19-.57-.23-1.17-.39-1.76-.59l0,0-.6-.51h0l-1-.69c-6.87-5.79-9.82-13-7.26-21.81,4-13.79,21.39-18.51,31.94-8.74,1.37,1.27,2.5,2.8,3.75,4.21l.6.62Z" fill="#353535"/><path d="M521.63,162.31c.23,7.34.23,7.34-7.07,7.34-10.32,0-20.64,0-31,0a5.42,5.42,0,0,0-3.87,1.43c-3.9,3.39-7.89,6.68-11.84,10-.76-.7-.49-1.37-.49-1.94,0-14.81,0-29.62-.07-44.42,0-2.13.56-2.72,2.68-2.67,7.17.16,14.35.11,21.53.14v8l-.54.32c-3.49,0-7,0-10.46-.15-1.82-.05-1.63,1.13-1.69,2.32s.23,2,1.74,1.92c3.48-.12,7-.1,10.46-.14l.49.25c0,1.15,0,2.31,0,3.47l-.5.18c-3.48,0-7,0-10.44-.13-1.79-.08-1.79.88-1.78,2.16s0,2.26,1.77,2.18c3.48-.15,7-.1,10.45-.14l.51.2v3.21l-.55.34c-3.49,0-7,0-10.46-.14-1.83,0-1.64,1.11-1.7,2.31s.29,2,1.78,1.91c3.48-.12,7-.11,10.46-.15l.48.26c-.09,2.11,1.43,1.88,2.76,1.89Z" fill="#ed592a"/><path d="M521.63,162.31l-27.3-.05c-1.33,0-2.85.22-2.76-1.89,5.53-.05,11.07-.09,16.6-.15,4.69-.05,3.91.52,4-4l9.56.05C521.72,158.31,521.67,160.31,521.63,162.31Z" fill="#c13d1e"/><path d="M491.54,140.19v-8l7-.12v8.3Z" fill="#c13d1e"/><path d="M485.14,194.6l-.76-1.07A1.24,1.24,0,0,1,485.14,194.6Z" fill="#00a184"/><path d="M541.76,220.35l1,.69Z" fill="#01a084"/><path d="M457.66,221.49a1,1,0,0,1,1.08.58A1.15,1.15,0,0,1,457.66,221.49Z" fill="#00a184"/><path d="M570.79,194.63l-.6-.62Z" fill="#01a084"/><path d="M457.08,220.92l.61.6Z" fill="#00a184"/><path d="M542.75,221l.6.51Z" fill="#01a084"/><path d="M512.2,156.26c-.12,4.48.66,3.91-4,4-5.53.06-11.07.1-16.6.15l-.48-.26c0-1.31,0-2.62-.08-3.93l.55-.34a31.71,31.71,0,0,0,7.09,0C503.16,156.35,507.7,155.6,512.2,156.26Z" fill="#cebbbc"/><path d="M509.1,133.08c1.85.24,3,1.23,3,3.14a3.13,3.13,0,1,1-6.26,0C505.85,134.28,507.05,133.17,509.1,133.08Z" fill="#fdf5f5"/><path d="M527.78,136c-.15,2.26-1.3,3.41-3.28,3.37a3.12,3.12,0,1,1,.21-6.24A3,3,0,0,1,527.78,136Z" fill="#fdf5f5"/><path d="M543.41,136c-.14,2.21-1.26,3.33-3.08,3.37a2.92,2.92,0,0,1-3.22-3.19,2.89,2.89,0,0,1,3.32-3.06A3,3,0,0,1,543.41,136Z" fill="#fdf5f5"/><path d="M491.54,140.19l7,.15c0,1.4,0,2.8.05,4.2l-7.06.17-.49-.25c0-1.32,0-2.63-.05-4Z" fill="#cebbbc"/><path d="M491.06,148.36l.51-.18,7,.11v4.23l-7,.11-.51-.2Z" fill="#ccc5c5"/><path d="M498.57,148.29l-7-.11,0-3.47,7.06-.17Z" fill="#c13d1e"/><path d="M491.57,152.63l7-.11c0,1.12.06,2.23.08,3.34a31.71,31.71,0,0,1-7.09,0C491.56,154.77,491.56,153.7,491.57,152.63Z" fill="#c13d1e"/><path d="M491.06,148.36v4.07c-3.49,0-7,0-10.45.14-1.8.08-1.76-.92-1.77-2.18s0-2.24,1.78-2.16C484.1,148.38,487.58,148.33,491.06,148.36Z" fill="#fdf5f5"/><path d="M491,156.18c0,1.31.05,2.62.08,3.93-3.49,0-7,0-10.46.15-1.49.05-1.84-.59-1.78-1.91s-.13-2.36,1.7-2.31C484,156.15,487.52,156.14,491,156.18Z" fill="#fefafa"/><path d="M491,140.51c0,1.32,0,2.63.05,4-3.49,0-7,0-10.46.14-1.51.05-1.8-.63-1.74-1.92s-.13-2.37,1.69-2.32C484,140.46,487.51,140.47,491,140.51Z" fill="#fefafa"/></g></svg>