<svg id="Layer_1" data-name="Layer 1" xmlns="http://www.w3.org/2000/svg" xmlns:xlink="http://www.w3.org/1999/xlink" viewBox="0 0 363 342"><defs><clipPath id="clip-path"><rect width="363" height="342" fill="none"/></clipPath><clipPath id="clip-path-2"><rect x="-1.34" y="-30.31" width="365.67" height="275.31" fill="none"/></clipPath><linearGradient id="linear-gradient" x1="-1.34" y1="107.35" x2="364.34" y2="107.35" gradientUnits="userSpaceOnUse"><stop offset="0.15" stop-color="#e55626"/><stop offset="0.99" stop-color="#f69437"/></linearGradient></defs><title>hangout</title><g clip-path="url(#clip-path)"><g clip-path="url(#clip-path-2)"><rect x="-1.34" y="-30.31" width="365.67" height="275.31" fill="url(#linear-gradient)"/><polygon points="353.73 41.61 290.28 65.31 291.35 138.45 355.46 159.94 394.01 100.09 353.73 41.61" fill="#fff" opacity="0.03"/><polygon points="38.84 117.02 -2.78 132.56 -2.08 180.53 39.97 194.63 65.26 155.37 38.84 117.02" fill="#fff" opacity="0.03"/><polygon points="366.81 148.06 319.83 165.61 320.62 219.76 368.09 235.68 396.64 191.36 366.81 148.06" fill="#f15a29" opacity="0.17"/><polygon points="178.88 31.55 175.27 65.22 203.51 79.36 224.58 54.44 209.35 24.9 178.88 31.55" fill="#fff" opacity="0.03"/><polygon points="60.87 46.27 55.27 98.43 99.03 120.35 131.68 81.74 108.08 35.95 60.87 46.27" fill="#fff" opacity="0.03"/><polygon points="288.16 139.04 285.11 167.47 308.97 179.42 326.76 158.37 313.9 133.41 288.16 139.04" fill="#fff" opacity="0.03"/><polygon points="-11.28 36.6 -16.96 89.59 27.49 111.86 60.65 72.63 36.69 26.12 -11.28 36.6" fill="#f69437" opacity="0.21"/><polygon points="259.99 187.39 254.55 238.19 297.16 259.53 328.95 221.93 305.98 177.35 259.99 187.39" fill="#fff" opacity="0.03"/><polygon points="62.75 128.75 55.83 193.29 109.98 220.42 150.37 172.64 121.18 115.98 62.75 128.75" fill="#f69437" opacity="0.21"/><polygon points="213.03 47.91 206.1 112.45 260.26 139.57 300.64 91.79 271.46 35.14 213.03 47.91" fill="#f15a29" opacity="0.17"/><polygon points="365.27 65.66 328.69 62.02 314.22 98.83 341.85 125.22 373.4 104.72 365.27 65.66" fill="#f15a29" opacity="0.17"/><polygon points="327.6 136.98 274.89 131.74 254.03 184.78 293.84 222.81 339.31 193.27 327.6 136.98" fill="#f15a29" opacity="0.17"/><polygon points="5.65 183.38 -1.28 247.92 52.88 275.04 93.27 227.26 64.08 170.61 5.65 183.38" fill="#f69437" opacity="0.21"/><polygon points="106.83 56.65 99.91 121.19 154.06 148.31 194.45 100.53 165.26 43.88 106.83 56.65" fill="#f69437" opacity="0.21"/><polygon points="242.25 132.66 235.54 195.14 287.96 221.39 327.06 175.14 298.81 120.3 242.25 132.66" fill="#f69437" opacity="0.21"/><polygon points="29.69 46.81 24.92 91.31 62.25 110.02 90.1 77.07 69.98 38.01 29.69 46.81" fill="#f15a29" opacity="0.17"/><polygon points="18.76 51.57 11.27 121.48 69.92 150.87 113.67 99.11 82.05 37.74 18.76 51.57" fill="#fff" opacity="0.03"/></g><ellipse cx="181.5" cy="243.5" rx="114.36" ry="115.5" fill="#fff" opacity="0.37"/><path d="M104.46,302.43c-42.93-57.3-13.39-138.07,56.29-154,52.89-12,106.79,23.74,116.19,77.06a98,98,0,0,1-4,50.47c-3.12-1.85-5.19-4.82-7.8-7.21-4.61-4.23-8.52-9.18-13.53-13h.08l-.71-.71c-1.45-1.65-2.78-3.43-4.38-4.92-12.31-11.41-32.64-5.9-37.29,10.21-3,10.31.45,18.7,8.48,25.46l1.17.81h0l.7.59,0,0c1.25,3.21,4.54,4.68,6.31,7.45-.94,0-1.88.08-2.82.08-10,.07-15,3.45-18.68,12.69-1-.91-2-1.79-3-2.75q-23.17-23.16-46.35-46.33c-1-1-1.82-2.33-3.43-2.59v0a1.44,1.44,0,0,0-.89-1.25c-.59-.73-1.15-1.5-1.77-2.19-6.2-6.91-13.94-9.6-22.93-7.53s-14.75,7.85-16.89,16.73c-2.52,10.41,1.41,18.62,9.71,25l.71.7,0,0a1.34,1.34,0,0,0,1.26.68h0c.91,3,4,4.32,5.58,6.77-1.35,0-2.71.18-4,.11-5.17-.26-10,.69-14,4.12C107,300,105.75,301.23,104.46,302.43Zm54.68-119.56c-8.38,0-16.76,0-25.14-.17-2.47-.06-3.14.63-3.12,3.11.11,17.29.05,34.58.07,51.87,0,.67-.31,1.45.57,2.28,4.62-3.89,9.28-7.73,13.83-11.69a6.39,6.39,0,0,1,4.52-1.66c12,.06,24.1,0,36.16,0,8.52,0,8.52,0,8.25-8.58l.15-7c3.53-.59,7.13.13,10.63-.33,6.5-.84,11.76,1.1,16.37,5.72,2.67,2.67,5.92,4.77,9.41,7.53,0-18.9,0-37,0-55.08,0-1.89-1-1.94-2.38-1.94-19.58,0-39.16,0-58.74,0-2.1,0-2.38.84-2.35,2.6.06,4.39,0,8.79-.08,13.19Z" fill="#ddd"/><path d="M151.66,255.75c1.61.26,2.42,1.58,3.43,2.59q23.19,23.16,46.35,46.33c1,1,2,1.84,3,2.75a45.81,45.81,0,0,0-.53,8.11c0,7.53,0,15.06-.06,22.58a101.76,101.76,0,0,1-42,.6c-.08-1.36-.21-2.72-.22-4.08,0-7,.08-14,0-21.06-.21-12.11-7.06-18.78-19.12-18.83-5.34,0-10.68-.09-16-.13-1.63-2.45-4.67-3.73-5.58-6.77,1.1.31,2.21.58,3.3.94a23,23,0,0,0,29-14.69C155.2,267.76,154.08,261.71,151.66,255.75Z" fill="#b7b6b6"/><path d="M126.41,294.61c5.35,0,10.69.11,16,.13,12.06.05,18.91,6.72,19.12,18.83.11,7,0,14,0,21.06,0,1.36.14,2.72.22,4.08A97.21,97.21,0,0,1,106.22,305a30.08,30.08,0,0,1-1.76-2.58c1.29-1.2,2.52-2.46,3.86-3.59,4.06-3.43,8.87-4.38,14-4.12C123.7,294.79,125.06,294.65,126.41,294.61Z" fill="#353535"/><path d="M203.84,338.11c0-7.52.07-15.05.06-22.58a45.81,45.81,0,0,1,.53-8.11c3.66-9.24,8.64-12.62,18.68-12.69.94,0,1.88-.05,2.82-.08,3.88,0,7.78.35,11.63,0,8.53-.68,15.21,2.12,19.76,9.51-12.79,16.18-29.25,26.89-48.94,32.76C206.88,337.41,205.35,337.73,203.84,338.11Z" fill="#353535"/><path d="M257.32,304.2c-4.55-7.39-11.23-10.19-19.76-9.51-3.85.31-7.75,0-11.63,0-1.77-2.77-5.06-4.24-6.31-7.45.69.23,1.39.41,2.06.69,14.54,6.05,29.4-2.21,32.15-17.74.91-5.11-.88-9.66-2.22-14.34,5,3.81,8.92,8.76,13.53,13,2.61,2.39,4.68,5.36,7.8,7.21A90.56,90.56,0,0,1,257.32,304.2Z" fill="#b7b6b6"/><path d="M167.32,182.72c0-4.4.14-8.8.08-13.19,0-1.76.25-2.61,2.35-2.6,19.58.08,39.16,0,58.74,0,1.39,0,2.38,0,2.38,1.94-.06,18.09,0,36.18,0,55.08-3.49-2.76-6.74-4.86-9.41-7.53-4.61-4.62-9.87-6.56-16.37-5.72-3.5.46-7.1-.26-10.63.33L183.26,211c-5.25-.77-10.55.1-15.81-.47,0-1.3-.06-2.6-.1-3.9v-4.95l0-4.37-.06-4.91Q167.33,187.57,167.32,182.72Zm12.33,1.21c-2.4.11-3.8,1.41-3.82,3.71a3.66,3.66,0,1,0,7.31,0C183.14,185.37,181.8,184.22,179.65,183.93Zm21.81,3.42a3.5,3.5,0,0,0-3.58-3.36,3.65,3.65,0,1,0-.24,7.29C199.94,191.33,201.29,190,201.46,187.35Zm18.25,0a3.47,3.47,0,0,0-3.48-3.37,3.65,3.65,0,1,0-.12,7.3C218.24,191.25,219.55,189.94,219.71,187.36Z" fill="#ed592a"/><path d="M151.66,255.75c2.42,6,3.54,12,1.47,18.34a23,23,0,0,1-29,14.69c-1.09-.36-2.2-.63-3.3-.94h0a1.2,1.2,0,0,0-1.26-.68l0,0-.71-.7c-8.3-6.35-12.23-14.56-9.71-25,2.14-8.88,8-14.69,16.89-16.73s16.73.62,22.93,7.53c.62.69,1.18,1.46,1.78,2.19l.88,1.25Z" fill="#353535"/><path d="M251.61,255.81c1.34,4.68,3.13,9.23,2.22,14.34-2.75,15.53-17.61,23.79-32.15,17.74-.67-.28-1.37-.46-2.06-.69l0,0-.7-.59h0l-1.17-.81c-8-6.76-11.47-15.15-8.48-25.46,4.65-16.11,25-21.62,37.29-10.21,1.6,1.49,2.93,3.27,4.38,4.92l.71.71Z" fill="#353535"/><path d="M194.28,218.06c.27,8.58.27,8.58-8.25,8.58-12.06,0-24.11,0-36.16,0a6.39,6.39,0,0,0-4.52,1.66c-4.55,4-9.21,7.8-13.83,11.69-.88-.83-.56-1.61-.57-2.28,0-17.29,0-34.58-.07-51.87,0-2.48.65-3.17,3.12-3.11,8.38.18,16.76.13,25.14.17,0,3.12,0,6.25,0,9.37l-.64.37c-4.07-.05-8.14-.05-12.21-.17-2.12-.06-1.9,1.32-2,2.7s.26,2.31,2,2.25c4.07-.14,8.14-.12,12.21-.17l.58.29c0,1.36,0,2.71,0,4.06l-.58.21c-4.07,0-8.14,0-12.2-.16-2.08-.09-2.09,1-2.08,2.53s0,2.64,2.07,2.55c4.06-.18,8.13-.12,12.2-.16l.59.23c0,1.24,0,2.49,0,3.74l-.64.41c-4.07,0-8.14,0-12.21-.17-2.14-.07-1.92,1.3-2,2.69-.07,1.54.35,2.3,2.08,2.24,4.07-.15,8.14-.13,12.21-.18l.57.31c-.1,2.45,1.67,2.19,3.22,2.2Z" fill="#ed592a"/><path d="M194.28,218.06,162.4,218c-1.55,0-3.32.25-3.22-2.2l19.39-.18c5.47-.06,4.56.6,4.69-4.62l11.17.05Z" fill="#c13d1e"/><path d="M159.15,192.24c0-3.12,0-6.25,0-9.37l8.18-.15q0,4.84,0,9.69Z" fill="#c13d1e"/><path d="M151.67,255.78l-.88-1.25A1.45,1.45,0,0,1,151.67,255.78Z" fill="#00a184"/><path d="M217.79,285.84l1.17.81Z" fill="#01a084"/><path d="M119.58,287.17a1.2,1.2,0,0,1,1.26.68A1.34,1.34,0,0,1,119.58,287.17Z" fill="#00a184"/><path d="M251.69,255.8l-.71-.71Z" fill="#01a084"/><path d="M118.9,286.51l.71.7Z" fill="#00a184"/><path d="M218.94,286.64l.7.59Z" fill="#01a084"/><path d="M183.26,211c-.13,5.22.78,4.56-4.69,4.62l-19.39.18-.57-.31-.09-4.58.64-.41a37.07,37.07,0,0,0,8.29,0C172.71,211.11,178,210.24,183.26,211Z" fill="#cebbbc"/><path d="M179.65,183.93c2.15.29,3.49,1.44,3.49,3.68a3.66,3.66,0,1,1-7.31,0C175.85,185.34,177.25,184,179.65,183.93Z" fill="#fdf5f5"/><path d="M201.46,187.35c-.17,2.64-1.52,4-3.82,3.93a3.65,3.65,0,1,1,.24-7.29A3.5,3.5,0,0,1,201.46,187.35Z" fill="#fdf5f5"/><path d="M219.71,187.36c-.16,2.58-1.47,3.89-3.6,3.93a3.65,3.65,0,1,1,.12-7.3A3.47,3.47,0,0,1,219.71,187.36Z" fill="#fdf5f5"/><path d="M159.15,192.24l8.18.17.06,4.91-8.25.19-.57-.29-.06-4.61Z" fill="#cebbbc"/><path d="M158.59,201.78l.58-.21,8.18.12v4.95l-8.18.13-.59-.23C158.58,205,158.58,203.37,158.59,201.78Z" fill="#ccc5c5"/><path d="M167.35,201.69l-8.18-.12c0-1.35,0-2.7,0-4.06l8.24-.19C167.38,198.78,167.36,200.24,167.35,201.69Z" fill="#c13d1e"/><path d="M159.17,206.77l8.18-.13c0,1.3.07,2.6.1,3.9a37.07,37.07,0,0,1-8.29,0C159.17,209.26,159.17,208,159.17,206.77Z" fill="#c13d1e"/><path d="M158.59,201.78c0,1.59,0,3.17,0,4.76-4.07,0-8.14,0-12.2.16-2.1.09-2.06-1.08-2.07-2.55s0-2.62,2.08-2.53C150.45,201.8,154.52,201.74,158.59,201.78Z" fill="#fdf5f5"/><path d="M158.52,210.92l.09,4.58c-4.07.05-8.14,0-12.21.18-1.73.06-2.15-.7-2.08-2.24.07-1.39-.15-2.76,2-2.69C150.38,210.88,154.45,210.87,158.52,210.92Z" fill="#fefafa"/><path d="M158.51,192.61l.06,4.61c-4.07.05-8.14,0-12.21.17-1.77.06-2.11-.74-2-2.25s-.15-2.76,2-2.7C150.37,192.56,154.44,192.56,158.51,192.61Z" fill="#fefafa"/></g></svg>