<svg id="Layer_1" data-name="Layer 1" xmlns="http://www.w3.org/2000/svg" xmlns:xlink="http://www.w3.org/1999/xlink" viewBox="0 0 654.17 165.73"><defs><clipPath id="clip-path"><rect x="-0.52" y="0.07" width="654.27" height="111.95" fill="none"/></clipPath><linearGradient id="linear-gradient" x1="432.63" y1="-127.59" x2="220.59" y2="239.68" gradientUnits="userSpaceOnUse"><stop offset="0.15" stop-color="#e55626"/><stop offset="0.99" stop-color="#f69437"/></linearGradient></defs><title>desktop elements</title><g clip-path="url(#clip-path)"><rect x="-0.52" y="0.07" width="654.27" height="111.95" fill="url(#linear-gradient)"/><polygon points="518.14 61.94 481.81 74.38 482.42 112.78 519.13 124.07 541.21 92.64 518.14 61.94" fill="#fff" opacity="0.03"/><polygon points="290.23 8.6 266.4 16.77 266.8 41.95 290.88 49.35 305.36 28.74 290.23 8.6" fill="#fff" opacity="0.03"/><polygon points="589.56 58.05 559.35 68.4 559.86 100.33 590.38 109.71 608.73 83.59 589.56 58.05" fill="#fff" opacity="0.03"/><polygon points="647.49 11.02 617.28 21.37 617.79 53.29 648.31 62.68 666.67 36.55 647.49 11.02" fill="#fff" opacity="0.03"/><polygon points="79.61 19.62 49.4 29.97 49.91 61.9 80.43 71.28 98.78 45.15 79.61 19.62" fill="#f15a29" opacity="0.17"/><polygon points="17.08 71.82 -13.13 82.17 -12.62 114.1 17.9 123.48 36.26 97.35 17.08 71.82" fill="#f15a29" opacity="0.17"/><polygon points="166.22 57.48 130.39 69.76 131 107.63 167.2 118.76 188.97 87.77 166.22 57.48" fill="#f15a29" opacity="0.17"/><polygon points="210.95 36.58 208.88 54.26 225.05 61.68 237.11 48.6 228.4 33.08 210.95 36.58" fill="#fff" opacity="0.03"/><polygon points="109.99 24.53 107.92 42.21 124.09 49.64 136.16 36.55 127.44 21.04 109.99 24.53" fill="#fff" opacity="0.03"/><polygon points="469.77 21.93 466.56 49.32 491.62 60.83 510.31 40.56 496.81 16.52 469.77 21.93" fill="#fff" opacity="0.03"/><polygon points="112.33 86.7 110.59 101.63 124.25 107.91 134.43 96.86 127.07 83.75 112.33 86.7" fill="#fff" opacity="0.03"/><polygon points="17.69 94.73 15.94 109.66 29.6 115.94 39.78 104.89 32.42 91.78 17.69 94.73" fill="#fff" opacity="0.03"/><polygon points="350.67 29.05 348.93 43.98 362.58 50.26 372.77 39.21 365.41 26.1 350.67 29.05" fill="#f69437" opacity="0.21"/><polygon points="383.14 62.18 379.89 90 405.34 101.69 424.33 81.09 410.61 56.67 383.14 62.18" fill="#f69437" opacity="0.21"/><polygon points="541.69 81.83 539.94 96.76 553.6 103.03 563.79 91.98 556.43 78.88 541.69 81.83" fill="#f69437" opacity="0.21"/><polygon points="576.33 19.74 573.21 46.41 597.61 57.62 615.81 37.88 602.65 14.47 576.33 19.74" fill="#fff" opacity="0.03"/><polygon points="395.06 21.46 391.94 48.13 416.34 59.34 434.54 39.6 421.39 16.19 395.06 21.46" fill="#fff" opacity="0.03"/><polygon points="431.2 79.97 428.08 106.64 452.48 117.85 470.68 98.11 457.53 74.7 431.2 79.97" fill="#fff" opacity="0.03"/><polygon points="546.5 17.45 543.38 44.12 567.78 55.33 585.98 35.58 572.83 12.17 546.5 17.45" fill="#fff" opacity="0.03"/><polygon points="502.97 32.55 499.01 66.44 530.01 80.68 553.14 55.59 536.42 25.84 502.97 32.55" fill="#f69437" opacity="0.21"/><polygon points="235.09 34.27 231.13 68.16 262.13 82.4 285.26 57.31 268.54 27.56 235.09 34.27" fill="#f15a29" opacity="0.17"/><polygon points="34.9 69.26 30.93 103.15 61.94 117.39 85.06 92.3 68.35 62.55 34.9 69.26" fill="#f15a29" opacity="0.17"/><polygon points="586.72 83.6 582.76 117.49 613.76 131.73 636.89 106.64 620.17 76.9 586.72 83.6" fill="#f69437" opacity="0.21"/><polygon points="431.84 24.52 427.88 58.4 458.88 72.64 482.01 47.56 465.3 17.81 431.84 24.52" fill="#f69437" opacity="0.21"/><polygon points="617.79 53.52 613.95 86.33 643.97 100.12 666.35 75.83 650.17 47.04 617.79 53.52" fill="#f69437" opacity="0.21"/><polygon points="530.02 6.49 526.19 39.29 556.2 53.08 578.59 28.8 562.41 0 530.02 6.49" fill="#f69437" opacity="0.21"/><polygon points="193.22 84.75 190.48 108.11 211.86 117.93 227.8 100.63 216.28 80.12 193.22 84.75" fill="#f15a29" opacity="0.17"/><polygon points="181.17 21.65 178.44 45.01 199.81 54.83 215.76 37.53 204.24 17.03 181.17 21.65" fill="#f15a29" opacity="0.17"/><polygon points="144.17 32.83 141.44 56.2 162.81 66.02 178.76 48.72 167.24 28.21 144.17 32.83" fill="#fff" opacity="0.03"/><polygon points="234.23 82.16 231.5 105.53 252.87 115.35 268.82 98.05 257.3 77.54 234.23 82.16" fill="#fff" opacity="0.03"/><polygon points="75.68 48.81 71.38 85.52 104.97 100.95 130.02 73.77 111.91 41.55 75.68 48.81" fill="#fff" opacity="0.03"/><polygon points="5.12 18.98 0.83 55.69 34.41 71.12 59.46 43.94 41.36 11.72 5.12 18.98" fill="#fff" opacity="0.03"/></g><ellipse cx="326.44" cy="102.89" rx="47.93" ry="48.41" fill="#fff"/><ellipse cx="326.44" cy="101.98" rx="59.35" ry="59.94" fill="#fff" opacity="0.37"/><path d="M313.54,68.65h1s.07,0,.11,0a4.28,4.28,0,0,1,1.23.31,5.36,5.36,0,0,1,2.33,2,15,15,0,0,1,2.11,4.39,37.92,37.92,0,0,1,1,4.21c.28,1.45.5,2.91.67,4.37.14,1.22.2,2.46.3,3.68a10.6,10.6,0,0,0-.66,1.64,10,10,0,0,0-.47,2,13.18,13.18,0,0,1-.45-4.48,16.62,16.62,0,0,0-.71,1.82,2.72,2.72,0,0,1,0-.49c0-1,0-2-.05-3a43.82,43.82,0,0,0-.59-5,19.42,19.42,0,0,0-1.76-5.4A6.94,6.94,0,0,0,316,72.52a3.53,3.53,0,0,0-2.27-1.06,4.65,4.65,0,0,0-3.24,1.19,4.73,4.73,0,0,0-1.24,2,8.11,8.11,0,0,0-.31,3.85,29.39,29.39,0,0,0,1,4.89,38.19,38.19,0,0,0,5,10.42,14.75,14.75,0,0,0,2.4,2.77c.48.42.72.38,1-.18a8.59,8.59,0,0,0,.84-2.14c.13-.51.24-1,.36-1.53a7.62,7.62,0,0,0,.37,1.26,3,3,0,0,0,1.13,1.64.13.13,0,0,1,.05.16,3.74,3.74,0,0,0,.05,1.79,11.48,11.48,0,0,0,.56,1.81,7.23,7.23,0,0,0,.49,1.1,4,4,0,0,1,.07-1.78,5.1,5.1,0,0,1,.7-1.65,13.89,13.89,0,0,0,.9,6.42s0-.07,0-.1a25,25,0,0,1,.14-3.35,7.08,7.08,0,0,1,.47-2,1.44,1.44,0,0,1,.69-.82c.1,0,.16,0,.22.07a12.1,12.1,0,0,1,.81,2.47,4,4,0,0,1,.07,1.71s0,.08,0,.09.08,0,.11-.07a8.53,8.53,0,0,0,1.66-3.6,5.1,5.1,0,0,0,.07-1c0-.33-.1-.65-.12-1h0a7.81,7.81,0,0,1,1.05,1.1,6.84,6.84,0,0,1,1.3,2.51,4.45,4.45,0,0,1,.14,1.46c0,.29-.11.57-.13.86,0,0,0,0,0,0h0v0a.86.86,0,0,0,.1-.16,14.69,14.69,0,0,0,.95-2.49,8.37,8.37,0,0,0,.34-2.33,1.8,1.8,0,0,0,0-.31,1.42,1.42,0,0,1,.36.33,3.62,3.62,0,0,1,.54,1.49c.07.35.12.71.18,1.06a2.65,2.65,0,0,0,.2-.49,7.15,7.15,0,0,0,.35-3,2.88,2.88,0,0,0-.47-1.3.18.18,0,0,1,0-.25,3.09,3.09,0,0,0,.33-.77s0,0,0,.07a10.28,10.28,0,0,0,1,2.69c.33.6.59.64,1.1.19a12.18,12.18,0,0,0,1.62-1.75,35.68,35.68,0,0,0,3.77-6.28,33.65,33.65,0,0,0,2.81-8.44,13.08,13.08,0,0,0,.27-4,6.09,6.09,0,0,0-1.19-3,4.33,4.33,0,0,0-2.54-1.5,3.34,3.34,0,0,0-2.94.61A5.33,5.33,0,0,0,336,73.55a15,15,0,0,0-1.74,3.74,23.7,23.7,0,0,0-.91,4.07c-.15,1-.27,2.07-.34,3.11,0,.48-.07,1-.08,1.45,0,.79,0,1.59,0,2.38,0,.57.09,1.15.08,1.72-.11-.3-.23-.6-.35-.9s-.15-.37-.23-.56c0,.52,0,1,0,1.53a4.17,4.17,0,0,1-.26,1.44,1.41,1.41,0,0,1-.85.93c-.14.05-.21,0-.26-.11a2.54,2.54,0,0,1-.07-1.13,4.39,4.39,0,0,1,.64-1.51s.07-.08,0-.13-.1,0-.15,0a3.09,3.09,0,0,0-1.07.25c.11-1.45.23-2.9.36-4.34s.31-2.95.55-4.41A37.4,37.4,0,0,1,333,74.48a11.85,11.85,0,0,1,2.37-4.19,4.78,4.78,0,0,1,4.42-1.53,6.78,6.78,0,0,1,3.7,1.83A8.05,8.05,0,0,1,346,76.32V78a14.18,14.18,0,0,1-.12,1.59,26.75,26.75,0,0,1-1,4.76,64.79,64.79,0,0,1-4.71,11.09c-.28.54-.6,1.06-.91,1.59a.55.55,0,0,0,.15.85l.11.09a8.62,8.62,0,0,1,1.35,1.35,8.91,8.91,0,0,1,1.63,3.58,10.87,10.87,0,0,1,.27,3c0,.77-.14,1.53-.23,2.29s-.2,1.72-.31,2.58c-.14,1-.3,2.11-.45,3.17-.18,1.36-.42,2.72-.64,4.07s-.42,2.58-.64,3.87c-.15.92-.26,1.85-.46,2.76a31.54,31.54,0,0,1-1.69,5.11c-.06,0-.06-.1-.08-.15-.1-.24-.19-.49-.3-.73a18.51,18.51,0,0,0-3.1-4.5,17,17,0,0,0-3.5-2.88,10.47,10.47,0,0,0-4.53-1.65,6.92,6.92,0,0,0-3.36.5,10.81,10.81,0,0,0-3.24,2.14,20.92,20.92,0,0,0-3.36,4,14.47,14.47,0,0,0-1.76,3.83c-.17.59-.25,1.21-.4,1.8,0,.13-.08.27-.13.42l-.07-.14c-.56-1.27-1.1-2.56-1.6-3.87a21.8,21.8,0,0,1-1.08-3.32,27.71,27.71,0,0,1-.44-4c-.06-.83-.11-1.67-.17-2.5s-.15-1.39-.23-2.09c-.1-.92-.14-1.84-.19-2.77s-.15-2.15-.25-3.22-.17-1.94-.24-2.92a11.43,11.43,0,0,1,.19-3.14,11.94,11.94,0,0,1,2.51-5A8.66,8.66,0,0,1,314,98.41a.48.48,0,0,0,.12-.68l-.08-.17a78.51,78.51,0,0,1-3.61-7.08,42.18,42.18,0,0,1-3.09-9.24,20.33,20.33,0,0,1-.41-3.55s0-.09,0-.11v-.5c.05,0,0-.06,0-.09a8.27,8.27,0,0,1,.07-1.11,9.92,9.92,0,0,1,.93-3.29,7.23,7.23,0,0,1,4.74-3.73A4.7,4.7,0,0,1,313.54,68.65ZM331.75,116h.49c.17,0,.33,0,.49-.06a9.69,9.69,0,0,0,5.56-2.86,3.57,3.57,0,0,0,.93-3.73,7.26,7.26,0,0,0-3.24-4.15,3.43,3.43,0,0,0-2.93-.33,5,5,0,0,0-2,1.27,9.89,9.89,0,0,0-2.64,4.87,5.78,5.78,0,0,0,.54,4,1.74,1.74,0,0,0,1.46,1A12.52,12.52,0,0,0,331.75,116Zm-10.21,0h.3a2,2,0,0,0,1.78-.89,5.09,5.09,0,0,0,.75-2.33,7.72,7.72,0,0,0-.36-2.74,8,8,0,0,0-3.92-5,3.06,3.06,0,0,0-2.21-.37,5.59,5.59,0,0,0-2.65,1.6,8,8,0,0,0-1.75,2.84,3.39,3.39,0,0,0,.51,3.47,8.07,8.07,0,0,0,1.7,1.6,10.28,10.28,0,0,0,5.85,1.83Z" fill="#563a39"/><path d="M338.27,129.73c.06.28.13.55.19.83a5.9,5.9,0,0,1-1.14,4.8,10.23,10.23,0,0,1-5.2,3.65,11.92,11.92,0,0,1-3.25.51c-.05,0-.12,0-.17,0h-2.5c0-.05-.08,0-.12,0a29.78,29.78,0,0,1-4.31-.4,13.09,13.09,0,0,1-3.52-1,5.93,5.93,0,0,1-3.59-5.74c0-.09,0-.19,0-.27.15-.6.24-1.21.41-1.81a14.77,14.77,0,0,1,1.76-3.83,20.56,20.56,0,0,1,3.36-4,10.81,10.81,0,0,1,3.24-2.14,7.13,7.13,0,0,1,3.36-.5,10.65,10.65,0,0,1,4.53,1.65,16.69,16.69,0,0,1,3.5,2.88,18.79,18.79,0,0,1,3.1,4.5c.11.24.2.48.3.73C338.2,129.62,338.2,129.69,338.27,129.73Zm-3.74,3.53c-.07,0-.11.06-.16.09a17.54,17.54,0,0,1-3.4,2.11,9.58,9.58,0,0,1-5.81.65,17.78,17.78,0,0,1-4.69-1.69c-.65-.32-1.27-.7-1.91-1h0c0,.1.08.15.13.21a11.32,11.32,0,0,0,5.35,3.75,8.58,8.58,0,0,0,9.93-3.16,3.78,3.78,0,0,0,.56-.9s0,0,0,0h0Zm.57-5.32a.88.88,0,0,0-.2-.68,3.8,3.8,0,0,0-1-1,2.09,2.09,0,0,0-2.67.21,2.24,2.24,0,0,0-.59,1.55,6.07,6.07,0,0,1-.94,2.89c-.29.48-.62,1-.95,1.41a.42.42,0,0,0,.15.68.67.67,0,0,0,.63,0,17,17,0,0,0,4.13-2.37,3.48,3.48,0,0,0,1.44-2.73Zm-16.44.37a1.9,1.9,0,0,0,.3,1.08,6.12,6.12,0,0,0,1.81,1.81,22.33,22.33,0,0,0,3,1.66,3.62,3.62,0,0,0,.63.22.63.63,0,0,0,.59-.15.3.3,0,0,0,.09-.38,1.14,1.14,0,0,0-.31-.44c-.06-.07-.14-.13-.12-.22a.34.34,0,0,0-.13-.28l-.2-.25a5.91,5.91,0,0,1-1.2-3.42,2,2,0,0,0-2.36-2,2.54,2.54,0,0,0-2.09,2.38Z" fill="#af8070"/><path d="M346,76.3h0V78h0Z" fill="#af8070"/><path d="M319.68,92.73c-.12.51-.23,1-.36,1.53a9,9,0,0,1-.84,2.14c-.31.56-.56.61-1,.19a14.45,14.45,0,0,1-2.39-2.78,38.48,38.48,0,0,1-5-10.42A30,30,0,0,1,309,78.5a8.11,8.11,0,0,1,.32-3.85,4.41,4.41,0,0,1,4.48-3.19A3.52,3.52,0,0,1,316,72.51a7.1,7.1,0,0,1,1.57,2.19,19.23,19.23,0,0,1,1.75,5.39,41.94,41.94,0,0,1,.6,5c.06,1,.07,2,.05,3,0,.16,0,.32,0,.49l0,.17a10,10,0,0,0-.37,2.83C319.58,92,319.65,92.34,319.68,92.73Z" fill="#348fc0"/><path d="M333,90c0-.57-.06-1.15-.08-1.72,0-.79,0-1.59,0-2.38,0-.49.06-1,.08-1.45.07-1,.19-2.08.34-3.11a24.91,24.91,0,0,1,.91-4.07,15.33,15.33,0,0,1,1.74-3.74,5.92,5.92,0,0,1,1.31-1.38,3.37,3.37,0,0,1,2.94-.6,4.35,4.35,0,0,1,2.55,1.5,6.08,6.08,0,0,1,1.18,3,12.54,12.54,0,0,1-.27,4,33.89,33.89,0,0,1-2.8,8.44,35.73,35.73,0,0,1-3.78,6.28,12.08,12.08,0,0,1-1.61,1.74c-.52.46-.77.42-1.1-.18a10.68,10.68,0,0,1-1-2.69.19.19,0,0,0,0-.07,4.63,4.63,0,0,0,0-2A15.19,15.19,0,0,0,333,90Z" fill="#348fc0"/><path d="M333,90a14.16,14.16,0,0,1,.43,1.64,4.84,4.84,0,0,1,0,2,3.64,3.64,0,0,1-.33.76.18.18,0,0,0,0,.25,3,3,0,0,1,.47,1.3,7.22,7.22,0,0,1-.36,3,3.3,3.3,0,0,1-.19.49l-.18-1.07a3.33,3.33,0,0,0-.55-1.48,1.26,1.26,0,0,0-.35-.34c0,.12,0,.22,0,.31a8.44,8.44,0,0,1-.34,2.34,14.27,14.27,0,0,1-.95,2.48,1.4,1.4,0,0,1-.1.16h0a8.51,8.51,0,0,1,.13-.86,4.45,4.45,0,0,0-.14-1.46,6.76,6.76,0,0,0-1.3-2.51,7.81,7.81,0,0,0-1.05-1.1h0c0,.33.11.65.12,1a5.1,5.1,0,0,1-.07,1,8.53,8.53,0,0,1-1.66,3.6s-.05.09-.11.07,0-.06,0-.1a4.06,4.06,0,0,0-.07-1.7,11.63,11.63,0,0,0-.82-2.48c-.05-.11-.11-.11-.21-.07a1.49,1.49,0,0,0-.69.83,6.93,6.93,0,0,0-.47,2,25,25,0,0,0-.14,3.35s0,.07,0,.1a13.85,13.85,0,0,1-.9-6.42,5.39,5.39,0,0,0-.7,1.66,3.92,3.92,0,0,0-.07,1.77,8.23,8.23,0,0,1-.49-1.09,10.63,10.63,0,0,1-.56-1.82,3.74,3.74,0,0,1-.05-1.79.11.11,0,0,0-.06-.15A3,3,0,0,1,320.06,94a7.34,7.34,0,0,1-.37-1.27c0-.39-.09-.78-.1-1.17a10,10,0,0,1,.37-2.83c0-.06,0-.12,0-.18a16.51,16.51,0,0,1,.7-1.82,13.16,13.16,0,0,0,.46,4.48,10,10,0,0,1,.47-2,8.93,8.93,0,0,1,.66-1.64.66.66,0,0,0,0,.14l0,.06a4.09,4.09,0,0,0,0,1.26,1.56,1.56,0,0,0,.17.64,5.94,5.94,0,0,0,.55,1.42,4.18,4.18,0,0,0,.36-2.68h0a6.83,6.83,0,0,1,.69.73c.26.39.54.77.77,1.19a9.08,9.08,0,0,1,.5,1.15,10.41,10.41,0,0,1,1-2.87,9,9,0,0,0,.91,3.13,4.86,4.86,0,0,0,.35-.53A3.64,3.64,0,0,0,328,88.8a2.89,2.89,0,0,1-.11-.51h0A12.46,12.46,0,0,1,329.17,91a4,4,0,0,1,.34-.5,2.86,2.86,0,0,1,2-.91c.05,0,.11,0,.14,0s0,.09-.05.13a4.37,4.37,0,0,0-.63,1.51,2.36,2.36,0,0,0,.06,1.12c.05.16.13.17.26.12a1.39,1.39,0,0,0,.85-.93,3.7,3.7,0,0,0,.26-1.43c0-.51,0-1,0-1.54l.24.57C332.72,89.41,332.84,89.71,333,90Z" fill="#060707"/><path d="M331.75,116a12.52,12.52,0,0,1-1.37,0,1.74,1.74,0,0,1-1.46-1,5.85,5.85,0,0,1-.54-4,9.84,9.84,0,0,1,2.64-4.87,4.9,4.9,0,0,1,2-1.27,3.4,3.4,0,0,1,2.93.33,7.23,7.23,0,0,1,3.24,4.15,3.57,3.57,0,0,1-.93,3.73,9.69,9.69,0,0,1-5.56,2.86,3.86,3.86,0,0,1-.49.06C332.08,116,331.92,116,331.75,116Zm.63-.29a2.88,2.88,0,0,0,.83-.06,3.12,3.12,0,0,0,2.26-2,2.54,2.54,0,0,0,.26-1.21.64.64,0,0,0-.93-.56l-.32.16a2.59,2.59,0,0,1-.38.17,1,1,0,0,1-1.2-.48.93.93,0,0,1,0-1.22c.1-.12.21-.22.32-.34a.67.67,0,0,0-.4-1.14,3.19,3.19,0,0,0-1.73.15,3.06,3.06,0,0,0-2.07,2.2,4.38,4.38,0,0,0,.22,2.55,2.65,2.65,0,0,0,1.74,1.62,4.17,4.17,0,0,0,1.36.17Z" fill="#fff"/><path d="M321.54,116a10.33,10.33,0,0,1-5.86-1.83,8.11,8.11,0,0,1-1.7-1.61,3.43,3.43,0,0,1-.51-3.47,7.83,7.83,0,0,1,1.75-2.83,5.62,5.62,0,0,1,2.66-1.6,3,3,0,0,1,2.2.36,8,8,0,0,1,3.92,5,8.18,8.18,0,0,1,.37,2.74,5.17,5.17,0,0,1-.75,2.32,2,2,0,0,1-1.79.89Zm-4.61-3.63c0,.11,0,.27,0,.43a2.09,2.09,0,0,0,.08.36,3.17,3.17,0,0,0,2.22,2.41,5.06,5.06,0,0,0,1.1.1,2.76,2.76,0,0,0,1.84-.45,3,3,0,0,0,1.45-2.86c0-.53-.48-.89-1-.47a2,2,0,0,1-.31.19,1,1,0,0,1-1.09-.1,1,1,0,0,1-.07-1.71l.17-.17a.61.61,0,0,0,.06-.81.84.84,0,0,0-.6-.36,4.44,4.44,0,0,0-1,0,3.36,3.36,0,0,0-2.83,3.41Z" fill="#fff"/><path d="M330.53,101.83l0,0h0s0,0,0,0Z" fill="#060707"/><path d="M335.1,127.94a3.53,3.53,0,0,1-1.43,2.73,17.49,17.49,0,0,1-4.13,2.37.67.67,0,0,1-.63,0,.41.41,0,0,1-.15-.68c.33-.47.65-.93.95-1.42a6.17,6.17,0,0,0,.93-2.89,2.28,2.28,0,0,1,.6-1.54,2.08,2.08,0,0,1,2.66-.22,4,4,0,0,1,1,1A.91.91,0,0,1,335.1,127.94Z" fill="#060707"/><path d="M318.66,128.31a2.53,2.53,0,0,1,2.08-2.37,2,2,0,0,1,2.36,2,5.93,5.93,0,0,0,1.2,3.42,2.65,2.65,0,0,0,.21.26.31.31,0,0,1,.12.28c0,.09.07.15.13.21a1.37,1.37,0,0,1,.3.45.27.27,0,0,1-.09.37.63.63,0,0,1-.59.16,3.62,3.62,0,0,1-.63-.22,23,23,0,0,1-3-1.67,5.9,5.9,0,0,1-1.81-1.81A2,2,0,0,1,318.66,128.31Z" fill="#060707"/><path d="M318.56,133.37c.63.35,1.26.72,1.91,1a17.31,17.31,0,0,0,4.69,1.69,9.55,9.55,0,0,0,5.8-.65,17.61,17.61,0,0,0,3.41-2.11c.05,0,.09-.08.15-.09h0a4.13,4.13,0,0,1-.56.9,8.83,8.83,0,0,1-4.8,3.37,8.71,8.71,0,0,1-5.13-.21,11.32,11.32,0,0,1-5.35-3.75c-.05-.06-.13-.12-.13-.21Z" fill="#fff"/><path d="M334.53,133.26v0h0a0,0,0,0,0,0,0Z" fill="#fff"/><path d="M318.56,133.37h0Z" fill="#fff"/><path d="M327.91,88.29a2.13,2.13,0,0,0,.11.5,3.75,3.75,0,0,1-.48,2.45,3,3,0,0,1-.35.53,8.57,8.57,0,0,1-.9-3.14,10.55,10.55,0,0,0-1,2.87,8.33,8.33,0,0,0-.5-1.15,10.4,10.4,0,0,0-.77-1.18,3,3,0,0,1,2.11-1.25l.14,0a1.69,1.69,0,0,0,.45,0,3.88,3.88,0,0,1,1.06.29A.26.26,0,0,1,327.91,88.29Z" fill="#348fc0"/><path d="M326.26,84.37a1.42,1.42,0,1,1,.54-2.78,1.54,1.54,0,0,1,.62.29,1.42,1.42,0,0,1,.23,2,1.38,1.38,0,0,1-.95.54A1.63,1.63,0,0,1,326.26,84.37Z" fill="#348fc0"/><path d="M326.26,84.37a1.62,1.62,0,0,0,.44,0c0,1,0,2.06,0,3.08v.43a1.77,1.77,0,0,1-.46,0Z" fill="#060707"/><path d="M329.5,90.45a4,4,0,0,0-.34.5,13.53,13.53,0,0,0-1.22-2.65,2.25,2.25,0,0,1,.9.72,2.85,2.85,0,0,1,.63,1.35Z" fill="#348fc0"/><path d="M322.41,89.71a1.56,1.56,0,0,1-.17-.64,4.09,4.09,0,0,1,0-1.26.21.21,0,0,1,0-.06C322.33,88.4,322.38,89.06,322.41,89.71Z" fill="#4b3938"/><path d="M323.31,88.45l0,0,0,0v0Z" fill="#060707"/><path d="M328.16,95.9h0Z" fill="#4b3938"/><path d="M332.38,115.69a4.46,4.46,0,0,1-1.36-.18,2.61,2.61,0,0,1-1.74-1.62,4.36,4.36,0,0,1-.22-2.55,3.08,3.08,0,0,1,2.07-2.2,3.19,3.19,0,0,1,1.73-.15.68.68,0,0,1,.4,1.14c-.1.12-.22.22-.32.35a.91.91,0,0,0,0,1.21,1,1,0,0,0,1.2.48,1.63,1.63,0,0,0,.38-.17l.32-.16a.65.65,0,0,1,.93.56,2.49,2.49,0,0,1-.26,1.21,3.17,3.17,0,0,1-2.26,2A2.88,2.88,0,0,1,332.38,115.69Z" fill="#060707"/><path d="M316.93,112.4a3.38,3.38,0,0,1,2.83-3.41,4.36,4.36,0,0,1,1,0,.83.83,0,0,1,.61.36.61.61,0,0,1-.07.81l-.16.17a1,1,0,0,0,.07,1.71,1,1,0,0,0,1.09.1,3,3,0,0,0,.3-.19c.54-.42,1-.06,1,.47a3,3,0,0,1-1.45,2.86,2.78,2.78,0,0,1-1.85.45,5,5,0,0,1-1.09-.1,3.16,3.16,0,0,1-2.23-2.41c0-.12,0-.23-.07-.36A3.88,3.88,0,0,1,316.93,112.4Z" fill="#060707"/></svg>