<?xml version="1.0" encoding="utf-8"?>
<!-- Generator: Adobe Illustrator 22.0.0, SVG Export Plug-In . SVG Version: 6.00 Build 0)  -->
<svg version="1.1" id="Layer_1" xmlns="http://www.w3.org/2000/svg" xmlns:xlink="http://www.w3.org/1999/xlink" x="0px" y="0px"
	 viewBox="0 0 34 32" style="enable-background:new 0 0 34 32;" xml:space="preserve">
<style type="text/css">
	.st0{fill:#FFFFFF;stroke:#FFFFFF;stroke-miterlimit:10;}
	.st1{fill:#F0A64F;}
	.st2{fill:#FFFFFF;}
	.st3{fill:#F15A29;}
	.st4{fill:#563A39;}
	.st5{fill:#AF8070;}
	.st6{fill:#348FC0;}
	.st7{fill:#060707;}
	.st8{fill:#4B3938;}
</style>
<g>
	<path class="st0" d="M7,28.6c0-3.6,0-7.2,0-10.9c0-0.2-0.1-0.5,0-0.7c0.1-0.2,0.3-0.4,0.5-0.7C7.7,16.6,8,16.8,8,17
		c0.1,0.4,0,0.8,0,1.2c0,3,0,6,0,9.2c1.9,0,3.7,0,5.5,0c0-2.3,0-4.7,0-7.1c2.3,0,4.4,0,6.7,0c0,2.4,0,4.7,0,7.1c1.9,0,3.7,0,5.6,0
		c0-1.5,0-3,0-4.4c0-1.7,0-3.3,0-5c0-0.4,0.3-0.7,0.5-1.1c0.2,0.4,0.5,0.8,0.6,1.1c0,3.5,0,7,0,10.5c-2.6,0-5.2,0-7.7,0
		c0-2.4,0-4.8,0-7.2c-1.6,0-3.1,0-4.6,0c0,2.5,0,4.8,0,7.2C12.1,28.6,9.5,28.6,7,28.6z"/>
	<path class="st0" d="M3.6,16.1C8.1,11.9,12.5,7.7,17,3.4c4.5,4.3,8.9,8.5,13.4,12.7c0,0.2,0,0.4,0,0.6c-0.6,0.4-0.9,0.1-1.3-0.3
		c-3.7-3.6-7.4-7.1-11.2-10.7c-0.3-0.3-0.6-0.5-0.9-0.8c-0.3,0.3-0.6,0.5-0.9,0.8C12.4,9.3,8.7,12.8,5,16.3
		c-0.4,0.4-0.8,0.8-1.4,0.4C3.6,16.5,3.6,16.3,3.6,16.1z"/>
	<path class="st0" d="M25.9,5.2c0,1.5,0,2.8,0,4.2c0,0.3-0.4,0.5-0.6,0.8c-0.2-0.3-0.5-0.5-0.5-0.8c-0.1-1,0-2,0-3.1
		c-1.1,0-2,0-2.9,0c-0.3,0-0.6-0.4-0.9-0.5c0.3-0.2,0.6-0.5,0.9-0.5C23.1,5.2,24.5,5.2,25.9,5.2z"/>
</g>
</svg>
