<?xml version="1.0" encoding="utf-8"?>
<!-- Generator: Adobe Illustrator 22.0.0, SVG Export Plug-In . SVG Version: 6.00 Build 0)  -->
<svg version="1.1" id="Layer_1" xmlns="http://www.w3.org/2000/svg" xmlns:xlink="http://www.w3.org/1999/xlink" x="0px" y="0px"
	 viewBox="0 0 94.2 75.5" style="enable-background:new 0 0 94.2 75.5;" xml:space="preserve">
<style type="text/css">
	.st0{fill:none;stroke:#F59337;stroke-width:2;stroke-miterlimit:10;}
	.st1{fill:#FFFFFF;}
	.st2{fill:#FFFFFF;stroke:#313333;stroke-width:2;stroke-miterlimit:10;}
	.st3{fill:#323232;}
	.st4{fill:#F59337;}
	.st5{fill:none;stroke:#313333;stroke-width:2;stroke-miterlimit:10;}
	.st6{fill:none;stroke:#FFFFFF;stroke-width:2;stroke-miterlimit:10;}
	.st7{fill:#313333;}
	.st8{fill:none;stroke:#F69437;stroke-width:2;stroke-miterlimit:10;}
	.st9{fill:#626364;}
	.st10{fill:#F69437;}
	.st11{fill:#F5963B;}
	.st12{fill:#F9C89A;}
	.st13{fill:none;stroke:#313333;stroke-width:3;stroke-miterlimit:10;}
	.st14{fill:#313333;stroke:#FFFFFF;stroke-width:0.5;stroke-miterlimit:10;}
</style>
<g>
	<path class="st0" d="M80.9,74.2H13.2c-6.6,0-12-5.4-12-12V18.7c0-6.6,5.4-12,12-12h67.7c6.6,0,12,5.4,12,12v43.5
		C92.9,68.8,87.5,74.2,80.9,74.2z"/>
	<path class="st1" d="M65.9,11.6H28.3c-2.8,0-5.2-2.3-5.2-5.2v0c0-2.8,2.3-5.2,5.2-5.2h37.6c2.8,0,5.2,2.3,5.2,5.2v0
		C71,9.3,68.7,11.6,65.9,11.6z"/>
	<line class="st2" x1="47.1" y1="33" x2="47.1" y2="40.7"/>
	<line class="st2" x1="50.9" y1="36.8" x2="43.2" y2="36.8"/>
	<g>
		<g>
			<path class="st3" d="M16.8,57.4H21v0.9h-3.1v1.4h2.8v0.9h-2.8v1.4h3.2V63h-4.3V57.4z"/>
			<path class="st3" d="M26.1,57.7c0.3,0.3,0.5,0.6,0.5,1c0,0.3-0.1,0.6-0.3,0.8C26.2,59.8,26,60,25.7,60c0.4,0.1,0.7,0.2,0.9,0.5
				c0.2,0.3,0.3,0.6,0.3,0.9c0,0.5-0.2,0.9-0.6,1.1c-0.4,0.3-0.9,0.4-1.5,0.4h-2.6v-5.7h2.5C25.3,57.4,25.8,57.5,26.1,57.7z
				 M25.3,59.5c0.2-0.1,0.2-0.3,0.2-0.5c0-0.2-0.1-0.4-0.2-0.5c-0.2-0.1-0.4-0.2-0.7-0.2h-1.4v1.4h1.4
				C24.9,59.7,25.2,59.6,25.3,59.5z M25.5,61.9c0.2-0.1,0.3-0.3,0.3-0.6c0-0.2-0.1-0.4-0.3-0.5c-0.2-0.1-0.5-0.2-0.8-0.2h-1.4v1.5
				h1.4C25,62.1,25.3,62,25.5,61.9z"/>
			<path class="st3" d="M30.6,58.4c-0.3-0.1-0.6-0.1-0.8-0.1c-0.3,0-0.5,0-0.6,0.1C29,58.5,29,58.6,29,58.8c0,0.2,0.1,0.3,0.2,0.4
				c0.1,0.1,0.2,0.2,0.4,0.3c0.2,0.1,0.4,0.1,0.7,0.2c0.4,0.1,0.7,0.2,0.9,0.3c0.2,0.1,0.5,0.3,0.6,0.5c0.2,0.2,0.3,0.5,0.3,0.9
				c0,0.3-0.1,0.6-0.3,0.9c-0.2,0.3-0.4,0.5-0.8,0.6c-0.3,0.1-0.7,0.2-1.1,0.2c-0.4,0-0.9-0.1-1.3-0.2c-0.4-0.2-0.8-0.4-1.1-0.7
				l0.5-0.9c0.3,0.3,0.6,0.5,1,0.6c0.4,0.2,0.7,0.2,1,0.2c0.3,0,0.5-0.1,0.7-0.2c0.2-0.1,0.3-0.3,0.3-0.5c0-0.2-0.1-0.3-0.2-0.4
				c-0.1-0.1-0.2-0.2-0.4-0.3c-0.2-0.1-0.4-0.1-0.7-0.2c-0.4-0.1-0.7-0.2-0.9-0.3c-0.2-0.1-0.5-0.3-0.6-0.5
				c-0.2-0.2-0.3-0.5-0.3-0.9c0-0.3,0.1-0.6,0.3-0.9c0.2-0.2,0.4-0.4,0.7-0.6c0.3-0.1,0.7-0.2,1.1-0.2c0.4,0,0.7,0.1,1.1,0.2
				c0.4,0.1,0.7,0.3,1,0.4l-0.4,0.9C31.2,58.6,30.9,58.5,30.6,58.4z"/>
		</g>
		<g>
			<path class="st3" d="M62.2,57.4h4.2v0.9h-3.1v1.4H66v0.9h-2.8v1.4h3.2V63h-4.3V57.4z"/>
			<path class="st3" d="M71.5,57.7c0.3,0.3,0.5,0.6,0.5,1c0,0.3-0.1,0.6-0.3,0.8C71.6,59.8,71.3,60,71,60c0.4,0.1,0.7,0.2,0.9,0.5
				c0.2,0.3,0.3,0.6,0.3,0.9c0,0.5-0.2,0.9-0.6,1.1c-0.4,0.3-0.9,0.4-1.5,0.4h-2.6v-5.7h2.5C70.7,57.4,71.1,57.5,71.5,57.7z
				 M70.7,59.5c0.2-0.1,0.2-0.3,0.2-0.5c0-0.2-0.1-0.4-0.2-0.5c-0.2-0.1-0.4-0.2-0.7-0.2h-1.4v1.4H70C70.3,59.7,70.5,59.6,70.7,59.5
				z M70.8,61.9c0.2-0.1,0.3-0.3,0.3-0.6c0-0.2-0.1-0.4-0.3-0.5c-0.2-0.1-0.5-0.2-0.8-0.2h-1.4v1.5H70C70.3,62.1,70.6,62,70.8,61.9z
				"/>
			<path class="st3" d="M75.9,58.4c-0.3-0.1-0.6-0.1-0.8-0.1c-0.3,0-0.5,0-0.6,0.1c-0.2,0.1-0.2,0.2-0.2,0.4c0,0.2,0.1,0.3,0.2,0.4
				c0.1,0.1,0.2,0.2,0.4,0.3c0.2,0.1,0.4,0.1,0.7,0.2c0.4,0.1,0.7,0.2,0.9,0.3c0.2,0.1,0.5,0.3,0.6,0.5c0.2,0.2,0.3,0.5,0.3,0.9
				c0,0.3-0.1,0.6-0.3,0.9c-0.2,0.3-0.4,0.5-0.8,0.6c-0.3,0.1-0.7,0.2-1.1,0.2c-0.4,0-0.9-0.1-1.3-0.2c-0.4-0.2-0.8-0.4-1.1-0.7
				l0.5-0.9c0.3,0.3,0.6,0.5,1,0.6c0.4,0.2,0.7,0.2,1,0.2c0.3,0,0.5-0.1,0.7-0.2c0.2-0.1,0.3-0.3,0.3-0.5c0-0.2-0.1-0.3-0.2-0.4
				c-0.1-0.1-0.2-0.2-0.4-0.3c-0.2-0.1-0.4-0.1-0.7-0.2c-0.4-0.1-0.7-0.2-0.9-0.3c-0.2-0.1-0.5-0.3-0.6-0.5
				c-0.2-0.2-0.3-0.5-0.3-0.9c0-0.3,0.1-0.6,0.3-0.9c0.2-0.2,0.4-0.4,0.7-0.6c0.3-0.1,0.7-0.2,1.1-0.2c0.4,0,0.7,0.1,1.1,0.2
				c0.4,0.1,0.7,0.3,1,0.4l-0.4,0.9C76.5,58.6,76.2,58.5,75.9,58.4z"/>
		</g>
	</g>
	<g>
		<path class="st4" d="M30,2.9c0.5,0.3,1,0.7,1.3,1.2c0.3,0.5,0.5,1.1,0.5,1.8c0,0.6-0.2,1.2-0.5,1.8C31,8.2,30.6,8.6,30,8.9
			c-0.5,0.3-1.2,0.5-1.8,0.5c-0.7,0-1.3-0.2-1.8-0.5c-0.5-0.3-1-0.7-1.3-1.3c-0.3-0.5-0.5-1.1-0.5-1.8c0-0.6,0.2-1.2,0.5-1.8
			c0.3-0.5,0.7-0.9,1.3-1.2c0.5-0.3,1.2-0.5,1.8-0.5C28.9,2.4,29.5,2.6,30,2.9z M27.1,3.9c-0.4,0.2-0.6,0.5-0.8,0.8
			c-0.2,0.3-0.3,0.7-0.3,1.2S26,6.7,26.2,7c0.2,0.4,0.5,0.6,0.8,0.8c0.3,0.2,0.7,0.3,1.1,0.3c0.4,0,0.8-0.1,1.1-0.3
			C29.7,7.7,30,7.4,30.2,7c0.2-0.4,0.3-0.7,0.3-1.2s-0.1-0.8-0.3-1.2c-0.2-0.3-0.5-0.6-0.8-0.8c-0.3-0.2-0.7-0.3-1.1-0.3
			C27.8,3.6,27.4,3.7,27.1,3.9z"/>
		<path class="st4" d="M37.2,4.4c0.4,0.2,0.7,0.5,0.9,0.9c0.2,0.4,0.3,0.9,0.3,1.4c0,0.5-0.1,1-0.3,1.4c-0.2,0.4-0.5,0.7-0.8,0.9
			c-0.4,0.2-0.8,0.3-1.3,0.3c-0.4,0-0.7-0.1-1-0.2c-0.3-0.2-0.5-0.4-0.7-0.7v2.7h-1.3v-7h1.3V5c0.2-0.3,0.4-0.5,0.7-0.7
			c0.3-0.2,0.6-0.2,1-0.2C36.4,4.1,36.8,4.2,37.2,4.4z M36.7,7.8c0.3-0.3,0.4-0.7,0.4-1.1c0-0.5-0.1-0.8-0.4-1.1
			c-0.3-0.3-0.6-0.4-1-0.4c-0.4,0-0.8,0.1-1,0.4c-0.3,0.3-0.4,0.7-0.4,1.1c0,0.5,0.1,0.8,0.4,1.1c0.3,0.3,0.6,0.4,1,0.4
			C36,8.2,36.4,8.1,36.7,7.8z"/>
		<path class="st4" d="M43.4,4.8c0.4,0.5,0.6,1.1,0.6,2c0,0.2,0,0.3,0,0.4h-3.8c0.1,0.4,0.3,0.7,0.5,0.9c0.3,0.2,0.6,0.3,1,0.3
			c0.3,0,0.5,0,0.8-0.1c0.2-0.1,0.5-0.2,0.6-0.4l0.7,0.7c-0.3,0.3-0.6,0.5-0.9,0.7c-0.4,0.2-0.8,0.2-1.2,0.2c-0.5,0-1-0.1-1.4-0.3
			c-0.4-0.2-0.7-0.5-0.9-0.9c-0.2-0.4-0.3-0.8-0.3-1.4s0.1-1,0.3-1.4c0.2-0.4,0.5-0.7,0.9-0.9c0.4-0.2,0.8-0.3,1.4-0.3
			C42.4,4.1,43,4.3,43.4,4.8z M42.9,6.3c0-0.4-0.1-0.7-0.4-0.9C42.3,5.2,42,5,41.6,5c-0.4,0-0.7,0.1-0.9,0.3s-0.4,0.5-0.5,0.9H42.9z
			"/>
		<path class="st4" d="M49.6,4.6C49.9,5,50.1,5.4,50.1,6v3.2h-1.3V6.4c0-0.4-0.1-0.6-0.3-0.9c-0.2-0.2-0.5-0.3-0.8-0.3
			c-0.4,0-0.7,0.1-1,0.4c-0.2,0.3-0.4,0.6-0.4,1.1v2.5h-1.3V4.1h1.3v1c0.4-0.7,1-1,1.8-1C48.8,4.1,49.3,4.2,49.6,4.6z"/>
		<path class="st4" d="M51.6,2.5h4.9v1.1h-3.6v1.7h3.3v1.1h-3.3v1.7h3.8v1.1h-5V2.5z"/>
		<path class="st4" d="M62.6,3c0.4,0.3,0.6,0.7,0.6,1.2c0,0.4-0.1,0.7-0.3,1c-0.2,0.3-0.5,0.4-0.9,0.5c0.4,0.1,0.8,0.3,1.1,0.6
			c0.3,0.3,0.4,0.7,0.4,1.1c0,0.6-0.2,1-0.7,1.4c-0.4,0.3-1.1,0.5-1.8,0.5h-3.1V2.5h3C61.6,2.5,62.2,2.7,62.6,3z M61.6,5.1
			c0.2-0.1,0.3-0.4,0.3-0.6c0-0.3-0.1-0.5-0.3-0.6c-0.2-0.1-0.5-0.2-0.8-0.2h-1.6v1.6h1.6C61.2,5.3,61.4,5.2,61.6,5.1z M61.8,7.9
			c0.2-0.2,0.3-0.4,0.3-0.7c0-0.3-0.1-0.5-0.3-0.6c-0.2-0.2-0.6-0.2-1-0.2h-1.6v1.8h1.6C61.3,8.1,61.6,8.1,61.8,7.9z"/>
		<path class="st4" d="M67.9,3.8c-0.4-0.1-0.7-0.2-1-0.2c-0.3,0-0.6,0.1-0.7,0.2C66,3.9,66,4,66,4.2c0,0.2,0.1,0.3,0.2,0.5
			c0.1,0.1,0.3,0.2,0.5,0.3c0.2,0.1,0.4,0.2,0.8,0.3c0.5,0.1,0.8,0.3,1.1,0.4C68.8,5.8,69,6,69.3,6.3c0.2,0.3,0.3,0.6,0.3,1
			c0,0.4-0.1,0.8-0.3,1.1c-0.2,0.3-0.5,0.5-0.9,0.7c-0.4,0.2-0.8,0.2-1.3,0.2c-0.5,0-1-0.1-1.5-0.3c-0.5-0.2-0.9-0.5-1.3-0.8
			l0.5-1.1c0.3,0.3,0.7,0.6,1.1,0.7c0.4,0.2,0.8,0.3,1.2,0.3c0.4,0,0.6-0.1,0.8-0.2c0.2-0.1,0.3-0.3,0.3-0.6c0-0.2-0.1-0.4-0.2-0.5
			s-0.3-0.2-0.5-0.3c-0.2-0.1-0.5-0.2-0.8-0.3c-0.5-0.1-0.8-0.3-1.1-0.4c-0.3-0.1-0.5-0.3-0.7-0.6c-0.2-0.3-0.3-0.6-0.3-1
			c0-0.4,0.1-0.7,0.3-1c0.2-0.3,0.5-0.5,0.9-0.7c0.4-0.2,0.8-0.2,1.3-0.2c0.4,0,0.9,0.1,1.3,0.2s0.8,0.3,1.1,0.5L69,4.3
			C68.6,4,68.3,3.9,67.9,3.8z"/>
	</g>
	<g>
		<g>
			<path class="st5" d="M68.8,42.8c0,2.8,0,5.5,0,8.3c0,0.5-0.1,0.6-0.6,0.4c-3.8-1.3-7.6-2.6-11.4-3.9c-0.3-0.1-0.4-0.2-0.4-0.6
				c0-5.5,0-11,0-16.5c0-0.5,0.2-0.4,0.5-0.3c3.8,1.2,7.6,2.5,11.4,3.7c0.4,0.1,0.5,0.3,0.5,0.7C68.8,37.3,68.8,40.1,68.8,42.8z"/>
			<path class="st5" d="M71.8,42.8c0-2.8,0-5.5,0-8.3c0-0.4,0.1-0.6,0.5-0.7c3.8-1.1,7.5-2.3,11.3-3.5c0.5-0.2,0.6,0,0.6,0.5
				c0,5.4,0,10.8,0,16.1c0,0.5-0.2,0.6-0.6,0.8c-3.7,1.3-7.5,2.5-11.2,3.8c-0.6,0.2-0.6,0.1-0.6-0.5C71.8,48.3,71.8,45.5,71.8,42.8
				C71.8,42.8,71.8,42.8,71.8,42.8z"/>
			<path class="st5" d="M81.4,28.4c-1.4,0.5-2.8,0.9-4.2,1.4c-2.1,0.7-4.3,1.4-6.4,2.1c-0.3,0.1-0.6,0.2-0.9,0.1
				c-3.6-1.2-7.2-2.3-10.8-3.4c-0.1,0-0.1-0.1-0.4-0.2c1.2-0.4,2.3-0.7,3.4-1c2.6-0.8,5.1-1.5,7.7-2.3c0.3-0.1,0.6-0.1,0.9,0
				c3.6,1.1,7.2,2.2,10.8,3.3C81.4,28.3,81.4,28.3,81.4,28.4z"/>
		</g>
		<g>
			<line class="st6" x1="71.8" y1="41.7" x2="71.8" y2="43"/>
			<line class="st6" x1="71.8" y1="46.9" x2="71.8" y2="48.1"/>
			<line class="st6" x1="71.8" y1="44.3" x2="71.8" y2="45.5"/>
		</g>
		<g>
			<line class="st6" x1="56.4" y1="32.5" x2="56.4" y2="33.7"/>
			<line class="st6" x1="56.4" y1="37.6" x2="56.4" y2="38.8"/>
			<line class="st6" x1="56.4" y1="35" x2="56.4" y2="36.3"/>
		</g>
	</g>
	<g>
		<g>
			<path class="st5" d="M22.4,42.8c0,2.8,0,5.5,0,8.3c0,0.5-0.1,0.6-0.6,0.4c-3.8-1.3-7.6-2.6-11.4-3.9c-0.3-0.1-0.4-0.2-0.4-0.6
				c0-5.5,0-11,0-16.5c0-0.5,0.2-0.4,0.5-0.3c3.8,1.2,7.6,2.5,11.4,3.7c0.4,0.1,0.5,0.3,0.5,0.7C22.4,37.3,22.4,40.1,22.4,42.8z"/>
			<path class="st5" d="M25.4,42.8c0-2.8,0-5.5,0-8.3c0-0.4,0.1-0.6,0.5-0.7c3.8-1.1,7.5-2.3,11.3-3.5c0.5-0.2,0.6,0,0.6,0.5
				c0,5.4,0,10.8,0,16.1c0,0.5-0.2,0.6-0.6,0.8c-3.7,1.3-7.5,2.5-11.2,3.8c-0.6,0.2-0.6,0.1-0.6-0.5C25.4,48.3,25.4,45.5,25.4,42.8
				C25.4,42.8,25.4,42.8,25.4,42.8z"/>
			<path class="st5" d="M35.1,28.4c-1.4,0.5-2.8,0.9-4.2,1.4c-2.1,0.7-4.3,1.4-6.4,2.1c-0.3,0.1-0.6,0.2-0.9,0.1
				c-3.6-1.2-7.2-2.3-10.8-3.4c-0.1,0-0.1-0.1-0.4-0.2c1.2-0.4,2.3-0.7,3.4-1c2.6-0.8,5.1-1.5,7.7-2.3c0.3-0.1,0.6-0.1,0.9,0
				c3.6,1.1,7.2,2.2,10.8,3.3C35.1,28.3,35.1,28.3,35.1,28.4z"/>
		</g>
		<g>
			<line class="st6" x1="25.4" y1="41.7" x2="25.4" y2="43"/>
			<line class="st6" x1="25.4" y1="46.9" x2="25.4" y2="48.1"/>
			<line class="st6" x1="25.4" y1="44.3" x2="25.4" y2="45.5"/>
		</g>
		<g>
			<line class="st6" x1="10" y1="32.5" x2="10" y2="33.7"/>
			<line class="st6" x1="10" y1="37.6" x2="10" y2="38.8"/>
			<line class="st6" x1="10" y1="35" x2="10" y2="36.3"/>
		</g>
	</g>
</g>
</svg>
