<svg id="Layer_1" data-name="Layer 1" xmlns="http://www.w3.org/2000/svg" viewBox="0 0 2615.56 429.45"><title>mayaonline logo</title><path d="M629.44,68.69,757.35,368.81h-32.6L629.44,141,533.17,368.81h-32.6Z" fill="#f3a74f"/><path d="M840.67,227.53l-19-28.69,61.14-94.42,34.66.49Zm-7,10.63V368.77H802.36V238.16L697.23,68.84h36.11Z" fill="#f3a74f"/><path d="M1007.69,68.74,1135.6,368.86H1103L1007.69,141,911.42,368.86h-32.6Z" fill="#f3a74f"/><polygon points="902.76 68.74 884.54 98.78 921.46 98.78 939.68 68.74 902.76 68.74" fill="#f3a74f"/><path d="M494,210.92a184,184,0,0,0-8.33-35.72,175.65,175.65,0,0,0-48.31-74.68,214.16,214.16,0,0,0-46.56-32.06,5.78,5.78,0,0,0-5.42-.07c-6.46,2.94-12.93,5.86-19.32,9a303.6,303.6,0,0,0-36.9,20.85c-13.29,9-26,18.71-38.83,28.36-3.54,2.67-7,5.39-10.6,8-2.44,1.81-3.92,1.8-6.14-.09-4.48-3.8-9.25-7.22-13.87-10.83C236.29,105.36,211.57,89.08,184.82,76c-5.5-2.7-11.09-5.2-16.69-7.67a5.73,5.73,0,0,0-6.08.41c-.91.63-1.91,1.12-2.87,1.67-6.59,3.83-13.38,7.33-19.66,11.67a208.22,208.22,0,0,0-31.61,26.7A174.65,174.65,0,0,0,77.6,151C64.4,177,58.66,204.67,58.07,233.58a228.44,228.44,0,0,0,1.39,26.92c.8,8.17,1.65,16.33,3.22,24.39a142.89,142.89,0,0,0,17.07,45.72c7.52,12.75,15.19,25.4,22.9,38H157.8c-1.15-3.28-2.31-6.56-3.45-9.84-6.54-18.69-13-37.39-17.88-56.62a326.45,326.45,0,0,1-6.6-32.94c-1-6.71-1.7-13.44-2.14-20.2a79.24,79.24,0,0,1-.39-11.32c.54-6.88,1.17-13.76,1.84-20.63a101.83,101.83,0,0,1,3.91-20.69c3.42-11,8.95-20.68,17.64-28.36a61.08,61.08,0,0,1,34.62-15.37,36.68,36.68,0,0,1,27.35,7.58c6,4.62,10.09,10.64,13.43,17.3,4.68,9.33,7.56,19.26,9.79,29.4a216.47,216.47,0,0,1,4.61,41.69q.36,15-.1,29.91c-.32,10.29-.56,20.58-.8,30.86s-.57,46.49-2.14,56.62c-.37,2.4-.3,2.41,2.13,2.41h73.72c.45,0,.91,0,1.36,0,.74,0,1.1-.28,1-1.05,0-.32,0-.65-.07-1-.77-5.89-1-37.85-1.39-43.77-.64-10.79-1.24-21.59-1.56-32.39-.39-13.55-.45-27.1.11-40.65a276.36,276.36,0,0,1,4.07-38.83c1.71-9.24,3.88-18.36,7.52-27.06,3.47-8.31,7.88-16,14.51-22.28a37.44,37.44,0,0,1,25.94-10.62A46.92,46.92,0,0,1,380,153.29c12.16,3.91,22.47,10.56,30.31,20.79,7.57,9.87,11.44,21.25,13.34,33.39,1.43,9.22,1.91,18.53,2.71,27.81a79.06,79.06,0,0,1-.27,11.51,255.8,255.8,0,0,1-3,26.2,362.47,362.47,0,0,1-11.86,48.95c-4.88,15.71-10.42,31.18-15.85,46.69H450.8c6.74-11,13.51-22,20.14-33.07a156.75,156.75,0,0,0,19.43-49.83,275.58,275.58,0,0,0,5-40.49A197.78,197.78,0,0,0,494,210.92Z" fill="#f3a74f"/><path d="M1303.78,84.13a112.68,112.68,0,0,0-38,10,121,121,0,0,0-38.84,27.68,128,128,0,0,0-25.3,40.44,132.71,132.71,0,0,0,0,96.9,126.19,126.19,0,0,0,25.3,39.94,120.37,120.37,0,0,0,38.64,27.28,117.43,117.43,0,0,0,38.24,9.76v26.49a156.24,156.24,0,0,1-48.6-11.15,149.63,149.63,0,0,1-48.9-32.17,153.17,153.17,0,0,1-32.86-48.4q-12.06-27.78-12.05-60.25a147.5,147.5,0,0,1,12.25-59.85,155.23,155.23,0,0,1,82-81.77,149,149,0,0,1,48.2-11.55Zm15.74,252.36q25.1-.8,45.81-9.76A115.69,115.69,0,0,0,1404,299.84a120.82,120.82,0,0,0,24.89-39.93,135,135,0,0,0,8.77-48.9,141,141,0,0,0-8.77-50.29,121.57,121.57,0,0,0-24.69-40.34,113.52,113.52,0,0,0-38.45-26.89q-20.91-9-46.2-9.76V57a159.37,159.37,0,0,1,56.56,11.55,147.72,147.72,0,0,1,81,81A155.67,155.67,0,0,1,1468.7,210q0,33.08-11.85,61.05a151.51,151.51,0,0,1-32.47,48.6,145.28,145.28,0,0,1-48.5,32A161.41,161.41,0,0,1,1319.52,363Z" fill="#454745"/><path d="M1501.17,56.13l219.49,239V65.89h31.07V374.21L1532.24,134.8V363.66h-31.07Z" fill="#454745"/><path d="M1796.64,66.47h31.07V337.75h133.85v26.49H1796.64Z" fill="#454745"/><path d="M2006.44,66.66h31.07V364.44h-31.07Z" fill="#454745"/><path d="M2082.2,57.06l219.49,239V66.81h31.07V375.14L2113.27,135.73V364.59H2082.2Z" fill="#454745"/><path d="M2377.79,337.75h183.44v26.49H2378ZM2378,66.47h183.25V93H2378Zm0,131.65h175.88v26.7H2378Z" fill="#454745"/></svg>