<svg id="Layer_1" data-name="Layer 1" xmlns="http://www.w3.org/2000/svg" viewBox="0 0 1180 180"><title>logo maya</title><path d="M278.74,21.06,337,157.86H322.18L278.74,54,234.85,157.86H220Z" fill="#f0a64f"/><path d="M375,93.46l-8.69-13.08,26.48-40.85,15.8.23Zm-3.2,4.84v59.54H357.56V98.3L309.64,21.12H326.1Z" fill="#f0a64f"/><path d="M451.15,21.08l58.31,136.8H494.6L451.15,54,407.27,157.88H392.41Z" fill="#f0a64f"/><polygon points="403.32 21.08 395.02 34.77 411.84 34.77 420.15 21.08 403.32 21.08" fill="#f0a64f"/><path d="M216.11,87a83.18,83.18,0,0,0-3.75-16.09A79.26,79.26,0,0,0,190.6,37.24a96.54,96.54,0,0,0-21-14.44,2.6,2.6,0,0,0-2.44,0c-2.91,1.32-5.82,2.64-8.7,4a137.2,137.2,0,0,0-16.62,9.4c-6,4-11.73,8.42-17.5,12.77-1.59,1.2-3.17,2.43-4.77,3.62a1.84,1.84,0,0,1-2.77,0c-2-1.71-4.16-3.25-6.24-4.88A191.56,191.56,0,0,0,76.85,26.19c-2.48-1.22-5-2.34-7.52-3.46a2.58,2.58,0,0,0-2.74.19c-.41.28-.86.5-1.29.75-3,1.72-6,3.3-8.86,5.26A93.92,93.92,0,0,0,42.2,41,78.74,78.74,0,0,0,28.55,60C22.6,71.67,20,84.16,19.75,97.18a102.57,102.57,0,0,0,.63,12.13c.36,3.68.74,7.35,1.45,11a64.26,64.26,0,0,0,7.69,20.59c3.38,5.74,6.84,11.44,10.31,17.13H64.67c-.51-1.48-1-3-1.55-4.44-2.95-8.42-5.87-16.84-8-25.5a147,147,0,0,1-3-14.84c-.43-3-.76-6-1-9.1A34.74,34.74,0,0,1,51,99c.24-3.1.52-6.2.82-9.29a46.17,46.17,0,0,1,1.76-9.32,27.35,27.35,0,0,1,23.54-19.7,16.55,16.55,0,0,1,12.33,3.41,22.08,22.08,0,0,1,6,7.8,55.7,55.7,0,0,1,4.41,13.24A96.53,96.53,0,0,1,101.94,104q.16,6.74,0,13.47c-.15,4.64-.26,9.27-.36,13.91s-.26,20.93-1,25.5c-.17,1.08-.14,1.09,1,1.09h33.82c.33,0,.5-.13.46-.47,0-.15,0-.3,0-.44-.35-2.65-.47-17-.63-19.71-.29-4.87-.56-9.73-.7-14.6-.17-6.1-.2-12.2.05-18.31a123.64,123.64,0,0,1,1.84-17.49,59.27,59.27,0,0,1,3.38-12.19,28.47,28.47,0,0,1,6.54-10,16.87,16.87,0,0,1,11.68-4.79A21,21,0,0,1,164.77,61a27.17,27.17,0,0,1,13.65,9.37,32.25,32.25,0,0,1,6,15c.65,4.15.86,8.35,1.23,12.52a36,36,0,0,1-.13,5.19,113.9,113.9,0,0,1-1.34,11.8,163.21,163.21,0,0,1-5.34,22c-2.2,7.08-4.7,14.05-7.14,21h24.95c3-5,6.08-9.91,9.07-14.9a70.28,70.28,0,0,0,8.75-22.45,124.16,124.16,0,0,0,2.24-18.24A88.78,88.78,0,0,0,216.11,87Z" fill="#f0a64f"/><path d="M587.1,30.06a51.26,51.26,0,0,0-17.35,4.54,55.09,55.09,0,0,0-17.7,12.62,58.19,58.19,0,0,0-11.53,18.43,60.43,60.43,0,0,0,0,44.17A57.57,57.57,0,0,0,552.05,128a54.88,54.88,0,0,0,17.61,12.44,53.77,53.77,0,0,0,17.44,4.45V157a71.3,71.3,0,0,1-22.16-5.08,68.18,68.18,0,0,1-22.29-14.67,69.72,69.72,0,0,1-15-22.06,68.29,68.29,0,0,1-5.49-27.46,67.31,67.31,0,0,1,5.58-27.28,72.12,72.12,0,0,1,15.07-22.25,71.24,71.24,0,0,1,22.29-15,68,68,0,0,1,22-5.27Zm7.17,115a56.72,56.72,0,0,0,20.88-4.45,52.63,52.63,0,0,0,17.61-12.26,55,55,0,0,0,11.35-18.2,61.67,61.67,0,0,0,4-22.29,64.41,64.41,0,0,0-4-22.92,55.48,55.48,0,0,0-11.26-18.39,51.8,51.8,0,0,0-17.52-12.26,57.68,57.68,0,0,0-21.06-4.44V17.71A72.46,72.46,0,0,1,620.05,23,67.31,67.31,0,0,1,657,59.88a71,71,0,0,1,5.31,27.56,70.59,70.59,0,0,1-5.4,27.82,69.29,69.29,0,0,1-14.8,22.16A66.37,66.37,0,0,1,620,152a73.5,73.5,0,0,1-25.69,5.17Z" fill="#fff"/><path d="M677.07,17.29l100,109V21.74h14.16V162.28l-100-109.13V157.47H677.07Z" fill="#fff"/><path d="M811.75,22h14.16V145.66h61v12.08H811.75Z" fill="#fff"/><path d="M907.38,22.1h14.16V157.83H907.38Z" fill="#fff"/><path d="M941.91,17.72,1042,126.66V22.17h14.16V162.71l-100-109.13V157.9H941.91Z" fill="#fff"/><path d="M1076.64,145.66h83.62v12.08h-83.52Zm.1-123.65h83.52V34.08h-83.52Zm0,60h80.16V94.18h-80.16Z" fill="#fff"/></svg>