<svg id="Layer_1" data-name="Layer 1" xmlns="http://www.w3.org/2000/svg" viewBox="0 0 948 178"><title>logo maya</title><path d="M276.07,22.57l58.82,138h-15L276.07,55.82,231.79,160.59h-15Z" fill="#f0a64f"/><path d="M373.21,95.61l-8.76-13.19,26.71-41.21,15.94.22ZM370,100.5v60.06H355.59V100.5L307.24,22.63h16.61Z" fill="#f0a64f"/><path d="M450,22.59l58.82,138h-15L450,55.84,405.75,160.61h-15Z" fill="#f0a64f"/><polygon points="401.76 22.59 393.38 36.4 410.36 36.4 418.74 22.59 401.76 22.59" fill="#f0a64f"/><path d="M212.88,89.07a83.71,83.71,0,0,0-3.78-16.23,79.85,79.85,0,0,0-22-33.94A96.92,96.92,0,0,0,166,24.33a2.61,2.61,0,0,0-2.46,0c-2.94,1.34-5.88,2.67-8.78,4.09A137.47,137.47,0,0,0,138,37.85c-6,4.08-11.83,8.5-17.65,12.89-1.61,1.21-3.2,2.45-4.82,3.65-1.11.82-1.78.82-2.79,0-2-1.73-4.2-3.28-6.3-4.92a193.69,193.69,0,0,0-34-21.69c-2.5-1.22-5-2.36-7.59-3.48a2.6,2.6,0,0,0-2.76.18c-.41.29-.87.51-1.3.77-3,1.73-6.09,3.32-8.94,5.3A94.58,94.58,0,0,0,37.43,42.64a79.11,79.11,0,0,0-13.78,19.2c-6,11.79-8.61,24.39-8.88,37.53a104.16,104.16,0,0,0,.64,12.23c.36,3.72.74,7.42,1.46,11.09a64.87,64.87,0,0,0,7.76,20.78C28,149.26,31.53,155,35,160.75H60.1q-.8-2.24-1.57-4.48c-3-8.49-5.93-17-8.13-25.73a146.26,146.26,0,0,1-3-15c-.44-3-.78-6.11-1-9.18a35.33,35.33,0,0,1-.17-5.14c.24-3.13.53-6.26.83-9.38a46.38,46.38,0,0,1,1.78-9.41A27.59,27.59,0,0,1,72.62,62.59,16.67,16.67,0,0,1,85.05,66a22.24,22.24,0,0,1,6.1,7.86A56.26,56.26,0,0,1,95.6,87.26a99,99,0,0,1,2.1,18.95q.15,6.8,0,13.59c-.15,4.68-.25,9.35-.36,14s-.26,21.12-1,25.73c-.16,1.09-.13,1.09,1,1.09h34.13c.33,0,.5-.13.46-.48,0-.14,0-.29,0-.44-.35-2.67-.47-17.2-.63-19.89-.3-4.9-.57-9.81-.71-14.72-.18-6.16-.21-12.32.05-18.48A124.29,124.29,0,0,1,132.4,89a59.54,59.54,0,0,1,3.41-12.3,28.75,28.75,0,0,1,6.6-10.12,17,17,0,0,1,11.79-4.83,21.22,21.22,0,0,1,6.89,1.13,27.4,27.4,0,0,1,13.77,9.45,32.54,32.54,0,0,1,6.06,15.17c.66,4.19.87,8.42,1.24,12.64a36.55,36.55,0,0,1-.13,5.23,116,116,0,0,1-1.35,11.91,165,165,0,0,1-5.39,22.25c-2.22,7.13-4.74,14.17-7.21,21.22h25.18c3.06-5,6.14-10,9.15-15a71.29,71.29,0,0,0,8.83-22.65,125.15,125.15,0,0,0,2.26-18.4A89.37,89.37,0,0,0,212.88,89.07Z" fill="#f0a64f"/><path d="M530,23.57h38.1c2.47,0,5.47.13,9,.37a86.26,86.26,0,0,1,10.07,1.26A69,69,0,0,1,608,32.65a60.65,60.65,0,0,1,16.94,13.86A65,65,0,0,1,636.3,66.2a70.33,70.33,0,0,1,4.16,24.65,69.34,69.34,0,0,1-3.8,23.34,67.79,67.79,0,0,1-10.43,19.24,63.29,63.29,0,0,1-15.8,14.45,66.66,66.66,0,0,1-19.73,8.62,49.08,49.08,0,0,1-10.25,1.72q-5.46.36-12,.36H530Zm37.74,123c3.85,0,7.44-.12,10.75-.36a50.52,50.52,0,0,0,24.88-8.72,53.26,53.26,0,0,0,12.19-11.92A54.64,54.64,0,0,0,623.53,110a59.9,59.9,0,0,0,2.84-18.65,64.94,64.94,0,0,0-2.93-20,52.44,52.44,0,0,0-8.31-16,48,48,0,0,0-12.87-11.56A54.72,54.72,0,0,0,585.73,37a52,52,0,0,0-8.89-1.17q-5-.28-9.08-.28H544.1v111Z" fill="#fff"/><path d="M698.72,17.25,759,158.58H743.6L698.72,51.3,653.39,158.58H638Z" fill="#fff"/><path d="M777.51,35.58h-36v-12h86v12H791.6v123H777.51Z" fill="#fff"/><path d="M873,17.25l60.23,141.33H917.89L873,51.3,827.67,158.58H812.32Z" fill="#fff"/></svg>