<?xml version="1.0" encoding="utf-8"?>
<!-- Generator: Adobe Illustrator 22.0.0, SVG Export Plug-In . SVG Version: 6.00 Build 0)  -->
<svg version="1.1" id="Layer_1" xmlns="http://www.w3.org/2000/svg" xmlns:xlink="http://www.w3.org/1999/xlink" x="0px" y="0px"
	 viewBox="0 0 365 313.3" style="enable-background:new 0 0 365 313.3;" xml:space="preserve">
<style type="text/css">
	.st0{stroke:#000000;stroke-miterlimit:10;}
	.st1{fill:#FFFFFF;stroke:#FFFFFF;stroke-miterlimit:10;}
	.st2{fill:#F0A64F;}
	.st3{fill:#FFFFFF;}
	.st4{fill:#AF8070;}
	.st5{clip-path:url(#SVGID_2_);}
	.st6{clip-path:url(#SVGID_2_);fill:#FFFFFF;}
	.st7{fill:#FFFFFF;stroke:#C6C6C6;stroke-width:0.75;stroke-miterlimit:10;}
	.st8{clip-path:url(#SVGID_4_);fill:#FFFFFF;}
	.st9{clip-path:url(#SVGID_4_);}
	.st10{fill:#F69437;stroke:#F69437;stroke-miterlimit:10;}
	.st11{clip-path:url(#SVGID_6_);fill:#F69437;}
	.st12{clip-path:url(#SVGID_6_);fill:#FFFFFF;}
	.st13{clip-path:url(#SVGID_8_);fill:#FFFFFF;stroke:#232323;stroke-width:0.5;stroke-miterlimit:10;}
	.st14{clip-path:url(#SVGID_8_);fill:#232323;}
	.st15{clip-path:url(#SVGID_8_);}
	.st16{clip-path:url(#SVGID_8_);fill:#474747;}
	.st17{fill:#474747;}
	.st18{fill:#232323;stroke:#000000;stroke-miterlimit:10;}
	.st19{fill:#E0E0E0;}
	.st20{fill:#F2A74E;}
	.st21{fill:#F9FBFD;}
	.st22{fill:none;stroke:#AFAFAF;stroke-width:4;stroke-miterlimit:10;}
	.st23{fill:#AFAFAF;}
	.st24{clip-path:url(#SVGID_10_);}
	.st25{clip-path:url(#SVGID_12_);fill:#FFFFFF;stroke:#232323;stroke-width:0.5;stroke-miterlimit:10;}
	.st26{clip-path:url(#SVGID_12_);fill:#232323;}
	.st27{clip-path:url(#SVGID_12_);}
	.st28{clip-path:url(#SVGID_12_);fill:#474747;}
	.st29{fill:#EB592A;}
	.st30{fill:#563B39;}
	.st31{fill:#AE8070;}
	.st32{fill:#358EBF;}
	.st33{fill:#070808;}
	.st34{fill:#4B3938;}
	.st35{fill:#F05A2B;}
	.st36{fill:#107BA4;}
	.st37{fill:#1F3568;}
	.st38{clip-path:url(#SVGID_14_);fill:url(#SVGID_15_);}
	.st39{opacity:3.000000e-02;clip-path:url(#SVGID_14_);fill:#FFFFFF;}
	.st40{opacity:0.17;clip-path:url(#SVGID_14_);fill:#F15A29;}
	.st41{opacity:0.21;clip-path:url(#SVGID_14_);fill:#F69437;}
	.st42{opacity:0.37;fill:#FFFFFF;}
	.st43{fill:#563A39;}
	.st44{fill:#348FC0;}
	.st45{fill:#060707;}
</style>
<g>
	<defs>
		<rect id="SVGID_13_" x="0" y="0.3" width="365" height="252"/>
	</defs>
	<clipPath id="SVGID_2_">
		<use xlink:href="#SVGID_13_"  style="overflow:visible;"/>
	</clipPath>
	<linearGradient id="SVGID_4_" gradientUnits="userSpaceOnUse" x1="-3.674967e-02" y1="126.3154" x2="364.9633" y2="126.3154">
		<stop  offset="0.1538" style="stop-color:#E55626"/>
		<stop  offset="0.9932" style="stop-color:#F69437"/>
	</linearGradient>
	<rect x="0" y="0.3" style="clip-path:url(#SVGID_2_);fill:url(#SVGID_4_);" width="365" height="252"/>
	<polygon style="opacity:3.000000e-02;clip-path:url(#SVGID_2_);fill:#FFFFFF;" points="354.4,66.1 291,87.8 292.1,154.8 
		356.1,174.5 394.6,119.7 	"/>
	<polygon style="opacity:3.000000e-02;clip-path:url(#SVGID_2_);fill:#FFFFFF;" points="40.1,135.2 -1.5,149.4 -0.8,193.3 
		41.2,206.2 66.4,170.3 	"/>
	<polygon style="opacity:0.17;clip-path:url(#SVGID_2_);fill:#F15A29;" points="367.4,163.6 320.5,179.7 321.3,229.2 368.7,243.8 
		397.2,203.2 	"/>
	<polygon style="opacity:3.000000e-02;clip-path:url(#SVGID_2_);fill:#FFFFFF;" points="179.8,56.9 176.2,87.8 204.4,100.7 
		225.5,77.9 210.3,50.8 	"/>
	<polygon style="opacity:3.000000e-02;clip-path:url(#SVGID_2_);fill:#FFFFFF;" points="62,70.4 56.5,118.2 100.1,138.2 
		132.7,102.9 109.2,61 	"/>
	<polygon style="opacity:3.000000e-02;clip-path:url(#SVGID_2_);fill:#FFFFFF;" points="288.9,155.3 285.9,181.3 309.7,192.3 
		327.5,173 314.6,150.2 	"/>
	<polygon style="opacity:0.21;clip-path:url(#SVGID_2_);fill:#F69437;" points="-10,61.6 -15.6,110.1 28.7,130.4 61.8,94.5 37.9,52 
			"/>
	<polygon style="opacity:3.000000e-02;clip-path:url(#SVGID_2_);fill:#FFFFFF;" points="260.8,199.6 255.4,246.1 297.9,265.6 
		329.6,231.2 306.7,190.4 	"/>
	<polygon style="opacity:0.21;clip-path:url(#SVGID_2_);fill:#F69437;" points="63.9,145.9 57,205 111.1,229.8 151.4,186.1 
		122.3,134.2 	"/>
	<polygon style="opacity:0.17;clip-path:url(#SVGID_2_);fill:#F15A29;" points="213.9,71.9 207,131 261.1,155.8 301.4,112.1 
		272.3,60.2 	"/>
	<polygon style="opacity:0.17;clip-path:url(#SVGID_2_);fill:#F15A29;" points="365.9,88.2 329.4,84.8 314.9,118.5 342.5,142.7 
		374,123.9 	"/>
	<polygon style="opacity:0.17;clip-path:url(#SVGID_2_);fill:#F15A29;" points="328.3,153.4 275.7,148.6 254.9,197.2 294.6,232 
		340,205 	"/>
	<polygon style="opacity:0.21;clip-path:url(#SVGID_2_);fill:#F69437;" points="6.9,195.9 0,255 54.1,279.8 94.4,236.1 65.3,184.2 	
		"/>
	<polygon style="opacity:0.21;clip-path:url(#SVGID_2_);fill:#F69437;" points="107.9,79.9 101,139 155.1,163.8 195.4,120.1 
		166.3,68.2 	"/>
	<polygon style="opacity:0.21;clip-path:url(#SVGID_2_);fill:#F69437;" points="243.1,149.5 236.4,206.7 288.7,230.7 327.8,188.4 
		299.6,138.2 	"/>
	<polygon style="opacity:0.17;clip-path:url(#SVGID_2_);fill:#F15A29;" points="30.9,70.9 26.2,111.6 63.4,128.8 91.2,98.6 
		71.1,62.9 	"/>
	<polygon style="opacity:3.000000e-02;clip-path:url(#SVGID_2_);fill:#FFFFFF;" points="20,75.3 12.5,139.3 71.1,166.2 114.8,118.8 
		83.2,62.6 	"/>
</g>
<ellipse class="st3" cx="183.3" cy="241.6" rx="83.6" ry="84.4"/>
<ellipse class="st42" cx="183.3" cy="240" rx="103.5" ry="104.5"/>
<g>
	<path class="st43" d="M160.8,181.9h1.7c0,0.1,0.1,0,0.2,0.1c0.7,0.1,1.5,0.3,2.1,0.5c1.7,0.7,3,1.9,4.1,3.4
		c1.7,2.3,2.8,4.9,3.7,7.6c0.8,2.4,1.3,4.9,1.7,7.3c0.5,2.5,0.9,5.1,1.2,7.6c0.2,2.1,0.3,4.3,0.5,6.4c-0.5,0.9-0.8,1.9-1.1,2.9
		c-0.4,1.1-0.7,2.2-0.8,3.4c-0.8-2.5-0.9-5.1-0.8-7.8c-0.5,1.1-0.9,2.1-1.2,3.2c0-0.3,0-0.6,0-0.9c0-1.7,0-3.5-0.1-5.2
		c-0.2-2.9-0.5-5.8-1-8.7c-0.6-3.3-1.5-6.4-3.1-9.4c-0.7-1.4-1.5-2.8-2.7-3.8c-1.1-1-2.4-1.8-4-1.8c-2.1-0.1-4,0.7-5.7,2.1
		c-1.1,0.9-1.7,2.2-2.1,3.5c-0.8,2.2-0.8,4.5-0.6,6.7c0.4,2.9,1,5.7,1.8,8.5c2,6.5,5,12.5,8.8,18.2c1.2,1.8,2.6,3.4,4.2,4.8
		c0.8,0.7,1.3,0.7,1.8-0.3c0.6-1.2,1.1-2.4,1.5-3.7c0.2-0.9,0.4-1.8,0.6-2.7c0.2,0.7,0.3,1.5,0.6,2.2c0.5,1.1,0.8,2.2,2,2.9
		c0.1,0,0.1,0.2,0.1,0.3c-0.3,1-0.1,2.1,0.1,3.1c0.2,1.1,0.6,2.1,1,3.2c0.2,0.7,0.5,1.3,0.9,1.9c-0.2-1-0.2-2.1,0.1-3.1
		c0.3-1,0.6-2,1.2-2.9c-0.4,3.8,0.2,7.5,1.6,11.2c0-0.1,0-0.1,0-0.2c0-2,0-3.9,0.3-5.8c0.1-1.2,0.3-2.3,0.8-3.4
		c0.3-0.6,0.6-1.1,1.2-1.4c0.2-0.1,0.3-0.1,0.4,0.1c0.6,1.4,1.1,2.8,1.4,4.3c0.2,1,0.3,2,0.1,3c0,0.1,0,0.1,0,0.2
		c0.1,0,0.1-0.1,0.2-0.1c1.4-1.9,2.5-3.9,2.9-6.3c0.1-0.6,0.1-1.2,0.1-1.8c0-0.6-0.2-1.1-0.2-1.7l0,0c0.7,0.6,1.3,1.2,1.8,1.9
		c1,1.3,1.9,2.7,2.3,4.4c0.2,0.8,0.3,1.7,0.2,2.6c0,0.5-0.2,1-0.2,1.5c0,0,0,0,0,0.1l0,0l0-0.1c0.1-0.1,0.1-0.2,0.2-0.3
		c0.7-1.4,1.2-2.8,1.7-4.3c0.4-1.3,0.6-2.7,0.6-4.1c0-0.2,0-0.3,0-0.5c0.2,0.2,0.4,0.3,0.6,0.6c0.6,0.8,0.8,1.7,1,2.6
		c0.1,0.6,0.2,1.2,0.3,1.9c0.1-0.3,0.3-0.6,0.3-0.9c0.5-1.7,0.8-3.5,0.6-5.3c-0.1-0.8-0.4-1.6-0.8-2.3c-0.1-0.2-0.1-0.3,0-0.4
		c0.3-0.4,0.4-0.9,0.6-1.3c0,0,0,0.1,0,0.1c0.4,1.6,0.9,3.2,1.7,4.7c0.6,1,1,1.1,1.9,0.3c1-0.9,2-1.9,2.8-3
		c2.6-3.4,4.7-7.1,6.6-10.9c2.3-4.7,3.9-9.6,4.9-14.7c0.4-2.3,0.8-4.7,0.5-7c-0.3-1.9-0.9-3.7-2.1-5.2c-1.1-1.4-2.7-2.2-4.4-2.6
		c-1.9-0.4-3.6-0.1-5.1,1.1c-0.9,0.7-1.7,1.5-2.3,2.4c-1.4,2-2.3,4.2-3,6.5c-0.8,2.3-1.2,4.7-1.6,7.1c-0.3,1.8-0.5,3.6-0.6,5.4
		c0,0.8-0.1,1.7-0.1,2.5c0,1.4,0,2.8,0,4.1c0,1,0.2,2,0.1,3c-0.2-0.5-0.4-1-0.6-1.6c-0.1-0.3-0.3-0.7-0.4-1c0,0.9,0,1.8,0,2.7
		c0,0.9-0.1,1.7-0.4,2.5c-0.3,0.7-0.7,1.4-1.5,1.6c-0.2,0.1-0.4,0.1-0.4-0.2c-0.2-0.6-0.2-1.3-0.1-2c0.2-1,0.6-1.8,1.1-2.6
		c0-0.1,0.1-0.1,0.1-0.2c0-0.1-0.2-0.1-0.3-0.1c-0.7,0-1.3,0.2-1.9,0.4c0.2-2.5,0.4-5.1,0.6-7.6c0.2-2.6,0.5-5.1,1-7.7
		c0.6-3.9,1.6-7.7,2.9-11.4c0.9-2.7,2.2-5.2,4.1-7.3c2.1-2.3,4.7-3.1,7.7-2.7c2.5,0.3,4.6,1.5,6.5,3.2c2.9,2.7,4.1,6.1,4.3,10
		c0,1,0,1.9,0,2.9c0,0.9-0.1,1.9-0.2,2.8c-0.3,2.8-1,5.6-1.8,8.3c-2.1,6.7-4.9,13.1-8.2,19.3c-0.5,0.9-1,1.9-1.6,2.8
		c-0.4,0.7-0.3,1,0.3,1.5c0.1,0,0.1,0.1,0.2,0.2c0.9,0.7,1.7,1.5,2.4,2.4c1.4,1.8,2.3,4,2.8,6.2c0.4,1.7,0.6,3.5,0.5,5.2
		c-0.1,1.3-0.2,2.7-0.4,4c-0.2,1.5-0.3,3-0.5,4.5c-0.2,1.8-0.5,3.7-0.8,5.5c-0.3,2.4-0.7,4.7-1.1,7.1c-0.4,2.2-0.7,4.5-1.1,6.7
		c-0.3,1.6-0.5,3.2-0.8,4.8c-0.7,3.1-1.8,6-2.9,8.9c-0.1-0.1-0.1-0.2-0.1-0.3c-0.2-0.4-0.3-0.9-0.5-1.3c-1.4-2.9-3.2-5.5-5.4-7.9
		c-1.8-1.9-3.9-3.6-6.1-5c-2.4-1.5-5-2.6-7.9-2.9c-2-0.2-4,0.1-5.9,0.9c-2.1,0.9-4,2.2-5.7,3.7c-2.2,2.1-4.2,4.4-5.9,6.9
		c-1.3,2.1-2.4,4.3-3.1,6.7c-0.3,1-0.4,2.1-0.7,3.1c-0.1,0.2-0.1,0.5-0.2,0.7c0-0.1-0.1-0.2-0.1-0.2c-1-2.2-1.9-4.5-2.8-6.7
		c-0.7-1.9-1.5-3.8-1.9-5.8c-0.5-2.3-0.6-4.6-0.8-6.9c-0.1-1.5-0.2-2.9-0.3-4.4c-0.1-1.2-0.3-2.4-0.4-3.6c-0.2-1.6-0.2-3.2-0.3-4.8
		c-0.1-1.9-0.3-3.8-0.4-5.6c-0.2-1.7-0.3-3.4-0.4-5.1c-0.1-1.8-0.1-3.7,0.3-5.5c0.7-3.3,2.3-6.2,4.4-8.8c0.6-0.7,1.2-1.4,1.8-2
		c0.4-0.4,0.5-0.7,0.2-1.2c0-0.1-0.1-0.2-0.1-0.3c-2.3-4-4.4-8.1-6.3-12.4c-2.3-5.2-4.3-10.5-5.4-16.1c-0.4-2-0.7-4.1-0.7-6.2
		c0-0.1,0-0.2-0.1-0.2v-0.9c0.1,0,0.1-0.1,0.1-0.2c0-0.6,0-1.3,0.1-1.9c0.2-2,0.7-3.9,1.6-5.7c1.7-3.5,4.6-5.4,8.3-6.5
		C159.7,182.1,160.3,182,160.8,181.9z M192.5,264.4c0.3,0,0.6,0,0.9,0c0.3,0,0.6-0.1,0.8-0.1c3.8-0.6,7-2.2,9.7-5
		c1.8-1.8,2.4-4,1.6-6.5c-1-3.1-2.9-5.5-5.7-7.2c-1.6-1-3.3-1.1-5.1-0.6c-1.4,0.4-2.5,1.2-3.5,2.2c-2.4,2.4-3.9,5.2-4.6,8.5
		c-0.5,2.4-0.2,4.7,0.9,6.9c0.5,1,1.3,1.7,2.5,1.8C190.9,264.5,191.7,264.4,192.5,264.4z M174.7,264.5c0.2,0,0.4,0,0.5,0
		c1.3,0,2.4-0.4,3.1-1.6c0.8-1.2,1.2-2.6,1.3-4.1c0.1-1.6-0.2-3.2-0.6-4.8c-1.1-3.8-3.3-6.8-6.8-8.7c-1.2-0.7-2.5-1-3.8-0.6
		c-1.8,0.4-3.3,1.5-4.6,2.8c-1.4,1.4-2.4,3.1-3.1,4.9c-0.8,2.2-0.5,4.2,0.9,6.1c0.8,1.1,1.9,2,3,2.8
		C167.6,263.5,171.1,264.4,174.7,264.5L174.7,264.5z"/>
	<path class="st4" d="M203.9,288.4c0.1,0.5,0.2,1,0.3,1.4c0.6,3.1-0.1,5.9-2,8.4c-2.3,3.1-5.4,5.2-9.1,6.4c-1.8,0.6-3.7,0.8-5.7,0.9
		c-0.1,0-0.2-0.1-0.3,0.1h-4.4c0-0.1-0.1-0.1-0.2-0.1c-2.5-0.1-5-0.3-7.5-0.7c-2.1-0.4-4.2-0.9-6.1-1.8c-4.2-2-6.2-5.4-6.2-10
		c0-0.2,0.1-0.3,0-0.5c0.3-1,0.4-2.1,0.7-3.1c0.7-2.4,1.7-4.6,3.1-6.7c1.7-2.6,3.6-4.8,5.9-6.9c1.7-1.6,3.5-2.9,5.7-3.7
		c1.9-0.8,3.8-1.1,5.9-0.9c2.9,0.3,5.5,1.4,7.9,2.9c2.2,1.4,4.3,3.1,6.1,5c2.2,2.3,4,5,5.4,7.9c0.2,0.4,0.3,0.8,0.5,1.3
		C203.8,288.2,203.8,288.3,203.9,288.4z M197.4,294.6c-0.1,0-0.2,0.1-0.3,0.2c-1.9,1.4-3.8,2.7-5.9,3.7c-3.3,1.4-6.6,1.8-10.1,1.1
		c-2.9-0.5-5.6-1.6-8.2-3c-1.1-0.6-2.2-1.2-3.3-1.8l0,0l0,0c0,0.2,0.1,0.3,0.2,0.4c2.5,3.1,5.6,5.3,9.3,6.5c2.9,1,5.9,1.2,8.9,0.4
		c3.5-0.9,6.2-3,8.4-5.9C196.7,295.7,197.1,295.2,197.4,294.6C197.4,294.6,197.4,294.6,197.4,294.6
		C197.4,294.5,197.4,294.5,197.4,294.6L197.4,294.6z M198.4,285.3c0.1-0.5-0.1-0.8-0.3-1.2c-0.5-0.7-1.1-1.2-1.8-1.7
		c-1.5-1-3.4-0.8-4.6,0.4c-0.7,0.7-1,1.7-1,2.7c-0.1,1.8-0.7,3.5-1.6,5c-0.5,0.8-1.1,1.7-1.7,2.5c-0.3,0.5-0.2,0.9,0.3,1.2
		c0.4,0.2,0.7,0.1,1.1,0c2.6-1.1,5-2.4,7.2-4.1C197.4,288.8,198.3,287.3,198.4,285.3L198.4,285.3z M169.7,285.9
		c0,0.7,0.2,1.3,0.5,1.9c0.8,1.3,1.9,2.3,3.1,3.2c1.6,1.2,3.4,2,5.2,2.9c0.3,0.2,0.7,0.3,1.1,0.4c0.4,0.1,0.7,0,1-0.3
		c0.2-0.1,0.3-0.4,0.2-0.7c-0.1-0.3-0.3-0.6-0.5-0.8c-0.1-0.1-0.2-0.2-0.2-0.4c0-0.2-0.1-0.3-0.2-0.5c-0.1-0.1-0.2-0.3-0.4-0.4
		c-1.4-1.8-2-3.8-2.1-6c-0.1-2.3-2-3.8-4.1-3.5C171.4,282.1,169.7,283.9,169.7,285.9L169.7,285.9z"/>
	<path class="st4" d="M217.3,195.2L217.3,195.2l0.1,2.9l0,0h0C217.3,197.2,217.3,196.2,217.3,195.2z"/>
	<path class="st44" d="M171.5,223.9c-0.2,0.9-0.4,1.8-0.6,2.7c-0.3,1.3-0.8,2.6-1.5,3.7c-0.5,1-1,1-1.8,0.3c-1.6-1.4-3-3.1-4.2-4.8
		c-3.8-5.6-6.8-11.6-8.8-18.2c-0.9-2.8-1.5-5.6-1.8-8.5c-0.3-2.3-0.2-4.5,0.6-6.7c0.5-1.3,1.1-2.6,2.1-3.5c1.6-1.4,3.5-2.1,5.7-2.1
		c1.6,0,2.8,0.8,4,1.8c1.2,1.1,2,2.4,2.7,3.8c1.5,3,2.5,6.1,3.1,9.4c0.5,2.9,0.9,5.8,1,8.7c0.1,1.7,0.1,3.5,0.1,5.2
		c0,0.3,0,0.6,0,0.9c0,0.1,0,0.2-0.1,0.3c-0.4,1.6-0.7,3.3-0.6,4.9C171.3,222.5,171.4,223.2,171.5,223.9z"/>
	<path class="st44" d="M194.6,219.2c0-1-0.1-2-0.1-3c0-1.4,0-2.8,0-4.1c0-0.8,0.1-1.7,0.1-2.5c0.1-1.8,0.3-3.6,0.6-5.4
		c0.3-2.4,0.8-4.8,1.6-7.1c0.7-2.3,1.7-4.5,3-6.5c0.6-0.9,1.4-1.7,2.3-2.4c1.5-1.2,3.2-1.5,5.1-1.1c1.7,0.4,3.3,1.2,4.4,2.6
		c1.2,1.5,1.8,3.3,2.1,5.2c0.3,2.4,0,4.7-0.5,7c-1,5.1-2.6,10.1-4.9,14.7c-1.9,3.8-4,7.5-6.6,10.9c-0.8,1.1-1.8,2.1-2.8,3
		c-0.9,0.8-1.3,0.7-1.9-0.3c-0.8-1.5-1.3-3.1-1.7-4.7c0,0,0-0.1,0-0.1c0.3-1.1,0.2-2.3,0-3.4C195.2,221,194.9,220.1,194.6,219.2z"/>
	<path class="st45" d="M194.6,219.2c0.3,1,0.6,1.9,0.7,2.9c0.2,1.1,0.3,2.3,0,3.4c-0.1,0.5-0.3,0.9-0.6,1.3c-0.1,0.2-0.1,0.3,0,0.4
		c0.4,0.7,0.7,1.5,0.8,2.3c0.2,1.8-0.1,3.5-0.6,5.3c-0.1,0.3-0.2,0.6-0.3,0.9c-0.1-0.6-0.2-1.2-0.3-1.9c-0.2-0.9-0.4-1.8-1-2.6
		c-0.2-0.2-0.4-0.4-0.6-0.6c0,0.2,0,0.4,0,0.5c0,1.4-0.2,2.7-0.6,4.1c-0.4,1.5-1,2.9-1.7,4.3c0,0.1-0.1,0.2-0.2,0.3l0,0
		c0-0.5,0.2-1,0.2-1.5c0.1-0.9,0-1.7-0.2-2.6c-0.4-1.6-1.2-3-2.3-4.4c-0.5-0.7-1.2-1.3-1.8-1.9l0,0l0,0c0,0.6,0.2,1.1,0.2,1.7
		c0,0.6,0,1.2-0.1,1.8c-0.4,2.3-1.5,4.4-2.9,6.3c0,0.1-0.1,0.2-0.2,0.1c-0.1,0,0-0.1,0-0.2c0.2-1,0.1-2-0.1-3
		c-0.3-1.5-0.8-2.9-1.4-4.3c-0.1-0.2-0.2-0.2-0.4-0.1c-0.6,0.3-1,0.8-1.2,1.4c-0.5,1.1-0.7,2.3-0.8,3.4c-0.2,1.9-0.3,3.9-0.3,5.8
		c0,0.1,0,0.1,0,0.2c-1.3-3.7-2-7.3-1.6-11.2c-0.6,0.9-1,1.9-1.2,2.9c-0.3,1-0.3,2.1-0.1,3.1c-0.3-0.6-0.6-1.2-0.9-1.9
		c-0.4-1-0.7-2.1-1-3.2c-0.2-1-0.4-2.1-0.1-3.1c0-0.1,0-0.2-0.1-0.3c-1.1-0.6-1.5-1.8-2-2.9c-0.3-0.7-0.5-1.5-0.6-2.2
		c-0.1-0.7-0.2-1.4-0.2-2c0-1.7,0.2-3.3,0.6-4.9c0-0.1,0-0.2,0.1-0.3c0.4-1,0.7-2.1,1.2-3.2c-0.1,2.7,0,5.3,0.8,7.8
		c0.1-1.2,0.5-2.3,0.8-3.4c0.3-1,0.7-2,1.1-2.9c0,0.1,0,0.2,0,0.3c0,0,0,0.1-0.1,0.1c-0.1,0.7-0.1,1.5,0,2.2
		c0.1,0.4,0.1,0.8,0.3,1.1c0.2,0.8,0.5,1.6,1,2.5c0.6-1.6,1.1-3.1,0.6-4.7l0,0c0.5,0.3,0.8,0.9,1.2,1.3c0.5,0.7,1,1.3,1.3,2.1
		c0.3,0.7,0.6,1.3,0.9,2c0.3-1.7,0.9-3.4,1.7-5c0.3,2,0.7,3.8,1.6,5.5c0.2-0.3,0.4-0.6,0.6-0.9c0.7-1.3,1.1-2.7,0.8-4.3
		c0-0.3-0.2-0.6-0.2-0.9l0.1,0c0.9,1.5,1.6,3,2.1,4.6c0.2-0.3,0.4-0.6,0.6-0.9c0.5-0.5,1-0.9,1.6-1.1c0.6-0.2,1.2-0.4,1.9-0.4
		c0.1,0,0.2,0,0.3,0.1c0,0.1,0,0.2-0.1,0.2c-0.5,0.8-1,1.7-1.1,2.6c-0.1,0.7-0.1,1.3,0.1,2c0.1,0.3,0.2,0.3,0.4,0.2
		c0.8-0.3,1.2-0.9,1.5-1.6c0.3-0.8,0.5-1.6,0.4-2.5c0-0.9,0-1.8,0-2.7c0.1,0.3,0.3,0.7,0.4,1C194.2,218.1,194.4,218.6,194.6,219.2z"
		/>
	<path class="st3" d="M192.5,264.4c-0.8,0-1.6,0.1-2.4,0c-1.2-0.1-2-0.8-2.5-1.8c-1.1-2.2-1.5-4.5-0.9-6.9c0.7-3.3,2.2-6.1,4.6-8.5
		c1-1,2.2-1.8,3.5-2.2c1.8-0.6,3.5-0.4,5.1,0.6c2.8,1.7,4.7,4.1,5.7,7.2c0.7,2.5,0.2,4.6-1.6,6.5c-2.7,2.8-5.9,4.4-9.7,5
		c-0.3,0-0.6,0.1-0.8,0.1S192.8,264.4,192.5,264.4z M193.6,263.9c0.5,0,1,0,1.4-0.1c2-0.4,3.2-1.7,3.9-3.5c0.3-0.7,0.5-1.4,0.5-2.1
		c-0.1-0.9-0.8-1.3-1.6-1c-0.2,0.1-0.4,0.2-0.6,0.3c-0.2,0.1-0.4,0.2-0.7,0.3c-0.8,0.2-1.6,0-2.1-0.8c-0.5-0.7-0.5-1.4,0.1-2.1
		c0.2-0.2,0.4-0.4,0.6-0.6c0.7-0.8,0.3-1.8-0.7-2c-1-0.2-2.1-0.1-3,0.3c-1.8,0.7-3.2,1.9-3.6,3.8c-0.3,1.5-0.2,3,0.4,4.4
		c0.6,1.4,1.6,2.4,3,2.8C192,263.9,192.8,263.9,193.6,263.9L193.6,263.9z"/>
	<path class="st3" d="M174.7,264.5c-3.6-0.1-7.1-1-10.2-3.2c-1.1-0.8-2.1-1.7-3-2.8c-1.4-1.8-1.7-3.9-0.9-6.1
		c0.7-1.8,1.7-3.5,3.1-4.9c1.3-1.3,2.8-2.4,4.6-2.8c1.4-0.3,2.6,0,3.8,0.6c3.5,1.9,5.8,4.9,6.8,8.7c0.4,1.6,0.8,3.1,0.6,4.8
		c-0.1,1.4-0.6,2.8-1.3,4.1c-0.7,1.1-1.8,1.5-3.1,1.6C175.1,264.5,174.9,264.5,174.7,264.5z M166.7,258.2c0,0.2,0,0.5,0.1,0.7
		c0,0.2,0.1,0.4,0.1,0.6c0.6,2.1,1.8,3.6,3.9,4.2c0.6,0.2,1.3,0.1,1.9,0.2c1.2,0.1,2.3-0.1,3.2-0.8c1.8-1.2,2.7-2.8,2.5-5
		c-0.1-0.9-0.8-1.5-1.8-0.8c-0.2,0.1-0.3,0.2-0.5,0.3c-0.7,0.3-1.3,0.3-1.9-0.2c-1.1-0.9-1.2-2-0.1-3c0.1-0.1,0.2-0.2,0.3-0.3
		c0.4-0.4,0.4-0.9,0.1-1.4c-0.2-0.4-0.6-0.6-1-0.6c-0.6-0.1-1.2,0-1.8,0C168.7,252.7,166.6,255.2,166.7,258.2L166.7,258.2z"/>
	<path class="st45" d="M190.4,239.8L190.4,239.8L190.4,239.8C190.3,239.8,190.4,239.8,190.4,239.8L190.4,239.8z"/>
	<path class="st45" d="M198.4,285.3c-0.1,2-1,3.5-2.5,4.8c-2.2,1.8-4.6,3-7.2,4.1c-0.4,0.2-0.7,0.2-1.1,0c-0.5-0.3-0.6-0.7-0.3-1.2
		c0.6-0.8,1.1-1.6,1.7-2.5c0.9-1.5,1.5-3.2,1.6-5c0.1-1,0.3-1.9,1-2.7c1.2-1.2,3.2-1.4,4.6-0.4c0.7,0.5,1.3,1,1.8,1.7
		C198.3,284.4,198.4,284.8,198.4,285.3z"/>
	<path class="st45" d="M169.7,285.9c0-2,1.7-3.8,3.6-4.1c2.1-0.4,4,1.2,4.1,3.5c0.1,2.2,0.7,4.2,2.1,6c0.1,0.2,0.2,0.3,0.4,0.4
		c0.1,0.1,0.2,0.3,0.2,0.5c0,0.2,0.1,0.3,0.2,0.4c0.2,0.2,0.4,0.5,0.5,0.8c0.1,0.2,0,0.5-0.2,0.7c-0.3,0.2-0.6,0.4-1,0.3
		c-0.4-0.1-0.8-0.2-1.1-0.4c-1.8-0.9-3.6-1.7-5.2-2.9c-1.2-0.9-2.4-1.8-3.1-3.2C169.9,287.2,169.7,286.6,169.7,285.9z"/>
	<path class="st3" d="M169.5,294.7c1.1,0.6,2.2,1.3,3.3,1.8c2.6,1.3,5.3,2.4,8.2,3c3.5,0.7,6.9,0.3,10.1-1.1c2.1-1,4.1-2.3,5.9-3.7
		c0.1-0.1,0.2-0.1,0.3-0.2l0,0c-0.2,0.6-0.6,1.1-1,1.6c-2.1,2.9-4.9,4.9-8.4,5.9c-3,0.8-6,0.6-8.9-0.4c-3.7-1.3-6.9-3.4-9.3-6.5
		C169.7,295,169.5,294.9,169.5,294.7L169.5,294.7z"/>
	<path class="st3" d="M197.4,294.6L197.4,294.6C197.4,294.5,197.4,294.5,197.4,294.6C197.4,294.5,197.4,294.6,197.4,294.6
		L197.4,294.6z"/>
	<path class="st3" d="M169.5,294.7L169.5,294.7L169.5,294.7L169.5,294.7z"/>
	<path class="st44" d="M185.8,216.2c0,0.3,0.1,0.6,0.2,0.9c0.3,1.5-0.1,2.9-0.8,4.3c-0.2,0.3-0.4,0.6-0.6,0.9
		c-0.9-1.7-1.3-3.5-1.6-5.5c-0.8,1.6-1.4,3.3-1.7,5c-0.2-0.7-0.5-1.4-0.9-2c-0.4-0.7-0.9-1.4-1.3-2.1c0.9-1.2,2.1-2,3.7-2.2
		c0.1,0,0.2,0,0.2,0c0.3,0,0.5,0,0.8,0c0.6,0.1,1.3,0.2,1.8,0.5C185.7,216,185.8,216.1,185.8,216.2z"/>
	<path class="st44" d="M182.9,209.3c-1.3-0.3-2.2-1.6-2-2.9c0.3-1.3,1.6-2.2,2.9-2c0.4,0.1,0.8,0.3,1.1,0.5c1,0.8,1.2,2.4,0.4,3.4
		c-0.4,0.5-1,0.9-1.7,1C183.5,209.4,183.2,209.4,182.9,209.3z"/>
	<path class="st45" d="M182.9,209.3c0.3,0,0.5,0.1,0.8,0c0,1.8,0,3.6,0,5.4c0,0.3,0,0.5,0,0.8c-0.3,0-0.5,0-0.8,0L182.9,209.3z"/>
	<path class="st44" d="M188.6,219.9c-0.2,0.3-0.4,0.5-0.6,0.9c-0.5-1.6-1.2-3.2-2.1-4.6c0.7,0.3,1.1,0.7,1.6,1.3
		c0.6,0.7,0.9,1.5,1.1,2.3C188.6,219.8,188.6,219.9,188.6,219.9z"/>
	<path class="st34" d="M176.2,218.6c-0.2-0.3-0.2-0.7-0.3-1.1c-0.1-0.7-0.1-1.5,0-2.2c0,0,0-0.1,0.1-0.1
		C176.1,216.4,176.2,217.5,176.2,218.6z"/>
	<path class="st45" d="M177.8,216.4L177.8,216.4L177.8,216.4L177.8,216.4L177.8,216.4z"/>
	<path class="st34" d="M186.3,229.4L186.3,229.4L186.3,229.4L186.3,229.4z"/>
	<path class="st45" d="M193.6,263.9c-0.8,0-1.6-0.1-2.4-0.3c-1.5-0.5-2.5-1.4-3-2.8c-0.6-1.4-0.7-3-0.4-4.4c0.4-1.9,1.8-3.1,3.6-3.8
		c1-0.4,2-0.5,3-0.3c1,0.2,1.3,1.2,0.7,2c-0.2,0.2-0.4,0.4-0.6,0.6c-0.6,0.7-0.6,1.4-0.1,2.1c0.5,0.8,1.3,1.1,2.1,0.8
		c0.2-0.1,0.5-0.2,0.7-0.3c0.2-0.1,0.4-0.2,0.6-0.3c0.8-0.3,1.5,0.1,1.6,1c0.1,0.8-0.2,1.4-0.5,2.1c-0.8,1.8-2,3.1-3.9,3.5
		C194.6,263.9,194.1,264,193.6,263.9z"/>
	<path class="st45" d="M166.7,258.2c0-3,2.1-5.5,4.9-5.9c0.6-0.1,1.2-0.1,1.8,0c0.4,0,0.8,0.3,1,0.6c0.3,0.5,0.3,1-0.1,1.4
		c-0.1,0.1-0.2,0.2-0.3,0.3c-1,1-1,2.1,0.1,3c0.6,0.5,1.2,0.5,1.9,0.2c0.2-0.1,0.4-0.2,0.5-0.3c0.9-0.7,1.7-0.1,1.8,0.8
		c0.2,2.2-0.8,3.8-2.5,5c-1,0.7-2,0.9-3.2,0.8c-0.6,0-1.3,0-1.9-0.2c-2.1-0.6-3.3-2.1-3.9-4.2c-0.1-0.2-0.1-0.4-0.1-0.6
		C166.7,258.7,166.7,258.4,166.7,258.2z"/>
</g>
</svg>
