<?xml version="1.0" encoding="utf-8"?>
<!-- Generator: Adobe Illustrator 22.0.0, SVG Export Plug-In . SVG Version: 6.00 Build 0)  -->
<svg version="1.1" id="Layer_1" xmlns="http://www.w3.org/2000/svg" xmlns:xlink="http://www.w3.org/1999/xlink" x="0px" y="0px"
	 viewBox="0 0 365 251.7" style="enable-background:new 0 0 365 251.7;" xml:space="preserve">
<style type="text/css">
	.st0{stroke:#000000;stroke-miterlimit:10;}
	.st1{fill:#FFFFFF;stroke:#FFFFFF;stroke-miterlimit:10;}
	.st2{fill:#F0A64F;}
	.st3{fill:#FFFFFF;}
	.st4{fill:#AF8070;}
	.st5{clip-path:url(#SVGID_2_);}
	.st6{clip-path:url(#SVGID_2_);fill:#FFFFFF;}
	.st7{fill:#FFFFFF;stroke:#C6C6C6;stroke-width:0.75;stroke-miterlimit:10;}
	.st8{clip-path:url(#SVGID_4_);fill:#FFFFFF;}
	.st9{clip-path:url(#SVGID_4_);}
	.st10{fill:#F69437;stroke:#F69437;stroke-miterlimit:10;}
	.st11{clip-path:url(#SVGID_6_);fill:#F69437;}
	.st12{clip-path:url(#SVGID_6_);fill:#FFFFFF;}
	.st13{clip-path:url(#SVGID_8_);fill:#FFFFFF;stroke:#232323;stroke-width:0.5;stroke-miterlimit:10;}
	.st14{clip-path:url(#SVGID_8_);fill:#232323;}
	.st15{clip-path:url(#SVGID_8_);}
	.st16{clip-path:url(#SVGID_8_);fill:#474747;}
	.st17{fill:#474747;}
	.st18{fill:#232323;stroke:#000000;stroke-miterlimit:10;}
	.st19{fill:#E0E0E0;}
	.st20{fill:#F2A74E;}
	.st21{fill:#F9FBFD;}
	.st22{fill:none;stroke:#AFAFAF;stroke-width:4;stroke-miterlimit:10;}
	.st23{fill:#AFAFAF;}
	.st24{clip-path:url(#SVGID_10_);}
	.st25{clip-path:url(#SVGID_12_);fill:#FFFFFF;stroke:#232323;stroke-width:0.5;stroke-miterlimit:10;}
	.st26{clip-path:url(#SVGID_12_);fill:#232323;}
	.st27{clip-path:url(#SVGID_12_);}
	.st28{clip-path:url(#SVGID_12_);fill:#474747;}
	.st29{fill:#EB592A;}
	.st30{fill:#563B39;}
	.st31{fill:#AE8070;}
	.st32{fill:#358EBF;}
	.st33{fill:#070808;}
	.st34{fill:#4B3938;}
	.st35{fill:#F05A2B;}
	.st36{fill:#107BA4;}
	.st37{fill:#1F3568;}
	.st38{clip-path:url(#SVGID_14_);fill:url(#SVGID_15_);}
	.st39{opacity:3.000000e-02;clip-path:url(#SVGID_14_);fill:#FFFFFF;}
	.st40{opacity:0.17;clip-path:url(#SVGID_14_);fill:#F15A29;}
	.st41{opacity:0.21;clip-path:url(#SVGID_14_);fill:#F69437;}
	.st42{opacity:0.37;fill:#FFFFFF;}
	.st43{fill:#563A39;}
	.st44{fill:#348FC0;}
	.st45{fill:#060707;}
</style>
<g>
	<defs>
		<rect id="SVGID_13_" x="0" y="0.3" width="365" height="252"/>
	</defs>
	<clipPath id="SVGID_2_">
		<use xlink:href="#SVGID_13_"  style="overflow:visible;"/>
	</clipPath>
	<linearGradient id="SVGID_4_" gradientUnits="userSpaceOnUse" x1="-3.674967e-02" y1="126.3154" x2="364.9633" y2="126.3154">
		<stop  offset="0.1538" style="stop-color:#E55626"/>
		<stop  offset="0.9932" style="stop-color:#F69437"/>
	</linearGradient>
	<rect x="0" y="0.3" style="clip-path:url(#SVGID_2_);fill:url(#SVGID_4_);" width="365" height="252"/>
	<polygon style="opacity:3.000000e-02;clip-path:url(#SVGID_2_);fill:#FFFFFF;" points="354.4,66.1 291,87.8 292.1,154.8 
		356.1,174.5 394.6,119.7 	"/>
	<polygon style="opacity:3.000000e-02;clip-path:url(#SVGID_2_);fill:#FFFFFF;" points="40.1,135.2 -1.5,149.4 -0.8,193.3 
		41.2,206.2 66.4,170.3 	"/>
	<polygon style="opacity:0.17;clip-path:url(#SVGID_2_);fill:#F15A29;" points="367.4,163.6 320.5,179.7 321.3,229.2 368.7,243.8 
		397.2,203.2 	"/>
	<polygon style="opacity:3.000000e-02;clip-path:url(#SVGID_2_);fill:#FFFFFF;" points="179.8,56.9 176.2,87.8 204.4,100.7 
		225.5,77.9 210.3,50.8 	"/>
	<polygon style="opacity:3.000000e-02;clip-path:url(#SVGID_2_);fill:#FFFFFF;" points="62,70.4 56.5,118.2 100.1,138.2 
		132.7,102.9 109.2,61 	"/>
	<polygon style="opacity:3.000000e-02;clip-path:url(#SVGID_2_);fill:#FFFFFF;" points="288.9,155.3 285.9,181.3 309.7,192.3 
		327.5,173 314.6,150.2 	"/>
	<polygon style="opacity:0.21;clip-path:url(#SVGID_2_);fill:#F69437;" points="-10,61.6 -15.6,110.1 28.7,130.4 61.8,94.5 37.9,52 
			"/>
	<polygon style="opacity:3.000000e-02;clip-path:url(#SVGID_2_);fill:#FFFFFF;" points="260.8,199.6 255.4,246.1 297.9,265.6 
		329.6,231.2 306.7,190.4 	"/>
	<polygon style="opacity:0.21;clip-path:url(#SVGID_2_);fill:#F69437;" points="63.9,145.9 57,205 111.1,229.8 151.4,186.1 
		122.3,134.2 	"/>
	<polygon style="opacity:0.17;clip-path:url(#SVGID_2_);fill:#F15A29;" points="213.9,71.9 207,131 261.1,155.8 301.4,112.1 
		272.3,60.2 	"/>
	<polygon style="opacity:0.17;clip-path:url(#SVGID_2_);fill:#F15A29;" points="365.9,88.2 329.4,84.8 314.9,118.5 342.5,142.7 
		374,123.9 	"/>
	<polygon style="opacity:0.17;clip-path:url(#SVGID_2_);fill:#F15A29;" points="328.3,153.4 275.7,148.6 254.9,197.2 294.6,232 
		340,205 	"/>
	<polygon style="opacity:0.21;clip-path:url(#SVGID_2_);fill:#F69437;" points="6.9,195.9 0,255 54.1,279.8 94.4,236.1 65.3,184.2 	
		"/>
	<polygon style="opacity:0.21;clip-path:url(#SVGID_2_);fill:#F69437;" points="107.9,79.9 101,139 155.1,163.8 195.4,120.1 
		166.3,68.2 	"/>
	<polygon style="opacity:0.21;clip-path:url(#SVGID_2_);fill:#F69437;" points="243.1,149.5 236.4,206.7 288.7,230.7 327.8,188.4 
		299.6,138.2 	"/>
	<polygon style="opacity:0.17;clip-path:url(#SVGID_2_);fill:#F15A29;" points="30.9,70.9 26.2,111.6 63.4,128.8 91.2,98.6 
		71.1,62.9 	"/>
	<polygon style="opacity:3.000000e-02;clip-path:url(#SVGID_2_);fill:#FFFFFF;" points="20,75.3 12.5,139.3 71.1,166.2 114.8,118.8 
		83.2,62.6 	"/>
</g>
</svg>
