<svg id="Layer_1" data-name="Layer 1" xmlns="http://www.w3.org/2000/svg" viewBox="0 0 88 65"><title>desktop elements</title><path d="M43.41,45.53A17.93,17.93,0,1,1,61.13,27.64,17.81,17.81,0,0,1,43.41,45.53ZM58.17,27.61A14.77,14.77,0,1,0,43.29,42.53,14.92,14.92,0,0,0,58.17,27.61Z" fill="none" stroke="#f69437" stroke-miterlimit="10" stroke-width="1.5"/><path d="M59.42,39.49a4.47,4.47,0,0,1,.95.54q5,5.05,10.05,10.15a1.26,1.26,0,0,1,0,1.9c-.9.94-1.82,1.86-2.74,2.78a1.25,1.25,0,0,1-2,0l-10-10.08a1.27,1.27,0,0,1,0-1.91c.93-1,1.86-1.91,2.82-2.83A4.45,4.45,0,0,1,59.42,39.49Z" fill="none" stroke="#313333" stroke-miterlimit="10" stroke-width="1.5"/><rect x="23.35" y="25.97" width="7.35" height="4.46" fill="#fff"/><polyline points="17.16 28.2 33.58 28.2 34.7 25.95 36.96 32.86 39.85 19.35 43.07 37.37 46.61 23.05 49.19 29 52.4 29" fill="none" stroke="#313333" stroke-miterlimit="10" stroke-width="1.5"/><circle cx="53.04" cy="28.87" r="0.94" fill="#313333"/></svg>