<svg id="Layer_1" data-name="Layer 1" xmlns="http://www.w3.org/2000/svg" viewBox="0 0 88 65"><title>desktop elements</title><path d="M70.39,45.17a47.42,47.42,0,0,0-.61-8.27,30.7,30.7,0,0,0-3.21-10A16.33,16.33,0,0,0,55,18.43a44.19,44.19,0,0,0-10.82-.91,45.32,45.32,0,0,0-14.68,3.05,14.28,14.28,0,0,0-7.7,7.2,27.15,27.15,0,0,0-2.54,8.06,49.9,49.9,0,0,0-.67,7.81c0,1.27.08,2.55.13,3.82,0,.14,0,.27,0,.4s-.06.4-.33.43-.46,0-.48-.36c0-.74-.08-1.49-.11-2.24a44.16,44.16,0,0,1,.29-6.9c.15-1.39.39-2.77.6-4.15A1.35,1.35,0,0,0,17.79,33a6.24,6.24,0,0,1-2.63-2.11,5.87,5.87,0,0,1-.66-5.37,5.67,5.67,0,0,1,4.85-4,6.15,6.15,0,0,1,2.56.16,6.53,6.53,0,0,0,5.36-.82,22.26,22.26,0,0,1,9-3.11c2-.3,4-.57,6.06-.78a42.16,42.16,0,0,1,8.1-.08A26.2,26.2,0,0,1,60,19.4a18.32,18.32,0,0,1,2,1.22,2.27,2.27,0,0,0,2.39.24,7.52,7.52,0,0,1,5.4-.29,5.51,5.51,0,0,1,3.9,4.54,5.57,5.57,0,0,1-1,4.66,6.11,6.11,0,0,1-1.86,1.57,1.79,1.79,0,0,0-1,1.36,2.56,2.56,0,0,0,.08.91A33.58,33.58,0,0,1,71,41.07c.1,2.19.13,4.39.2,6.58,0,.11,0,.22,0,.33s-.19.31-.4.31a.31.31,0,0,1-.35-.31c0-.3-.06-.6-.06-.89C70.38,46.48,70.39,45.87,70.39,45.17ZM20.6,25.94a3.55,3.55,0,0,0,2.64-1.51,1.18,1.18,0,0,0-.75-2,8.12,8.12,0,0,0-3.4,0,5,5,0,0,0-4,6.28,5.11,5.11,0,0,0,3,3.6.85.85,0,0,0,1.06-.23,2.12,2.12,0,0,0,.39-.64,3.24,3.24,0,0,0-.23-2.89A3.38,3.38,0,0,1,19,28C18.68,27.17,19.53,25.73,20.6,25.94ZM67.32,21a6.53,6.53,0,0,0-2.2.42c-.67.21-.94.72-.59,1.32A3.53,3.53,0,0,0,67,24.5a.88.88,0,0,0,.23,0c1-.21,1.6.37,2,1.25A1,1,0,0,1,69,26.93a1.89,1.89,0,0,0-.63,1.51,4.69,4.69,0,0,0,.74,2.09.77.77,0,0,0,.86.37,2.23,2.23,0,0,0,.7-.28,5.3,5.3,0,0,0,1.22-7.78A5.54,5.54,0,0,0,67.32,21Z" fill="#313333" stroke="#313333" stroke-miterlimit="10" stroke-width="0.5"/><path d="M60.63,30.1a6.56,6.56,0,0,1-2.53,5.52,7.83,7.83,0,0,1-9.49.25c-.43-.3-.77-.74-1.22-1s-.51-.77-.79-1.13a4.91,4.91,0,0,1-.66-1.29,8.44,8.44,0,0,1-.39-1.39,7.45,7.45,0,0,1,6-8.34,7.67,7.67,0,0,1,8.75,5.16,17.61,17.61,0,0,1,.4,2.19Zm-14-1.26.11.07,1-.53a3.14,3.14,0,0,1,1.85-.44,2.53,2.53,0,0,1,2.23,2.94,2.63,2.63,0,0,1-3.67,1.91,4.09,4.09,0,0,0-.83-.15,4,4,0,0,0,1.47,2.17,7.13,7.13,0,0,0,7.73.54,5.83,5.83,0,0,0,3.07-5.9A6,6,0,0,0,56.94,25a6.53,6.53,0,0,0-10.07,3A6.14,6.14,0,0,0,46.68,28.84Z" fill="#f69437" stroke="#f69437" stroke-miterlimit="10" stroke-width="0.25"/><path d="M41.12,35.23a5.22,5.22,0,0,0-.42.36,7.8,7.8,0,0,1-10.42.91,7.09,7.09,0,0,1-3-5.88,6.78,6.78,0,0,1,2-4.81,7.21,7.21,0,0,1,4.31-2.4,7.86,7.86,0,0,1,4.09.55,7.31,7.31,0,0,1,4,3.41,7.14,7.14,0,0,1,.19,6c-.17.46-.41.9-.62,1.35C41.24,34.89,41.18,35.09,41.12,35.23ZM29.05,33.51c.14.2.28.38.4.56A6.37,6.37,0,0,0,37,36.69a6.1,6.1,0,0,0,4.29-7.33,6.47,6.47,0,0,0-3.8-4.54,5.83,5.83,0,0,0-3.57-.32A6.19,6.19,0,0,0,29.08,28c-.19.38-.33.78-.48,1.17l.07.1a3.56,3.56,0,0,0,.82-.25,3,3,0,0,1,1.78-.46,2.54,2.54,0,0,1,2.36,2.8c-.35,2-2.07,2.57-3.77,2A.7.7,0,0,0,29.05,33.51Z" fill="#f69437" stroke="#f69437" stroke-miterlimit="10" stroke-width="0.25"/><path d="M41.35,35.5a1.34,1.34,0,0,0,.35-.1,5.19,5.19,0,0,1,4.14-.55,2.33,2.33,0,0,1,1.3.8.53.53,0,0,1,.13.3,1.61,1.61,0,0,0,.94,1.44c.32.19.67.35,1,.57a2.91,2.91,0,0,1,1.35,2.66,1.8,1.8,0,0,1-1.6,1.81l-.31.06c-.56.14-.73.37-.7.94s0,1.35.06,2a1.4,1.4,0,0,1-1,1.46,6.5,6.5,0,0,1-.62.22A1.35,1.35,0,0,1,45,46.81a.88.88,0,0,0-1.1-.12,4.69,4.69,0,0,1-1.19.42,1.65,1.65,0,0,1-1.88-1.68A5.84,5.84,0,0,1,41,44,1.29,1.29,0,0,0,40,42.31l-.29-.1a2,2,0,0,1-1.23-3A5,5,0,0,1,39.56,38a5.39,5.39,0,0,0,1.63-2c0-.11.09-.21.13-.32A.8.8,0,0,0,41.35,35.5Zm6.6,6,.5,0a1.13,1.13,0,0,0,1-1.21,2.18,2.18,0,0,0-3-1.76,5.15,5.15,0,0,1-2.64.51,13.35,13.35,0,0,1-2.16-.44,1.73,1.73,0,0,0-2.11.82,1.45,1.45,0,0,0,.26,1.75,1.17,1.17,0,0,0,1.45.34c.4-.15.78-.34,1.17-.48a4.66,4.66,0,0,1,4,.13A3,3,0,0,0,48,41.47Zm-3.78,1.87c0-.33,0-.66,0-1,0-.57-.4-.87-.92-.62a7,7,0,0,0-.93.59,1.5,1.5,0,0,0-.65,1.12,17.75,17.75,0,0,0,.06,2.19.86.86,0,0,0,.77.77,1.22,1.22,0,0,0,1.39-.83A6.06,6.06,0,0,0,44.17,43.34Zm.74.51h-.08c.08.61.14,1.23.25,1.84a.91.91,0,0,0,1,.72c.6,0,1-.19,1.11-.64a5,5,0,0,0,0-2.86,1.44,1.44,0,0,0-1.46-1c-.49,0-.74.21-.75.65S44.91,43.41,44.91,43.85Z" fill="#f69437" stroke="#f69437" stroke-miterlimit="10" stroke-width="0.25"/></svg>