<?xml version="1.0" encoding="utf-8"?>
<!-- Generator: Adobe Illustrator 22.0.1, SVG Export Plug-In . SVG Version: 6.00 Build 0)  -->
<svg version="1.1" id="Layer_1" xmlns="http://www.w3.org/2000/svg" xmlns:xlink="http://www.w3.org/1999/xlink" x="0px" y="0px"
	 viewBox="0 0 80 80" style="enable-background:new 0 0 80 80;" xml:space="preserve">
<style type="text/css">
	.st0{fill:#FE9902;}
	.st1{fill:#25313F;}
	.st2{fill:#137EFE;}
	.st3{fill:#5490F4;}
	.st4{fill:#FECC42;}
	.st5{fill:#D74538;}
	.st6{fill:#ECECED;}
	.st7{fill:#FEFEFD;}
	.st8{fill:#346EE5;}
	.st9{fill:#326DE5;}
	.st10{fill:#C8E8EB;}
	.st11{fill:#21BECE;}
	.st12{fill:#0381FE;}
	.st13{fill:#1259CB;}
	.st14{fill:#606060;}
	.st15{fill:#606060;stroke:#F4F4F4;stroke-miterlimit:10;}
	.st16{fill:#606060;stroke:#F4F4F4;stroke-width:0.75;stroke-miterlimit:10;}
</style>
<g>
	<path class="st0" d="M41,44.6c-9.3,0-16.3-2.8-22.3-8.2c-0.2-0.2-0.5-0.4-0.3-0.7c0.2-0.3,0.6-0.1,0.8,0.1
		c4.5,2.6,9.5,4.4,14.6,5.2c2.8,0.5,5.6,0.6,8.5,0.5c4.9-0.3,9.6-1.4,14.1-3.3c0.2-0.1,0.4-0.2,0.6-0.2c0.3,0,0.6,0.1,0.7,0.4
		c0.1,0.3,0,0.5-0.2,0.7c-0.1,0.1-0.2,0.2-0.3,0.3c-2.9,2-6.1,3.5-9.5,4.3C45.5,44.2,43.2,44.6,41,44.6z"/>
	<path class="st1" d="M40.5,22l-1.7,7.3c-0.2,0.6-0.3,1.3-0.5,1.9s-0.3,0.7-0.9,0.7h-1.1c-0.6,0-0.7-0.1-0.9-0.7
		c-0.7-2.2-1.4-4.5-2.1-6.8L32,20c-0.2-0.8-0.2-0.9,0.7-0.9h0.8c0.7,0,0.9,0.1,1.1,0.8c0.3,1.3,0.6,2.5,1,3.8
		c0.4,1.7,0.9,3.4,1.3,5.1c0,0.1,0.1,0.2,0.1,0.3c0.2-0.1,0.1-0.3,0.2-0.4c0.7-3,1.4-5.9,2.1-8.8c0.2-0.7,0.3-0.8,1-0.8h0.9
		c0.7,0,0.8,0.1,1,0.8c0.5,2,0.9,3.9,1.4,5.9c0.3,1.1,0.5,2.3,0.8,3.5c0.2-0.1,0.1-0.2,0.2-0.3c0.7-3,1.5-5.9,2.3-8.9
		c0.2-0.8,0.3-0.9,1.2-0.9h1c0.3,0,0.5,0.2,0.4,0.5c0,0.1-0.1,0.3-0.1,0.4l-3.5,11c-0.2,0.7-0.3,0.8-1.1,0.8h-1
		c-0.6,0-0.8-0.1-0.9-0.7c-0.6-2.2-1.1-4.5-1.6-6.8C41,23.5,40.8,22.7,40.5,22L40.5,22z"/>
	<path class="st1" d="M28.3,30.1c-0.8,0.9-1.8,1.6-3,1.8c-0.8,0.2-1.7,0.2-2.6,0c-1.5-0.4-2.6-1.8-2.6-3.3c-0.2-2.2,1.5-4.1,3.6-4.3
		c1.3-0.2,2.7-0.1,4,0.3c0.3,0.1,0.4,0,0.4-0.3c0-0.3,0-0.9,0-1.3c0-1.2-1-2.2-2.2-2.2c-0.1,0-0.1,0-0.2,0c-1.3-0.1-2.6,0.1-3.8,0.7
		c-0.9,0.3-0.9,0.3-1-0.6c-0.1-0.6,0.3-1.2,0.8-1.3c1.8-0.8,3.7-1,5.6-0.6c1.7,0.3,3,1.8,3.1,3.6c0.1,1.7,0.1,3.3,0,5
		c-0.1,1,0.1,2,0.6,2.9c0.2,0.2,0.1,0.5-0.1,0.6c0,0,0,0-0.1,0c-0.3,0.2-0.6,0.5-1,0.7c-0.2,0.2-0.6,0.1-0.8-0.1
		c-0.3-0.3-0.5-0.6-0.6-0.9L28.3,30.1z M25.6,26c-0.3,0-0.6,0-0.9,0c-1.2,0-2.2,1-2.2,2.3c0,0.2,0,0.4,0.1,0.6
		c0.1,0.7,0.6,1.2,1.3,1.3c1.1,0.2,2.2,0,3-0.7c0.6-0.4,1-1,1-1.7c0-0.4,0-0.8,0.1-1.2s-0.1-0.3-0.3-0.3C27.1,26.1,26.4,26,25.6,26z
		"/>
	<path class="st1" d="M54.3,32.2c-1.1,0-2.1-0.2-3.1-0.6c-0.8-0.2-1.2-1-1-1.8c0-0.1,0-0.1,0.1-0.2c0.1-0.3,0.3-0.3,0.5-0.2
		c0.2,0.1,0.4,0.2,0.6,0.3c1.4,0.6,3,0.7,4.5,0.4c0.8-0.1,1.5-0.7,1.5-1.6c0.1-0.6-0.3-1.2-0.8-1.4c-0.6-0.3-1.3-0.6-1.9-0.7
		c-0.8-0.2-1.5-0.5-2.2-0.8c-1.6-0.7-2.3-2.5-1.8-4.1c0.4-1.3,1.5-2.2,2.9-2.5c1.6-0.4,3.3-0.3,4.8,0.4c0.5,0.1,0.9,0.6,0.8,1.2
		c0,1-0.1,1-1,0.7c-1.2-0.5-2.6-0.7-4-0.4c-0.8,0.1-1.4,0.9-1.3,1.7c0,0.1,0,0.2,0.1,0.3c0.1,0.4,0.4,0.7,0.8,0.9
		c0.6,0.3,1.2,0.5,1.9,0.7c0.7,0.2,1.4,0.4,2.1,0.7c1.8,0.8,2.6,2.8,1.8,4.6c-0.2,0.6-0.7,1.1-1.2,1.5
		C57.2,31.9,55.7,32.3,54.3,32.2z"/>
	<path class="st0" d="M57.1,36.6c-1,0-1.9,0.1-2.9,0.2c-0.2,0-0.6,0.2-0.7-0.1c-0.1-0.3,0.2-0.4,0.4-0.6c1.2-0.8,2.7-1.2,4.1-1.2
		c1-0.1,1.9,0,2.9,0.3c0.6,0.2,0.8,0.4,0.7,1c0,2.3-0.9,4.6-2.6,6.3c-0.1,0.1-0.3,0.2-0.4,0.3c-0.1,0.1-0.3,0.1-0.4,0
		c-0.1-0.1-0.1-0.3,0-0.4c0.2-0.5,0.4-0.9,0.5-1.4c0.4-1,0.7-2,0.8-3.1c0.1-0.9-0.1-1.1-1-1.3l-0.3-0.1L57.1,36.6z"/>
</g>
<g>
	<g>
		<path class="st14" d="M34.3,69.9l-0.9-2h-4.3l-0.9,2h-0.8l3.5-7.7h0.8l3.5,7.7H34.3z M29.4,67.2h3.7L31.2,63L29.4,67.2z"/>
		<path class="st14" d="M45.1,62.2h0.8l-2.6,7.7h-0.8l-2.2-6.7l-2.2,6.7h-0.8l-2.6-7.7h0.8l2.2,6.9l2.2-6.9h0.8l2.2,6.9L45.1,62.2z"
			/>
		<path class="st14" d="M50.4,63c-0.4-0.1-0.7-0.2-1.1-0.2c-0.5,0-1,0.1-1.3,0.3c-0.3,0.2-0.5,0.5-0.5,0.9c0,0.3,0.1,0.6,0.3,0.8
			s0.4,0.4,0.6,0.5c0.3,0.1,0.6,0.2,1.1,0.4c0.5,0.2,0.9,0.3,1.3,0.5c0.3,0.2,0.6,0.4,0.8,0.7s0.3,0.7,0.3,1.1
			c0,0.4-0.1,0.8-0.3,1.1c-0.2,0.3-0.6,0.6-1,0.7c-0.4,0.2-0.9,0.3-1.4,0.3c-0.5,0-1.1-0.1-1.6-0.3s-0.9-0.5-1.3-0.8l0.4-0.6
			c0.3,0.3,0.7,0.6,1.2,0.8c0.5,0.2,0.9,0.3,1.3,0.3c0.6,0,1.1-0.1,1.4-0.4s0.5-0.6,0.5-1c0-0.3-0.1-0.6-0.3-0.8
			c-0.2-0.2-0.4-0.4-0.6-0.5c-0.3-0.1-0.6-0.2-1.1-0.4c-0.5-0.2-0.9-0.3-1.3-0.5c-0.3-0.1-0.6-0.4-0.8-0.6c-0.2-0.3-0.3-0.7-0.3-1.1
			c0-0.4,0.1-0.7,0.3-1c0.2-0.3,0.5-0.5,0.9-0.7c0.4-0.2,0.9-0.2,1.4-0.2c0.4,0,0.8,0.1,1.3,0.2c0.4,0.1,0.8,0.3,1.1,0.5l-0.3,0.6
			C51.1,63.3,50.8,63.1,50.4,63z"/>
	</g>
</g>
</svg>
