<?xml version="1.0" encoding="utf-8"?>
<!-- Generator: Adobe Illustrator 22.0.1, SVG Export Plug-In . SVG Version: 6.00 Build 0)  -->
<svg version="1.1" id="Layer_1" xmlns="http://www.w3.org/2000/svg" xmlns:xlink="http://www.w3.org/1999/xlink" x="0px" y="0px"
	 viewBox="0 0 80 80" style="enable-background:new 0 0 80 80;" xml:space="preserve">
<style type="text/css">
	.st0{fill:#FE9902;}
	.st1{fill:#25313F;}
	.st2{fill:#137EFE;}
	.st3{fill:#5490F4;}
	.st4{fill:#FECC42;}
	.st5{fill:#D74538;}
	.st6{fill:#ECECED;}
	.st7{fill:#FEFEFD;}
	.st8{fill:#346EE5;}
	.st9{fill:#326DE5;}
	.st10{fill:#C8E8EB;}
	.st11{fill:#21BECE;}
	.st12{fill:#0381FE;}
	.st13{fill:#1259CB;}
	.st14{fill:#606060;}
	.st15{fill:#606060;stroke:#F4F4F4;stroke-miterlimit:10;}
	.st16{fill:#606060;stroke:#F4F4F4;stroke-width:0.75;stroke-miterlimit:10;}
</style>
<g>
	<g>
		<path class="st12" d="M29.3,40.4c1.3,0,2.6,0,3.9,0c0.6,0,0.7-0.2,0.7-0.7c0-1.5,0-3.1,0-4.6c0-0.6,0.1-0.9,0.8-0.8
			c1.6,0,3.1,0,4.7,0c0.6,0,0.8,0.2,0.7,0.8c0,1.5,0,3,0,4.5c0,0.7,0.2,0.8,0.9,0.8c4.6-0.5,8.2-4.1,8.7-8.7
			c0.5-4.8-2.7-9.3-7.4-10.3c-4.8-1.1-9.7,1.5-11.4,6.2c-0.3,0.8-0.5,1.7-0.5,2.6c0,0.5-0.2,0.7-0.7,0.7c-1.6,0-3.2,0-4.8,0
			c-0.6,0-0.8-0.2-0.7-0.8c0.1-3.6,1.5-7,3.9-9.7c4.3-4.9,11.2-6.7,17.3-4.5c5.9,2,10,7.5,10.3,13.7c0.7,8.7-5.8,16.4-14.5,17.1
			c-0.1,0-0.2,0-0.3,0c-0.8,0.1-1.1-0.1-1.1-1c0.1-1.5,0-3,0-4.5c0-0.5-0.2-0.7-0.7-0.7c-1.6,0-3.1,0-4.7,0c-0.6,0-0.7,0.2-0.7,0.7
			c0,1.1,0,2.1,0,3.2c0,0.5-0.1,0.8-0.7,0.8c-1.1-0.1-2.3,0-3.4,0c-0.5,0-0.7-0.1-0.7-0.6c0-1.3,0-2.7,0-4
			C29.2,40.6,29.2,40.5,29.3,40.4C29.3,40.5,29.3,40.5,29.3,40.4z"/>
	</g>
	<path class="st12" d="M29.3,40.4c0,0-0.1,0.1-0.1,0.1c-1.1,0-2.2,0-3.3,0c-0.5,0-0.7-0.1-0.7-0.6c0-1,0-1.9,0-2.9
		c0-0.4,0.1-0.6,0.6-0.6c1,0,1.9,0,2.9,0c0.5,0,0.6,0.2,0.6,0.6C29.2,38.2,29.2,39.3,29.3,40.4z"/>
</g>
<g>
	<path class="st14" d="M8.2,62.7c0.6,0.3,1.1,0.8,1.4,1.4c0.3,0.6,0.5,1.2,0.5,2S9.9,67.4,9.6,68c-0.3,0.6-0.8,1-1.4,1.4
		c-0.6,0.3-1.3,0.5-2,0.5H3.1v-7.7h3.1C6.9,62.2,7.6,62.3,8.2,62.7z M7.8,68.8c0.5-0.3,0.9-0.7,1.1-1.1s0.4-1,0.4-1.6
		s-0.1-1.1-0.4-1.6c-0.3-0.5-0.7-0.9-1.2-1.1c-0.5-0.3-1-0.4-1.6-0.4H3.8v6.3h2.4C6.7,69.2,7.3,69,7.8,68.8z"/>
	<path class="st14" d="M11.7,63.6h0.7v6.2h-0.7V63.6z"/>
	<path class="st14" d="M19.2,66.8h0.6v2.3c-0.3,0.2-0.7,0.4-1.1,0.6s-0.8,0.2-1.2,0.2c-0.6,0-1.2-0.1-1.6-0.4
		c-0.5-0.3-0.9-0.7-1.2-1.2c-0.3-0.5-0.4-1-0.4-1.6c0-0.6,0.1-1.1,0.4-1.6c0.3-0.5,0.7-0.9,1.2-1.1s1.1-0.4,1.7-0.4
		c0.4,0,0.9,0.1,1.3,0.2c0.4,0.2,0.8,0.4,1.1,0.6L19.4,65c-0.3-0.2-0.5-0.4-0.9-0.5c-0.3-0.1-0.7-0.2-1-0.2c-0.5,0-0.9,0.1-1.3,0.3
		s-0.7,0.5-0.9,0.9S15,66.3,15,66.7c0,0.5,0.1,0.9,0.3,1.3c0.2,0.4,0.5,0.7,0.9,0.9c0.4,0.2,0.8,0.3,1.3,0.3c0.3,0,0.6,0,0.8-0.1
		c0.3-0.1,0.5-0.2,0.8-0.4V66.8z"/>
	<path class="st14" d="M21.8,63.6h0.7v6.2h-0.7V63.6z"/>
	<path class="st14" d="M23.8,63.6h4.8v0.6h-2v5.6h-0.7v-5.6h-2V63.6z"/>
	<path class="st14" d="M33.8,69.9l-0.7-1.6h-3.4L29,69.9h-0.8l2.8-6.2h0.8l2.8,6.2H33.8z M30,67.6h2.8l-1.4-3.2L30,67.6z"/>
	<path class="st14" d="M35.9,63.6h0.7v5.6h2.8v0.7h-3.5V63.6z"/>
	<path class="st14" d="M48.9,62.6c0.6,0.3,1.1,0.8,1.5,1.4c0.4,0.6,0.5,1.2,0.5,2c0,0.7-0.2,1.4-0.5,2c-0.4,0.6-0.8,1.1-1.5,1.4
		c-0.6,0.4-1.3,0.5-2,0.5s-1.4-0.2-2-0.5c-0.6-0.4-1.1-0.8-1.5-1.4c-0.4-0.6-0.5-1.3-0.5-2c0-0.7,0.2-1.4,0.5-2
		c0.4-0.6,0.8-1.1,1.5-1.4s1.3-0.5,2-0.5S48.3,62.3,48.9,62.6z M45.3,63.2c-0.5,0.3-0.9,0.7-1.2,1.2c-0.3,0.5-0.4,1-0.4,1.6
		c0,0.6,0.1,1.1,0.4,1.6c0.3,0.5,0.7,0.9,1.2,1.2c0.5,0.3,1,0.4,1.6,0.4c0.6,0,1.1-0.1,1.6-0.4c0.5-0.3,0.9-0.7,1.2-1.2
		c0.3-0.5,0.4-1,0.4-1.6c0-0.6-0.1-1.1-0.4-1.6s-0.7-0.9-1.2-1.2c-0.5-0.3-1-0.4-1.6-0.4C46.3,62.8,45.8,62.9,45.3,63.2z"/>
	<path class="st14" d="M56.3,64.4c-0.3-0.1-0.7-0.2-1-0.2c-0.5,0-0.9,0.1-1.3,0.3s-0.7,0.5-0.9,0.9c-0.2,0.4-0.3,0.8-0.3,1.3
		c0,0.5,0.1,0.9,0.3,1.3c0.2,0.4,0.5,0.7,0.9,0.9s0.8,0.3,1.3,0.3c0.3,0,0.7-0.1,1-0.2c0.3-0.1,0.6-0.3,0.9-0.6l0.4,0.5
		c-0.3,0.3-0.7,0.5-1.1,0.7s-0.8,0.3-1.2,0.3c-0.6,0-1.1-0.1-1.6-0.4s-0.9-0.7-1.2-1.2c-0.3-0.5-0.4-1-0.4-1.6s0.1-1.1,0.4-1.6
		c0.3-0.5,0.7-0.9,1.2-1.1c0.5-0.3,1-0.4,1.7-0.4c0.4,0,0.8,0.1,1.2,0.2c0.4,0.2,0.8,0.4,1.1,0.7L57.1,65
		C56.9,64.8,56.6,64.6,56.3,64.4z"/>
	<path class="st14" d="M59.1,63.6h4.3v0.6h-3.6v2.1H63V67h-3.2v2.2h3.7v0.6h-4.4V63.6z"/>
	<path class="st14" d="M69.7,69.9L69,68.3h-3.4l-0.7,1.6h-0.8l2.8-6.2h0.8l2.8,6.2H69.7z M65.9,67.6h2.8l-1.4-3.2L65.9,67.6z"/>
	<path class="st14" d="M71.8,63.6h0.7l3.8,5.1v-5.1H77v6.2h-0.7l-3.8-5.1v5.1h-0.7V63.6z"/>
</g>
</svg>
