<?xml version="1.0" encoding="utf-8"?>
<!-- Generator: Adobe Illustrator 22.0.1, SVG Export Plug-In . SVG Version: 6.00 Build 0)  -->
<svg version="1.1" id="Layer_1" xmlns="http://www.w3.org/2000/svg" xmlns:xlink="http://www.w3.org/1999/xlink" x="0px" y="0px"
	 viewBox="0 0 80 80" style="enable-background:new 0 0 80 80;" xml:space="preserve">
<style type="text/css">
	.st0{fill:#FE9902;}
	.st1{fill:#25313F;}
	.st2{fill:#137EFE;}
	.st3{fill:#5490F4;}
	.st4{fill:#FECC42;}
	.st5{fill:#D74538;}
	.st6{fill:#ECECED;}
	.st7{fill:#FEFEFD;}
	.st8{fill:#346EE5;}
	.st9{fill:#326DE5;}
	.st10{fill:#C8E8EB;}
	.st11{fill:#21BECE;}
	.st12{fill:#0381FE;}
	.st13{fill:#1259CB;}
	.st14{fill:#606060;}
	.st15{fill:#606060;stroke:#F4F4F4;stroke-miterlimit:10;}
	.st16{fill:#606060;stroke:#F4F4F4;stroke-width:0.75;stroke-miterlimit:10;}
</style>
<g>
	<path class="st14" d="M7,66.1h0.7V69c-0.4,0.3-0.8,0.6-1.3,0.7S5.3,70,4.8,70c-0.7,0-1.4-0.2-2-0.5c-0.6-0.4-1.1-0.8-1.5-1.4
		c-0.4-0.6-0.5-1.3-0.5-2c0-0.7,0.2-1.4,0.5-2c0.4-0.6,0.8-1.1,1.5-1.4c0.6-0.3,1.3-0.5,2-0.5c0.5,0,1,0.1,1.5,0.3
		c0.5,0.2,0.9,0.4,1.3,0.8l-0.4,0.5c-0.3-0.3-0.7-0.5-1.1-0.7c-0.4-0.2-0.8-0.2-1.3-0.2c-0.6,0-1.1,0.1-1.6,0.4
		c-0.5,0.3-0.9,0.7-1.2,1.2c-0.3,0.5-0.4,1-0.4,1.6c0,0.6,0.1,1.1,0.4,1.6c0.3,0.5,0.7,0.9,1.2,1.2c0.5,0.3,1.1,0.4,1.6,0.4
		c0.4,0,0.7-0.1,1.1-0.2c0.4-0.1,0.7-0.3,1-0.5V66.1z"/>
	<path class="st14" d="M14.2,64c0.5,0.3,0.9,0.7,1.2,1.1s0.4,1,0.4,1.6c0,0.6-0.1,1.1-0.4,1.6s-0.7,0.9-1.2,1.2
		c-0.5,0.3-1.1,0.4-1.7,0.4c-0.6,0-1.2-0.1-1.7-0.4c-0.5-0.3-0.9-0.7-1.2-1.2c-0.3-0.5-0.4-1-0.4-1.6c0-0.6,0.1-1.1,0.4-1.6
		c0.3-0.5,0.7-0.9,1.2-1.1c0.5-0.3,1.1-0.4,1.7-0.4C13.1,63.6,13.7,63.8,14.2,64z M11.3,64.6c-0.4,0.2-0.7,0.5-0.9,0.9
		c-0.2,0.4-0.3,0.8-0.3,1.3c0,0.5,0.1,0.9,0.3,1.3c0.2,0.4,0.5,0.7,0.9,0.9c0.4,0.2,0.8,0.3,1.3,0.3c0.5,0,0.9-0.1,1.3-0.3
		c0.4-0.2,0.7-0.5,0.9-0.9s0.3-0.8,0.3-1.3c0-0.5-0.1-0.9-0.3-1.3c-0.2-0.4-0.5-0.7-0.9-0.9c-0.4-0.2-0.8-0.3-1.3-0.3
		C12.1,64.3,11.7,64.4,11.3,64.6z"/>
	<path class="st14" d="M21.8,64c0.5,0.3,0.9,0.7,1.2,1.1s0.4,1,0.4,1.6c0,0.6-0.1,1.1-0.4,1.6s-0.7,0.9-1.2,1.2
		c-0.5,0.3-1.1,0.4-1.7,0.4c-0.6,0-1.2-0.1-1.7-0.4c-0.5-0.3-0.9-0.7-1.2-1.2c-0.3-0.5-0.4-1-0.4-1.6c0-0.6,0.1-1.1,0.4-1.6
		c0.3-0.5,0.7-0.9,1.2-1.1c0.5-0.3,1.1-0.4,1.7-0.4C20.7,63.6,21.3,63.8,21.8,64z M18.9,64.6c-0.4,0.2-0.7,0.5-0.9,0.9
		c-0.2,0.4-0.3,0.8-0.3,1.3c0,0.5,0.1,0.9,0.3,1.3c0.2,0.4,0.5,0.7,0.9,0.9c0.4,0.2,0.8,0.3,1.3,0.3c0.5,0,0.9-0.1,1.3-0.3
		c0.4-0.2,0.7-0.5,0.9-0.9s0.3-0.8,0.3-1.3c0-0.5-0.1-0.9-0.3-1.3c-0.2-0.4-0.5-0.7-0.9-0.9c-0.4-0.2-0.8-0.3-1.3-0.3
		C19.7,64.3,19.3,64.4,18.9,64.6z"/>
	<path class="st14" d="M29.4,66.8h0.6v2.3c-0.3,0.2-0.7,0.4-1.1,0.6c-0.4,0.2-0.8,0.2-1.2,0.2c-0.6,0-1.2-0.1-1.7-0.4
		c-0.5-0.3-0.9-0.7-1.2-1.2c-0.3-0.5-0.4-1-0.4-1.6c0-0.6,0.1-1.1,0.4-1.6c0.3-0.5,0.7-0.9,1.2-1.1c0.5-0.3,1.1-0.4,1.7-0.4
		c0.4,0,0.9,0.1,1.3,0.2c0.4,0.2,0.8,0.4,1.1,0.6L29.7,65c-0.3-0.2-0.5-0.4-0.9-0.5c-0.3-0.1-0.7-0.2-1-0.2c-0.5,0-0.9,0.1-1.3,0.3
		c-0.4,0.2-0.7,0.5-0.9,0.9c-0.2,0.4-0.3,0.8-0.3,1.3c0,0.5,0.1,0.9,0.3,1.3c0.2,0.4,0.5,0.7,0.9,0.9c0.4,0.2,0.8,0.3,1.3,0.3
		c0.3,0,0.6,0,0.8-0.1c0.3-0.1,0.5-0.2,0.8-0.4V66.8z"/>
	<path class="st14" d="M32.1,63.7h0.7v5.6h2.8v0.7h-3.5V63.7z"/>
	<path class="st14" d="M36.8,63.7h4.3v0.6h-3.6v2.1h3.2v0.6h-3.2v2.2h3.7v0.6h-4.4V63.7z"/>
	<path class="st14" d="M50.5,63.1c-0.4-0.2-0.8-0.3-1.3-0.3c-0.6,0-1.1,0.1-1.6,0.4c-0.5,0.3-0.9,0.7-1.2,1.2
		c-0.3,0.5-0.4,1-0.4,1.6c0,0.6,0.1,1.1,0.4,1.6c0.3,0.5,0.7,0.9,1.2,1.2c0.5,0.3,1,0.4,1.6,0.4c0.4,0,0.8-0.1,1.2-0.2
		c0.4-0.2,0.8-0.4,1.1-0.7l0.5,0.5c-0.4,0.4-0.8,0.6-1.3,0.8c-0.5,0.2-1,0.3-1.5,0.3c-0.7,0-1.4-0.2-2-0.5c-0.6-0.4-1.1-0.8-1.4-1.4
		c-0.4-0.6-0.5-1.3-0.5-2c0-0.7,0.2-1.4,0.5-2c0.4-0.6,0.8-1.1,1.5-1.4s1.3-0.5,2-0.5c0.5,0,1,0.1,1.5,0.3c0.5,0.2,0.9,0.5,1.3,0.8
		l-0.5,0.5C51.2,63.5,50.9,63.2,50.5,63.1z"/>
	<path class="st14" d="M53.6,63.7h0.7v5.6h2.8v0.7h-3.5V63.7z"/>
	<path class="st14" d="M62.7,64c0.5,0.3,0.9,0.7,1.2,1.1c0.3,0.5,0.4,1,0.4,1.6c0,0.6-0.1,1.1-0.4,1.6c-0.3,0.5-0.7,0.9-1.2,1.2
		C62.2,69.8,61.6,70,61,70s-1.2-0.1-1.7-0.4c-0.5-0.3-0.9-0.7-1.2-1.2c-0.3-0.5-0.4-1-0.4-1.6c0-0.6,0.1-1.1,0.4-1.6
		c0.3-0.5,0.7-0.9,1.2-1.1c0.5-0.3,1.1-0.4,1.7-0.4S62.2,63.8,62.7,64z M59.8,64.6c-0.4,0.2-0.7,0.5-0.9,0.9
		c-0.2,0.4-0.3,0.8-0.3,1.3c0,0.5,0.1,0.9,0.3,1.3c0.2,0.4,0.5,0.7,0.9,0.9c0.4,0.2,0.8,0.3,1.3,0.3c0.5,0,0.9-0.1,1.3-0.3
		c0.4-0.2,0.7-0.5,0.9-0.9c0.2-0.4,0.3-0.8,0.3-1.3c0-0.5-0.1-0.9-0.3-1.3c-0.2-0.4-0.5-0.7-0.9-0.9c-0.4-0.2-0.8-0.3-1.3-0.3
		C60.6,64.3,60.1,64.4,59.8,64.6z"/>
	<path class="st14" d="M67.1,68.8c0.3,0.3,0.8,0.5,1.4,0.5c0.6,0,1-0.2,1.4-0.5s0.5-0.8,0.5-1.4v-3.7h0.7v3.7c0,0.8-0.2,1.5-0.7,1.9
		S69.3,70,68.5,70s-1.5-0.2-1.9-0.7s-0.7-1.1-0.7-1.9v-3.7h0.7v3.7C66.6,68,66.8,68.5,67.1,68.8z"/>
	<path class="st14" d="M77.5,64.1c0.5,0.3,0.9,0.6,1.2,1.1s0.4,1,0.4,1.6c0,0.6-0.1,1.1-0.4,1.6c-0.3,0.5-0.7,0.9-1.2,1.1
		c-0.5,0.3-1.1,0.4-1.7,0.4h-2.5v-6.2h2.6C76.4,63.7,77,63.8,77.5,64.1z M77.1,68.9c0.4-0.2,0.7-0.5,0.9-0.9s0.3-0.8,0.3-1.2
		c0-0.5-0.1-0.9-0.3-1.3c-0.2-0.4-0.5-0.7-0.9-0.9c-0.4-0.2-0.8-0.3-1.3-0.3H74v4.9h1.8C76.3,69.3,76.7,69.2,77.1,68.9z"/>
</g>
<g>
	<path class="st14" d="M26.2,24.4c1.3-2.9,3.1-5.6,4.7-8.3c0.5-0.9,1.5-1,2.5-1c4.6,0,9.1,0,13.7,0c1,0,1.9,0.3,2.4,1.2
		c0.9,1.6,1.8,3.3,2.7,4.9c-2.2,0-4.5,0.1-6.7,0.1c-3.3,0-6.6-0.1-9.9-0.1c-0.8,0-1,0.5-1.3,1c-1.5,2.7-3,5.3-4.5,8
		C28.5,28.2,27.3,26.3,26.2,24.4z"/>
	<path class="st14" d="M25.5,25c1.2,1.9,2.4,3.8,3.5,5.7c1.6,2.8,3.2,5.6,4.8,8.4c0.4,0.7,0.9,0.6,1.5,0.6c3,0,6,0,9,0.1
		c-0.9,2-1.8,4-3.4,5.6c-0.3,0.3-0.7,0.3-1.1,0.3c-2.6,0-5.2,0-7.8,0c-1.1,0-1.8-0.4-2.3-1.3c-2.3-4-4.6-8.1-7-12.1
		c-0.6-1-0.6-2.1,0-3.1C23.8,27.9,24.6,26.4,25.5,25z"/>
	<path class="st14" d="M42.2,45.5c1.6-1.6,2.5-3.6,3.4-5.6c2-2.4,3.2-5.3,4.9-7.9c0.6-0.9,0.5-1.5,0-2.4c-1.5-2.5-3-5.1-4.4-7.7
		c2.2,0,4.5-0.1,6.7-0.1c1.5,2.6,3.1,5.2,4.6,7.8c0.5,0.9,0.4,1.8-0.1,2.7c-2.4,4.1-4.7,8.2-7.1,12.3c-0.3,0.5-0.6,1-1.2,1.1
		C46.7,45.9,44.4,46.2,42.2,45.5z"/>
	<circle class="st14" cx="40.1" cy="30.8" r="3.7"/>
</g>
</svg>
