<?xml version="1.0" encoding="utf-8"?>
<!-- Generator: Adobe Illustrator 22.0.1, SVG Export Plug-In . SVG Version: 6.00 Build 0)  -->
<svg version="1.1" id="Layer_1" xmlns="http://www.w3.org/2000/svg" xmlns:xlink="http://www.w3.org/1999/xlink" x="0px" y="0px"
	 viewBox="0 0 80 80" style="enable-background:new 0 0 80 80;" xml:space="preserve">
<style type="text/css">
	.st0{fill:#FE9902;}
	.st1{fill:#25313F;}
	.st2{fill:#137EFE;}
	.st3{fill:#5490F4;}
	.st4{fill:#FECC42;}
	.st5{fill:#D74538;}
	.st6{fill:#ECECED;}
	.st7{fill:#FEFEFD;}
	.st8{fill:#346EE5;}
	.st9{fill:#326DE5;}
	.st10{fill:#C8E8EB;}
	.st11{fill:#21BECE;}
	.st12{fill:#0381FE;}
	.st13{fill:#1259CB;}
	.st14{fill:#606060;}
	.st15{fill:#606060;stroke:#F4F4F4;stroke-miterlimit:10;}
	.st16{fill:#606060;stroke:#F4F4F4;stroke-width:0.75;stroke-miterlimit:10;}
</style>
<g>
	<path class="st15" d="M51.8,14c0.1,0,0.2,0,0.3,0c0.3,0.3,0.7,0.5,1.1,0.7c1.1,0.7,2.2,1.2,3.2,2c-0.2,0.1-0.3,0.2-0.5,0.3
		c-2,1.1-4,2.3-6,3.4c-0.7,0.4-1,0.8-1,1.6c0.1,0.8,0.1,1.5-0.3,2.3c-1.8,3.9-3.5,7.8-5.2,11.7c-0.3,0.8-0.8,1.4-1.5,1.7
		c-0.4,0.2-0.8,0.5-1.2,0.7C40.1,38.6,40,39,40,39.6c0,2.8,0,5.5,0,8.3c-2.1-1-4.1-2.3-6.1-3.5c-0.2-0.1-0.3-0.3-0.4-0.5
		c-2.4-5.9-4.8-11.8-7.3-17.7c-0.9-2.1-1.6-4.2-2.6-6.2c0-1.1,0-2.3,0-3.4c1.5-0.7,3-1.6,4.3-2.5c0.1,0,0.2,0,0.3,0
		c0.1,0.2,0.3,0.3,0.5,0.4c1.4,0.8,2.8,1.6,4.2,2.4c0.9,0.5,1.8,0.9,2.6,1.6c-1.3,0.7-2.6,1.5-3.9,2.2c-0.2,0.1-0.5,0.3-0.5,0.6
		c0,1.1-0.1,2.3,0.4,3.4c0.8,1.7,1.5,3.4,2.3,5.1c1,2.2,2,4.4,2.9,6.7c0.2,0.6,0.5,0.6,1,0.3c0.5-0.4,1.1-0.7,1.7-1
		c0.4-0.2,0.6-0.6,0.6-1.1c0-1,0-1.9,0-2.9c0.1-0.2,0.3-0.5,0.4-0.7c1.1-2.5,2.1-5,3.2-7.5c0.7-1.4,1.1-2.9,0.9-4.4
		c-0.1-0.5,0.2-0.8,0.6-1c1.9-1.1,3.8-2.2,5.7-3.3C51.2,14.5,51.6,14.4,51.8,14z"/>
	<path class="st15" d="M56.4,16.7c0.1,1.5,0.2,2.9-0.4,4.4c-3.1,7.5-6.2,15.1-9.3,22.6c-0.2,0.4-0.4,0.7-0.8,0.9c-1.7,1-3.4,2-5.2,3
		c-0.2,0.1-0.5,0.2-0.6,0.4c0,0-0.1,0-0.1,0c0,0,0-0.1,0-0.1c0-2.8,0-5.5,0-8.3c0-0.6,0.2-1,0.7-1.2c0.4-0.2,0.8-0.5,1.2-0.7
		c0.7-0.4,1.2-1,1.5-1.7c1.7-3.9,3.4-7.8,5.2-11.7c0.3-0.8,0.3-1.5,0.3-2.3c-0.1-0.8,0.3-1.3,1-1.6c2-1.1,4-2.2,6-3.4
		C56,16.9,56.2,16.8,56.4,16.7z"/>
	<path class="st15" d="M35.5,18.5c0,0.1,0.1,0.2,0.1,0.4c-0.3,1.9,0.4,3.6,1.2,5.3c1.1,2.5,2.2,5,3.3,7.5c0,1,0,1.9,0,2.9
		c0,0.5-0.2,0.8-0.6,1.1c-0.6,0.3-1.1,0.6-1.7,1c-0.5,0.3-0.8,0.3-1-0.3c-1-2.2-2-4.5-2.9-6.7c-0.8-1.7-1.5-3.4-2.3-5.1
		c-0.6-1.1-0.4-2.2-0.4-3.4c0-0.3,0.3-0.5,0.5-0.6C32.9,19.9,34.2,19.2,35.5,18.5z"/>
</g>
<g>
	<path class="st14" d="M16.7,62.2h0.8l2.7,6.9l2.7-6.9h0.8l-3.2,7.7h-0.8L16.7,62.2z"/>
	<path class="st14" d="M29.6,69.9l-0.7-1.6h-3.4l-0.7,1.6H24l2.8-6.2h0.8l2.8,6.2H29.6z M25.7,67.7h2.8l-1.4-3.2L25.7,67.7z"/>
	<path class="st14" d="M36,66.8h0.6v2.3c-0.3,0.2-0.7,0.4-1.1,0.6S34.8,70,34.3,70c-0.6,0-1.2-0.1-1.6-0.4c-0.5-0.3-0.9-0.7-1.2-1.2
		c-0.3-0.5-0.4-1-0.4-1.6c0-0.6,0.1-1.1,0.4-1.6c0.3-0.5,0.7-0.9,1.2-1.1s1.1-0.4,1.7-0.4c0.4,0,0.9,0.1,1.3,0.2
		c0.4,0.2,0.8,0.4,1.1,0.6L36.3,65c-0.3-0.2-0.5-0.4-0.9-0.5c-0.3-0.1-0.7-0.2-1-0.2c-0.5,0-0.9,0.1-1.3,0.3s-0.7,0.5-0.9,0.9
		s-0.3,0.8-0.3,1.3c0,0.5,0.1,0.9,0.3,1.3c0.2,0.4,0.5,0.7,0.9,0.9c0.4,0.2,0.8,0.3,1.3,0.3c0.3,0,0.6,0,0.8-0.1
		c0.3-0.1,0.5-0.2,0.8-0.4V66.8z"/>
	<path class="st14" d="M42.8,69.9l-1.3-2c-0.2,0-0.3,0-0.4,0h-1.7v2h-0.7v-6.2h2.4c0.8,0,1.4,0.2,1.8,0.5c0.4,0.4,0.7,0.9,0.7,1.5
		c0,0.5-0.1,0.9-0.4,1.3c-0.2,0.3-0.6,0.6-1,0.7l1.5,2.1H42.8z M41.1,67.3c0.6,0,1-0.1,1.3-0.4c0.3-0.3,0.5-0.6,0.5-1.1
		c0-0.5-0.2-0.8-0.5-1.1c-0.3-0.3-0.7-0.4-1.3-0.4h-1.7v3H41.1z"/>
	<path class="st14" d="M49.9,69.9l-0.7-1.6h-3.4l-0.7,1.6h-0.8l2.8-6.2h0.8l2.8,6.2H49.9z M46.1,67.7H49l-1.4-3.2L46.1,67.7z"/>
	<path class="st14" d="M52,63.7h0.7l3.8,5.1v-5.1h0.7v6.2h-0.7l-3.8-5.1v5.1H52V63.7z"/>
	<path class="st14" d="M58.5,63.7h4.8v0.6h-2v5.6h-0.7v-5.6h-2V63.7z"/>
</g>
</svg>
