<svg id="Layer_1" data-name="Layer 1" xmlns="http://www.w3.org/2000/svg" viewBox="0 0 69.19 68"><defs><style>.cls-1{fill:#162a4a;}.cls-2{fill:#83c241;}.cls-3{fill:#328c42;}.cls-4{fill:#606060;}</style></defs><title>elemnts oe</title><path class="cls-1" d="M32.8,34.38a18.19,18.19,0,0,1-5-20.32c.12-.3.22-.6.33-.9l1-1.92A20.08,20.08,0,0,1,33,6.8,16.08,16.08,0,0,0,21.2,4.86a5.44,5.44,0,0,0-1.43.3c-.29.06-.62.38-.86,0a7.29,7.29,0,0,1-.73-1.38c-.05-.14.24-.19.39-.25l1.29-.47a18.65,18.65,0,0,1,9.5.06,17.44,17.44,0,0,1,4.78,2.1.75.75,0,0,0,.94,0A17.82,17.82,0,0,1,49,3a1.11,1.11,0,0,0,.26,0c.21.09.41.19.63.26,1.36.43,1.34.42.63,1.63a.59.59,0,0,1-.84.3,4.61,4.61,0,0,0-1.6-.37A16,16,0,0,0,36.3,6.81a20.76,20.76,0,0,1,3.84,4.44l1,1.91a18.08,18.08,0,0,1-1.47,17.6,18.35,18.35,0,0,1-3.16,3.6c-.14.1-.29.18-.42.29-1.47,1.15-1.47,1.15-2.93,0C33,34.53,32.92,34.46,32.8,34.38Zm.07-2.67a15.94,15.94,0,0,0-3.22-15.49c-.59-.65-.57.09-.64.33a15.93,15.93,0,0,0,.93,10.83A14.73,14.73,0,0,0,32.87,31.71Zm3.46,0a2.19,2.19,0,0,0,.31-.22,3,3,0,0,0,.31-.31,16.19,16.19,0,0,0,3.32-14.57c-.05-.2,0-.56-.31-.55s-.38.24-.52.41a15.94,15.94,0,0,0-3.35,6.46A16.29,16.29,0,0,0,36.33,31.68ZM31.05,12a15.84,15.84,0,0,0,7.15,0,15.41,15.41,0,0,0-3.27-3.76.37.37,0,0,0-.58,0A15.86,15.86,0,0,0,31.05,12Z"/><path class="cls-2" d="M32.87,31.71a14.73,14.73,0,0,1-2.93-4.33A15.93,15.93,0,0,1,29,16.55c.07-.24,0-1,.64-.33A15.94,15.94,0,0,1,32.87,31.71Z"/><path class="cls-3" d="M36.33,31.68a16.29,16.29,0,0,1-.24-8.78,15.94,15.94,0,0,1,3.35-6.46c.14-.17.34-.41.52-.41s.26.35.31.55A16.19,16.19,0,0,1,37,31.15a3,3,0,0,1-.31.31A2.19,2.19,0,0,1,36.33,31.68Z"/><path class="cls-4" d="M6.54,58.85a2.6,2.6,0,0,0-1-.21A2.64,2.64,0,0,0,4.18,59a2.65,2.65,0,0,0-1.32,2.29,2.52,2.52,0,0,0,.36,1.32,2.6,2.6,0,0,0,1,1,2.55,2.55,0,0,0,1.33.36,2.59,2.59,0,0,0,1-.21,2.7,2.7,0,0,0,.88-.56l.38.41a3.82,3.82,0,0,1-1.07.68,3.11,3.11,0,0,1-1.23.25,3.19,3.19,0,0,1-1.64-.43,3.23,3.23,0,0,1-1.18-1.17,3.12,3.12,0,0,1-.44-1.61,3.06,3.06,0,0,1,.44-1.6,3.29,3.29,0,0,1,2.84-1.59,3.35,3.35,0,0,1,2.27.9l-.37.43A2.85,2.85,0,0,0,6.54,58.85Z"/><path class="cls-4" d="M12.68,59.64a2.58,2.58,0,0,1,1,.93,2.45,2.45,0,0,1,.36,1.3,2.52,2.52,0,0,1-.36,1.32,2.56,2.56,0,0,1-1,1,2.72,2.72,0,0,1-1.35.35A2.78,2.78,0,0,1,10,64.14a2.6,2.6,0,0,1-1-1,2.52,2.52,0,0,1-.36-1.32A2.45,2.45,0,0,1,9,60.57a2.58,2.58,0,0,1,1-.94,2.77,2.77,0,0,1,1.36-.34A2.72,2.72,0,0,1,12.68,59.64Zm-2.38.46a2.1,2.1,0,0,0-.76.75,1.91,1.91,0,0,0-.28,1,2,2,0,0,0,.28,1,2,2,0,0,0,.76.75,2,2,0,0,0,1,.28,2,2,0,0,0,1-.28,2.07,2.07,0,0,0,.75-.75,2,2,0,0,0,.28-1,1.91,1.91,0,0,0-.28-1,2.15,2.15,0,0,0-.75-.75,2.06,2.06,0,0,0-1-.27A2.1,2.1,0,0,0,10.3,60.1Z"/><path class="cls-4" d="M18.38,60a2.15,2.15,0,0,0-.82-.17,2,2,0,0,0-1.79,1,2,2,0,0,0-.28,1,2.07,2.07,0,0,0,1,1.78,2,2,0,0,0,1,.28,2.13,2.13,0,0,0,.81-.16,2.34,2.34,0,0,0,.71-.46l.36.39a2.79,2.79,0,0,1-.89.58,2.59,2.59,0,0,1-1,.21,2.68,2.68,0,0,1-1.34-.35,2.65,2.65,0,0,1-1-1,2.47,2.47,0,0,1-.35-1.31,2.44,2.44,0,0,1,.35-1.3,2.58,2.58,0,0,1,1-.94,2.72,2.72,0,0,1,1.35-.35,2.76,2.76,0,0,1,1,.2,2.63,2.63,0,0,1,.87.55l-.36.42A2.16,2.16,0,0,0,18.38,60Z"/><path class="cls-4" d="M24.89,64.44h-.75L22.27,62l-1,1.08v1.34h-.61V59.33h.61v3l2.74-3h.72l-2,2.22Z"/><path class="cls-4" d="M29.26,64.44,28.19,62.8l-.32,0H26.52v1.62h-.61V59.33h2a2.28,2.28,0,0,1,1.5.45A1.54,1.54,0,0,1,29.9,61a1.76,1.76,0,0,1-.3,1.05,1.61,1.61,0,0,1-.86.6L30,64.44Zm-1.39-2.15A1.63,1.63,0,0,0,28.94,62a1.16,1.16,0,0,0,.38-.92,1.08,1.08,0,0,0-.38-.89,1.63,1.63,0,0,0-1.07-.31H26.52v2.43Z"/><path class="cls-4" d="M35,59.64a2.58,2.58,0,0,1,1,.93,2.45,2.45,0,0,1,.36,1.3A2.52,2.52,0,0,1,36,63.19a2.56,2.56,0,0,1-1,1,2.78,2.78,0,0,1-2.7,0,2.56,2.56,0,0,1-1-1A2.52,2.52,0,0,1,31,61.87a2.45,2.45,0,0,1,.36-1.3,2.53,2.53,0,0,1,1-.94,2.81,2.81,0,0,1,2.7,0Zm-2.38.46a2.18,2.18,0,0,0-.76.75,1.91,1.91,0,0,0-.28,1,2,2,0,0,0,.28,1,2.1,2.1,0,0,0,.76.75,2,2,0,0,0,1,.28,2,2,0,0,0,1-.28,2.07,2.07,0,0,0,.75-.75,2,2,0,0,0,.28-1,1.91,1.91,0,0,0-.28-1,2.15,2.15,0,0,0-.75-.75,2.06,2.06,0,0,0-1-.27A2.1,2.1,0,0,0,32.61,60.1Z"/><path class="cls-4" d="M41.46,64.44l-.57-1.31H38.11l-.56,1.31h-.64l2.29-5.11h.63l2.29,5.11Zm-3.12-1.82h2.32L39.5,60Z"/><path class="cls-4" d="M46.2,60a2.08,2.08,0,0,0-1.85.1,2.18,2.18,0,0,0-.76.75,2.07,2.07,0,0,0-.28,1,2.05,2.05,0,0,0,1,1.78,2,2,0,0,0,1,.28,2,2,0,0,0,.8-.16,2.27,2.27,0,0,0,.72-.46l.36.39a2.91,2.91,0,0,1-.89.58,2.59,2.59,0,0,1-1,.21A2.68,2.68,0,0,1,44,64.14a2.65,2.65,0,0,1-1-1,2.48,2.48,0,0,1-.36-1.31,2.45,2.45,0,0,1,.36-1.3,2.58,2.58,0,0,1,1-.94,2.66,2.66,0,0,1,1.35-.35,2.76,2.76,0,0,1,1,.2,2.85,2.85,0,0,1,.87.55l-.36.42A2.1,2.1,0,0,0,46.2,60Z"/><path class="cls-4" d="M48.5,59.33h.61v2.31h3.06V59.33h.61v5.11h-.61V62.17H49.11v2.27H48.5Z"/><path class="cls-4" d="M58.89,58.56a3.2,3.2,0,0,1,1.17,1.14A3.11,3.11,0,0,1,58.89,64a3.36,3.36,0,0,1-1.66.42H54.72V58.15h2.53A3.27,3.27,0,0,1,58.89,58.56Zm-.32,5a2.54,2.54,0,0,0,.94-.93,2.57,2.57,0,0,0,.35-1.31A2.61,2.61,0,0,0,59.51,60a2.57,2.57,0,0,0-.95-.93,2.61,2.61,0,0,0-1.32-.35h-1.9v5.18h1.92A2.56,2.56,0,0,0,58.57,63.54Z"/><path class="cls-4" d="M66,58.56a1.36,1.36,0,0,1,.54,1.15,1.48,1.48,0,0,1-.31.94,1.45,1.45,0,0,1-.87.49,1.68,1.68,0,0,1,1.08.52A1.63,1.63,0,0,1,66.19,64a2.74,2.74,0,0,1-1.67.45H61.85v-6.3h2.64A2.35,2.35,0,0,1,66,58.56Zm-.47,2.07a1,1,0,0,0,.37-.84A1,1,0,0,0,65.5,59a1.67,1.67,0,0,0-1-.28h-2v2.22h2A1.67,1.67,0,0,0,65.5,60.63Zm.22,2.93a1,1,0,0,0,.45-.9,1,1,0,0,0-.45-.88,2.17,2.17,0,0,0-1.26-.31h-2v2.41h2A2.17,2.17,0,0,0,65.72,63.56Z"/></svg>