<svg id="Layer_1" data-name="Layer 1" xmlns="http://www.w3.org/2000/svg" viewBox="0 0 69.19 68"><defs><style>.cls-1{fill:#f17d29;}.cls-2{fill:#606060;}</style></defs><title>elemnts oe</title><path class="cls-1" d="M31.82,36.5c-1.38-.56-2.87-.81-4.23-1.48a16,16,0,0,1-9.11-11.38A15.94,15.94,0,0,1,23,8.24,15.69,15.69,0,0,1,34,3.5c.53,0,.64.16.61.63,0,.62.17,1.36-.11,1.83s-1.14.22-1.74.3a13.87,13.87,0,0,0-3.71,26.45,12.27,12.27,0,0,0,4.84,1.11c.56,0,.75.19.73.74s0,1.29,0,1.94Z"/><path class="cls-1" d="M34.58,22.32c.79-.82,1.47-1.53,2.16-2.23a.71.71,0,0,1,.56-.16H44c.29,0,.53,0,.54.42a10,10,0,0,1-5.74,9.8,10.47,10.47,0,0,1-12.91-3.82A11,11,0,0,1,43.11,12.69c.32.36.28.56,0,.85s-.8,1.14-1.31,1.26-.82-.71-1.25-1.09A8.26,8.26,0,0,0,27,17.5a8.83,8.83,0,0,0,6,10.87,7.24,7.24,0,0,0,8.53-4.89c.28-1,.18-1.11-.84-1.11H35.18C35,22.37,34.9,22.34,34.58,22.32Z"/><path class="cls-1" d="M41.77,6a1.47,1.47,0,0,1-1.43,1.34,1.35,1.35,0,0,1-1.26-1.47,1.28,1.28,0,0,1,1.31-1.24A1.4,1.4,0,0,1,41.77,6Z"/><path class="cls-1" d="M50,25.85a1.31,1.31,0,0,1-1.38,1.34,1.39,1.39,0,0,1-1.31-1.37,1.36,1.36,0,0,1,1.42-1.32A1.26,1.26,0,0,1,50,25.85Z"/><path class="cls-1" d="M46.67,30.78a1.26,1.26,0,0,1-1.31,1.31A1.34,1.34,0,0,1,44,30.75a1.42,1.42,0,0,1,1.41-1.35A1.34,1.34,0,0,1,46.67,30.78Z"/><path class="cls-1" d="M50,14.21a1.25,1.25,0,0,1-1.3,1.32,1.36,1.36,0,0,1-1.38-1.35,1.39,1.39,0,0,1,1.33-1.34A1.31,1.31,0,0,1,50,14.21Z"/><path class="cls-1" d="M46.67,9.23a1.33,1.33,0,0,1-1.31,1.41A1.46,1.46,0,0,1,44,9.25,1.33,1.33,0,0,1,45.34,8,1.23,1.23,0,0,1,46.67,9.23Z"/><path class="cls-1" d="M40.4,35.4a1.32,1.32,0,0,1-1.32-1.31,1.34,1.34,0,0,1,1.34-1.39A1.4,1.4,0,0,1,41.76,34,1.34,1.34,0,0,1,40.4,35.4Z"/><path class="cls-1" d="M49.79,18.68A1.33,1.33,0,0,1,51.15,20a1.38,1.38,0,0,1-1.35,1.39,1.34,1.34,0,1,1,0-2.68Z"/><path class="cls-2" d="M24,61.69h.55V64a3.38,3.38,0,0,1-1.07.6,3.47,3.47,0,0,1-1.23.22,3.25,3.25,0,0,1-1.65-.43,3.34,3.34,0,0,1-1.19-1.17A3.12,3.12,0,0,1,19,61.61a3.08,3.08,0,0,1,.44-1.6,3.34,3.34,0,0,1,1.2-1.16,3.38,3.38,0,0,1,1.66-.42,3.49,3.49,0,0,1,1.24.22,3.43,3.43,0,0,1,1.06.63l-.36.44a2.82,2.82,0,0,0-.89-.55A2.92,2.92,0,0,0,22.3,59a2.61,2.61,0,0,0-1.34.36,2.79,2.79,0,0,0-1,1,2.52,2.52,0,0,0-.36,1.32A2.59,2.59,0,0,0,20,63a2.73,2.73,0,0,0,1,1,2.61,2.61,0,0,0,1.34.36,2.83,2.83,0,0,0,.9-.15A3,3,0,0,0,24,63.7Z"/><path class="cls-2" d="M30.07,64.77l-.57-1.3H26.72l-.56,1.3h-.64l2.29-5.1h.63l2.29,5.1ZM27,63h2.32l-1.16-2.64Z"/><path class="cls-2" d="M31.77,59.67h.61v4.56h2.25v.54H31.77Z"/><path class="cls-2" d="M35.62,59.67h3.52v.52h-2.9v1.73h2.6v.52h-2.6v1.8h3v.53H35.62Z"/><path class="cls-2" d="M43.94,64.77l-1.06-1.64-.33,0H41.2v1.62h-.61v-5.1h2a2.29,2.29,0,0,1,1.5.44,1.56,1.56,0,0,1,.54,1.27,1.76,1.76,0,0,1-.3,1,1.63,1.63,0,0,1-.86.59l1.21,1.75Zm-1.39-2.14a1.66,1.66,0,0,0,1.08-.32A1.13,1.13,0,0,0,44,61.4a1.11,1.11,0,0,0-.37-.9,1.65,1.65,0,0,0-1.08-.31H41.2v2.44Z"/><path class="cls-2" d="M49.81,64.77l-.58-1.3H46.46l-.57,1.3h-.64l2.3-5.1h.63l2.29,5.1ZM46.68,63H49l-1.16-2.64Z"/></svg>