<svg id="Layer_1" data-name="Layer 1" xmlns="http://www.w3.org/2000/svg" viewBox="0 0 69.19 68"><defs><style>.cls-1{fill:#606060;}</style></defs><title>elemnts oe</title><path d="M36.24,24.63l-1.86-1.07a16.2,16.2,0,0,1-1.57,1.19,18.3,18.3,0,0,1-1.88.82v2.16c2.63,1.12,3.8,3,3.3,5.22a4.36,4.36,0,0,1-8.58-.23c-.38-2.14.87-4,3.36-5V25.54c-.19-.07-.4-.15-.63-.22a5.63,5.63,0,0,1-4-5.17A5.42,5.42,0,0,1,28,14.76c.87-.29,1.16-.67,1-1.52a6.16,6.16,0,0,1,0-1.05c-2.64-1.1-3.83-2.94-3.36-5.15a4.36,4.36,0,0,1,8.58.08c.4,2.18-.81,4-3.36,5.06v2.16a18.27,18.27,0,0,1,1.81.78,16.6,16.6,0,0,1,1.66,1.24l1.85-1.07c-.38-2.84.64-4.8,2.85-5.53a4.36,4.36,0,0,1,4.17,7.48c-1.72,1.45-3.93,1.33-6.09-.37l-1.75,1v4.19l1.7,1c2.08-1.83,4.59-1.84,6.39-.13a4.35,4.35,0,0,1-4.57,7.19C36.81,29.32,35.83,27.37,36.24,24.63ZM27.05,19.9a2.92,2.92,0,1,0,3-2.88A2.95,2.95,0,0,0,27.05,19.9ZM32,7.9a2,2,0,1,0-4-.09,2,2,0,0,0,2,2.06A2,2,0,0,0,32,7.9Zm8.54,8a2,2,0,0,0,2-2,2,2,0,1,0-4,.1A2,2,0,0,0,40.5,15.89ZM38.44,26.05a2,2,0,1,0,4-.07,2,2,0,0,0-2-2A2,2,0,0,0,38.44,26.05Zm-8.44,8a2,2,0,0,0-.07-4,2,2,0,0,0,.07,4Z"/><path class="cls-1" d="M27.23,65.77h-.77l-2.38-3.06L22.8,64.1v1.67h-.62v-6.3h.62v3.84l3.49-3.84h.76l-2.53,2.75Z"/><path class="cls-1" d="M32.09,65.77l-.58-1.3H28.74l-.57,1.3h-.64l2.3-5.1h.63l2.28,5.1ZM29,64h2.33l-1.16-2.64Z"/><path class="cls-1" d="M33.79,60.67h3.3v.52H34.4v1.87h2.41v.53H34.4v2.18h-.61Z"/><path class="cls-1" d="M42.52,65.77h-.75L39.9,63.35l-1,1.08v1.34H38.3v-5.1h.61v3l2.73-3h.73l-2,2.21Z"/><path class="cls-1" d="M47.24,65.77l-.57-1.3H43.9l-.57,1.3h-.64L45,60.67h.63l2.29,5.1ZM44.12,64h2.32l-1.16-2.64Z"/></svg>