<svg id="Layer_1" data-name="Layer 1" xmlns="http://www.w3.org/2000/svg" viewBox="0 0 69.19 68"><defs><style>.cls-1{fill:#80c464;}.cls-2{fill:#7bc25c;}.cls-3{fill:#79c25a;}.cls-4{fill:#7ac25a;}.cls-5{fill:#412f1f;}.cls-6{fill:#3f271c;}.cls-7{fill:#3e251b;}.cls-8{fill:#4c9144;}.cls-9{fill:#4f9546;}.cls-10{fill:#5aa84d;}.cls-11{fill:#529849;}.cls-12{fill:#52a549;}.cls-13{fill:#66ad55;}.cls-14{fill:#549a4a;}.cls-15{fill:#6db15b;}.cls-16{fill:#61ab51;}.cls-17{fill:#74b461;}.cls-18{fill:#78b765;}.cls-19{fill:#7db96a;}.cls-20{fill:#82bc70;}.cls-21{fill:#87be75;}.cls-22{fill:#b7b497;}.cls-23{fill:#a6a784;}.cls-24{fill:#c0bda4;}.cls-25{fill:#402f1f;}.cls-26{fill:#d5d2c2;}.cls-27{fill:#606060;}</style></defs><title>elemnts oe</title><path class="cls-1" d="M37.78,2.52h.57a40.84,40.84,0,0,1,6.86,1.18c.73.23,1.44.51,2.17.74,2.4.72,3.5,2.45,3.87,4.83A21.77,21.77,0,0,1,51.43,16c-.08,0-.13-.13-.13-.11.06.21,0,.45.08.65a18.83,18.83,0,0,1-5.06,11.12A30.88,30.88,0,0,1,35.39,35.3a1.64,1.64,0,0,1-1.37.1C28,32.85,23,29.11,19.76,23.29a18.16,18.16,0,0,1-2.12-8.08,20,20,0,0,0,0-3.63,13,13,0,0,1,1.1-4.9,3.52,3.52,0,0,1,1.7-1.62,24.26,24.26,0,0,1,8.63-2.31,12.16,12.16,0,0,1,2.76-.17,43.57,43.57,0,0,0,5.36,0Z"/><path class="cls-2" d="M37.19,2.58a18.51,18.51,0,0,1-5.36,0l2.48-.07Z"/><path class="cls-3" d="M17.64,11.58a8.24,8.24,0,0,1,0,3.63A24.44,24.44,0,0,1,17.64,11.58Z"/><path class="cls-4" d="M51.38,16.56c-.22-.19-.16-.44-.15-.67s.08-.13.15,0a.69.69,0,0,1,0,.17Z"/><path class="cls-5" d="M42,5.46A17.22,17.22,0,0,1,47.1,7,2,2,0,0,1,48.24,8.3a15.68,15.68,0,0,1,.65,4.24,3,3,0,0,0,0,1.52A17.68,17.68,0,0,1,44.42,26a28.32,28.32,0,0,1-9.12,6.71,1.27,1.27,0,0,1-1.18.12c-5-2.36-9.3-5.6-12-10.6a16.62,16.62,0,0,1-1.86-7.75,5.4,5.4,0,0,0,0-2.3,12.22,12.22,0,0,1,.26-2.56A3.34,3.34,0,0,1,23.2,6.47c1.37-.37,2.74-.69,4.13-1a39.63,39.63,0,0,1,9-.62,23.25,23.25,0,0,1,5.12.53c-.09.11-.18.15-.29,0a.2.2,0,0,0,.2.08A1.26,1.26,0,0,0,42,5.46Z"/><path class="cls-6" d="M20.3,12.15a3,3,0,0,1,0,2.3A11.79,11.79,0,0,1,20.3,12.15Z"/><path class="cls-7" d="M48.9,14.06a1.53,1.53,0,0,1,0-1.52C48.9,13.05,48.9,13.55,48.9,14.06Z"/><path class="cls-6" d="M42,5.46c-.19.22-.44.15-.67.14,0,0-.06-.06-.09-.1l.24-.1Z"/><path class="cls-8" d="M40.24,21.73A10.8,10.8,0,0,1,36.52,27c-.35.28-.68.58-1,.86a1.28,1.28,0,0,1-.64-.75,6.07,6.07,0,0,1-.42-1.57,3.69,3.69,0,0,1,0-.47,14.39,14.39,0,0,1,.18-3.21c0-.31-.16-.63.06-.93,1.52-.46,3.12-.48,4.68-.8.84-.17,1,.15.89,1C40.22,21.36,40.13,21.55,40.24,21.73Z"/><path class="cls-9" d="M40.24,21.73c-.05-.08-.13-.15-.14-.24-.1-1.27-.23-1.36-1.55-1a14.65,14.65,0,0,1-3.84.48,31.73,31.73,0,0,1,0-5.6c.27-.38.44-.12.52.13.18.56.57.55,1.06.49a37.62,37.62,0,0,1,4-.42A10.48,10.48,0,0,1,40.24,21.73Z"/><path class="cls-10" d="M28.76,15.8a4.1,4.1,0,0,1,.55-1.93c.56,0,.59.5.72.86,1.18,3.17,2.43,6.32,3.55,9.52a11.86,11.86,0,0,1,1,2.58c0,.42,0,.89-.49,1.07a6.59,6.59,0,0,1-1.34-1.13c-1.38-3.34-2.6-6.74-3.87-10.12A6.18,6.18,0,0,1,28.76,15.8Z"/><path class="cls-11" d="M40.29,15.58c-.26.59-.84.27-1.23.34-1.05.19-2.13.22-3.19.45s-.59-.82-1-1.15A2.84,2.84,0,0,1,34.77,13,1.65,1.65,0,0,1,36,12.45a12.5,12.5,0,0,1,2.72-.34A8.67,8.67,0,0,1,40.29,15.58Z"/><path class="cls-12" d="M28.76,15.8l2.52,6.56c.49,1.3,1,2.61,1.46,3.91.06.17.23.34,0,.5A11,11,0,0,1,28.57,20c-.05-.21,0-.44-.19-.63a4,4,0,0,1,0-2C28.72,16.9,28.4,16.27,28.76,15.8Z"/><path class="cls-13" d="M34.89,21.75a19,19,0,0,0-.19,3.45c-.49,0-.53-.4-.64-.7-1.3-3.62-2.75-7.19-4.11-10.79a1.41,1.41,0,0,1-.05-1.19,2.61,2.61,0,0,1,.76-1.35c.81,2,1.53,4.11,2.34,6.15.52,1.3,1,2.6,1.48,3.94A.72.72,0,0,0,34.89,21.75Z"/><path class="cls-14" d="M38.76,12.11a21,21,0,0,1-3.86.81c-.39-.39-.18-.95-.4-1.39a2.15,2.15,0,0,1,0-.34c0-1-.06-2,0-3a1.39,1.39,0,0,1,.29-1.07c.94,1.52,2.51,2.49,3.51,4A2.92,2.92,0,0,1,38.76,12.11Z"/><path class="cls-15" d="M34.71,11.56c.35.41.11.91.19,1.36v2.3c0,1.55,0,3.1,0,4.66a2.08,2.08,0,0,1-.19,1.1l.18.77c-.18.09-.37.52-.54,0-1-3.25-2.43-6.35-3.57-9.55a4.15,4.15,0,0,1-.12-1,1.76,1.76,0,0,1,.57-.8,27.06,27.06,0,0,1,1.59,4c.59,1.44,1.1,2.9,1.66,4.32,0-.35,0-.72,0-1.1,0-.54,0-1.08,0-1.62,0-.75,0-1.51,0-2.27S34.21,12.21,34.71,11.56Z"/><path class="cls-16" d="M29.9,12.52a20.59,20.59,0,0,0,1.49,4.36c.81,1.95,1.48,3.94,2.29,5.89a10.18,10.18,0,0,0,1,2.43v.42c-.34.31.36.95-.36,1.14L32.93,23l-3.12-8.28a1.8,1.8,0,0,0-.5-.89A1.73,1.73,0,0,1,29.9,12.52Z"/><path class="cls-17" d="M34.7,17.72v1.56l-.21,0c-.43-1.07-.86-2.14-1.27-3.22-.61-1.62-1.21-3.26-1.8-4.89a7.18,7.18,0,0,1-.19-.83,1.66,1.66,0,0,1,.59-.72,6,6,0,0,1,1.12,2.49A24.8,24.8,0,0,1,34.7,17.72Z"/><path class="cls-18" d="M34.7,17.72,31.82,9.65a1.64,1.64,0,0,1,.57-.6A23.64,23.64,0,0,1,34.7,16Z"/><path class="cls-19" d="M34.7,16a56.65,56.65,0,0,0-2.17-6.1,3.28,3.28,0,0,1-.14-.84A1.15,1.15,0,0,1,33,8.51a16.58,16.58,0,0,1,1.72,5.17Z"/><path class="cls-20" d="M34.7,13.68c-.42-1.77-1.45-3.35-1.72-5.17a.87.87,0,0,1,.56-.43,7.18,7.18,0,0,1,1.15,3.29l0,.19C34.71,12.27,34.7,13,34.7,13.68Z"/><path class="cls-21" d="M34.69,11.37,33.54,8.08c.22-.38.65-.57.83-1,.1-.22.24-.08.33.07C34.69,8.56,34.69,10,34.69,11.37Z"/><path class="cls-22" d="M35.07,27.14c.14.25.44.4.44.73a4.08,4.08,0,0,0-.27,1.95c0,.32.23.69-.15.95a1,1,0,0,1-.17-.25,3.45,3.45,0,0,1-.08-1.06c0-.31.13-.6.17-.86-.18.17,0,.75-.54.66-.23-.28-.11-.62-.19-.93C34.4,27.84,34.46,27.31,35.07,27.14Z"/><path class="cls-23" d="M35.07,27.14c-.37.32-.36.91-.79,1.19-.07-.14-.13-.28-.2-.43a1.75,1.75,0,0,0,.25-1.14c.37-.3,0-.85.36-1.14C34.82,26.12,34.94,26.63,35.07,27.14Z"/><path class="cls-24" d="M35.09,30.59v.18c-1.14-.13-.41-1-.62-1.51.34-.15.29-.58.6-.84v1C35,29.84,34.75,30.22,35.09,30.59Z"/><path class="cls-25" d="M28.38,17.37v2c0,.13,0,.25,0,.38h-.09V17C28.44,17.05,28.33,17.24,28.38,17.37Z"/><path class="cls-26" d="M35.09,30.59c-.8-.36-.1-.75,0-1.13C35.07,29.84,35.08,30.21,35.09,30.59Z"/><path class="cls-27" d="M12.26,57.8H13l2.47,4.73,2.43-4.73h.78v6.3h-.58V58.67l-2.46,4.76h-.34l-2.48-4.76V64.1h-.58Z"/><path class="cls-27" d="M24.22,59.3a2.68,2.68,0,0,1,1,.94,2.45,2.45,0,0,1,.36,1.3,2.52,2.52,0,0,1-.36,1.32,2.7,2.7,0,0,1-2.33,1.3,2.75,2.75,0,0,1-1.36-.35,2.68,2.68,0,0,1-1-1,2.58,2.58,0,0,1,0-2.63,2.63,2.63,0,0,1,1-.93A2.75,2.75,0,0,1,22.87,59,2.71,2.71,0,0,1,24.22,59.3Zm-2.38.47a2.07,2.07,0,0,0-.76.74,1.94,1.94,0,0,0-.28,1,2,2,0,0,0,.28,1,2.18,2.18,0,0,0,.76.75,2.05,2.05,0,0,0,2.07,0,2.24,2.24,0,0,0,.75-.75,2.08,2.08,0,0,0,.28-1,2,2,0,0,0-.28-1,2.13,2.13,0,0,0-.75-.74,2.12,2.12,0,0,0-2.07,0Z"/><path class="cls-27" d="M27,59h.61l3.09,4.18V59h.59v5.1h-.61l-3.09-4.16V64.1H27Z"/><path class="cls-27" d="M36.75,61.58h.53v1.9a2.78,2.78,0,0,1-.88.49,2.83,2.83,0,0,1-1,.19A2.66,2.66,0,0,1,34,63.81a2.71,2.71,0,0,1-1-1,2.52,2.52,0,0,1-.36-1.32,2.45,2.45,0,0,1,.36-1.3,2.63,2.63,0,0,1,1-.94,2.89,2.89,0,0,1,2.39-.15,2.7,2.7,0,0,1,.87.51l-.35.43a2.51,2.51,0,0,0-.71-.45,2.4,2.4,0,0,0-.84-.15,2.1,2.1,0,0,0-1,.27,2,2,0,0,0-.77.75,2,2,0,0,0-.27,1,2,2,0,0,0,.28,1,2.13,2.13,0,0,0,.76.76,2,2,0,0,0,1,.28,2.09,2.09,0,0,0,.69-.12,2.62,2.62,0,0,0,.65-.32Z"/><path class="cls-27" d="M42.5,59.3a2.68,2.68,0,0,1,1,.94,2.45,2.45,0,0,1,.36,1.3,2.52,2.52,0,0,1-.36,1.32,2.74,2.74,0,0,1-4.67,0,2.65,2.65,0,0,1,0-2.63,2.65,2.65,0,0,1,1-.93,2.87,2.87,0,0,1,2.71,0Zm-2.38.47a2.07,2.07,0,0,0-.76.74,1.94,1.94,0,0,0-.28,1,2,2,0,0,0,.28,1,2.18,2.18,0,0,0,.76.75,2.05,2.05,0,0,0,2.07,0,2.24,2.24,0,0,0,.75-.75,2.08,2.08,0,0,0,.28-1,2,2,0,0,0-.28-1,2.13,2.13,0,0,0-.75-.74,2.12,2.12,0,0,0-2.07,0Z"/><path class="cls-27" d="M49.48,58.23a3,3,0,0,1,1.17,1.14A3.1,3.1,0,0,1,51.07,61a3,3,0,0,1-1.6,2.73,3.32,3.32,0,0,1-1.66.41H45.3V57.81h2.53A3.32,3.32,0,0,1,49.48,58.23Zm-.32,5a2.47,2.47,0,0,0,.94-.93A2.54,2.54,0,0,0,50.44,61a2.45,2.45,0,0,0-.35-1.31,2.52,2.52,0,0,0-1-.94,2.7,2.7,0,0,0-1.32-.34h-1.9v5.18h1.93A2.6,2.6,0,0,0,49.16,63.2Z"/><path class="cls-27" d="M56.56,58.22a1.38,1.38,0,0,1,.53,1.16,1.38,1.38,0,0,1-1.17,1.43,1.72,1.72,0,0,1,1.08.51,1.57,1.57,0,0,1,.38,1.07,1.48,1.48,0,0,1-.6,1.26,2.75,2.75,0,0,1-1.68.45H52.44V57.8h2.64A2.35,2.35,0,0,1,56.56,58.22Zm-.47,2.07a1,1,0,0,0,.37-.83,1,1,0,0,0-.37-.81,1.61,1.61,0,0,0-1-.28h-2v2.21h2A1.61,1.61,0,0,0,56.09,60.29Zm.22,2.94a1.07,1.07,0,0,0,.44-.9,1,1,0,0,0-.45-.88,2.16,2.16,0,0,0-1.25-.32h-2v2.42h2A2.17,2.17,0,0,0,56.31,63.23Z"/></svg>