<svg id="Layer_1" data-name="Layer 1" xmlns="http://www.w3.org/2000/svg" viewBox="0 0 69.19 68"><defs><style>.cls-1{fill:#fe6601;}.cls-2{fill:#606060;}</style></defs><title>elemnts oe</title><path class="cls-1" d="M49.45,35.77c-.35,0-.7.08-1.05.08H20.8c-.35,0-.7-.05-1.05-.08l-.25-.11h0c0-.12-.06-.17-.18-.1a.13.13,0,0,1-.11-.11c.08-.13,0-.16-.1-.11a.11.11,0,0,1-.06-.07c.07-.12,0-.2-.09-.25a1.91,1.91,0,0,1-.11-1q0-14.73,0-29.45a1.8,1.8,0,0,1,.28-1.37l.18-.23,0,0,0-.05.23-.15h0a.36.36,0,0,0,.41-.17,28.61,28.61,0,0,1,4.14-.05c1,0,1.42.58,1.42,1.68,0,3.34,0,6.69,0,10,0,1.37.24,1.61,1.63,1.61.84,0,1.67,0,2.51,0,1,0,1.31-.33,1.31-1.33q0-5,0-9.93c0-1.64.42-2.06,2-2.07,1,0,1.92,0,2.89,0,1.27,0,1.78.55,1.78,1.84q0,5,0,10a1.49,1.49,0,0,0,.41,1.32l.27.15,10.91,0a.34.34,0,0,0,.43.15c0,.12.09.16.21.1s.08,0,.08.08,0,.18.12.18v0a2,2,0,0,1,.13.25,1.17,1.17,0,0,1,.13.74V34.26a1.28,1.28,0,0,1-.11.75c-.11.05-.16.13-.09.24a.12.12,0,0,1-.06.08c-.13,0-.18,0-.1.11a.13.13,0,0,1-.11.11c-.12-.07-.17,0-.18.1h0Zm-11.66-10C37.79,28.87,38,29,41,29h.1c2.84,0,3.1-.26,3.1-3.14s-.23-3.22-3.2-3.22S37.79,22.87,37.79,25.81Z"/><path class="cls-2" d="M16.92,65.1l-1.36-2-.44,0H13.39v2h-.62V58.81h2.35a2.71,2.71,0,0,1,1.82.55,1.9,1.9,0,0,1,.64,1.54,2.2,2.2,0,0,1-.37,1.31,2.09,2.09,0,0,1-1.08.73l1.51,2.16Zm-1.8-2.59a2,2,0,0,0,1.38-.41A1.43,1.43,0,0,0,17,60.92a1.37,1.37,0,0,0-.49-1.15,2.08,2.08,0,0,0-1.38-.4H13.39v3.14Z"/><path class="cls-2" d="M22.94,65.1l-.58-1.3H19.59L19,65.1h-.64l2.3-5.1h.63l2.29,5.1Zm-3.12-1.81h2.32L21,60.64Z"/><path class="cls-2" d="M28.06,60.34a1.09,1.09,0,0,1,.45.93,1.16,1.16,0,0,1-.25.76,1.22,1.22,0,0,1-.7.4,1.38,1.38,0,0,1,.87.42,1.2,1.2,0,0,1,.31.87,1.19,1.19,0,0,1-.5,1,2.3,2.3,0,0,1-1.37.36H24.64V60h2.2A1.92,1.92,0,0,1,28.06,60.34ZM27.61,62a.86.86,0,0,0,0-1.27,1.35,1.35,0,0,0-.81-.22H25.25v1.71H26.8A1.28,1.28,0,0,0,27.61,62Zm.17,2.33a.79.79,0,0,0,.34-.69.75.75,0,0,0-.34-.67,1.73,1.73,0,0,0-1-.24H25.25v1.84H26.8A1.73,1.73,0,0,0,27.78,64.34Z"/><path class="cls-2" d="M33.71,60.34a1.1,1.1,0,0,1,.44.93,1.21,1.21,0,0,1-.24.76,1.25,1.25,0,0,1-.7.4,1.38,1.38,0,0,1,.86.42,1.31,1.31,0,0,1-.18,1.89,2.33,2.33,0,0,1-1.38.36H30.28V60h2.2A2,2,0,0,1,33.71,60.34ZM33.25,62a.86.86,0,0,0,0-1.27,1.35,1.35,0,0,0-.81-.22H30.89v1.71h1.55A1.28,1.28,0,0,0,33.25,62Zm.17,2.33a.79.79,0,0,0,.35-.69.76.76,0,0,0-.35-.67,1.71,1.71,0,0,0-1-.24H30.89v1.84h1.55A1.71,1.71,0,0,0,33.42,64.34Z"/><path class="cls-2" d="M35.92,60h.62v5.1h-.62Z"/><path class="cls-2" d="M37.53,60h4v.53H39.81V65.1H39.2V60.53H37.53Z"/><path class="cls-2" d="M42.52,58.8h.78l2.46,4.73L48.2,58.8H49v6.3H48.4V59.67l-2.47,4.76h-.34l-2.47-4.76V65.1h-.59Z"/><path class="cls-2" d="M57.28,65.66a2.72,2.72,0,0,1-.77.51,2,2,0,0,1-.8.19,2.55,2.55,0,0,1-2-1.2h-.12A3.33,3.33,0,0,1,52,64.73a3.36,3.36,0,0,1-1.2-1.17,3.15,3.15,0,0,1-.44-1.62,3.08,3.08,0,0,1,.44-1.6A3.31,3.31,0,0,1,52,59.19a3.33,3.33,0,0,1,4.49,1.15,3,3,0,0,1,.44,1.6,3,3,0,0,1-.32,1.4,3.22,3.22,0,0,1-.89,1.11,3.36,3.36,0,0,1-1.29.62,2,2,0,0,0,1.36.75A1.94,1.94,0,0,0,57,65.23Zm-6-2.38a2.58,2.58,0,0,0,1,1,2.62,2.62,0,0,0,2.65,0,2.65,2.65,0,0,0,1.32-2.3,2.52,2.52,0,0,0-.36-1.32,2.65,2.65,0,0,0-1-.95,2.68,2.68,0,0,0-2.65,0,2.63,2.63,0,0,0-1,.95A2.52,2.52,0,0,0,51,61.94,2.59,2.59,0,0,0,51.33,63.28Z"/></svg>