<svg id="Layer_1" data-name="Layer 1" xmlns="http://www.w3.org/2000/svg" viewBox="0 0 69.19 68"><defs><style>.cls-1{fill:#d73028;}.cls-2{fill:#a42122;}.cls-3{fill:#a42223;}.cls-4{fill:#d62f27;}.cls-5{fill:#7a1514;}.cls-6{fill:#fefdfd;}.cls-7{fill:#606060;}</style></defs><title>elemnts oe</title><path class="cls-1" d="M15.35,10.57c-.19-.79.4-1,.93-1.25,1.52-.64,3-1.24,4.59-1.84,3.64-1.41,7.31-2.77,10.93-4.24a8.62,8.62,0,0,1,7,0c4.43,1.88,8.94,3.58,13.43,5.33a3.58,3.58,0,0,1,1.38.75.81.81,0,0,1,.24.84c-1.22.59-2.4,1.26-3.65,1.82-4.35,1.95-8.81,3.68-13.1,5.79a5.41,5.41,0,0,1-4.91.26c-3.1-1.42-6.28-2.66-9.42-4a48.35,48.35,0,0,1-7.25-3.31ZM43.8,11.78l4.82-1.87V9.69l-5-1.93L37.7,10c1.73.67,3.21,1.21,4.65,1.83A1.35,1.35,0,0,0,43.8,11.78Zm-11-7.17c0-.13-.16-.21-.22-.15s.08.18.15.26c.77,1.51.43,1.29-.76,1.76l-1.21.44A13.16,13.16,0,0,0,33,7.24a2,2,0,0,1,2,1.3,1.24,1.24,0,0,0,.62.74,1.82,1.82,0,0,1,1.75-1.81,10.77,10.77,0,0,0,2.07-.3l-.91-.34c-1.46-.56-1.46-.56-.94-2,0,0,0-.09-.11-.24a4.13,4.13,0,0,1-4.47,0C33,4.58,32.88,4.61,32.79,4.61Zm-7.5,7.3a4.2,4.2,0,0,0,2.8,0,14.66,14.66,0,0,0,2.24-.64c.52-.27,1.11-.52,1.12-1.2s-.58-1-1.12-1.2a10.3,10.3,0,0,0-5.47-.51,5.17,5.17,0,0,0-2.28.78c-.84.55-.85,1.15-.09,1.81S24.36,11.57,25.29,11.91Zm4.09,1.42v.17l5.55,2.29c.18.08.36.24.53,0L38.06,12Z"/><path class="cls-2" d="M53.85,16.8c0,1,0,2,0,3S53,21,52.4,21.51c-5.06,2.31-10.26,4.31-15.27,6.75a5.41,5.41,0,0,1-4.91.26c-3-1.36-6.08-2.57-9.12-3.85C21,23.76,18.78,23,16.73,21.9c-.56-.23-1.14-.43-1.37-1.08.36-1.14.05-2.32.16-3.47a19.25,19.25,0,0,0,2.79,1.42c4.54,1.9,9.09,3.79,13.61,5.74a5,5,0,0,0,4.35.23c2.89-1.41,5.87-2.63,8.81-3.94S51,18.35,53.85,16.8Z"/><path class="cls-3" d="M53.85,22.93c0,1.1,0,2.2,0,3.31,0,.59-.36.88-.78,1.16A22,22,0,0,1,49.84,29C45.45,31,41,32.71,36.66,34.82a5.23,5.23,0,0,1-4.6,0c-4.86-2.1-9.75-4.11-14.62-6.19a3.82,3.82,0,0,1-2.06-1.35,19.5,19.5,0,0,0,.16-3.5,54.8,54.8,0,0,0,5.85,2.64c3.46,1.47,7,2.86,10.4,4.4a5.63,5.63,0,0,0,5.16,0c4.17-2.08,8.54-3.74,12.79-5.65A13.43,13.43,0,0,0,53.85,22.93Z"/><path class="cls-2" d="M15.52,10.72A48.35,48.35,0,0,0,22.77,14c3.14,1.35,6.32,2.59,9.42,4a5.41,5.41,0,0,0,4.91-.26c4.29-2.11,8.75-3.84,13.1-5.79,1.25-.56,2.43-1.23,3.65-1.82,0,.76,0,1.51,0,2.27,0,1.62-.13,1.81-1.71,2.48a12.74,12.74,0,0,1-1.15.62c-4.77,2.11-9.62,4-14.32,6.31a5.08,5.08,0,0,1-4.45.1q-3.55-1.53-7.12-3c-2.7-1.13-5.41-2.23-8.11-3.35-.48-.4-1.16-.55-1.52-1.11C15.5,13.21,15.51,12,15.52,10.72Z"/><path class="cls-4" d="M17,15.57c2.7,1.12,5.41,2.22,8.11,3.35q3.57,1.5,7.12,3a5.08,5.08,0,0,0,4.45-.1c4.7-2.28,9.55-4.2,14.32-6.31a12.74,12.74,0,0,0,1.15-.62c.27.57,1,.42,1.37.92a1.06,1.06,0,0,1,.31,1c-2.82,1.55-5.83,2.7-8.77,4s-5.92,2.53-8.81,3.94a5,5,0,0,1-4.35-.23c-4.52-2-9.07-3.84-13.61-5.74a19.25,19.25,0,0,1-2.79-1.42l-.17-.15c-.18-.66.23-1,.73-1.2Z"/><path class="cls-4" d="M53.85,22.93a13.43,13.43,0,0,1-4.11,2.22C45.49,27.06,41.12,28.72,37,30.8a5.63,5.63,0,0,1-5.16,0c-3.44-1.54-6.94-2.93-10.4-4.4a54.8,54.8,0,0,1-5.85-2.64.38.38,0,0,0-.2-.33c-.15-.53.23-.75.57-1s.67-.17.82-.54C18.78,23,21,23.76,23.1,24.67c3,1.28,6.12,2.49,9.12,3.85a5.41,5.41,0,0,0,4.91-.26c5-2.44,10.21-4.44,15.27-6.75C52.94,21.92,54,21.86,53.85,22.93Z"/><path class="cls-5" d="M15.52,10.72c0,1.25,0,2.49,0,3.74a8.4,8.4,0,0,1-.17-2.78,10.28,10.28,0,0,1,0-1.11Z"/><path class="cls-2" d="M15.34,23.45a.38.38,0,0,1,.2.33,19.5,19.5,0,0,1-.16,3.5A30.58,30.58,0,0,1,15.34,23.45Z"/><path class="cls-5" d="M15.35,17.2l.17.15c-.11,1.15.2,2.33-.16,3.47C15.36,19.61,15.35,18.4,15.35,17.2Z"/><path class="cls-6" d="M25.29,11.91c-.93-.34-2-.26-2.8-.95s-.75-1.26.09-1.81a5.17,5.17,0,0,1,2.28-.78,10.3,10.3,0,0,1,5.47.51c.54.23,1.12.51,1.12,1.2s-.6.93-1.12,1.2a14.66,14.66,0,0,1-2.24.64Z"/><path class="cls-6" d="M29.38,13.33,38.06,12l-2.59,3.78c-.17.25-.35.09-.53,0L29.39,13.5Z"/><path class="cls-6" d="M32.79,4.61c.09,0,.2,0,.26,0a4.13,4.13,0,0,0,4.47,0c.07.15.12.21.11.24-.52,1.44-.52,1.44.94,2l.91.34a10.77,10.77,0,0,1-2.07.3,1.82,1.82,0,0,0-1.75,1.81A1.24,1.24,0,0,1,35,8.54a2,2,0,0,0-2-1.3,13.16,13.16,0,0,1-2.28-.32L32,6.48c1.19-.47,1.53-.25.76-1.76A.41.41,0,0,0,32.79,4.61Z"/><path class="cls-3" d="M43.8,11.78a1.35,1.35,0,0,1-1.45.08c-1.44-.62-2.92-1.16-4.65-1.83l5.92-2.27c0,.61,0,1.22,0,1.82S43.4,11.08,43.8,11.78Z"/><path class="cls-5" d="M43.8,11.78c-.4-.7-.12-1.46-.18-2.2s0-1.21,0-1.82l5,1.93v.22Z"/><path class="cls-4" d="M25.29,11.91h2.8A4.2,4.2,0,0,1,25.29,11.91Z"/><path class="cls-6" d="M32.72,4.72c-.07-.08-.3-.09-.15-.26s.19,0,.22.15A.41.41,0,0,1,32.72,4.72Z"/><path class="cls-7" d="M27.3,65.44l-1.35-2H23.78v2h-.63V59.15H25.5a2.77,2.77,0,0,1,1.83.54A1.9,1.9,0,0,1,28,61.23a2.18,2.18,0,0,1-.38,1.31,2,2,0,0,1-1.08.73L28,65.44Zm-1.8-2.59a2.11,2.11,0,0,0,1.39-.41,1.49,1.49,0,0,0,.49-1.19,1.41,1.41,0,0,0-.49-1.15,2.17,2.17,0,0,0-1.39-.4H23.78v3.15Z"/><path class="cls-7" d="M29.62,60.33h3.52v.53H30.23v1.72h2.6v.53h-2.6v1.8h3v.53H29.62Z"/><path class="cls-7" d="M38,60.67a2.52,2.52,0,0,1,.95.91,2.57,2.57,0,0,1,.35,1.31,2.53,2.53,0,0,1-.35,1.3,2.5,2.5,0,0,1-1,.91,2.69,2.69,0,0,1-1.36.34H34.58V60.33h2.09A2.83,2.83,0,0,1,38,60.67Zm-.32,4a2,2,0,0,0,.73-.73,2,2,0,0,0,.27-1,2.06,2.06,0,0,0-.27-1,2,2,0,0,0-.74-.73,2,2,0,0,0-1-.26H35.2v4h1.49A2,2,0,0,0,37.71,64.64Z"/><path class="cls-7" d="M40.76,60.33h.61v5.11h-.61Z"/><path class="cls-7" d="M45.45,60.93a2.8,2.8,0,0,0-.71-.11,1.41,1.41,0,0,0-.8.2.61.61,0,0,0-.3.53.73.73,0,0,0,.17.49,1.26,1.26,0,0,0,.42.29q.26.11.69.24c.36.11.64.22.86.31a1.49,1.49,0,0,1,.54.43A1.31,1.31,0,0,1,46,65.1a2.21,2.21,0,0,1-1.36.38,2.91,2.91,0,0,1-1.07-.21,3.1,3.1,0,0,1-.91-.56l.27-.5a2.47,2.47,0,0,0,.81.53,2.4,2.4,0,0,0,.91.19,1.56,1.56,0,0,0,.89-.22.68.68,0,0,0,.32-.6.71.71,0,0,0-.17-.49,1.22,1.22,0,0,0-.43-.31,4.27,4.27,0,0,0-.7-.24,6.76,6.76,0,0,1-.84-.31,1.37,1.37,0,0,1-.54-.42,1.18,1.18,0,0,1-.23-.75,1.1,1.1,0,0,1,.5-1,2.15,2.15,0,0,1,1.3-.36,3.15,3.15,0,0,1,.87.12,2.65,2.65,0,0,1,.76.34l-.24.51A2.92,2.92,0,0,0,45.45,60.93Z"/></svg>